<svg xmlns="http://www.w3.org/2000/svg" xmlns:xlink="http://www.w3.org/1999/xlink" width="1231.456" height="626.511" viewBox="0 0 1231.456 626.511"><defs><clipPath id="a"><rect width="1231.456" height="626.511" transform="translate(-31)" fill="none"/></clipPath></defs><g transform="translate(31)" clip-path="url(#a)"><path d="M69.363,138.746c-17.3,82.023-54.142,249.474-68.974,328A22.34,22.34,0,0,0,18.444,492.78a22.955,22.955,0,0,0,2.826.341c257,15.14,648.006,49.443,917.227,61.2A30.763,30.763,0,0,0,970.043,530.1c26.005-123.331,96.119-451.047,104.029-493.357,3.821-20.425-7.655-36.081-28.663-36.73C1012.669-1,363.464,81.4,96.092,114.4a31.079,31.079,0,0,0-26.729,24.345" transform="translate(43 32.163)" fill="#fff" stroke="#e7372f" stroke-width="20"/></g></svg>