<svg xmlns="http://www.w3.org/2000/svg" width="100" height="100" viewBox="0 0 100 100"><g transform="translate(-9)"><rect width="100" height="100" rx="50" transform="translate(9)" fill="#e7372f"/><path d="M596.347,177.223A22,22,0,0,0,578.373,211.9c4.416,7.68,15.688,20.873,16.649,21.6a2.786,2.786,0,0,0,2.819,0c1.024-.777,13.74-15.689,17.419-23.024.015-.03.028-.063.043-.093a22,22,0,0,0-18.956-33.166Zm0,31.14a9.139,9.139,0,1,1,9.139-9.139A9.139,9.139,0,0,1,596.347,208.363Z" transform="translate(-537.348 -155.287)" fill="#fff"/></g></svg>