<svg xmlns="http://www.w3.org/2000/svg" xmlns:xlink="http://www.w3.org/1999/xlink" width="73.86" height="38" viewBox="0 0 73.86 38">
  <defs>
    <clipPath id="clip-path">
      <rect id="長方形_5376" data-name="長方形 5376" width="73.86" height="38" transform="translate(1550 62)" fill="#fff" stroke="#707070" stroke-width="1"/>
    </clipPath>
  </defs>
  <g id="h_icon_shop_txt" transform="translate(-1550 -62)" clip-path="url(#clip-path)">
    <g id="h_icon_shop_txt-2" data-name="h_icon_shop_txt" transform="translate(7.625 0.6)">
      <path id="ショップ" d="M-25.478-1.486a.386.386,0,0,0,.032.145l.533,1.163c.1.194.226.549.4.549a.214.214,0,0,0,.161-.1.892.892,0,0,1,.613-.468,15.54,15.54,0,0,0,5.521-3.263,14.263,14.263,0,0,0,2.986-4.571c.016-.065.065-.145.1-.258a3.525,3.525,0,0,0,.21-.63c0-.323-.969-1.211-1.211-1.211-.21,0-.274.226-.339.388a13.553,13.553,0,0,1-2.76,4.878,10.91,10.91,0,0,1-4.02,2.536,19.186,19.186,0,0,1-1.921.646C-25.268-1.648-25.478-1.616-25.478-1.486Zm-1.146-5.879c0,.145.161.21.274.275A28.629,28.629,0,0,1-23.783-5.46a.877.877,0,0,0,.371.178c.323,0,.969-.953.969-1.244,0-.258-.823-.711-1.259-.969a14.123,14.123,0,0,0-2-1.114C-26.011-8.609-26.624-7.624-26.624-7.366Zm4.31-3.909a6.729,6.729,0,0,0-1.4-.824c-.291,0-.985.888-.985,1.114,0,.145.161.242.274.307a24.548,24.548,0,0,1,2.373,1.712.813.813,0,0,0,.4.21c.291,0,.969-.9.969-1.2a.378.378,0,0,0-.178-.275c-.291-.242-.872-.646-1.211-.888C-22.12-11.145-22.2-11.21-22.314-11.274Zm14.093,2.7c-.533,0-1.291-.032-1.6-.032-.387,0-.355.323-.355.791,0,.452.016.711.387.711.4,0,1.1-.032,1.582-.032H-4.3a.379.379,0,0,1,.371.388v1.018a.365.365,0,0,1-.371.371H-8.092c-.565,0-1.243-.032-1.6-.032-.387,0-.355.307-.355.614,0,.533-.032.872.355.872.339,0,1.049-.032,1.614-.032H-4.3a.376.376,0,0,1,.371.371v1.018a.365.365,0,0,1-.371.371H-8.237c-.581,0-1.324-.032-1.614-.032-.371,0-.355.339-.355.63,0,.6,0,.872.387.872.371,0,1.033-.016,1.6-.016h3.794c.339,0,.468,0,.5.178.081.323.161.355.807.355.565,0,.71-.032.71-.549,0-.339-.016-.695-.016-1.034V-6.752c0-.371.016-.695.016-.937,0-.662-.113-.9-.888-.9-.323,0-.646.016-.952.016Zm18.532-.048c-.178,0-.194.178-.21.323A9.375,9.375,0,0,1,8.778-4.636a7.88,7.88,0,0,1-5,3.408c-.161.048-.258.113-.258.291,0,.226.6,1.114.9,1.114a2.852,2.852,0,0,0,.5-.129A9.218,9.218,0,0,0,9.31-2.762a12.073,12.073,0,0,0,2.212-4.522c.065-.194.081-.242.21-.339.081-.065.194-.129.194-.242,0-.162-.161-.242-.291-.291A10.953,10.953,0,0,0,10.311-8.625Zm-2.857.581c-.274-.452-.581-.9-.807-.9-.21,0-1.082.4-1.082.678a.545.545,0,0,0,.145.323A17.4,17.4,0,0,1,6.84-6.041c.065.129.161.307.323.307.226,0,1.162-.42,1.162-.743A6.37,6.37,0,0,0,7.6-7.8Zm-4.084,0c-.21,0-1.082.4-1.082.695a.6.6,0,0,0,.129.291A15.975,15.975,0,0,1,3.58-5.1c.065.129.145.275.307.275.194,0,1.162-.4,1.162-.743a5.877,5.877,0,0,0-.694-1.276c-.161-.258-.533-.84-.71-1.05A.359.359,0,0,0,3.37-8.044Zm15.094-2.778c-.694,0-1.388-.032-2.082-.032-.468,0-.452.178-.452.921,0,.727,0,.872.484.872.678,0,1.34-.032,2.018-.032h5.747c.291,0,.565.032.565.339a3.907,3.907,0,0,1-.048.4,7.6,7.6,0,0,1-2.631,4.7,11.5,11.5,0,0,1-4.02,2.132c-.145.032-.291.081-.291.258,0,.258.565,1.341.952,1.341a1.978,1.978,0,0,0,.533-.129,15.076,15.076,0,0,0,3.1-1.664,9.769,9.769,0,0,0,4.278-6.945c.113-.63.242-.791.242-.937,0-.21-.4-.6-.549-.743-.21-.21-.452-.517-.775-.517-.145,0-.533.032-.807.032Zm9.3-2.051a.868.868,0,0,1,.872.872.855.855,0,0,1-.872.856A.851.851,0,0,1,26.906-12,.865.865,0,0,1,27.762-12.873Zm0-.727a1.592,1.592,0,0,0-1.6,1.6,1.592,1.592,0,0,0,1.6,1.6A1.606,1.606,0,0,0,29.376-12,1.606,1.606,0,0,0,27.762-13.6Z" transform="translate(1578 76)" fill="#222" stroke="#222" stroke-linecap="round" stroke-linejoin="round" stroke-width="0.5"/>
      <path id="検索" d="M-5.832,9.047c.339.42.694.808,1.065,1.2a.175.175,0,0,1,.065.145.157.157,0,0,1-.178.162c-.178.016-.355.016-.533.016H-6.7c-.194,0-.371,0-.549-.016a.157.157,0,0,1-.178-.162.207.207,0,0,1,.065-.162c.355-.388.694-.759,1.017-1.179A.356.356,0,0,1-6.09,8.9.329.329,0,0,1-5.832,9.047Zm.888,6.4c-.226,0-.387-.1-.387-.355v-.065c.016-.162.032-.323.032-.468.032-.323.145-.452.468-.452h.694c.323,0,.452.129.452.452v.436c0,.323-.129.452-.452.452Zm-1.921-.42c-.065.323-.21.42-.533.42h-.565c-.323,0-.452-.129-.452-.452v-.436c0-.323.129-.452.452-.452h.71c.307,0,.42.129.436.436Zm-4.891-.6c.129.21.759,1.292.985,1.292s.775-.824.775-1.066a.444.444,0,0,0-.129-.242,14.814,14.814,0,0,1-1.776-2.6.421.421,0,0,1-.065-.242c.016-.291.145-.388.42-.4.129,0,.258.016.4.016.129.016.161.162.194.275.048.275.662.937,1.033.937.258,0,1.049-.727,1.259-.921.032-.016.048-.032.081-.032.081,0,.1.048.113.113.016.258.065.388.42.388.242,0,.613-.016.872-.032.258.016.355.145.355.388v.129c0,.275-.113.388-.371.388h-.726c-.323,0-.646-.016-.952-.016-.5,0-1.033.065-1.033.695,0,.21.016.436.016.646v1.647c0,.258-.032.63-.032.791,0,.436.339.436.775.436A1.276,1.276,0,0,0-8.5,16.9a.379.379,0,0,1,.226-.113h.387c.145.016.274.065.274.226a.514.514,0,0,1-.048.145,7.984,7.984,0,0,1-3.18,2.471c-.145.065-.307.129-.307.307,0,.307.678,1.179,1.033,1.179a1.651,1.651,0,0,0,.581-.242,8.335,8.335,0,0,0,3.261-2.956.249.249,0,0,1,.21-.145.258.258,0,0,1,.226.129,9.531,9.531,0,0,0,2.7,2.7,3.263,3.263,0,0,0,1.146.549A1.544,1.544,0,0,0-.924,20.014c0-.145-.048-.194-.194-.242a8.02,8.02,0,0,1-3.406-2.633.226.226,0,0,1-.048-.145c0-.162.129-.194.258-.21h.5c.081,0,.145.065.21.113a1.216,1.216,0,0,0,.63.113c.436,0,.791.016.791-.436,0-.1-.032-.549-.032-.791V14.135c0-.21.016-.436.016-.646,0-.63-.517-.695-1.017-.695-.323,0-.646.016-.969.016h-.726c-.258,0-.371-.113-.371-.388v-.129c0-.275.113-.371.371-.388.274.016.581.032.856.032.307,0,.371-.113.4-.355.016-.081.048-.145.129-.145.048,0,.065.032.1.048a7.179,7.179,0,0,0,1.356.985,1.683,1.683,0,0,0,1.033-1.082c0-.162-.178-.291-.307-.371A18.2,18.2,0,0,1-5.057,7.69c-.016-.016-.016-.032-.016-.065a.1.1,0,0,1,.081-.1c.081-.032.161-.081.161-.194a.225.225,0,0,0-.161-.194,11.948,11.948,0,0,0-1.485-.533c-.129,0-.178.1-.226.21a13.244,13.244,0,0,1-3.309,3.731.2.2,0,0,1-.145.048c-.129,0-.178-.1-.178-.21,0-.581,0-.775-.339-.775-.242,0-.6.032-.856.032-.323-.016-.436-.129-.436-.452V8.142c0-.533.016-.791.178-.888.113-.081.226-.129.226-.242,0-.194-.274-.194-.42-.21-.242-.032-1.13-.129-1.324-.129-.129,0-.258.032-.258.21v.145A9.891,9.891,0,0,1-13.5,8.433v.759c0,.323-.129.452-.452.452-.436.016-.807-.032-1.114-.032-.355,0-.323.226-.323.791,0,.533-.032.791.323.791.161,0,.678-.048.9-.032.194,0,.339.081.339.307v.113a19.83,19.83,0,0,1-1.727,4.506,1.978,1.978,0,0,0-.226.549c0,.21.646.969.92.969.178,0,.274-.258.355-.388a20.057,20.057,0,0,0,.872-2.2.06.06,0,0,1,.065-.048c.016,0,.048.016.065.081v3.408c0,.743-.048,1.486-.048,2.229,0,.468.161.5.807.5.662,0,.807-.032.807-.485,0-.759-.032-1.5-.032-2.245V14.49c0-.065.032-.145.1-.145A.108.108,0,0,1-11.756,14.425ZM6.178,18.043c-.307-.258-.565-.517-.694-.517-.113,0-.242.129-.323.21a12.628,12.628,0,0,1-2.809,1.809c-.145.065-.533.242-.533.4,0,.226.6,1.066.969,1.066.517,0,2.793-1.647,3.293-2.051a.526.526,0,0,1,.291-.129h.194c.1,0,.226-.032.226-.162,0-.113-.178-.258-.258-.323Zm5.085-.565c-.291,0-.872.775-.872.985,0,.194.194.291.339.371a21.268,21.268,0,0,1,2.777,2c.113.1.355.307.5.307.274,0,.92-.759.92-1,0-.323-1-1-1.259-1.179A13.713,13.713,0,0,0,11.264,17.478Zm-5.1-1.551a.507.507,0,0,1-.258.1c-.936.016-1.873.032-2.809.032-.129-.016-.5-.032-.6-.032-.129,0-.242.032-.242.178a.581.581,0,0,0,.032.178c.048.194.1.371.129.533.161.695.21.969.42.969.1,0,.161-.1.21-.162.048-.1.1-.178.21-.178,1.308-.065,2.615-.129,3.939-.178.307-.016.42.129.42.436v.888c0,.678-.032,1.341-.032,2.019,0,.5.194.5.888.5s.888,0,.888-.517c0-.662-.048-1.341-.048-2V17.72c0-.307.113-.468.468-.485.613-.016,1.291-.065,2.276-.145.355-.032.646-.048.743-.048a.616.616,0,0,1,.549.291c.081.113.161.21.242.323.194.275.355.5.5.5.21,0,1.065-.565,1.065-.84a7.2,7.2,0,0,0-1.065-1.534c-.081-.1-.161-.194-.194-.242-.371-.42-.839-.969-1.243-1.357-.1-.081-.194-.194-.323-.194-.291,0-1.065.614-1.065.856,0,.113.178.275.387.485.081.081.21.178.21.307a.188.188,0,0,1-.21.178c-.969.065-1.937.129-2.906.145a.141.141,0,0,1-.1-.258c.856-.678,1.679-1.373,2.486-2.116a.4.4,0,0,1,.307-.113c.032,0,.1.016.161.016.1,0,.21-.032.21-.162,0-.113-.226-.258-.307-.323a4.915,4.915,0,0,0-1.162-.808c-.129,0-.178.113-.274.21-.694.711-1.4,1.389-2.147,2.051a.442.442,0,0,1-.291.129.507.507,0,0,1-.258-.1c-.113-.1-.226-.162-.339-.258a.361.361,0,0,1-.161-.291.422.422,0,0,1,.113-.275c.484-.517.549-.614,1-1.131a.546.546,0,0,1,.387-.129c.113-.016.274-.032.274-.178,0-.1-.113-.162-.274-.258-.016-.016-.032-.032-.032-.048,0-.048.032-.065.081-.065H13.2c.307,0,.436.145.436.452v.065c0,.21-.032.42-.032.646,0,.339.242.339.807.339.581,0,.791,0,.791-.355,0-.21-.032-.42-.032-.63v-.452c0-.307.016-.581.016-.791,0-.565-.387-.662-1.082-.662-.371,0-.823.032-1.356.032H9.827c-.323,0-.452-.129-.452-.452V9.854c0-.307.129-.452.452-.452h2.534c.662,0,1.324.048,1.969.048.371,0,.355-.194.355-.743,0-.533.016-.711-.355-.711-.646,0-1.308.032-1.969.032H9.827c-.291,0-.436-.113-.436-.42a.405.405,0,0,1,.194-.355c.145-.1.226-.129.226-.242,0-.178-.274-.178-.387-.194C9.149,6.786,8.116,6.7,7.89,6.7c-.145,0-.291.032-.291.226a.447.447,0,0,0,.016.145l.048.517c0,.307-.129.436-.436.436H4.709C4.048,8.029,3.4,8,2.74,8c-.355,0-.355.178-.355.727,0,.533,0,.727.355.727.662,0,1.324-.048,1.969-.048H7.228a.4.4,0,0,1,.452.452v.194c0,.323-.145.452-.452.452H4.338c-.533,0-.969-.032-1.324-.032-.759,0-1.114.1-1.114.678,0,.178.016.436.016.775v.452c0,.21-.032.436-.032.63,0,.355.226.355.791.355.549,0,.807.016.807-.339,0-.226-.032-.436-.032-.646v-.065c0-.307.129-.452.436-.452H6.178c.113.016.242.048.242.21a.226.226,0,0,1-.048.145c-.178.226-.355.468-.533.678a.439.439,0,0,1-.339.194.852.852,0,0,1-.4-.162,1.434,1.434,0,0,0-.517-.242c-.291,0-.839.808-.839,1.018,0,.145.161.226.323.323a22.615,22.615,0,0,1,2.131,1.357.3.3,0,0,1,0,.517Z" transform="translate(1578.097 76.191)" fill="#222" stroke="#222" stroke-linecap="round" stroke-linejoin="round" stroke-width="0.4"/>
    </g>
  </g>
</svg>
