<svg xmlns="http://www.w3.org/2000/svg" width="73.864" height="42.952" viewBox="0 0 73.864 42.952">
  <g id="h_icon_order_txt" transform="translate(-1538.898 -66)">
    <g id="ご注文">
      <path id="ol" d="M-19.5-3.6a3.684,3.684,0,0,0,.616,1.54c.952,1.316,2.562,1.484,4.06,1.484a23.242,23.242,0,0,0,4.214-.392c.35-.084.49-.154.49-.406a12.566,12.566,0,0,0-.084-1.484c-.028-.294-.154-.42-.308-.42a1.3,1.3,0,0,0-.322.056,14.512,14.512,0,0,1-4.046.5A2.906,2.906,0,0,1-17.024-3.3a1.817,1.817,0,0,1-.364-.91c-.014-.154-.042-.336-.252-.336a10.833,10.833,0,0,0-1.316.49C-19.152-3.976-19.5-3.836-19.5-3.6Zm9.072-7c-.154,0-.868.518-.868.714,0,.07.056.112.154.21a10.929,10.929,0,0,1,.784.826c.042.042.07.084.112.126.14.168.252.308.336.308.154,0,.812-.532.812-.784,0-.224-.91-1.078-1.106-1.26A.4.4,0,0,0-10.43-10.6Zm1.344-1.232c-.126,0-.854.5-.854.728,0,.07.084.154.126.2a10.86,10.86,0,0,1,.882.91c.21.266.28.364.364.364.154,0,.826-.546.826-.8A5.139,5.139,0,0,0-9.086-11.83Zm-8.442,1.988a.363.363,0,0,0-.364.28,14.324,14.324,0,0,0-.28,1.512.358.358,0,0,0,.266.322,15.437,15.437,0,0,0,3.892.42,13.66,13.66,0,0,0,2.142-.154c.294-.056.336-.14.336-.434q0-.609-.042-1.218c-.014-.21-.07-.56-.378-.56a1.088,1.088,0,0,0-.224.028,12.453,12.453,0,0,1-2.268.224A9.587,9.587,0,0,1-17-9.744,2.692,2.692,0,0,0-17.528-9.842Zm20.454.868c-.084,0-.224,0-.224-.14A.246.246,0,0,1,2.786-9.3a1.708,1.708,0,0,0,.308-.56c0-.21-.714-.658-.91-.784A9.5,9.5,0,0,0,.308-11.7a.492.492,0,0,0-.392.238c-.168.224-.658.826-.658,1.078,0,.154.112.2.266.28a13.83,13.83,0,0,1,1.624,1.05c0,.084-.126.084-.224.084H-.336C-.854-8.974-1.372-9-1.89-9c-.378,0-.42.154-.42.616v.728c0,.392.056.546.42.546.518,0,1.036-.028,1.554-.028H.238a.383.383,0,0,1,.392.392v1.022c0,.308-.14.462-.448.462H-.1c-.476,0-.938-.028-1.414-.028-.392,0-.448.14-.448.56V-4c0,.448.042.6.448.6.476,0,.938-.028,1.414-.028H.154c.336,0,.476.154.476.476v1.3a.383.383,0,0,1-.392.392H-.854c-.518,0-1.036-.028-1.554-.028-.378,0-.42.154-.42.616v.7c0,.42.042.574.406.574C-1.9.6-1.372.574-.854.574H4.228C4.746.574,5.264.6,5.8.6,6.174.6,6.2.462,6.2.014V-.7c0-.42-.028-.588-.392-.588-.532,0-1.05.028-1.582.028H3.122a.383.383,0,0,1-.392-.392V-3.038a.383.383,0,0,1,.392-.392h.56c.476,0,.966.028,1.442.028.392,0,.42-.168.42-.6V-4.69c0-.434-.042-.6-.434-.6-.476,0-.952.028-1.428.028h-.56a.383.383,0,0,1-.392-.392V-6.748a.383.383,0,0,1,.392-.392h.826c.518,0,1.036.028,1.554.028.364,0,.42-.14.42-.546v-.728C5.922-8.82,5.88-9,5.516-9c-.518,0-1.05.028-1.568.028Zm-9.17,1.68c0,.126.07.168.182.238A12.936,12.936,0,0,1-4.718-6.048c.2.168.532.448.658.448.168,0,.322-.182.462-.336.238-.266.644-.728.644-.98,0-.21-.518-.6-.686-.742A7.141,7.141,0,0,0-5.124-8.666C-5.432-8.666-6.244-7.546-6.244-7.294ZM-3.4-11.116a3.159,3.159,0,0,0-.952-.574c-.2,0-.378.252-.49.378A2.433,2.433,0,0,1-5-11.1a2.622,2.622,0,0,0-.448.7c0,.126.084.2.182.266q.735.525,1.428,1.092c.112.1.378.35.518.35.224,0,.476-.35.6-.518.168-.21.476-.546.476-.784a.272.272,0,0,0-.112-.224C-2.632-10.486-3.136-10.906-3.4-11.116Zm-.406,5.964c-.112,0-.14.07-.168.154A21.209,21.209,0,0,1-6.2-.882c-.056.07-.2.224-.2.308,0,.168.378.462.588.63.1.07.21.168.28.224a3.115,3.115,0,0,0,.854.6.2.2,0,0,0,.2-.2A.963.963,0,0,0-4.508.5.709.709,0,0,1-4.536.322a1.067,1.067,0,0,1,.182-.406,28.612,28.612,0,0,0,1.722-3.3,5.13,5.13,0,0,0,.252-.63C-2.38-4.326-3.4-5.152-3.808-5.152Zm19.264-2.8c.2,0,.35.056.35.28a5.781,5.781,0,0,1-.644,1.708c-.28.5-.406.728-.6.728-.266,0-.672-.8-.8-1.036a5.458,5.458,0,0,1-.6-1.428c0-.21.21-.252.378-.252ZM10.668-9.884c-.56,0-1.12-.042-1.68-.042-.336,0-.378.126-.378.728v.854c0,.28.056.42.364.42.434,0,.854-.028,1.288-.028s.49.07.63.434a13.777,13.777,0,0,0,1.694,3.206c.126.168.406.5.406.7,0,.28-.574.63-.784.77A12.76,12.76,0,0,1,9.016-1.274c-.462.154-.574.168-.574.378A3.509,3.509,0,0,0,8.764.154c.21.462.35.8.588.8A9.523,9.523,0,0,0,11.186.266,15.737,15.737,0,0,0,13.664-1.19c.252-.182.756-.588,1.05-.588a1.01,1.01,0,0,1,.588.28A15.048,15.048,0,0,0,17.01-.364,13.566,13.566,0,0,0,19.894.91c.336,0,.5-.364.658-.658A3.1,3.1,0,0,0,20.93-.882c0-.238-.28-.294-.616-.392a14.038,14.038,0,0,1-3.038-1.344c-.266-.168-.994-.574-.994-.924a.868.868,0,0,1,.168-.406,13.2,13.2,0,0,0,1.638-3.108c.028-.112.1-.322.21-.378.084-.028.294-.084.294-.21,0-.014-.014-.084-.014-.112,0-.2.294-.2.476-.2.462,0,.938.028,1.414.028.308,0,.364-.112.364-.644,0-.224-.014-.532-.014-.938,0-.294-.056-.42-.378-.42-.56,0-1.106.042-1.666.042h-2.6c-.364,0-.406-.35-.406-.63a.841.841,0,0,1,.126-.588c.1-.084.154-.126.154-.21,0-.126-.238-.154-.448-.168-.434-.042-1.344-.1-1.75-.1-.154,0-.308.014-.308.2a.348.348,0,0,0,.014.126c.028.266.042.616.042.882s-.084.49-.406.49Z" transform="translate(1576 108)" fill="#222"/>
    </g>
    <g id="logo" transform="translate(1538.898 66)">
      <g id="グループ_14735" data-name="グループ 14735" transform="translate(18.318 0)">
        <path id="パス_112078" data-name="パス 112078" d="M36.807,3.837h1.55A.161.161,0,0,1,38.518,4v6.936a.161.161,0,0,1-.162.162h-1.55a.161.161,0,0,1-.162-.162V4a.161.161,0,0,1,.162-.162" transform="translate(-25.164 -0.766)" fill="#222"/>
        <path id="パス_112079" data-name="パス 112079" d="M29.474,3.986a2.681,2.681,0,0,0-1.643.709,2.774,2.774,0,0,0-1.858-.72h-.08a3.12,3.12,0,0,0-.992.16.368.368,0,0,0-.37-.367H23.4a.368.368,0,0,0-.371.366h0v6.617a.33.33,0,0,0,.332.328h1.211a.329.329,0,0,0,.33-.328V6.737a.906.906,0,0,1,.91-.9c.027,0,.054,0,.081,0h.08a.9.9,0,0,1,.9.9h0l.013,3.975a.368.368,0,0,0,.369.369h1.134a.37.37,0,0,0,.371-.368h0V6.737a.9.9,0,0,1,.908-.9.935.935,0,0,1,.226.03.924.924,0,0,1,.671.908v3.975a.367.367,0,0,0,.368.366h1.137a.366.366,0,0,0,.369-.364V6.742A2.773,2.773,0,0,0,29.654,3.98c-.06,0-.12,0-.18.006" transform="translate(-23.026 -0.753)" fill="#222"/>
        <path id="パス_112080" data-name="パス 112080" d="M63.887,4.065A3.533,3.533,0,1,0,67.441,7.6a3.532,3.532,0,0,0-3.554-3.533m0,5.1A1.567,1.567,0,1,1,65.465,7.6,1.567,1.567,0,0,1,63.887,9.164Z" transform="translate(-29.622 -0.812)" fill="#222"/>
        <path id="パス_112081" data-name="パス 112081" d="M37.511,0a1.227,1.227,0,1,0,1.232,1.227A1.226,1.226,0,0,0,37.511,0" transform="translate(-25.093 0)" fill="#222"/>
        <path id="パス_112082" data-name="パス 112082" d="M56.4,8.476V.43a.383.383,0,0,0-.384-.381H54.911a.382.382,0,0,0-.383.381v3.2a3.3,3.3,0,0,0-1.439-.3c-2.194,0-3.053,1.583-3.053,3.538s.859,3.538,3.053,3.538a3.089,3.089,0,0,0,1.745-.473,1.192,1.192,0,0,0,.9.406H56.4a.423.423,0,0,0,.424-.421V8.9a.423.423,0,0,0-.421-.425Zm-3.314.1c-.48,0-1.209,0-1.209-1.7s.728-1.7,1.209-1.7,1.209,0,1.209,1.7-.728,1.7-1.21,1.7Z" transform="translate(-27.55 -0.01)" fill="#222"/>
        <path id="パス_112083" data-name="パス 112083" d="M44.1,6.791c-.4-.062-1.244-.135-1.244-.475a.29.29,0,0,1,.08-.23,1.03,1.03,0,0,1,.756-.234,1.017,1.017,0,0,1,.875.356.312.312,0,0,0,.269.137h1.172a.332.332,0,0,0,.327-.337.415.415,0,0,0-.007-.063A2.558,2.558,0,0,0,43.693,4.1a2.713,2.713,0,0,0-2.079.831,2.074,2.074,0,0,0-.5,1.611c.166,1.432,1.568,1.658,2.588,1.9a6.473,6.473,0,0,1,1.076.32.242.242,0,0,1,.111.344c-.186.282-.738.331-1.093.331-.285,0-1.008-.112-1.184-.452a.331.331,0,0,0-.3-.16H41.17a.334.334,0,0,0-.333.336.341.341,0,0,0,.006.064,2.785,2.785,0,0,0,2.95,1.964c1.774,0,2.92-.9,2.92-2.3,0-1.544-1.542-1.924-2.608-2.1" transform="translate(-25.707 -0.819)" fill="#222"/>
      </g>
      <g id="グループ_14736" data-name="グループ 14736" transform="translate(0 13.591)">
        <path id="パス_112084" data-name="パス 112084" d="M6.934,25.115a17.469,17.469,0,0,0,1.473-1.4A1.008,1.008,0,0,0,8.433,22.4a1.078,1.078,0,0,0-.846-.374H.877a.38.38,0,0,0-.382.376v1.275a.38.38,0,0,0,.382.376H4.927a.031.031,0,0,1,.021.056A18.284,18.284,0,0,1,.195,26.851a.3.3,0,0,0-.177.379L.51,28.578a.305.305,0,0,0,.392.179,18.782,18.782,0,0,0,2.921-1.414v2.494a.3.3,0,0,0,.3.3H5.659a.3.3,0,0,0,.3-.3v-2.93c.714.454,1.743,1.121,2.467,1.617a.3.3,0,0,0,.416-.074l.84-1.166a.3.3,0,0,0-.066-.413l-.006,0c-.807-.554-1.952-1.291-2.678-1.753" transform="translate(0 -17.959)" fill="#222"/>
        <path id="パス_112085" data-name="パス 112085" d="M5.971,20.859a.3.3,0,0,0,.4-.1L7,19.74a.3.3,0,0,0-.1-.408l-.01-.006c-.672-.379-1.5-.762-1.928-.956a.3.3,0,0,0-.4.151v0l-.48,1.09a.294.294,0,0,0,.15.39c.4.18,1.148.527,1.735.857" transform="translate(-0.808 -17.213)" fill="#222"/>
        <path id="パス_112086" data-name="パス 112086" d="M18.83,25.812l.934-.312a.384.384,0,0,0,.242-.489l0,0c-.271-.76-.569-1.514-.744-1.938a.389.389,0,0,0-.5-.214l0,0-.911.373a.383.383,0,0,0-.213.5c.167.413.453,1.132.709,1.848a.391.391,0,0,0,.495.235" transform="translate(-3.505 -18.123)" fill="#222"/>
        <path id="パス_112087" data-name="パス 112087" d="M15.325,23.237l-.912.374a.381.381,0,0,0-.213.5c.168.413.454,1.132.709,1.847a.389.389,0,0,0,.493.239l.934-.312a.386.386,0,0,0,.241-.49v0c-.271-.76-.571-1.514-.745-1.939a.39.39,0,0,0-.505-.215" transform="translate(-2.823 -18.2)" fill="#222"/>
        <path id="パス_112088" data-name="パス 112088" d="M23.417,22.664H22.179a.388.388,0,0,0-.39.384v.434a4.8,4.8,0,0,1-3.6,4.839.382.382,0,0,0-.267.458l.293,1.191a.392.392,0,0,0,.476.283l.017,0a6.822,6.822,0,0,0,5.1-6.766v-.434a.387.387,0,0,0-.39-.385" transform="translate(-3.567 -18.09)" fill="#222"/>
        <path id="パス_112089" data-name="パス 112089" d="M30.968,22.4V18.956a.357.357,0,0,0-.356-.357H29.226a.358.358,0,0,0-.361.355V29.085a.359.359,0,0,0,.361.357h1.381a.358.358,0,0,0,.359-.357V24.828a30.888,30.888,0,0,1,3.247,1.594.36.36,0,0,0,.486-.109l.844-1.275a.354.354,0,0,0-.1-.492l-.013-.008a37.859,37.859,0,0,0-4.462-2.14" transform="translate(-5.749 -17.265)" fill="#222"/>
        <path id="パス_112090" data-name="パス 112090" d="M50.041,20.6H47.707V18.985a.36.36,0,0,0-.361-.359H45.97a.36.36,0,0,0-.361.359V20.6H40.656a.36.36,0,0,0-.361.359v1.36a.359.359,0,0,0,.36.359H44.63a15.941,15.941,0,0,1-4.158,3.586.357.357,0,0,0-.143.478l.609,1.129a.363.363,0,0,0,.49.147l0,0a17.24,17.24,0,0,0,4.175-3.409v2.808H45.1a.359.359,0,0,0-.361.356h0v1.362a.36.36,0,0,0,.361.359h.729a1.874,1.874,0,0,0,1.884-1.864V22.68h2.334a.359.359,0,0,0,.361-.358h0V20.96a.36.36,0,0,0-.361-.359Z" transform="translate(-8.024 -17.27)" fill="#222"/>
        <path id="パス_112091" data-name="パス 112091" d="M55.7,23.775h7.615a.223.223,0,0,1,.224.223v1.63a.225.225,0,0,1-.225.224H55.7a.225.225,0,0,1-.225-.224V24a.225.225,0,0,1,.225-.224" transform="translate(-11.05 -18.316)" fill="#222"/>
        <path id="パス_112092" data-name="パス 112092" d="M82.388,23.775H90a.225.225,0,0,1,.225.224v1.629a.225.225,0,0,1-.225.224H82.389a.225.225,0,0,1-.225-.224V24a.223.223,0,0,1,.224-.223" transform="translate(-16.365 -18.316)" fill="#222"/>
        <path id="パス_112093" data-name="パス 112093" d="M83.723,18.418c-.344-.5-.777-1.036-1.041-1.359a.366.366,0,0,0-.512-.053l0,0-.731.607a.352.352,0,0,0-.05.5c.24.295.626.778.926,1.207a.365.365,0,0,0,.489.1l.81-.5a.356.356,0,0,0,.12-.491l-.009-.014" transform="translate(-16.194 -16.926)" fill="#222"/>
        <path id="パス_112094" data-name="パス 112094" d="M80.488,18.589a.364.364,0,0,0-.511-.05l0,0-.733.607a.356.356,0,0,0-.05.5c.24.293.628.778.926,1.207a.366.366,0,0,0,.49.1l.811-.5a.354.354,0,0,0,.12-.489l-.011-.017c-.343-.5-.778-1.04-1.04-1.36" transform="translate(-15.757 -17.236)" fill="#222"/>
        <path id="パス_112095" data-name="パス 112095" d="M76.049,20.013H73.166a7.232,7.232,0,0,0,.224-.858.387.387,0,0,0-.312-.45.414.414,0,0,0-.07-.006H71.76a.383.383,0,0,0-.377.293c-.235,1.036-1.429,3.578-2.656,4.344a.386.386,0,0,0-.167.467l.448,1.152a.391.391,0,0,0,.5.222l.039-.018a5.208,5.208,0,0,0,1.39-1.138c.573.469,1.47,1.224,2.174,1.935a7.459,7.459,0,0,1-2.907,1.828.385.385,0,0,0-.246.478l.374,1.163a.388.388,0,0,0,.485.251l.01,0a8.987,8.987,0,0,0,6.219-8.739,1,1,0,0,0-1-.921M74.188,24.5c-.764-.744-1.646-1.481-2.191-1.924.113-.188.22-.379.32-.57h2.672a7.309,7.309,0,0,1-.8,2.494" transform="translate(-13.651 -17.285)" fill="#222"/>
      </g>
    </g>
  </g>
</svg>
