<svg xmlns="http://www.w3.org/2000/svg" xmlns:xlink="http://www.w3.org/1999/xlink" width="50" height="50" viewBox="0 0 50 50">
  <defs>
    <clipPath id="clip-path">
      <path id="パス_4927" data-name="パス 4927" d="M25,0A25,25,0,1,1,0,25,25,25,0,0,1,25,0Z" transform="translate(0 0)" fill="#e7372f"/>
    </clipPath>
  </defs>
  <g id="h_icon_how" transform="translate(0 0)">
    <circle id="楕円形_509" data-name="楕円形 509" cx="25" cy="25" r="25" fill="#e7372f"/>
    <g id="グループ_14727" data-name="グループ 14727" transform="translate(12.699 8.75)">
      <path id="パス_112112" data-name="パス 112112" d="M12.5,7.151v26.6s-.54.084-1.858-1.036S.805,24.241.805,24.241A2.917,2.917,0,0,1,0,21.985c.073-1.48,0-19.2,0-19.2A2.836,2.836,0,0,1,1.825.2,2.84,2.84,0,0,1,4.7.641Z" fill="#fee83a"/>
      <path id="パス_112113" data-name="パス 112113" d="M124.143,7.151v26.6s.54.084,1.858-1.036,9.836-8.471,9.836-8.471a2.917,2.917,0,0,0,.8-2.257c-.073-1.48,0-19.2,0-19.2a2.883,2.883,0,0,0-4.7-2.146Z" transform="translate(-111.643)" fill="#f4a91f"/>
    </g>
    <g id="マスクグループ_109" data-name="マスクグループ 109" clip-path="url(#clip-path)">
      <g id="グループ_2987" data-name="グループ 2987" transform="translate(2.012 8.75)">
        <g id="パス_4923" data-name="パス 4923" transform="translate(-271.032 -394.084)" fill="#fff">
          <path d="M 310.5191040039062 436.532470703125 L 309.8940124511719 436.532470703125 L 304.18701171875 436.532470703125 L 302.5842895507812 436.532470703125 L 303.2887878417969 435.0928955078125 L 307.0810241699219 427.3440856933594 L 307.3735656738281 425.8827514648438 C 305.9670715332031 425.1011047363281 305.1308898925781 423.6131896972656 305.1895141601562 421.9961853027344 C 305.24169921875 420.6074523925781 306.0271606445312 419.2878723144531 307.2393493652344 418.551025390625 C 307.2858581542969 418.5229797363281 307.3339538574219 418.4959716796875 307.3837585449219 418.4699096679688 C 306.7557373046875 417.687255859375 306.4249877929688 416.6990661621094 306.4608154296875 415.6588134765625 C 306.5107727050781 414.2663879394531 307.29248046875 412.9449462890625 308.5009765625 412.208740234375 L 308.5062255859375 412.20556640625 L 308.511474609375 412.2024230957031 C 308.5606079101562 412.1733093261719 308.6115112304688 412.1452331542969 308.6641540527344 412.1181335449219 C 308.1600036621094 411.490966796875 307.8450317382812 410.7339172363281 307.7581787109375 409.9203491210938 C 307.7452087402344 409.7985534667969 307.7377014160156 409.6748352050781 307.7351684570312 409.5418395996094 C 307.7162170410156 408.4683837890625 308.1256408691406 407.4506530761719 308.8879699707031 406.6747436523438 C 309.6843566894531 405.8641967773438 310.7947692871094 405.3993225097656 311.9345397949219 405.3993225097656 C 312.2124328613281 405.3993225097656 312.4919128417969 405.4268798828125 312.7652282714844 405.4812622070312 L 317.5138854980469 406.4368896484375 L 318.491455078125 406.6336059570312 L 318.2974853515625 407.6117248535156 L 313.9900207519531 429.3351745605469 L 313.9648132324219 429.4622802734375 L 313.9080505371094 429.5787963867188 L 310.7929382324219 435.9705810546875 L 310.5191040039062 436.532470703125 Z" stroke="none"/>
          <path d="M 309.8940124511719 435.532470703125 L 313.0091247558594 429.1406860351562 L 317.3165893554688 407.417236328125 L 312.5700988769531 406.4620361328125 C 310.619384765625 406.0740051269531 308.6999206542969 407.534912109375 308.7349853515625 409.5227661132812 C 308.73681640625 409.6192016601562 308.7420654296875 409.7158203125 308.7525329589844 409.814208984375 C 308.845703125 410.6869506835938 309.2793579101562 411.4402465820312 309.9045104980469 411.9600219726562 C 310.1976928710938 412.202392578125 310.0906677246094 412.6852416992188 309.7236328125 412.7853393554688 C 309.46728515625 412.8521118164062 309.2197265625 412.9451293945312 309.021240234375 413.062744140625 C 308.1046142578125 413.6211547851562 307.4987182617188 414.6203002929688 307.4602355957031 415.6932373046875 C 307.42333984375 416.7644653320312 307.8886413574219 417.7003173828125 308.6226806640625 418.3097534179688 C 308.9141235351562 418.5537719726562 308.8367919921875 419.0331420898438 308.4663391113281 419.1279907226562 C 308.2081909179688 419.1964721679688 307.9570922851562 419.2860107421875 307.7587890625 419.405517578125 C 306.8403625488281 419.9638061523438 306.229248046875 420.9577026367188 306.1888427734375 422.0324096679688 C 306.1414184570312 423.340576171875 306.842041015625 424.4468383789062 307.8658447265625 425.0122680664062 C 308.2328186035156 425.2142944335938 308.4505004882812 425.6093139648438 308.3662414550781 426.0184936523438 L 308.0361328125 427.6673583984375 L 304.18701171875 435.532470703125 L 309.8940124511719 435.532470703125 M 311.1441650390625 437.532470703125 L 300.9815673828125 437.532470703125 L 306.1258850097656 427.0208129882812 L 306.2605895996094 426.3479919433594 C 304.9057312011719 425.3216247558594 304.1270446777344 423.7012634277344 304.1901550292969 421.9599609375 C 304.2442321777344 420.521728515625 304.9296875 419.1455383300781 306.0258483886719 418.2013854980469 C 305.6281433105469 417.4197082519531 305.4299621582031 416.5381774902344 305.46142578125 415.6243896484375 C 305.5133666992188 414.1763305664062 306.2015075683594 412.7920532226562 307.3031311035156 411.8471069335938 C 307.0165710449219 411.2848815917969 306.83251953125 410.6700439453125 306.7638244628906 410.0265197753906 C 306.7477416992188 409.8752746582031 306.7384338378906 409.7231750488281 306.7353515625 409.5609130859375 C 306.7115783691406 408.2156372070312 307.2227783203125 406.9427490234375 308.1746520996094 405.9739074707031 C 309.1578063964844 404.9732360839844 310.5282592773438 404.3993225097656 311.9345397949219 404.3993225097656 C 312.2778015136719 404.3993225097656 312.6229553222656 404.433349609375 312.9603576660156 404.5004577636719 L 319.6662902832031 405.8500061035156 L 314.9205322265625 429.7839050292969 L 311.1441650390625 437.532470703125 Z" stroke="none" fill="#e7372f"/>
        </g>
        <g id="パス_4924" data-name="パス 4924" transform="translate(-285.306 -394.084)" fill="#fff">
          <path d="M 300.0400695800781 436.532470703125 L 298.4373474121094 436.532470703125 L 292.7285766601562 436.532470703125 L 292.1034851074219 436.532470703125 L 291.8296508789062 435.9705810546875 L 288.7145690917969 429.5787963867188 L 288.6578063964844 429.4622802734375 L 288.6325988769531 429.3351745605469 L 284.3251037597656 407.6117248535156 L 284.1311340332031 406.633544921875 L 285.1087951660156 406.4368591308594 L 289.8570861816406 405.4816589355469 C 290.1324768066406 405.4268798828125 290.4119567871094 405.3993225097656 290.6898193359375 405.3993225097656 C 291.8295288085938 405.3993225097656 292.9399108886719 405.8642272949219 293.736328125 406.6748046875 C 294.4986877441406 407.4507446289062 294.9080810546875 408.4684448242188 294.88916015625 409.5404357910156 L 294.8890075683594 409.5497741699219 L 294.8886413574219 409.5591430664062 C 294.885498046875 409.6459655761719 294.8795471191406 409.77783203125 294.8644104003906 409.9200439453125 C 294.7775573730469 410.7344665527344 294.4629516601562 411.4917602539062 293.9603271484375 412.1178894042969 C 294.0142517089844 412.1456909179688 294.0662841796875 412.174560546875 294.1163024902344 412.2044677734375 L 294.1202087402344 412.2068176269531 L 294.1240539550781 412.2091674804688 C 295.33203125 412.9464721679688 296.113525390625 414.2677001953125 296.16357421875 415.6572570800781 C 296.1994323730469 416.6982116699219 295.868896484375 417.6864013671875 295.2398376464844 418.4702758789062 C 295.2881774902344 418.4955749511719 295.3347778320312 418.5217590332031 295.3797607421875 418.5488586425781 C 296.5950927734375 419.2862548828125 297.3807983398438 420.6059875488281 297.4330749511719 421.9947814941406 C 297.4959716796875 423.611328125 296.6593322753906 425.1005859375 295.2490844726562 425.8827514648438 L 295.5430908203125 427.3436279296875 L 299.3355407714844 435.0928955078125 L 300.0400695800781 436.532470703125 Z" stroke="none"/>
          <path d="M 298.4373474121094 435.532470703125 L 294.5881958007812 427.6673583984375 L 294.25634765625 426.0184936523438 C 294.1737670898438 425.6093139648438 294.3898010253906 425.2142944335938 294.7567749023438 425.0122680664062 C 295.7823181152344 424.4468383789062 296.4846801757812 423.340576171875 296.4337768554688 422.0324096679688 C 296.393310546875 420.9577026367188 295.7840270996094 419.9638061523438 294.8638916015625 419.405517578125 C 294.6654357910156 419.2860107421875 294.4143676757812 419.1964721679688 294.1562805175781 419.1279907226562 C 293.7874145507812 419.0331420898438 293.7084350585938 418.5537719726562 294.0017700195312 418.3097534179688 C 294.7356872558594 417.7003173828125 295.2011108398438 416.7644653320312 295.1642150878906 415.6932373046875 C 295.1255798339844 414.6203002929688 294.5179748535156 413.6211547851562 293.6030883789062 413.062744140625 C 293.4064025878906 412.9451293945312 293.1571350097656 412.8521118164062 292.9006652832031 412.7853393554688 C 292.5336303710938 412.6852416992188 292.4265441894531 412.202392578125 292.7198181152344 411.9600219726562 C 293.3449401855469 411.4402465820312 293.7769470214844 410.6869506835938 293.8700256347656 409.814208984375 C 293.8804931640625 409.7158203125 293.8858032226562 409.6192016601562 293.8893127441406 409.5227661132812 C 293.9244384765625 407.5348510742188 292.0049133300781 406.0738220214844 290.0542907714844 406.4620361328125 L 285.3059997558594 407.417236328125 L 289.6134948730469 429.1406860351562 L 292.7285766601562 435.532470703125 L 298.4373474121094 435.532470703125 M 301.6427917480469 437.532470703125 L 291.4784240722656 437.532470703125 L 287.7020874023438 429.7839050292969 L 282.9562683105469 405.849853515625 L 289.6598510742188 404.5013122558594 C 290.0014953613281 404.433349609375 290.3466186523438 404.3993225097656 290.6898193359375 404.3993225097656 C 292.0960388183594 404.3993225097656 293.4664306640625 404.9732666015625 294.4496459960938 405.9739685058594 C 295.4015197753906 406.9428405761719 295.9127197265625 408.2156982421875 295.8890075683594 409.55810546875 L 295.8880004882812 409.5954895019531 C 295.88427734375 409.697265625 295.8772277832031 409.8526000976562 295.8587951660156 410.0258483886719 C 295.7901306152344 410.6697387695312 295.6063537597656 411.2846984863281 295.3203125 411.8467712402344 C 296.42236328125 412.792236328125 297.1109008789062 414.1763000488281 297.1629028320312 415.6212768554688 C 297.1944580078125 416.537109375 296.99609375 417.4197692871094 296.5980834960938 418.2020263671875 C 297.6935119628906 419.1454162597656 298.3782958984375 420.5206909179688 298.4323425292969 421.9571838378906 C 298.5001220703125 423.6986083984375 297.7209777832031 425.3213500976562 296.3628234863281 426.3483276367188 L 296.4979858398438 427.0198974609375 L 301.6427917480469 437.532470703125 Z" stroke="none" fill="#e7372f"/>
        </g>
      </g>
    </g>
  </g>
</svg>
