<svg xmlns="http://www.w3.org/2000/svg" width="73.864" height="43.036" viewBox="0 0 73.864 43.036">
  <g id="h_icon_how_txt" transform="translate(-1538.898 -66)">
    <g id="使い方">
      <path id="ol" d="M-10.738-6.356a.4.4,0,0,1,.392.392v.182a.391.391,0,0,1-.392.392h-.392a.391.391,0,0,1-.392-.392v-.182a.383.383,0,0,1,.392-.392Zm-3.15,0a.391.391,0,0,1,.392.392v.182a.391.391,0,0,1-.392.392h-.42a.391.391,0,0,1-.392-.392v-.182a.4.4,0,0,1,.392-.392Zm-.042,2.548c.154,0,.336,0,.336.252,0,.126-.056.532-.238.532-.126,0-.378-.266-.462-.364-.084-.07-.14-.126-.224-.2A.161.161,0,0,1-14.6-3.71c0-.1.112-.1.182-.1Zm-2.576-1.708c0,.56-.042,1.134-.042,1.694,0,.28.112.336.378.336h.308c.49,0,.588.042.588.126s-.112.154-.154.2c-.112.1-.56.462-.56.616s.448.588.588.7c.1.084.252.2.252.322s-.07.154-.168.21A6.009,6.009,0,0,1-16.7-.84c-.182.042-.448.084-.448.322,0,.448.714,1.512,1.246,1.512A1.757,1.757,0,0,0-15.54.9a7.566,7.566,0,0,0,1.848-.91,1.1,1.1,0,0,1,.532-.252,1.246,1.246,0,0,1,.5.154A14.507,14.507,0,0,0-9.408.966a2.3,2.3,0,0,0,.448.07c.658,0,.91-1.316.91-1.6,0-.252-.182-.252-.518-.294a12.111,12.111,0,0,1-3-.784c-.154-.056-.35-.168-.35-.35a.819.819,0,0,1,.056-.266,4.984,4.984,0,0,0,.266-1.022c.056-.378.056-.532.49-.532h.532c.126,0,.154.056.21.168.084.168.252.168.714.168h.476c.616,0,.742-.028.742-.35,0-.574-.042-1.134-.042-1.694v-.518c0-.42.028-.826.028-1.246,0-.574-.322-.658-.784-.658-.406,0-.812.028-1.218.028h-.812a.266.266,0,0,1-.266-.266v-.14a.269.269,0,0,1,.266-.28h1.022c.56,0,1.134.042,1.694.042.364,0,.392-.14.392-.546v-.728c0-.392-.028-.532-.378-.532-.574,0-1.134.028-1.708.028h-.812c-.28,0-.476-.112-.476-.406a.358.358,0,0,1,.21-.392c.084-.056.154-.1.154-.21,0-.154-.126-.2-.238-.21-.154-.028-1.638-.112-1.82-.112s-.322.056-.322.28c0,.182.028.448.028.658,0,.294-.21.392-.462.392h-.7c-.462,0-.91-.014-1.372-.028-.126,0-.252,0-.252-.112,0-.154.154-.224.28-.28.07-.042.2-.084.2-.182,0-.2-.28-.28-.434-.322-.252-.084-1.526-.518-1.666-.518-.238,0-.294.252-.35.434a14.047,14.047,0,0,1-2.352,4.4c-.112.14-.336.378-.336.574,0,.336.784,1.68,1.12,1.68a.316.316,0,0,0,.224-.112c.042-.042.07-.07.126-.07.126,0,.126.14.126.266v3.248c0,.644-.042,1.288-.042,1.946,0,.35.154.378.616.378h.854c.476,0,.63-.028.63-.378,0-.658-.042-1.3-.042-1.946v-5.46a.562.562,0,0,1,.14-.448c.084-.084.14-.112.14-.2,0-.126-.126-.154-.224-.182-.126-.028-.238-.07-.238-.21a.666.666,0,0,1,.1-.294c.154-.28.294-.574.448-.868.028-.056.07-.182.14-.182s.084.07.084.126v.028c0,.308.028.49.378.49.574,0,1.134-.042,1.708-.042h.9a.281.281,0,0,1,.28.28v.14a.278.278,0,0,1-.28.266h-.756c-.406,0-.826-.028-1.246-.028-.49,0-.756.126-.756.672,0,.406.028.812.028,1.232ZM-4.4-9.3c-.154,0-.224.07-.238.224-.014.2-.07,1.89-.07,2.156,0,1.722.1,3.766,1.134,5.222A2.967,2.967,0,0,0-1.316-.28,2.333,2.333,0,0,0,.434-1.288c.238-.266.882-1.008.882-1.344S.28-3.766-.14-3.766c-.21,0-.336.182-.434.35-.126.224-.448.8-.77.8s-.56-.448-.672-.686a6.515,6.515,0,0,1-.5-2.688,10.318,10.318,0,0,1,.182-1.96.989.989,0,0,1,.266-.616c.1-.07.14-.112.14-.168,0-.126-.154-.168-.294-.2C-2.576-9-4.214-9.3-4.4-9.3Zm6.062,1.2a.289.289,0,0,0,.14.238A4.982,4.982,0,0,1,3.85-3.892c.042.532.056.714.574.714a4.834,4.834,0,0,0,1.33-.238c.28-.084.35-.21.35-.5,0-.168-.042-.5-.07-.728A7.619,7.619,0,0,0,5-7.518,4.378,4.378,0,0,0,2.9-9.38C2.478-9.38,1.666-8.414,1.666-8.092Zm12.922.924a.331.331,0,0,1,.126-.308.569.569,0,0,0,.21-.2c.112-.21.154-.28.434-.28h3.136c.56,0,1.12.028,1.68.028.336,0,.364-.154.364-.574V-9.38c0-.42-.042-.56-.378-.56-.56,0-1.106.042-1.666.042H15.778c-.294,0-.42-.182-.42-.462,0-.686.014-.7.182-.784.084-.042.224-.126.224-.238,0-.168-.154-.182-.392-.21-.112-.014-.112-.014-.252-.028-.294-.028-1.414-.112-1.652-.112-.154,0-.294.028-.294.21a.432.432,0,0,0,.014.126,6.821,6.821,0,0,1,.056.924c0,.28-.07.574-.406.574H10.206C9.646-9.9,9.1-9.94,8.54-9.94c-.336,0-.378.14-.378.56V-8.5c0,.42.028.574.364.574.56,0,1.12-.028,1.68-.028H12.04c.378,0,.476.2.476.546a9.792,9.792,0,0,1-.1,1.428,6.3,6.3,0,0,1-1.26,3.038A10.476,10.476,0,0,1,8.694-.9c-.2.112-.364.21-.364.448A1.717,1.717,0,0,0,9.548.9a.838.838,0,0,0,.434-.14,10.659,10.659,0,0,0,3.71-3.738,6.715,6.715,0,0,0,.462-1.092c.084-.308.182-.42.546-.42h1.792c.714,0,.882.014.882.49a7.512,7.512,0,0,1-.434,2.45.911.911,0,0,1-.882.56,3.511,3.511,0,0,1-.434-.042,4.473,4.473,0,0,0-.588-.07c-.336,0-.35.392-.35.714,0,1.358.49,1.358,1.834,1.358A2.431,2.431,0,0,0,17.7.77,2.39,2.39,0,0,0,18.718-.49a14.857,14.857,0,0,0,.8-4.9c0-.518-.014-1.022-.84-1.022-.364,0-.742.014-1.12.014h-2.45c-.322,0-.518-.112-.518-.462Z" transform="translate(1576 108)" fill="#222"/>
    </g>
    <g id="logo" transform="translate(1538.898 66)">
      <g id="グループ_14735" data-name="グループ 14735" transform="translate(18.318 0)">
        <path id="パス_112078" data-name="パス 112078" d="M36.807,3.837h1.55A.161.161,0,0,1,38.518,4v6.936a.161.161,0,0,1-.162.162h-1.55a.161.161,0,0,1-.162-.162V4a.161.161,0,0,1,.162-.162" transform="translate(-25.164 -0.766)" fill="#222"/>
        <path id="パス_112079" data-name="パス 112079" d="M29.474,3.986a2.681,2.681,0,0,0-1.643.709,2.774,2.774,0,0,0-1.858-.72h-.08a3.12,3.12,0,0,0-.992.16.368.368,0,0,0-.37-.367H23.4a.368.368,0,0,0-.371.366h0v6.617a.33.33,0,0,0,.332.328h1.211a.329.329,0,0,0,.33-.328V6.737a.906.906,0,0,1,.91-.9c.027,0,.054,0,.081,0h.08a.9.9,0,0,1,.9.9h0l.013,3.975a.368.368,0,0,0,.369.369h1.134a.37.37,0,0,0,.371-.368h0V6.737a.9.9,0,0,1,.908-.9.935.935,0,0,1,.226.03.924.924,0,0,1,.671.908v3.975a.367.367,0,0,0,.368.366h1.137a.366.366,0,0,0,.369-.364V6.742A2.773,2.773,0,0,0,29.654,3.98c-.06,0-.12,0-.18.006" transform="translate(-23.026 -0.753)" fill="#222"/>
        <path id="パス_112080" data-name="パス 112080" d="M63.887,4.065A3.533,3.533,0,1,0,67.441,7.6a3.532,3.532,0,0,0-3.554-3.533m0,5.1A1.567,1.567,0,1,1,65.465,7.6,1.567,1.567,0,0,1,63.887,9.164Z" transform="translate(-29.622 -0.812)" fill="#222"/>
        <path id="パス_112081" data-name="パス 112081" d="M37.511,0a1.227,1.227,0,1,0,1.232,1.227A1.226,1.226,0,0,0,37.511,0" transform="translate(-25.093 0)" fill="#222"/>
        <path id="パス_112082" data-name="パス 112082" d="M56.4,8.476V.43a.383.383,0,0,0-.384-.381H54.911a.382.382,0,0,0-.383.381v3.2a3.3,3.3,0,0,0-1.439-.3c-2.194,0-3.053,1.583-3.053,3.538s.859,3.538,3.053,3.538a3.089,3.089,0,0,0,1.745-.473,1.192,1.192,0,0,0,.9.406H56.4a.423.423,0,0,0,.424-.421V8.9a.423.423,0,0,0-.421-.425Zm-3.314.1c-.48,0-1.209,0-1.209-1.7s.728-1.7,1.209-1.7,1.209,0,1.209,1.7-.728,1.7-1.21,1.7Z" transform="translate(-27.55 -0.01)" fill="#222"/>
        <path id="パス_112083" data-name="パス 112083" d="M44.1,6.791c-.4-.062-1.244-.135-1.244-.475a.29.29,0,0,1,.08-.23,1.03,1.03,0,0,1,.756-.234,1.017,1.017,0,0,1,.875.356.312.312,0,0,0,.269.137h1.172a.332.332,0,0,0,.327-.337.415.415,0,0,0-.007-.063A2.558,2.558,0,0,0,43.693,4.1a2.713,2.713,0,0,0-2.079.831,2.074,2.074,0,0,0-.5,1.611c.166,1.432,1.568,1.658,2.588,1.9a6.473,6.473,0,0,1,1.076.32.242.242,0,0,1,.111.344c-.186.282-.738.331-1.093.331-.285,0-1.008-.112-1.184-.452a.331.331,0,0,0-.3-.16H41.17a.334.334,0,0,0-.333.336.341.341,0,0,0,.006.064,2.785,2.785,0,0,0,2.95,1.964c1.774,0,2.92-.9,2.92-2.3,0-1.544-1.542-1.924-2.608-2.1" transform="translate(-25.707 -0.819)" fill="#222"/>
      </g>
      <g id="グループ_14736" data-name="グループ 14736" transform="translate(0 13.591)">
        <path id="パス_112084" data-name="パス 112084" d="M6.934,25.115a17.469,17.469,0,0,0,1.473-1.4A1.008,1.008,0,0,0,8.433,22.4a1.078,1.078,0,0,0-.846-.374H.877a.38.38,0,0,0-.382.376v1.275a.38.38,0,0,0,.382.376H4.927a.031.031,0,0,1,.021.056A18.284,18.284,0,0,1,.195,26.851a.3.3,0,0,0-.177.379L.51,28.578a.305.305,0,0,0,.392.179,18.782,18.782,0,0,0,2.921-1.414v2.494a.3.3,0,0,0,.3.3H5.659a.3.3,0,0,0,.3-.3v-2.93c.714.454,1.743,1.121,2.467,1.617a.3.3,0,0,0,.416-.074l.84-1.166a.3.3,0,0,0-.066-.413l-.006,0c-.807-.554-1.952-1.291-2.678-1.753" transform="translate(0 -17.959)" fill="#222"/>
        <path id="パス_112085" data-name="パス 112085" d="M5.971,20.859a.3.3,0,0,0,.4-.1L7,19.74a.3.3,0,0,0-.1-.408l-.01-.006c-.672-.379-1.5-.762-1.928-.956a.3.3,0,0,0-.4.151v0l-.48,1.09a.294.294,0,0,0,.15.39c.4.18,1.148.527,1.735.857" transform="translate(-0.808 -17.213)" fill="#222"/>
        <path id="パス_112086" data-name="パス 112086" d="M18.83,25.812l.934-.312a.384.384,0,0,0,.242-.489l0,0c-.271-.76-.569-1.514-.744-1.938a.389.389,0,0,0-.5-.214l0,0-.911.373a.383.383,0,0,0-.213.5c.167.413.453,1.132.709,1.848a.391.391,0,0,0,.495.235" transform="translate(-3.505 -18.123)" fill="#222"/>
        <path id="パス_112087" data-name="パス 112087" d="M15.325,23.237l-.912.374a.381.381,0,0,0-.213.5c.168.413.454,1.132.709,1.847a.389.389,0,0,0,.493.239l.934-.312a.386.386,0,0,0,.241-.49v0c-.271-.76-.571-1.514-.745-1.939a.39.39,0,0,0-.505-.215" transform="translate(-2.823 -18.2)" fill="#222"/>
        <path id="パス_112088" data-name="パス 112088" d="M23.417,22.664H22.179a.388.388,0,0,0-.39.384v.434a4.8,4.8,0,0,1-3.6,4.839.382.382,0,0,0-.267.458l.293,1.191a.392.392,0,0,0,.476.283l.017,0a6.822,6.822,0,0,0,5.1-6.766v-.434a.387.387,0,0,0-.39-.385" transform="translate(-3.567 -18.09)" fill="#222"/>
        <path id="パス_112089" data-name="パス 112089" d="M30.968,22.4V18.956a.357.357,0,0,0-.356-.357H29.226a.358.358,0,0,0-.361.355V29.085a.359.359,0,0,0,.361.357h1.381a.358.358,0,0,0,.359-.357V24.828a30.888,30.888,0,0,1,3.247,1.594.36.36,0,0,0,.486-.109l.844-1.275a.354.354,0,0,0-.1-.492l-.013-.008a37.859,37.859,0,0,0-4.462-2.14" transform="translate(-5.749 -17.265)" fill="#222"/>
        <path id="パス_112090" data-name="パス 112090" d="M50.041,20.6H47.707V18.985a.36.36,0,0,0-.361-.359H45.97a.36.36,0,0,0-.361.359V20.6H40.656a.36.36,0,0,0-.361.359v1.36a.359.359,0,0,0,.36.359H44.63a15.941,15.941,0,0,1-4.158,3.586.357.357,0,0,0-.143.478l.609,1.129a.363.363,0,0,0,.49.147l0,0a17.24,17.24,0,0,0,4.175-3.409v2.808H45.1a.359.359,0,0,0-.361.356h0v1.362a.36.36,0,0,0,.361.359h.729a1.874,1.874,0,0,0,1.884-1.864V22.68h2.334a.359.359,0,0,0,.361-.358h0V20.96a.36.36,0,0,0-.361-.359Z" transform="translate(-8.024 -17.27)" fill="#222"/>
        <path id="パス_112091" data-name="パス 112091" d="M55.7,23.775h7.615a.223.223,0,0,1,.224.223v1.63a.225.225,0,0,1-.225.224H55.7a.225.225,0,0,1-.225-.224V24a.225.225,0,0,1,.225-.224" transform="translate(-11.05 -18.316)" fill="#222"/>
        <path id="パス_112092" data-name="パス 112092" d="M82.388,23.775H90a.225.225,0,0,1,.225.224v1.629a.225.225,0,0,1-.225.224H82.389a.225.225,0,0,1-.225-.224V24a.223.223,0,0,1,.224-.223" transform="translate(-16.365 -18.316)" fill="#222"/>
        <path id="パス_112093" data-name="パス 112093" d="M83.723,18.418c-.344-.5-.777-1.036-1.041-1.359a.366.366,0,0,0-.512-.053l0,0-.731.607a.352.352,0,0,0-.05.5c.24.295.626.778.926,1.207a.365.365,0,0,0,.489.1l.81-.5a.356.356,0,0,0,.12-.491l-.009-.014" transform="translate(-16.194 -16.926)" fill="#222"/>
        <path id="パス_112094" data-name="パス 112094" d="M80.488,18.589a.364.364,0,0,0-.511-.05l0,0-.733.607a.356.356,0,0,0-.05.5c.24.293.628.778.926,1.207a.366.366,0,0,0,.49.1l.811-.5a.354.354,0,0,0,.12-.489l-.011-.017c-.343-.5-.778-1.04-1.04-1.36" transform="translate(-15.757 -17.236)" fill="#222"/>
        <path id="パス_112095" data-name="パス 112095" d="M76.049,20.013H73.166a7.232,7.232,0,0,0,.224-.858.387.387,0,0,0-.312-.45.414.414,0,0,0-.07-.006H71.76a.383.383,0,0,0-.377.293c-.235,1.036-1.429,3.578-2.656,4.344a.386.386,0,0,0-.167.467l.448,1.152a.391.391,0,0,0,.5.222l.039-.018a5.208,5.208,0,0,0,1.39-1.138c.573.469,1.47,1.224,2.174,1.935a7.459,7.459,0,0,1-2.907,1.828.385.385,0,0,0-.246.478l.374,1.163a.388.388,0,0,0,.485.251l.01,0a8.987,8.987,0,0,0,6.219-8.739,1,1,0,0,0-1-.921M74.188,24.5c-.764-.744-1.646-1.481-2.191-1.924.113-.188.22-.379.32-.57h2.672a7.309,7.309,0,0,1-.8,2.494" transform="translate(-13.651 -17.285)" fill="#222"/>
      </g>
    </g>
  </g>
</svg>
