<svg xmlns="http://www.w3.org/2000/svg" width="100" height="100" viewBox="0 0 100 100"><g transform="translate(-0.307)"><rect width="100" height="100" rx="50" transform="translate(0.307)" fill="#e7372f"/><g transform="translate(16.973 25.27)"><path d="M279.662,371.194H239.5a1.7,1.7,0,0,0-1.7,1.7v5.762H225.96a3.128,3.128,0,0,0-3.166,2.025c-.821,2.469-8.1,18.86-8.1,20.758v13.62a1.7,1.7,0,0,0,1.7,1.7h8.318a7.875,7.875,0,0,1,15.751,0H259.9a7.875,7.875,0,0,1,15.75,0h4.012a1.7,1.7,0,0,0,1.7-1.7V372.889A1.7,1.7,0,0,0,279.662,371.194Zm-44.258,25.9a.493.493,0,0,1-.493.493H221.376a.493.493,0,0,1-.494-.493l5.512-14.036c.127-.328.221-.493.494-.493h8.023a.493.493,0,0,1,.493.493Zm20.741-8.569v12.4a1.338,1.338,0,0,1-2.676,0V388.511a5.4,5.4,0,0,1-.844-.331,4.082,4.082,0,0,1-2.328-3.913v-4.915a1.337,1.337,0,0,1,1.338-1.338h0a1.338,1.338,0,0,1,1.336,1.339V384.3a1.59,1.59,0,0,0,.5,1.261v-6.282a1.338,1.338,0,0,1,2.675,0v6.156a1.76,1.76,0,0,0,.426-1.247v-4.761a1.337,1.337,0,0,1,1.337-1.337h0a1.339,1.339,0,0,1,1.337,1.337v4.726A4.329,4.329,0,0,1,256.144,388.523Zm13.014,12.428a1.34,1.34,0,0,1-1.335,1.336h0a1.34,1.34,0,0,1-1.339-1.334v-8.88h-.8a1.339,1.339,0,0,1-1.338-1.337v-7.524a6,6,0,0,1,1.446-3.835c.94-1.065,1.489-1.48,2-1.506a1.156,1.156,0,0,1,.9.268,1.41,1.41,0,0,1,.467,1.066Z" transform="translate(-214.692 -371.194)" fill="#fff"/><circle cx="4.75" cy="4.75" r="4.75" transform="translate(13.154 40.806)" fill="#fff"/><circle cx="4.75" cy="4.75" r="4.75" transform="translate(48.261 40.806)" fill="#fff"/></g></g></svg>