<svg xmlns="http://www.w3.org/2000/svg" xmlns:xlink="http://www.w3.org/1999/xlink" width="73.86" height="17" viewBox="0 0 73.86 17">
  <defs>
    <clipPath id="clip-path">
      <rect id="長方形_5375" data-name="長方形 5375" width="73.86" height="17" transform="translate(1528 61)" fill="#fff" stroke="#707070" stroke-width="1"/>
    </clipPath>
  </defs>
  <g id="h_icon_delivery_txt" transform="translate(-1528 -61)" clip-path="url(#clip-path)">
    <g id="h_icon_delivery_txt-2" data-name="h_icon_delivery_txt" transform="translate(8.688 -0.184)">
      <path id="パス_112097" data-name="パス 112097" d="M-11.192-9.2a4.9,4.9,0,0,0-1.225-.84c-.261,0-.98.807-.98,1.05,0,.178.18.307.294.388a23.317,23.317,0,0,1,2.172,1.809.658.658,0,0,0,.359.194c.327,0,1.029-.791,1.029-1.1,0-.178-.816-.856-1.257-1.195C-10.931-8.989-11.061-9.1-11.192-9.2ZM-18.867-2.8c0,.065.016.145.016.226,0,.032.033.694.033.71,0,.065-.016.129-.114.129a.324.324,0,0,1-.2-.1,3.929,3.929,0,0,0-.833-.5.368.368,0,0,0-.359.323c0,.129.114.226.2.307a3.273,3.273,0,0,1,1,1.26c.131.275.245.614.6.614.441,0,1.437-.388,1.437-1.179,0-.161-.114-1.615-.147-1.954-.016-.226-.049-.872-.049-1.066a.542.542,0,0,1,.261-.5,6.421,6.421,0,0,1,2.874-.775c.914,0,1.96.5,1.96,1.518,0,1.179-1.388,1.486-2.335,1.486a13.036,13.036,0,0,1-1.339-.145c-.245,0-.294.21-.294.42a3.1,3.1,0,0,0,.261,1.163c.082.161.425.178.686.178h.2a6.564,6.564,0,0,0,3.282-.727,2.834,2.834,0,0,0,1.306-2.406c0-1.938-1.747-3.052-3.56-3.052a7.71,7.71,0,0,0-2.711.533A1.561,1.561,0,0,1-17.1-6.2c-.212,0-.245-.355-.245-.63v-.226c0-.743.033-.856.637-.969,1.241-.21,1.519-.21,1.519-.63,0-.275-.049-1.324-.425-1.324a.9.9,0,0,0-.278.081c-.163.048-.914.275-1.029.275a.285.285,0,0,1-.278-.275c0-.065.016-.161.016-.226.016-.145.033-.275.049-.371.049-.5.065-.694.31-.888.065-.065.163-.161.163-.258,0-.145-.229-.194-.327-.21-.327-.065-1.421-.291-1.666-.291-.163,0-.212.113-.212.242,0,.065.033.436.033.759,0,.452-.016.9-.033,1.356A.649.649,0,0,1-19-9.3a.877.877,0,0,1-.6.194c-.506.065-1.078.1-1.584.113-.31.016-.343.081-.343.517,0,1.179.261,1.195.474,1.195.245,0,1.355-.194,1.666-.258.033,0,.065-.016.1-.016a.354.354,0,0,1,.359.371v.161c0,.242-.016.484-.016.727v.549c0,.5-.065.517-.686.888-.9.549-1.764,1.13-2.678,1.647-.2.113-.376.161-.376.339,0,.323.653,1.534.98,1.534a.516.516,0,0,0,.245-.129,20.653,20.653,0,0,1,2.417-1.792C-18.883-3.257-18.883-3.1-18.867-2.8ZM-3.011-9.99a.465.465,0,0,1-.457-.452v-.581a.431.431,0,0,1,.457-.436h8a.431.431,0,0,1,.457.436v.581a.465.465,0,0,1-.457.452ZM4.68-8.682c.506,0,1.012.032,1.519.032.6,0,.914-.161.914-.807,0-.355-.033-.727-.033-1.082v-.388c0-.355.033-.71.033-1.082,0-.662-.31-.807-.931-.807-.49,0-1,.032-1.5.032H-2.7c-.49,0-1-.032-1.5-.032-.621,0-.914.161-.914.824,0,.436.016.856.016,1.292v2.2c0,2.761-.065,6.007-1.4,8.494a1.2,1.2,0,0,0-.147.4c0,.339.963.71,1.274.71.245,0,.425-.113.9-1.5A22.345,22.345,0,0,0-3.468-8.23c.033-.307.147-.452.457-.452ZM5.872-4.274a.454.454,0,0,1-.457.452H3.8c-.278-.032-.441-.161-.441-.452v-.484A.43.43,0,0,1,3.8-5.211H5.415a.465.465,0,0,1,.457.452Zm0,2.794a.454.454,0,0,1-.457.452H3.8a.406.406,0,0,1-.441-.452v-.6A.43.43,0,0,1,3.8-2.53H5.415a.465.465,0,0,1,.457.452Zm-6.63-.6A.43.43,0,0,1-.317-2.53H1.267a.465.465,0,0,1,.457.452v.6a.454.454,0,0,1-.457.452H-.317A.406.406,0,0,1-.758-1.48Zm.441-1.744c-.278-.032-.441-.161-.441-.452v-.484a.43.43,0,0,1,.441-.452H1.267a.465.465,0,0,1,.457.452v.484a.454.454,0,0,1-.457.452Zm0-2.713c-.441,0-.865-.032-1.306-.032-.506,0-.7.161-.7.678,0,.339.016.678.016,1.033V-.382c0,.4-.016.807-.016,1.211,0,.371.2.355.8.355.588,0,.784.016.784-.355V.667c0-.242.131-.355.376-.355h5.83c.261,0,.376.113.376.355V.829c0,.371.2.355.816.355.572,0,.784.016.784-.355,0-.258-.033-.9-.033-1.211V-4.855c0-.371.016-.678.016-.937,0-.533-.1-.775-.718-.775-.425,0-.865.032-1.29.032h-1.6c-.327-.032-.457-.129-.457-.452v-.242c0-.275.016-.549.2-.63.1-.065.212-.1.212-.226s-.065-.178-.343-.194c-.294-.016-1.225-.081-1.486-.081-.163,0-.294.032-.294.226,0,.032.016.129.016.178.033.339.049.63.065.969-.033.323-.147.42-.457.452Zm19.285-5.3a.716.716,0,0,0,.016.194,19.29,19.29,0,0,1,.408,2.648.435.435,0,0,1-.343.436c-.376.081-2.041.21-2.5.242-.718.032-.784.032-.784.662,0,1.017.261,1.05.474,1.05a3.442,3.442,0,0,0,.572-.065c.294-.048,2.2-.339,2.335-.339.376,0,.408.323.408.824v.339A5.954,5.954,0,0,1,17.221-.592a.265.265,0,0,0-.131.242c0,.291.9,1.066,1.192,1.066.343,0,.963-.727,1.159-.985a7.87,7.87,0,0,0,1.8-5.28c0-.42-.016-.856-.016-1.292,0-.565.474-.549,1.061-.614.849-.113,1.029-.129,1.029-.533,0-.275-.016-1.26-.376-1.26a1.274,1.274,0,0,0-.245.032c-.18.048-1.078.242-1.208.242-.278,0-.359-.226-.376-.468-.016-.5-.082-1-.082-1.5,0-.614.245-.581.245-.791,0-.113-.147-.145-.229-.161-.49-.081-1-.065-1.5-.113-.082,0-.2-.032-.278-.032C19.115-12.041,18.968-11.992,18.968-11.831Zm-4.834.549c-.18-.065-1.372-.484-1.453-.484-.2,0-.212.242-.245.388a3.666,3.666,0,0,1-.114.452,18.88,18.88,0,0,0-.833,5.3,10.417,10.417,0,0,0,1.159,5.1c.212.355.31.5.572.5.147,0,1.241-.226,1.241-.856,0-.258-.016-.517-.016-.759a14.858,14.858,0,0,1,.6-2.826c0-.194-.539-.484-.686-.484-.18,0-.294.355-.457.759-.065.145-.229.71-.359.71-.31,0-.425-1.873-.425-2.18A13.04,13.04,0,0,1,14-10.2a.931.931,0,0,1,.523-.581c.082-.048.163-.081.163-.178C14.69-11.137,14.461-11.185,14.135-11.282Z" transform="translate(1556 76)" fill="#222" stroke="#222" stroke-linecap="round" stroke-linejoin="round" stroke-width="0.4"/>
    </g>
  </g>
</svg>
