<svg id="_55thロゴ" data-name="55thロゴ" xmlns="http://www.w3.org/2000/svg" xmlns:xlink="http://www.w3.org/1999/xlink" width="111.533" height="81.79" viewBox="0 0 111.533 81.79">
  <defs>
    <clipPath id="clip-path">
      <rect id="Rectangle_9074" data-name="Rectangle 9074" width="111.533" height="81.79" fill="none"/>
    </clipPath>
  </defs>
  <g id="Group_6810" data-name="Group 6810" clip-path="url(#clip-path)">
    <path id="Path_182605" data-name="Path 182605" d="M65.06,57.778a.816.816,0,0,0,.1-.819,25.994,25.994,0,0,1-1.379-4.339A10.674,10.674,0,0,1,71,40.112a.8.8,0,0,0,.562-.772,26.976,26.976,0,0,0-.389-4.279,22.119,22.119,0,0,0-1.427-4.974A20.37,20.37,0,0,0,58.239,18.86a19.888,19.888,0,0,0-2.726-.794.087.087,0,0,1-.061-.122l.873-1.9a.085.085,0,0,1,.079-.051c.718.006,8.291.059,12.337-.1a9.221,9.221,0,0,0,7.55-3.713c1.465-1.843,3.134-6.455-.05-9.966C74.3.066,71.034.054,69.748.054,65.073.054,55.852.009,51.22,0a8,8,0,0,0-7.313,4.761c-.895,1.776-9.525,21.087-9.995,23.775-.829,4.746,3.579,7.984,7.994,7.994C46.7,36.541,48.8,32.4,52.64,33.944c3.787,1.519,3.053,7.393,1.644,10.821a13.375,13.375,0,0,1-5.457,6.6c-6.759,3.6-8.393-2.994-9.771-5.414a7.332,7.332,0,0,0-7.995-3.516,8.054,8.054,0,0,0-6.086,9.613,21.28,21.28,0,0,0,6.75,11.563A20.289,20.289,0,0,0,47.282,68.28a25.092,25.092,0,0,0,12.861-5.523h0a30.329,30.329,0,0,0,4.917-4.978" transform="translate(-20.056 0)" fill="#e7372f"/>
    <path id="Path_182606" data-name="Path 182606" d="M483.019,64.2c-3.876-2.118-7.116-5.181-7.714-10.451-.033-.292-.066-.676-.521-.757s-.828.226-1.162.706a22.067,22.067,0,0,1-13.135,8.983c-.367.1-.8.243-.911.679a.775.775,0,0,0,.338.785,21.541,21.541,0,0,1,6.871,11.456c.062.287.174.6.484.662.408.076.811-.311,1.062-.611a32.794,32.794,0,0,1,14.047-9.927c.361-.118,1.007-.327,1.1-.739a.705.705,0,0,0-.46-.787m-14.054-.616s-1,2.863-1.042,3.023c-.07.263-.073.478.311.495.854.038.73,1.419-.68,1.419a3.372,3.372,0,0,1-.961-.152c-.628-.269-.494-.986-.35-1.5.237-.848.966-2.842,1.135-3.336-1.065,0-1.029-.558-1.008-.7a.794.794,0,0,1,.766-.672c.414.006.714.018.714.018s.422-1.239.451-1.3a.928.928,0,0,1,.99-.577.662.662,0,0,1,.492.9c-.031.1-.371,1.049-.371,1.049s.49.017.583.023a.571.571,0,0,1,.54.671.8.8,0,0,1-.766.672c-.048,0-.8-.027-.8-.027m7.365,1.073c-.3.849-1.089,3.115-1.234,3.381a.917.917,0,0,1-.783.483.694.694,0,0,1-.362-.1.632.632,0,0,1-.3-.674c.045-.216.337-.99.607-1.775.183-.533.65-1.533.427-2a.615.615,0,0,0-.587-.363,1.388,1.388,0,0,0-.915.32,2.269,2.269,0,0,0-.69,1.079s-.963,2.6-1.043,2.866a.92.92,0,0,1-.85.642.637.637,0,0,1-.664-.772c.043-.172.75-2.189,1.42-4.1.656-1.87,1.313-3.733,1.341-3.779a.858.858,0,0,1,.85-.487.644.644,0,0,1,.616.78c-.07.3-.873,2.554-.873,2.554a2.553,2.553,0,0,1,1.608-.4,1.684,1.684,0,0,1,1.432,2.344" transform="translate(-371.964 -42.885)" fill="#ffb700"/>
    <path id="Path_182607" data-name="Path 182607" d="M293.264,2.209C291.321.066,288.058.054,286.772.054c-4.675,0-13.9-.045-18.528-.054a8,8,0,0,0-7.313,4.761c-.895,1.776-9.58,21.079-10,23.775-.453,2.944,1.037,4.859,2.9,6.239a.815.815,0,0,0,1.1-.114,7.075,7.075,0,0,1,1.7-1.436,6.462,6.462,0,0,1,3.551-.937h0a5.2,5.2,0,0,1,4.758,3.094.313.313,0,0,0,.564.06,6.065,6.065,0,0,1,2.049-1.822,6.551,6.551,0,0,1,2.957-.8,6.351,6.351,0,0,1,4.091,1.541,6.62,6.62,0,0,1,1.645,5.731c-.671,4.7-4.134,9.155-8.574,12.217a19.908,19.908,0,0,1-5.053,2.553.493.493,0,0,1-.356-.024,15.705,15.705,0,0,1-4.242-3.008,17.115,17.115,0,0,1-4.8-8.332.8.8,0,0,0-.43-.559,7.294,7.294,0,0,0-4.72-.5A8.054,8.054,0,0,0,242,52.051a21.279,21.279,0,0,0,6.75,11.563,20.288,20.288,0,0,0,15.556,4.665c8.222-.88,16.337-6.608,20.952-15.417a27.01,27.01,0,0,0,1.512-22.776A20.371,20.371,0,0,0,275.263,18.86a19.855,19.855,0,0,0-2.726-.793.088.088,0,0,1-.062-.122l.873-1.9a.085.085,0,0,1,.079-.051c.718.006,8.291.059,12.336-.1a9.221,9.221,0,0,0,7.55-3.713c1.465-1.843,3.134-6.455-.05-9.966" transform="translate(-195.715 0)" fill="#e7372f"/>
    <path id="Path_182608" data-name="Path 182608" d="M7.516,379.973a1.128,1.128,0,0,0-1.089-1.028,1.623,1.623,0,0,0-1.357.838c-1.361,1.9-3.6,5.386-4.861,7.26-.316.469-.412,1.275.737,1.275a1.441,1.441,0,0,0,1.284-.762l.637-1h2.9s.027.572.047.824c.043.568.392.942,1.2.942.783,0,1.144-.531,1.079-1.28Zm-1.842,4.573H4.156l1.418-2.216Z" transform="translate(0 -306.718)" fill="#e7372f"/>
    <path id="Path_182609" data-name="Path 182609" d="M411.276,379.973a1.128,1.128,0,0,0-1.088-1.028,1.624,1.624,0,0,0-1.357.838c-1.361,1.9-3.6,5.386-4.861,7.26-.316.469-.412,1.275.737,1.275a1.441,1.441,0,0,0,1.284-.762l.637-1h2.9s.028.572.047.824c.043.568.392.942,1.2.942.783,0,1.144-.531,1.079-1.28Zm-1.842,4.573h-1.518l1.418-2.216Z" transform="translate(-326.804 -306.718)" fill="#e7372f"/>
    <path id="Path_182610" data-name="Path 182610" d="M64.767,378.945a1.315,1.315,0,0,0-1.316,1.011c-.322.934-1.313,4.471-1.313,4.471s-1.1-2.965-1.788-4.675a1.338,1.338,0,0,0-2.526.2c-.558,1.786-1.574,5.278-2.08,7.091-.192.687.1,1.216.757,1.27a1.226,1.226,0,0,0,1.318-1.011c.268-.847,1.37-4.666,1.37-4.666s1.314,3.43,1.847,4.779a1.285,1.285,0,0,0,1.157.9,1.255,1.255,0,0,0,1.265-1.011c.567-1.885,1.605-5.28,2.119-7.214.167-.628-.035-1.147-.811-1.147" transform="translate(-45.073 -306.718)" fill="#e7372f"/>
    <path id="Path_182611" data-name="Path 182611" d="M123.266,378.945a1.315,1.315,0,0,0-1.316,1.011c-.322.934-1.313,4.471-1.313,4.471s-1.1-2.965-1.788-4.675a1.338,1.338,0,0,0-2.526.2c-.558,1.786-1.574,5.278-2.08,7.091-.192.687.1,1.216.757,1.27a1.226,1.226,0,0,0,1.318-1.011c.268-.847,1.37-4.666,1.37-4.666s1.314,3.43,1.847,4.779a1.285,1.285,0,0,0,1.157.9,1.255,1.255,0,0,0,1.265-1.011c.567-1.885,1.605-5.28,2.119-7.214.167-.628-.035-1.147-.811-1.147" transform="translate(-92.422 -306.718)" fill="#e7372f"/>
    <path id="Path_182612" data-name="Path 182612" d="M177,378.945a1.222,1.222,0,0,0-1.3,1.011c-.557,1.8-1.6,5.406-2.119,7.214-.2.712.035,1.147.811,1.147a1.229,1.229,0,0,0,1.3-1.011c.421-1.4,1.606-5.431,2.126-7.237a.853.853,0,0,0-.818-1.124" transform="translate(-140.439 -306.718)" fill="#e7372f"/>
    <path id="Path_182613" data-name="Path 182613" d="M216.783,378.934c-.664-.034-.987.27-1.419.933-.855,1.309-3.248,5.176-3.248,5.176s-.119-3.889-.173-5.184a.935.935,0,0,0-.992-.925,1.115,1.115,0,0,0-1.235,1.22c.092,1.982.273,5.365.411,7.132a1.027,1.027,0,0,0,1.124,1.058,1.675,1.675,0,0,0,1.478-.822c.94-1.4,3.53-5.42,4.716-7.306a.822.822,0,0,0-.661-1.282" transform="translate(-169.742 -306.707)" fill="#e7372f"/>
    <path id="Path_182614" data-name="Path 182614" d="M261.87,378.945h-4.382a1.293,1.293,0,0,0-1.316,1.011c-.55,1.766-1.585,5.4-2.118,7.206a.832.832,0,0,0,.839,1.155H259.4a1.206,1.206,0,0,0,1.293-.935.83.83,0,0,0-.846-1.071h-3.387l.519-1.766h3.008a1.217,1.217,0,0,0,1.293-.935.824.824,0,0,0-.846-1.071h-2.866l.466-1.588h3.389a1.2,1.2,0,0,0,1.293-.935.854.854,0,0,0-.846-1.071" transform="translate(-205.593 -306.718)" fill="#e7372f"/>
    <path id="Path_182615" data-name="Path 182615" d="M311.535,378.944h-3.224A1.292,1.292,0,0,0,307,379.955c-.572,1.852-1.576,5.2-2.118,7.214a.848.848,0,0,0,.811,1.147,1.275,1.275,0,0,0,1.3-1.011l.77-2.621h1.4s.293,2.032.417,2.723a1.149,1.149,0,0,0,1.357.91,1.023,1.023,0,0,0,.914-1.218c-.118-.67-.485-2.559-.485-2.559a3.4,3.4,0,0,0,1.39-.691,3.27,3.27,0,0,0,1.154-3.652c-.249-.7-1.01-1.252-2.374-1.252m.065,2.865c-.119.531-.543.856-1.333.856h-1.914l.5-1.716h2.055a.709.709,0,0,1,.688.859" transform="translate(-246.735 -306.717)" fill="#e7372f"/>
    <path id="Path_182616" data-name="Path 182616" d="M464.835,378.944h-3.224a1.282,1.282,0,0,0-1.316,1.011s-1.6,5.419-2.118,7.214a.846.846,0,0,0,.811,1.147,1.275,1.275,0,0,0,1.3-1.011l.77-2.621h1.4s.293,2.032.417,2.723a1.149,1.149,0,0,0,1.357.91,1.022,1.022,0,0,0,.914-1.218c-.118-.67-.485-2.559-.485-2.559a3.406,3.406,0,0,0,1.39-.691,3.27,3.27,0,0,0,1.154-3.652c-.249-.7-1.01-1.252-2.374-1.252m.065,2.865c-.119.531-.543.856-1.333.856h-1.914l.5-1.716h2.055a.709.709,0,0,1,.688.859" transform="translate(-370.814 -306.717)" fill="#e7372f"/>
    <path id="Path_182617" data-name="Path 182617" d="M366.028,379.049a2.993,2.993,0,0,0-2.748-1.371,4.908,4.908,0,0,0-2.227.481,3.483,3.483,0,0,0-1.9,2.245,1.948,1.948,0,0,0,1.625,2.773c1.044.129,2.127.422,1.921,1.314-.156.675-.974.948-1.558.942a2.046,2.046,0,0,1-1.561-.643,1.15,1.15,0,0,0-1.488-.326,1.06,1.06,0,0,0-.438,1.423,3.144,3.144,0,0,0,2.961,1.6,4.735,4.735,0,0,0,2.729-.715,3.623,3.623,0,0,0,1.61-2.151,2.342,2.342,0,0,0-2.222-3.057c-.753-.056-1.591-.25-1.365-.967a1.4,1.4,0,0,1,1.421-.9,1.807,1.807,0,0,1,1.331.52,1.207,1.207,0,0,0,1.571.177,1.026,1.026,0,0,0,.334-1.345" transform="translate(-289.397 -305.692)" fill="#e7372f"/>
    <path id="Path_182618" data-name="Path 182618" d="M524.217,378.906a1.481,1.481,0,0,0-1.357.668c-.534.595-2.092,2.418-2.092,2.418s-.464-1.755-.657-2.328a1.043,1.043,0,0,0-1.157-.757c-.781.045-1.307.557-1.093,1.312.288,1.017,1.181,4.06,1.181,4.06s-.63,2.08-.838,2.854a.9.9,0,0,0,.823,1.147,1.244,1.244,0,0,0,1.3-1.011c.24-.708.843-2.87.843-2.87s2.724-3.044,3.6-4.086a.83.83,0,0,0-.558-1.405" transform="translate(-419.118 -306.679)" fill="#e7372f"/>
  </g>
</svg>
