<svg xmlns="http://www.w3.org/2000/svg" xmlns:xlink="http://www.w3.org/1999/xlink" width="327.297" height="236.602" viewBox="0 0 327.297 236.602">
  <defs>
    <clipPath id="clip-path">
      <rect id="Rectangle_9077" data-name="Rectangle 9077" width="327.297" height="236.602" fill="none"/>
    </clipPath>
  </defs>
  <g id="ミスド集合ロゴ" transform="translate(0 -33.806)">
    <g id="Group_6814" data-name="Group 6814" transform="translate(0 33.806)" clip-path="url(#clip-path)">
      <path id="Path_182645" data-name="Path 182645" d="M246.213,103.156c-58.795,5.261-232.838,19.321-240,18.847-4.6-.305-6.987-3.862-5.991-8.358,2.061-9.312,19.955-81.376,26.606-108.5A6.748,6.748,0,0,1,33.918.022C92.7,4.685,208.787,14.486,265.317,19.809a5.14,5.14,0,0,1,4.536,6.242c-3.886,17.37-13.192,53.953-17.6,71.917a6.84,6.84,0,0,1-6.042,5.188M52.9,135.048c-4.6,18.752-14.336,57.023-18.345,74.988a5.144,5.144,0,0,0,4.54,6.242c58.37,5.536,191.753,15.447,252.933,20.3a7.021,7.021,0,0,0,7.375-5.327c6.914-28.2,25.516-103.111,27.659-112.792,1.034-4.673-1.451-8.371-6.227-8.688-7.444-.494-200.534,14.413-261.655,19.882a7.11,7.11,0,0,0-6.28,5.394" transform="translate(0 0)" fill="#e7372f"/>
      <path id="Path_182646" data-name="Path 182646" d="M219.126,39.62c1.038-3.991,4.949-7.153,8.734-7.063s6.014,3.4,4.977,7.387-4.948,7.153-8.734,7.063-6.014-3.4-4.977-7.387m21.738,7.505c3.786.09,7.7-3.072,8.734-7.063s-1.191-7.3-4.976-7.387-7.7,3.072-8.734,7.063,1.19,7.3,4.976,7.387M108.533,79.391l-3.2,13.075a3.93,3.93,0,0,0,3.482,4.861c8.895.7,23.789-.8,36.261-10.526a24.172,24.172,0,0,0,13.749,11.122,3.921,3.921,0,0,0,4.363-1.4L171.4,85.51a3.951,3.951,0,0,0-1.5-5.929c-4.907-2.337-8.415-4.937-9.86-7.835,8.207-9.331,11.832-27.275,13.117-35.526a3.937,3.937,0,0,0-3.721-4.535l-45.1-2a3.94,3.94,0,0,0-4,2.991l-2.495,10.091a3.939,3.939,0,0,0,3.745,4.884l26.563.536s-1.942,11.6-10.608,20.264C129.5,76.5,118.2,76.818,112.671,76.4a3.944,3.944,0,0,0-4.139,2.991M207.9,68.331l16.574,9.449a3.94,3.94,0,0,0,5.125-1.089l7.294-9.917a3.939,3.939,0,0,0-1.351-5.827L212.661,49.006l3.188-12.913a3.94,3.94,0,0,0-3.684-4.881l-13.062-.47a3.939,3.939,0,0,0-3.97,3.006L181.248,90.832a3.939,3.939,0,0,0,4.083,4.862l13.209-.857a3.941,3.941,0,0,0,3.571-2.99ZM154.7,208.727l5.38-24.94a4.02,4.02,0,0,1,3.941-3.171l50.378.144a4.019,4.019,0,0,1,3.918,4.862l-5.386,25.117a4.019,4.019,0,0,1-4.05,3.175l-51.325-1.538a3.014,3.014,0,0,1-2.856-3.648m19.171-10.07,24.428.449.864-5.014-24.252-.348ZM51.513,39.623,95.44,46.068a3.9,3.9,0,0,0,4.37-3l2.213-9.809a3.9,3.9,0,0,0-3.239-4.718L54.858,22.1a3.9,3.9,0,0,0-4.37,3l-2.213,9.809a3.9,3.9,0,0,0,3.239,4.717M46.185,65.688l42.567,6.245a3.9,3.9,0,0,0,4.371-3l2.212-9.809A3.9,3.9,0,0,0,92.1,54.406L49.53,48.161a3.9,3.9,0,0,0-4.37,3L42.947,60.97a3.9,3.9,0,0,0,3.239,4.718m-7.92,27.421,46.063,7.035a3.9,3.9,0,0,0,4.393-3l2.6-11.516A3.9,3.9,0,0,0,88.1,80.917L42.04,73.882a3.9,3.9,0,0,0-4.393,3L35.049,88.4a3.9,3.9,0,0,0,3.216,4.713M275.61,189.428c3.749.055,7.591-3.11,8.583-7.069s-1.243-7.215-4.992-7.27-7.591,3.11-8.583,7.07,1.243,7.214,4.992,7.269m13.5-13c3.749.055,7.591-3.11,8.583-7.07s-1.243-7.215-4.992-7.269-7.592,3.11-8.583,7.069,1.243,7.215,4.992,7.27M145.367,146.771l-.847,3.587a2.864,2.864,0,0,1-2.63,2.212l-21.24,1.277-.475,1.992,19.506-1.005a2.88,2.88,0,0,1,2.954,3.524l-.68,2.943a2.886,2.886,0,0,1-2.7,2.23l-21.085.787-.5,2.081,19.519-.683a2.881,2.881,0,0,1,2.9,3.573l-.672,2.705a2.884,2.884,0,0,1-2.726,2.185l-20.97.5-.466,1.943,19.429-.327a2.921,2.921,0,0,1,2.29,1.073,2.866,2.866,0,0,1,.561,2.468l-.772,3.276a2.871,2.871,0,0,1-2.8,2.22l-20.753,0-.412,1.854,25.345.075a3.269,3.269,0,0,1,3.171,4.021l-1.131,4.778a3.251,3.251,0,0,1-3.249,2.516l-10.319-.211-.435,1.875,8.882.218a3.267,3.267,0,0,1,3.089,4.07l-1.276,5.034a3.28,3.28,0,0,1-3.164,2.466l-.137,0c-1.032-.044-12.52-.547-15.915-.691a6.861,6.861,0,0,1-5.19-2.524,5.8,5.8,0,0,1-.91-5l1.273-5.738-2.321-.035-2.634,9.513a4.225,4.225,0,0,1-4.248,3.107l-7.848-.3a2.88,2.88,0,0,1-2.673-3.624l2.416-9.016-2.687-.031-1.242,4.609-.016,0c-.566,1.855-2.43,6.448-7.2,7.43-1.864.3-11.922-.074-16.9-.341a3.266,3.266,0,0,1-3-4.039l.92-3.772a3.26,3.26,0,0,1,3.229-2.494l11.023.149c.2-.59.443-1.333.59-1.8l-9.876-.168a3.269,3.269,0,0,1-3.12-4l.836-3.659a3.251,3.251,0,0,1,3.186-2.542h.012l26.571.074.386-1.785-18.225,0a3.269,3.269,0,0,1-3.156-4.115l5.288-19.739-3.791.075a2.823,2.823,0,0,1-2.34-1.072,2.857,2.857,0,0,1-.548-2.521l1.367-5.337a3.262,3.262,0,0,1,2.937-2.45c.4-.027.881-.044,1.411-.062a33.661,33.661,0,0,0,4.194-.326c3.268-.535,4.883-5.479,5.554-8.379a3.25,3.25,0,0,1,2.9-2.5l7.124-.606a3.268,3.268,0,0,1,3.433,4.109l-1,3.694,4.287-.346,1.4-5.956a3.265,3.265,0,0,1,2.89-2.5l8.335-.747a3.268,3.268,0,0,1,3.471,4.017l-.979,4.089,19.55-1.43a2.88,2.88,0,0,1,3.012,3.535M93.32,174.889l-.525,2.2,7.4-.118.528-2.22Zm11.67-18.1.472-1.991L98,155.218l-.47,1.984Zm-9.32,8.157-.467,1.962,7.441-.268.468-1.926Zm133.768-1.736-2.484,9.939a3.014,3.014,0,0,1-4.734,1.679l-6.481-5.093-.967,4.152a3.013,3.013,0,0,1-2.924,2.33l-40.8.148a3.015,3.015,0,0,1-2.963-3.629l.856-4.107-7.82,4.722a3.014,3.014,0,0,1-4.6-3.164l2.228-10.157a4.02,4.02,0,0,1,1.788-2.543l34.871-21.9a4.019,4.019,0,0,1,4.705.312l27.99,23.245a4.019,4.019,0,0,1,1.331,4.067m-22.813-.637-10.615-8.342a2.469,2.469,0,0,0-2.824-.238l-15.337,9.261Zm37.329-18.59-2.27,9.306a3.528,3.528,0,0,0,3.748,4.349l22.675-2.067-21.583,19.243a20.481,20.481,0,0,0-6.3,10.569l-5.186,21.893a3.919,3.919,0,0,0,3.741,4.822l39.052.731a3.921,3.921,0,0,0,3.9-3.049l2.187-9.595a3.92,3.92,0,0,0-3.747-4.791l-23.291-.446,1.608-7.544,34.026-32.677a3.92,3.92,0,0,1,2.388-1.079l4.153-.349a3.919,3.919,0,0,0,3.484-2.991l2.212-9.213a3.92,3.92,0,0,0-4.16-4.82l-53.17,4.731a3.921,3.921,0,0,0-3.461,2.976" transform="translate(-3.209 -2.025)" fill="#fff"/>
    </g>
  </g>
</svg>
