<svg xmlns="http://www.w3.org/2000/svg" width="106.386" height="11.553" viewBox="0 0 106.386 11.553"><path d="M928.352,57.788v-.941a.512.512,0,0,0-.512-.512h-6.46a.512.512,0,0,0-.512.512v.941a.512.512,0,0,0,.512.512h6.46a.512.512,0,0,0,.512-.512" transform="translate(-846.653 -51.794)" fill="#e7372f"/><path d="M1234.683,57.788v-.941a.512.512,0,0,0-.512-.512h-6.46a.512.512,0,0,0-.512.512v.941a.512.512,0,0,0,.512.512h6.46a.512.512,0,0,0,.512-.512" transform="translate(-1128.297 -51.794)" fill="#e7372f"/><path d="M595.241,32.877h.941a.512.512,0,0,0,.512-.512V28.213h8.3a.512.512,0,0,0,.512-.512V26.76a.512.512,0,0,0-.512-.512h-8.3v-2.24a.512.512,0,0,0-.512-.512h-.941a.512.512,0,0,0-.512.512v8.358a.512.512,0,0,0,.512.512" transform="translate(-546.799 -21.601)" fill="#e7372f"/><path d="M.512,31.816H11.536c-.705,1.773-2.936,5.061-9.8,5.214a.513.513,0,0,0-.5.512v.941A.512.512,0,0,0,1.757,39c11.01-.237,12.035-7.97,12.044-8.05l.061-.525a.512.512,0,0,0-.509-.571H.512A.512.512,0,0,0,0,30.362V31.3a.512.512,0,0,0,.512.512" transform="translate(0 -27.444)" fill="#e7372f"/><path d="M404.959,42.733c9.257-.22,10.778-6.311,11.027-8.238a.513.513,0,0,0-.507-.579l-.936,0a.513.513,0,0,0-.511.446c-.191,1.5-1.4,6.213-9.1,6.408a.513.513,0,0,0-.5.514v.94a.511.511,0,0,0,.522.512" transform="translate(-371.843 -31.18)" fill="#e7372f"/><path d="M204.325,62.651h9.907c-.835,1.091-2.974,2.64-8.4,2.73a.513.513,0,0,0-.506.512v.941a.512.512,0,0,0,.519.512c10.3-.169,10.851-5.372,10.87-5.6l.043-.51a.512.512,0,0,0-.51-.555H204.325a.512.512,0,0,0-.512.512v.941a.512.512,0,0,0,.512.512" transform="translate(-187.388 -55.794)" fill="#e7372f"/><path d="M142.6,1.931h.6a.512.512,0,0,0,.512-.512V.512A.512.512,0,0,0,143.2,0h-.6a.512.512,0,0,0-.512.512v.907a.512.512,0,0,0,.512.512" transform="translate(-130.639 0)" fill="#e7372f"/><path d="M171.615,1.931h.6a.512.512,0,0,0,.512-.512V.512A.512.512,0,0,0,172.212,0h-.6a.512.512,0,0,0-.512.512v.907a.512.512,0,0,0,.512.512" transform="translate(-157.313)" fill="#e7372f"/><path d="M677.748,20.269h.6a.512.512,0,0,0,.512-.512v-.995a.512.512,0,0,0-.512-.512h-.6a.512.512,0,0,0-.512.512v.995a.512.512,0,0,0,.512.512" transform="translate(-622.658 -16.779)" fill="#e7372f"/><path d="M706.762,20.269h.6a.512.512,0,0,0,.512-.512v-.995a.512.512,0,0,0-.512-.512h-.6a.512.512,0,0,0-.512.512v.995a.512.512,0,0,0,.512.512" transform="translate(-649.332 -16.779)" fill="#e7372f"/><path d="M1141.8,19.84h.6a.512.512,0,0,0,.513-.512v-.995a.512.512,0,0,0-.513-.512h-.6a.512.512,0,0,0-.512.512v.995a.512.512,0,0,0,.512.512" transform="translate(-1049.313 -16.385)" fill="#e7372f"/><path d="M1170.816,19.84h.6a.512.512,0,0,0,.512-.512v-.995a.512.512,0,0,0-.512-.512h-.6a.512.512,0,0,0-.512.512v.995a.512.512,0,0,0,.512.512" transform="translate(-1075.987 -16.385)" fill="#e7372f"/><path d="M1062.452,31.262h-8.714V28.7h7.443a.512.512,0,0,0,.512-.512v-.941a.512.512,0,0,0-.512-.512h-7.443V24.505a.512.512,0,0,0-.512-.512h-.941a.512.512,0,0,0-.512.512v8.21a.512.512,0,0,0,.512.512h10.167a.512.512,0,0,0,.512-.512v-.941a.512.512,0,0,0-.512-.512" transform="translate(-967.008 -22.059)" fill="#e7372f"/><path d="M225.76,27.018h8.621a.512.512,0,0,0,.512-.512v-.941a.512.512,0,0,0-.512-.512H225.76a.512.512,0,0,0-.512.512v.941a.512.512,0,0,0,.512.512" transform="translate(-207.094 -23.033)" fill="#e7372f"/><path d="M408.57,26.853l3.053.027a.512.512,0,0,0,.517-.508l.008-.941a.512.512,0,0,0-.508-.517l-3.053-.027a.512.512,0,0,0-.517.508l-.008.941a.512.512,0,0,0,.508.517" transform="translate(-375.175 -22.881)" fill="#e7372f"/><path d="M765.693,35.236a.512.512,0,0,0-.71-.143l-.784.521a.512.512,0,0,0-.143.71l.529.8h-6.347l2.683-5.633a.512.512,0,0,0-.242-.683l-.85-.4a.512.512,0,0,0-.683.242l-3.672,7.711a.512.512,0,0,0,.463.732h11.359a.512.512,0,0,0,.427-.8Z" transform="translate(-694.542 -27.903)" fill="#e7372f"/></svg>