<svg xmlns="http://www.w3.org/2000/svg" width="61.92" height="9.76" viewBox="0 0 61.92 9.76"><path d="M686.983,36.017h-6.44a.509.509,0,0,0-.509.509v.941a.509.509,0,0,0,.509.509h6.44a.509.509,0,0,0,.509-.509v-.941a.509.509,0,0,0-.509-.509" transform="translate(-625.572 -33.132)" fill="#e7372f"/><path d="M544.9,2.461h-.941a.509.509,0,0,0-.509.509v3.5a2.745,2.745,0,0,1-.786,2.1c-1.036,1.015-3.178,1.523-6.371,1.509a.51.51,0,0,0-.513.5l-.019.932a.51.51,0,0,0,.515.519c4.975-.043,6.388-.716,7.759-2.06a4.7,4.7,0,0,0,1.374-3.5V2.97a.509.509,0,0,0-.509-.509" transform="translate(-492.849 -2.264)" fill="#e7372f"/><rect width="1.959" height="4.91" rx="0.5" transform="translate(42.584 0.197)" fill="#e7372f"/><path d="M183.919,11.185l-2.924-1.869a11.886,11.886,0,0,0,2.578-5.144.509.509,0,0,0-.5-.618h-10.3a.509.509,0,0,0-.509.509V5a.509.509,0,0,0,.509.509H181a7.967,7.967,0,0,1-1.657,2.7,9.468,9.468,0,0,1-6.869,2.862.51.51,0,0,0-.5.509v.941a.51.51,0,0,0,.529.509,11.839,11.839,0,0,0,7.018-2.328l3.328,2.127a.509.509,0,0,0,.7-.149l.517-.786a.509.509,0,0,0-.151-.709" transform="translate(-158.205 -3.27)" fill="#e7372f"/><path d="M373.338,5h-8.245V2.773a.509.509,0,0,0-.509-.509h-.935a.509.509,0,0,0-.509.509v8.306a.509.509,0,0,0,.509.509h.935a.509.509,0,0,0,.509-.509V6.953h8.245a.509.509,0,0,0,.509-.509V5.508A.509.509,0,0,0,373.338,5" transform="translate(-334.056 -2.083)" fill="#e7372f"/><path d="M10.613,7.478H1.954V4.937h7.4a.509.509,0,0,0,.509-.509V3.492a.509.509,0,0,0-.509-.509h-7.4V.509A.509.509,0,0,0,1.444,0H.509A.509.509,0,0,0,0,.509V8.922a.509.509,0,0,0,.509.509h10.1a.509.509,0,0,0,.509-.509V7.987a.509.509,0,0,0-.509-.509" fill="#e7372f"/></svg>