<svg xmlns="http://www.w3.org/2000/svg" xmlns:xlink="http://www.w3.org/1999/xlink" width="142.823" height="11.553" viewBox="0 0 142.823 11.553"><defs><clipPath id="a"><rect width="142.823" height="11.553" fill="#e7372f"/></clipPath></defs><g clip-path="url(#a)"><path d="M1686.057,56.6h-6.48a.512.512,0,0,0-.512.512v.947a.512.512,0,0,0,.512.512h6.48a.512.512,0,0,0,.512-.512v-.947a.512.512,0,0,0-.512-.512" transform="translate(-1543.747 -52.034)" fill="#e7372f"/><path d="M775.492,24.887H764.869a.512.512,0,0,0-.512.512v.947a.512.512,0,0,0,.512.512h8.691a3.426,3.426,0,0,1-1.974,1.054.512.512,0,0,0-.565-.354l-.943.142a.511.511,0,0,0-.435.518,4.921,4.921,0,0,1-.866,3.1,3.769,3.769,0,0,1-2.729,1.147.513.513,0,0,0-.483.511v.948a.513.513,0,0,0,.542.512,5.761,5.761,0,0,0,4.173-1.842,5.279,5.279,0,0,0,1.238-2.668,5.663,5.663,0,0,0,3.565-1.827,3.862,3.862,0,0,0,.907-2.195l.014-.487a.512.512,0,0,0-.512-.527" transform="translate(-702.756 -22.881)" fill="#e7372f"/><path d="M1618.282,2.665h.6a.512.512,0,0,0,.512-.512V1.241a.512.512,0,0,0-.512-.512h-.6a.512.512,0,0,0-.512.512v.912a.512.512,0,0,0,.512.512" transform="translate(-1487.392 -0.67)" fill="#e7372f"/><path d="M1647.974.729h-.6a.512.512,0,0,0-.512.512v.912a.512.512,0,0,0,.512.512h.6a.512.512,0,0,0,.512-.512V1.241a.512.512,0,0,0-.512-.512" transform="translate(-1514.138 -0.67)" fill="#e7372f"/><rect width="1.625" height="2.025" rx="0.5" transform="translate(100.406 1.465)" fill="#e7372f"/><path d="M1276.075,18.183h-.6a.512.512,0,0,0-.512.512v1a.512.512,0,0,0,.512.512h.6a.512.512,0,0,0,.512-.512v-1a.512.512,0,0,0-.512-.512" transform="translate(-1172.211 -16.718)" fill="#e7372f"/><path d="M1327.95,23.771h-1.271v-.736a.512.512,0,0,0-.512-.512h-.947a.512.512,0,0,0-.512.512v.736h-5.5v-.736a.512.512,0,0,0-.512-.512h-.947a.512.512,0,0,0-.512.512v.736h-1.612a.512.512,0,0,0-.512.512v.947a.512.512,0,0,0,.512.512h1.612V27.8a.512.512,0,0,0,.512.512h.947a.512.512,0,0,0,.512-.512V25.742h5.5v.917a2.762,2.762,0,0,1-.791,2.112c-1.042,1.021-3.2,1.532-6.411,1.519a.513.513,0,0,0-.516.5l-.019.947a.513.513,0,0,0,.511.523h.134c3.737,0,6.254-.683,7.681-2.082a4.731,4.731,0,0,0,1.383-3.52v-.917h1.271a.512.512,0,0,0,.512-.512v-.947a.512.512,0,0,0-.512-.512" transform="translate(-1209.13 -20.708)" fill="#e7372f"/><path d="M1512.362,32.126h-8.348a.513.513,0,0,0-.389.179l-.141.165c-.017.02-1.568,1.827-2.956,3.25a.512.512,0,0,0,0,.718l.668.671a.512.512,0,0,0,.73,0c1.078-1.1,2.223-2.4,2.752-3.008h5.878a7.266,7.266,0,0,1-1.625,2.611l-3.251-1.639a.512.512,0,0,0-.688.227l-.426.845a.512.512,0,0,0,.227.688l2.381,1.2a9.826,9.826,0,0,1-4.091,1.09.512.512,0,0,0-.477.526l.028.947a.514.514,0,0,0,.547.5c4.389-.277,6.758-2.3,7.982-3.982a9.082,9.082,0,0,0,1.639-3.876l.064-.53a.512.512,0,0,0-.508-.574" transform="translate(-1379.465 -29.537)" fill="#e7372f"/><path d="M595.241,32.877h.941a.512.512,0,0,0,.512-.512V28.213h8.3a.512.512,0,0,0,.512-.512V26.76a.512.512,0,0,0-.512-.512h-8.3v-2.24a.512.512,0,0,0-.512-.512h-.941a.512.512,0,0,0-.512.512v8.358a.512.512,0,0,0,.512.512" transform="translate(-546.799 -21.602)" fill="#e7372f"/><path d="M13.862,30.421a.512.512,0,0,0-.509-.571H.512A.512.512,0,0,0,0,30.362V31.3a.512.512,0,0,0,.512.512H11.536c-.705,1.773-2.936,5.061-9.8,5.214a.513.513,0,0,0-.5.512v.941A.512.512,0,0,0,1.757,39c11.01-.237,12.035-7.97,12.044-8.05Z" transform="translate(0 -27.444)" fill="#e7372f"/><path d="M415.479,33.915l-.936,0a.512.512,0,0,0-.511.446c-.191,1.5-1.4,6.213-9.1,6.408a.513.513,0,0,0-.5.514v.94a.511.511,0,0,0,.522.512c9.257-.22,10.778-6.311,11.027-8.238a.513.513,0,0,0-.507-.579" transform="translate(-371.843 -31.18)" fill="#e7372f"/><path d="M216.757,61.241a.512.512,0,0,0-.51-.555H204.325a.512.512,0,0,0-.512.512v.941a.512.512,0,0,0,.512.512h9.907c-.835,1.091-2.974,2.64-8.4,2.73a.513.513,0,0,0-.506.512v.941a.512.512,0,0,0,.519.512c10.3-.169,10.851-5.372,10.87-5.6Z" transform="translate(-187.387 -55.795)" fill="#e7372f"/><path d="M172.212,0h-.6a.512.512,0,0,0-.512.512v.907a.512.512,0,0,0,.512.512h.6a.512.512,0,0,0,.512-.512V.512A.512.512,0,0,0,172.212,0" transform="translate(-157.314)" fill="#e7372f"/><path d="M172.212,0h-.6a.512.512,0,0,0-.512.512v.907a.512.512,0,0,0,.512.512h.6a.512.512,0,0,0,.512-.512V.512A.512.512,0,0,0,172.212,0" transform="translate(-159.652)" fill="#e7372f"/><rect width="1.621" height="2.019" rx="0.5" transform="translate(54.579 1.471)" fill="#e7372f"/><rect width="1.621" height="2.019" rx="0.5" transform="translate(56.918 1.471)" fill="#e7372f"/><rect width="9.645" height="1.966" rx="0.5" transform="translate(18.153 2.019)" fill="#e7372f"/><path d="M408.588,24.887a.512.512,0,0,0-.517.508l-.008.941a.512.512,0,0,0,.508.517l3.053.027a.512.512,0,0,0,.517-.508l.008-.941a.512.512,0,0,0-.508-.517Z" transform="translate(-375.176 -22.881)" fill="#e7372f"/><path d="M950.268,33.915l-.936,0a.513.513,0,0,0-.511.446c-.191,1.5-1.4,6.213-9.1,6.408a.513.513,0,0,0-.5.514v.94a.511.511,0,0,0,.521.512c9.257-.22,10.778-6.311,11.027-8.238a.513.513,0,0,0-.507-.579" transform="translate(-863.532 -31.18)" fill="#e7372f"/><path d="M943.378,24.887a.512.512,0,0,0-.517.508l-.008.941a.512.512,0,0,0,.508.517l3.053.027a.512.512,0,0,0,.517-.508l.008-.941a.512.512,0,0,0-.508-.517Z" transform="translate(-866.867 -22.881)" fill="#e7372f"/><path d="M1105.215,36.176l-1.074-.019a.512.512,0,0,0-.52.475,15.445,15.445,0,0,1-.527,3.107c-.514,1.762-1.269,2.749-2.245,2.949a.517.517,0,0,0-.42.495l-.019,1.091a.511.511,0,0,0,.562.519c1.614-.172,3.183-1.165,4.146-4.505a17.574,17.574,0,0,0,.6-3.568.512.512,0,0,0-.5-.544" transform="translate(-1011.727 -33.243)" fill="#e7372f"/><path d="M1212.52,42.688c-.977-.2-1.732-1.187-2.246-2.949a15.479,15.479,0,0,1-.527-3.107.511.511,0,0,0-.52-.475l-1.074.019a.512.512,0,0,0-.5.544,17.564,17.564,0,0,0,.6,3.568c.963,3.34,2.532,4.333,4.146,4.505a.511.511,0,0,0,.562-.519l-.019-1.091a.517.517,0,0,0-.419-.495" transform="translate(-1110.324 -33.243)" fill="#e7372f"/></g></svg>