<svg xmlns="http://www.w3.org/2000/svg" xmlns:xlink="http://www.w3.org/1999/xlink" width="80" height="41" viewBox="0 0 80 41"><defs><clipPath id="a"><rect width="30.637" height="11.739" fill="#FFFAEA"/></clipPath></defs><g transform="translate(0.333 0.468)"><g transform="translate(0 0)"><ellipse cx="40" cy="20.5" rx="40" ry="20.5" transform="translate(-0.333 -0.468)" fill="#E7372F"/></g></g><g transform="translate(24.848 14.865)"><g transform="translate(0 0)" clip-path="url(#a)"><path d="M.106,3.886,0,3.068l1.623-.646L2.088.136,3.142,0l.264,2.052,3.647-.47.179,1.386-3.647.47.437,3.395a1.859,1.859,0,0,0,.6,1.326,2,2,0,0,0,1.43.217,4.087,4.087,0,0,0,1.065-.271,3.914,3.914,0,0,0,.851-.5l.191,1.483a5.2,5.2,0,0,1-.976.477,5.481,5.481,0,0,1-1.329.341A3.924,3.924,0,0,1,3.95,9.767a2.351,2.351,0,0,1-1.168-.92,3.513,3.513,0,0,1-.524-1.5L1.783,3.67Z" transform="translate(0 0)" fill="#FFFAEA"/><path d="M11.532,9.083A5.731,5.731,0,0,1,9,8.592,4.084,4.084,0,0,1,7.292,7.154,3.89,3.89,0,0,1,6.655,5a3.881,3.881,0,0,1,.579-2.182A4.113,4.113,0,0,1,8.907,1.339,5.721,5.721,0,0,1,11.423.782a5.712,5.712,0,0,1,2.528.489A4.11,4.11,0,0,1,15.662,2.7,3.882,3.882,0,0,1,16.3,4.868a3.89,3.89,0,0,1-.58,2.175,4.086,4.086,0,0,1-1.672,1.483,5.721,5.721,0,0,1-2.516.558m-.018-1.426A3.481,3.481,0,0,0,13.094,7.3a2.443,2.443,0,0,0,1.015-.957,2.762,2.762,0,0,0,.345-1.451,2.77,2.77,0,0,0-.383-1.442,2.462,2.462,0,0,0-1.04-.929,3.474,3.474,0,0,0-1.591-.314,3.5,3.5,0,0,0-1.575.356,2.462,2.462,0,0,0-1.022.957A2.784,2.784,0,0,0,8.5,4.972a2.765,2.765,0,0,0,.383,1.441,2.449,2.449,0,0,0,1.047.929,3.479,3.479,0,0,0,1.584.314" transform="translate(2.646 0.311)" fill="#FFFAEA"/><path d="M15.84.986l1.8.215-.327,2.734L17.2,4.2l-.189,1.582.025.5-.605,5.065-1.8-.217Zm.64,4.06a6.256,6.256,0,0,1,1.134-2.067,4.483,4.483,0,0,1,1.677-1.256,4.226,4.226,0,0,1,4.032.488,3.711,3.711,0,0,1,1.215,1.61,4.5,4.5,0,0,1,.242,2.218,4.5,4.5,0,0,1-.758,2.091,3.664,3.664,0,0,1-1.561,1.284,3.989,3.989,0,0,1-2.1.277,3.924,3.924,0,0,1-1.923-.751A4.567,4.567,0,0,1,17.1,7.316a6.26,6.26,0,0,1-.622-2.27m6.467.773a2.916,2.916,0,0,0-.159-1.434,2.422,2.422,0,0,0-.783-1.05,2.505,2.505,0,0,0-1.263-.5,2.944,2.944,0,0,0-1.421.175,3.62,3.62,0,0,0-1.244.808,5.273,5.273,0,0,0-.957,1.3,5.214,5.214,0,0,0,.623,1.49,3.623,3.623,0,0,0,1.019,1.079,2.921,2.921,0,0,0,1.34.5,2.507,2.507,0,0,0,1.345-.183,2.424,2.424,0,0,0,1.008-.837,2.908,2.908,0,0,0,.493-1.356" transform="translate(5.817 0.392)" fill="#FFFAEA"/></g></g></svg>