<svg xmlns="http://www.w3.org/2000/svg" width="400" height="43.343" viewBox="0 0 400 43.343"><path d="M949.069,61.811V58.264a1.93,1.93,0,0,0-1.93-1.93H922.8a1.93,1.93,0,0,0-1.93,1.93v3.547a1.93,1.93,0,0,0,1.93,1.93h24.341a1.93,1.93,0,0,0,1.93-1.93" transform="translate(-641.877 -39.316)" fill="#ffb700"/><path d="M1255.4,61.811V58.264a1.93,1.93,0,0,0-1.93-1.93h-24.341a1.93,1.93,0,0,0-1.93,1.93v3.547a1.93,1.93,0,0,0,1.93,1.93h24.341a1.93,1.93,0,0,0,1.93-1.93" transform="translate(-855.4 -39.316)" fill="#ffb700"/><path d="M596.659,58.849h3.547a1.93,1.93,0,0,0,1.93-1.93V41.274H633.4a1.93,1.93,0,0,0,1.93-1.93V35.8a1.93,1.93,0,0,0-1.93-1.93H602.136V25.425a1.93,1.93,0,0,0-1.93-1.93h-3.547a1.93,1.93,0,0,0-1.93,1.93V56.919a1.93,1.93,0,0,0,1.93,1.93" transform="translate(-414.561 -16.549)" fill="#ffb700"/><path d="M1.93,37.257H43.469C40.811,43.94,32.4,56.326,6.549,56.9a1.933,1.933,0,0,0-1.9,1.929v3.547A1.931,1.931,0,0,0,6.62,64.312C48.107,63.417,51.968,34.28,52,33.98L52.232,32a1.93,1.93,0,0,0-1.917-2.152H1.93A1.93,1.93,0,0,0,0,31.78v3.547a1.93,1.93,0,0,0,1.93,1.93" transform="translate(0 -20.974)" fill="#ffb700"/><path d="M406.4,67.146c34.882-.831,40.612-23.779,41.55-31.041a1.932,1.932,0,0,0-1.909-2.183l-3.526-.009a1.931,1.931,0,0,0-1.924,1.679C439.874,41.254,435.3,59,406.312,59.738a1.932,1.932,0,0,0-1.875,1.935v3.542a1.926,1.926,0,0,0,1.965,1.93" transform="translate(-281.919 -23.803)" fill="#ffb700"/><path d="M205.743,68.092h37.331c-3.146,4.11-11.208,9.947-31.656,10.289a1.933,1.933,0,0,0-1.906,1.93v3.547a1.93,1.93,0,0,0,1.957,1.931c38.795-.639,40.887-20.243,40.958-21.09l.161-1.922a1.93,1.93,0,0,0-1.923-2.091H205.743a1.93,1.93,0,0,0-1.93,1.93v3.547a1.93,1.93,0,0,0,1.93,1.93" transform="translate(-142.073 -42.445)" fill="#ffb700"/><path d="M144.02,7.277h2.248a1.93,1.93,0,0,0,1.93-1.93V1.93A1.93,1.93,0,0,0,146.268,0H144.02a1.93,1.93,0,0,0-1.93,1.93V5.347a1.93,1.93,0,0,0,1.93,1.93" transform="translate(-98.941)" fill="#ffb700"/><path d="M173.033,7.277h2.248a1.93,1.93,0,0,0,1.93-1.93V1.93A1.93,1.93,0,0,0,175.281,0h-2.248a1.93,1.93,0,0,0-1.93,1.93V5.347a1.93,1.93,0,0,0,1.93,1.93" transform="translate(-119.143)" fill="#ffb700"/><path d="M679.166,25.858h2.248a1.93,1.93,0,0,0,1.93-1.93V20.18a1.93,1.93,0,0,0-1.93-1.93h-2.248a1.93,1.93,0,0,0-1.93,1.93v3.748a1.93,1.93,0,0,0,1.93,1.93" transform="translate(-472.03 -12.708)" fill="#ffb700"/><path d="M708.18,25.858h2.247a1.93,1.93,0,0,0,1.93-1.93V20.18a1.93,1.93,0,0,0-1.93-1.93H708.18a1.93,1.93,0,0,0-1.93,1.93v3.748a1.93,1.93,0,0,0,1.93,1.93" transform="translate(-492.253 -12.708)" fill="#ffb700"/><path d="M1143.221,25.429h2.248a1.93,1.93,0,0,0,1.931-1.93V19.751a1.931,1.931,0,0,0-1.931-1.93h-2.248a1.93,1.93,0,0,0-1.93,1.93V23.5a1.93,1.93,0,0,0,1.93,1.93" transform="translate(-795.581 -12.409)" fill="#ffb700"/><path d="M1172.234,25.429h2.248a1.93,1.93,0,0,0,1.93-1.93V19.751a1.93,1.93,0,0,0-1.93-1.93h-2.248a1.93,1.93,0,0,0-1.93,1.93V23.5a1.93,1.93,0,0,0,1.93,1.93" transform="translate(-815.783 -12.409)" fill="#ffb700"/><path d="M1092.014,51.384H1059.18V41.748h28.047a1.93,1.93,0,0,0,1.93-1.93V36.271a1.93,1.93,0,0,0-1.93-1.93H1059.18V25.923a1.93,1.93,0,0,0-1.93-1.93H1053.7a1.93,1.93,0,0,0-1.93,1.93V56.858a1.93,1.93,0,0,0,1.93,1.93h1.773v0h36.538a1.93,1.93,0,0,0,1.93-1.93V53.314a1.93,1.93,0,0,0-1.93-1.93" transform="translate(-733.247 -16.896)" fill="#ffb700"/><path d="M227.178,32.459h32.484a1.93,1.93,0,0,0,1.93-1.93V26.982a1.93,1.93,0,0,0-1.93-1.93H227.178a1.93,1.93,0,0,0-1.93,1.93v3.547a1.93,1.93,0,0,0,1.93,1.93" transform="translate(-157.009 -18.484)" fill="#ffb700"/><path d="M409.976,32.294l11.5.1a1.93,1.93,0,0,0,1.947-1.913l.031-3.547a1.93,1.93,0,0,0-1.913-1.947l-11.5-.1a1.93,1.93,0,0,0-1.947,1.913l-.031,3.547a1.93,1.93,0,0,0,1.913,1.947" transform="translate(-284.424 -17.369)" fill="#ffb700"/><path d="M794.122,48.763a1.93,1.93,0,0,0-2.676-.54l-2.955,1.962a1.93,1.93,0,0,0-.54,2.676l1.992,3H766.027l10.111-21.226a1.93,1.93,0,0,0-.913-2.572l-3.2-1.524a1.93,1.93,0,0,0-2.572.913L755.612,60.507a1.93,1.93,0,0,0,1.743,2.76h42.8a1.93,1.93,0,0,0,1.608-3Z" transform="translate(-526.584 -21.322)" fill="#ffb700"/></svg>