<svg xmlns="http://www.w3.org/2000/svg" xmlns:xlink="http://www.w3.org/1999/xlink" width="358.849" height="152.067" viewBox="0 0 358.849 152.067"><defs><clipPath id="a"><rect width="358.849" height="152.067" fill="none"/></clipPath></defs><g clip-path="url(#a)"><path d="M124.65,44.309a7.179,7.179,0,0,1-4.675-1.528,7.724,7.724,0,0,1-2.671-5.634c-.294-3.29.7-7.824,6.967-10.9.009-.658,0-1.624,0-2.844q-1.583.22-3.175.446a2.279,2.279,0,0,1-2-.638,2.445,2.445,0,0,1-.724-1.585c0-.035,0-.071,0-.107l-.008-2.92c0-.034,0-.068,0-.1a2.485,2.485,0,0,1,2.191-2.4q1.811-.24,3.621-.477l-.066-3.188a2.374,2.374,0,0,1,2.165-2.514q2.029-.262,4.063-.518a2.374,2.374,0,0,1,1.877.494,2.3,2.3,0,0,1,.816,1.7c0,.03,0,.06,0,.09l.032,2.8q1.923-.253,3.859-.5a2.319,2.319,0,0,1,2.7,2.237c0,.035,0,.069,0,.1l.008,2.882a2.415,2.415,0,0,1-2.178,2.53q-2.151.261-4.3.528l.02,1.752c.414-.034.733-.05.966-.058h.073a9.728,9.728,0,0,1,6.169,2.143,8.153,8.153,0,0,1,3.118,5.99,17.845,17.845,0,0,1-2.175,9.55l-.007.013a2.436,2.436,0,0,1-3.092,1.18c-.041-.015-.082-.032-.123-.05q-1.8-.812-3.6-1.619a2.4,2.4,0,0,1-1.331-1.426,2.364,2.364,0,0,1,.2-1.889,8.422,8.422,0,0,0,1.314-4.677c-.078-1.3-.461-1.309-1.041-1.318a4.254,4.254,0,0,0-.554.022c-.029,2.077-.085,3.506-.129,4.377-.288,4.614-2.713,7.435-6.828,7.967a11.505,11.505,0,0,1-1.467.1m15.017-3.534h0ZM127.975,26.829a2.747,2.747,0,0,1-1.444,2.449,1.724,1.724,0,0,1-.173.09c-5.183,2.363-5.536,5.393-5.35,7.465a4.155,4.155,0,0,0,1.315,3.067,4.222,4.222,0,0,0,3.318.624c1.651-.213,3.369-.913,3.593-4.491.04-.775.112-2.514.135-5.225,0-.026,0-.052,0-.079a2.472,2.472,0,0,1,2.144-2.39,10.194,10.194,0,0,1,2.219-.21c2.715.041,4.469,1.825,4.644,4.77a10.989,10.989,0,0,1-1.1,5.429l1.24.557a13.647,13.647,0,0,0,1.27-6.558,4.511,4.511,0,0,0-1.755-3.354,5.989,5.989,0,0,0-3.81-1.308c-.325.012-1,.051-2.055.183a2.379,2.379,0,0,1-1.979-.56,2.283,2.283,0,0,1-.718-1.8l-.048-4.275c0-.04,0-.079,0-.118a2.474,2.474,0,0,1,2.208-2.4q2.14-.267,4.281-.528v-.316q-1.916.25-3.839.5a2.388,2.388,0,0,1-1.882-.511,2.32,2.32,0,0,1-.827-1.724c0-.029,0-.058,0-.087l-.031-2.764-1.485.19.066,3.172c0,.045,0,.09,0,.135a2.478,2.478,0,0,1-2.2,2.4q-1.814.235-3.631.475v.31q1.582-.222,3.17-.442a2.385,2.385,0,0,1,1.89.505,2.358,2.358,0,0,1,.831,1.763c0,.032,0,.063,0,.094.022,2.434.037,4.064,0,4.956m4.067,5.19h0Zm-7.783-5.085h0Zm8.923-1.356h0Zm-1.092-3.192h0m4.917-4.351h0M125.23,15.48h0m1.513-1.877h0m-2.1,26.284a2.951,2.951,0,0,1-1.915-.674,3.885,3.885,0,0,1-1.262-2.9,6.352,6.352,0,0,1,3.056-5.706l.07-.048a2.194,2.194,0,0,1,2.188-.093,2.117,2.117,0,0,1,1.154,2.08c.013,1.033.011,1.8.01,2.3,0,.269,0,.447,0,.532a2.266,2.266,0,0,1-.006.272c-.251,2.581-1.2,4-2.824,4.207a3.655,3.655,0,0,1-.471.031M143.17,24.81a2.3,2.3,0,0,1-1.5-.513,1.926,1.926,0,0,1-.263-.269,2.607,2.607,0,0,1-.552-1.518c-.009-.162-.255-5.926-.331-7.688a2.4,2.4,0,0,1,2.18-2.606q1.538-.18,3.079-.358a2.4,2.4,0,0,1,1.881.525,2.443,2.443,0,0,1,.839,1.752c.183,2.477.277,4.951.291,7.762,0,.029,0,.057,0,.085a2.424,2.424,0,0,1-2.229,2.415c-1,.128-2.021.26-3.044.394a3.116,3.116,0,0,1-.349.02m1.114-9.037q.15,3.511.221,5.14l.561-.073c-.024-1.807-.084-3.482-.184-5.137l-.6.069m1.834,4.933-.023,0,.023,0m-2.982-4.8h0m1.1-1.276c0,.01,0,.021,0,.031,0-.011,0-.021,0-.031m.558-.247v0" transform="translate(-45.782 -3.66)" fill="#fff"/><path d="M184.676,38.132a2.493,2.493,0,0,1-.66-.09q-1.956-.483-3.911-.96a2.332,2.332,0,0,1-1.592-1.2,2.29,2.29,0,0,1-.083-1.863c1.19-4.141,2.1-7.432,2.787-10.136l-.616.127a2.281,2.281,0,0,1-1.913-.422,2.344,2.344,0,0,1-.869-1.77l-.253-2.985a2.456,2.456,0,0,1,1.9-2.688c.058-.016.116-.029.175-.04q1.759-.313,3.518-.621c.5-2.346.972-5.014,1.486-8.322,0-.021.006-.041.01-.062a2.41,2.41,0,0,1,2.734-2q1.931.2,3.863.413l.075.01a2.338,2.338,0,0,1,2.032,2.809l-.094.532c-.287,1.608-.6,3.381-.973,5.34l.175-.013a8.984,8.984,0,0,1,6.139,1.4,6.9,6.9,0,0,1,2.738,6.049,98.985,98.985,0,0,1-1.179,13.148,2.469,2.469,0,0,1-2.4,2.21c-1.474.112-2.966.228-4.457.346a2.251,2.251,0,0,1-1.851-.736,2.283,2.283,0,0,1-.622-1.564,1.836,1.836,0,0,1,.029-.388A77.722,77.722,0,0,0,192.325,22c-.34.026-.688.059-1.042.093l-.613.057c-1.025,4.532-2.257,9.3-3.665,14.184-.018.06-.038.119-.061.178a2.447,2.447,0,0,1-2.268,1.62M181.922,35.3h0Zm3.092-.834h0m-2.656-.655,1.4.344c1.319-4.649,2.472-9.179,3.429-13.483.005-.023.011-.047.018-.07a2.727,2.727,0,0,1,2.241-2.069,1.707,1.707,0,0,1,.184-.023c.442-.032.874-.073,1.3-.113.442-.043.873-.084,1.295-.113l.062,0A3.585,3.585,0,0,1,195,19.2a3.688,3.688,0,0,1,1.041,2.78,74.9,74.9,0,0,1-1.2,11.51l1.777-.137a92.014,92.014,0,0,0,1.012-11.746c.02-2.13-.882-2.779-1.179-2.992a5.391,5.391,0,0,0-3.684-.716c-1.026.073-1.659.144-1.9.171l-.182.019a2.233,2.233,0,0,1-1.973-.893,2.505,2.505,0,0,1-.455-1.439,1.928,1.928,0,0,1,.034-.422c.453-2.319.829-4.4,1.164-6.274l-1.322-.141c-.5,3.122-.971,5.677-1.47,7.961a2.486,2.486,0,0,1-2.265,2.165q-1.521.265-3.041.535l.04.474,1.258-.258a2.224,2.224,0,0,1,2.756,2.611c-.7,2.935-1.678,6.572-3.055,11.4m15.142-.52h0m8.9-9.459a2.381,2.381,0,0,1-2.341-1.941c-.007-.032-.014-.063-.02-.1-.311-1.731-1.017-5.325-2.045-10.394q-.011-.052-.018-.1a2.381,2.381,0,0,1,1.874-2.766q1.745-.414,3.491-.824c.037-.009.074-.016.112-.023A2.411,2.411,0,0,1,210.281,9.5c.007.029.014.057.02.087.661,3.187,1.343,6.761,2.026,10.62.005.027.009.055.013.082a2.373,2.373,0,0,1-2.007,2.755q-1.7.363-3.4.73l-.075.015a2.722,2.722,0,0,1-.461.04m.143-1.872h0Zm-.661-10.089c.7,3.489,1.24,6.2,1.579,7.99l.988-.212c-.514-2.861-1.026-5.549-1.527-8.023Z" transform="translate(-69.321 -1.983)" fill="#fff"/><path d="M267.44,34.083a2.589,2.589,0,0,1-.547-.059q-2.121-.39-4.241-.772a2.489,2.489,0,0,1-1.631-1.062,2.431,2.431,0,0,1-.318-1.817c.769-4.227,1.333-8.143,1.714-11.918q-2.113.129-4.226.263c-.046,0-.091,0-.137,0a2.638,2.638,0,0,1-1.449-.418,1.834,1.834,0,0,1-.285-.229,2.4,2.4,0,0,1-.684-1.731l.03-2.984a2.337,2.337,0,0,1,2.31-2.421q2.537-.155,5.075-.3c.129-2.434.227-5.124.315-7.7A2.361,2.361,0,0,1,265.824.576q2.122-.019,4.244-.032h.016a2.4,2.4,0,0,1,1.74.678,2.285,2.285,0,0,1,.527.813,2.652,2.652,0,0,1,.9-.151l1.894-.006h0A2.506,2.506,0,0,1,276.4,2.2a2.631,2.631,0,0,1,1.3-.325h1.855a2.4,2.4,0,0,1,1.812.774,2.362,2.362,0,0,1,.574,1.856l-.27,3.679c0,.021,0,.04-.006.061a2.418,2.418,0,0,1-2.5,2.236h0l-1.807.041a2.519,2.519,0,0,1-.976-.194,2.259,2.259,0,0,1,.286.216,2.445,2.445,0,0,1,.791,1.852l.01,2.917a2.414,2.414,0,0,1-2.283,2.474c-.034,0-.067.006-.1.007q-1.689.083-3.376.17a136.422,136.422,0,0,1-1.95,14.122,2.459,2.459,0,0,1-1.059,1.639,2.3,2.3,0,0,1-1.25.36m-2.863-4.261,1.748.318a125.228,125.228,0,0,0,1.745-13.527c0-.024,0-.048.007-.071a2.424,2.424,0,0,1,2.441-2.24q1.609-.084,3.219-.165v-.38q-1.389.073-2.778.15c-.036,0-.07,0-.108,0a2.419,2.419,0,0,1-2.431-2.421c0-.031,0-.062,0-.093l.319-7.126-1.7.013c-.091,2.6-.2,5.267-.336,7.635a2.409,2.409,0,0,1-2.25,2.359c-.039,0-.079.009-.118.01q-2.482.141-4.964.291l0,.339q2.218-.139,4.436-.271c.038,0,.076,0,.115,0a2.4,2.4,0,0,1,1.71.732,1.889,1.889,0,0,1,.245.3,2.315,2.315,0,0,1,.38,1.7c-.356,3.963-.906,8.048-1.677,12.45m9.164-14.5h0Zm1.478-1.651h0m-15.836-.3v0m20.428-5.328h0Zm-5.148-1.278h0Zm4.45-.006h0Zm-.88-2.591c0,.013,0,.028,0,.043Zm-4.4-.017c0,.01,0,.021,0,.032ZM243.717,29.892a2.309,2.309,0,0,1-2.361-2.378l-.09-2.527c-.04-1.256-.04-3.471.184-6.926l.5-8.542A2.393,2.393,0,0,1,244.334,7.1q2.043-.049,4.082-.093a2.3,2.3,0,0,1,2.391,2.6c-.267,4.871-.484,8.939-.57,11.694l.289-.032a2.373,2.373,0,0,1,1.916.553,2.33,2.33,0,0,1,.766,1.769l.052,2.889a2.4,2.4,0,0,1-2.272,2.513q-3.457.434-6.914.884a2.956,2.956,0,0,1-.357.023M245.07,27.4v.042c0-.013,0-.027,0-.042m.529-16.615-.439,7.506c-.227,3.493-.21,5.617-.179,6.574l.04,1.134q2.247-.29,4.5-.575l-.006-.309-.39.043c-.056.006-.111.01-.166.012a2.44,2.44,0,0,1-1.592-.5,2.251,2.251,0,0,1-.886-1.829c.032-2.53.248-6.777.537-12.084l-1.42.032m5.351,14.17h0m-1.46-1.333v0Z" transform="translate(-94.191 -0.212)" fill="#fff"/><path d="M318.946,35.445a2.308,2.308,0,0,1-2.155-1.457,27.7,27.7,0,0,1-2.4-8.424,3.144,3.144,0,0,1,.582-2.424,3.5,3.5,0,0,1,2.482-1.272c2.491-.268,4.964-.528,7.437-.781l.084-3.711c-3.323-.021-6.721-.027-10.08-.03a2.545,2.545,0,0,1-1.675-.636,2.272,2.272,0,0,1-.789-1.816l.108-2.982A2.338,2.338,0,0,1,315,9.564c3.379-.014,6.8-.015,10.188,0l.123-5.5a2.335,2.335,0,0,1,.72-1.7,2.4,2.4,0,0,1,1.8-.621q2.041.083,4.079.173a2.325,2.325,0,0,1,2.339,2.5l-.118,5.231q3.033.02,6.066.052l.073,0a2.355,2.355,0,0,1,2.329,2.5l-.064,2.87a2.473,2.473,0,0,1-.764,1.816,2.387,2.387,0,0,1-1.78.627q-3.019-.049-6.039-.085l-.2,7.3a2.447,2.447,0,0,1-2.326,2.476c-2.471.2-4.959.4-7.449.615a20.816,20.816,0,0,0,.9,2.347,1.9,1.9,0,0,1,.084.222,2.466,2.466,0,0,1-1.011,2.908,1.861,1.861,0,0,1-.22.126q-1.809.876-3.618,1.756c-.039.019-.078.037-.118.052a2.823,2.823,0,0,1-1.057.215m-.812-9.911a23.787,23.787,0,0,0,1.53,5.732l1.368-.663a24.763,24.763,0,0,1-1.075-3.393c-.009-.037-.017-.074-.023-.111a2.393,2.393,0,0,1,.338-1.793l-2.138.228m11.908-.905v0Zm-13.845-11c3.337,0,6.749.014,10.117.04a2.367,2.367,0,0,1,2.408,2.457l-.137,6.116a2.523,2.523,0,0,1-.517,1.506l2-.163.206-7.535a2.384,2.384,0,0,1,.741-1.741,2.312,2.312,0,0,1,1.707-.617q3.064.034,6.127.08l.009-.379q-3.028-.029-6.056-.046l-.074,0a2.684,2.684,0,0,1-1.447-.489,1.87,1.87,0,0,1-.495-.527,2.605,2.605,0,0,1-.4-1.486l.119-5.279L329,5.5l-.121,5.372a2.421,2.421,0,0,1-2.38,2.4c-.039,0-.079,0-.116,0-3.375-.013-6.792-.014-10.175,0ZM331.16,23.5l-.027,0,.027,0m2.832-7.356v0m6.69-1.117h0Zm-1.859-.043h0Zm.064-2.872v0Zm-22.633-.089v.02c0-.007,0-.013,0-.02m14.284-7.7v0Zm-1.507-.182v0Z" transform="translate(-121.985 -0.675)" fill="#fff"/><path d="M373.835,37.26c-.291,0-.594-.012-.909-.037a8.1,8.1,0,0,1-5.605-2.679,7.661,7.661,0,0,1-2-5.916c.144-2.688,1.488-7.12,8.666-7.37,0-.052.009-.106.013-.16q-1.949-.048-3.9-.091c-.033,0-.066,0-.1,0a2.5,2.5,0,0,1-1.69-.813,2.415,2.415,0,0,1-.618-1.743l.166-2.891a2.418,2.418,0,0,1,2.459-2.36c.033,0,.066,0,.1,0q2.136.066,4.272.14l.11-1.239q-1.962-.142-3.938-.279a2.242,2.242,0,0,1-1.867-1.115,2.618,2.618,0,0,1-.33-1.426c0-.036,0-.072.007-.107l.288-2.9a2.345,2.345,0,0,1,.766-1.617,2.438,2.438,0,0,1,1.869-.575q1.951.151,3.9.308l.192-2.092a2.453,2.453,0,0,1,.8-1.714,2.408,2.408,0,0,1,1.809-.57q2.055.169,4.113.344a2.394,2.394,0,0,1,2.249,2.595c0,.031,0,.062-.007.093l-.193,2.077,1.971.148a2.545,2.545,0,0,1,1.566.648,2.258,2.258,0,0,1,.681,2.125l-.317,2.8a2.34,2.34,0,0,1-.775,1.612,2.386,2.386,0,0,1-1.838.558l-2.028-.177-.077.851,1.378.06a2.256,2.256,0,0,1,1.839.791,2.394,2.394,0,0,1,.613,1.687L387.3,19.2a2.377,2.377,0,0,1-.794,1.7,2.452,2.452,0,0,1-1.8.575l-1.824-.059q-.017.187-.038.4l-.008.084,1.945.168a2.349,2.349,0,0,1,2.2,2.552c0,.026,0,.051,0,.076l-.252,2.98c0,.045-.009.088-.016.132a2.444,2.444,0,0,1-.992,1.651,2.356,2.356,0,0,1-1.726.383c-.167-.016-.448-.048-.839-.092l-1.321-.148a11.183,11.183,0,0,1-2.116,5.055,7.062,7.062,0,0,1-5.883,2.611m.784-12.295c-5.383,0-5.528,2.712-5.591,3.885a4.01,4.01,0,0,0,1.045,3.195,4.455,4.455,0,0,0,3.145,1.471c2.262.182,3.125-.58,3.578-1.167l.039-.049a8.948,8.948,0,0,0,1.51-4.439c0-.025.007-.05.012-.076a2.381,2.381,0,0,1,2.63-2.022c.889.093,1.6.173,2.151.234l.029-.347-1.912-.163a2.387,2.387,0,0,1-2.248-2.6c0-.032,0-.065.007-.1l.127-1.334c.076-.8.129-1.36.171-1.671a2.427,2.427,0,0,1,2.432-2.13c.037,0,.072,0,.107,0l1.808.056.018-.31-1.582-.069-.071,0a2.565,2.565,0,0,1-1.39-.581,1.89,1.89,0,0,1-.255-.239,2.266,2.266,0,0,1-.554-1.937l.3-3.35c0-.04.009-.08.015-.119a2.357,2.357,0,0,1,2.634-2.086l2.025.174.036-.319-2.018-.15a2.42,2.42,0,0,1-1.618-.816,1.865,1.865,0,0,1-.21-.288,2.722,2.722,0,0,1-.358-1.528c0-.03,0-.06.006-.091l.191-2.051-1.554-.13-.2,2.165c0,.039-.009.079-.015.118a2.392,2.392,0,0,1-2.629,2.088q-1.95-.158-3.9-.312l-.032.328q1.918.135,3.843.276A2.43,2.43,0,0,1,378,9.3a2.5,2.5,0,0,1,.609,1.816c0,.028,0,.057-.005.085l-.321,3.632c0,.041-.009.082-.015.123a2.43,2.43,0,0,1-2.618,2.132q-2.077-.073-4.154-.14l-.021.37q1.99.046,3.982.1c.033,0,.066,0,.1.005a2.485,2.485,0,0,1,1.531.695,2.212,2.212,0,0,1,.681,2c-.025.586-.054,1.191-.124,1.815-.361,2.68-1.9,3.011-2.55,3.031-.033,0-.066,0-.1,0-.13,0-.257,0-.382,0m9.974,1.2h0m-.138-.4h0m-2.889-3.98h0m2.021-2.8c0,.008,0,.016,0,.023Zm1.376-1.228h0m-13.393-2.017,0,.028Zm4.33-2.361h0Zm-3.232-6.886v0Zm4.068-2.009h0Zm-3.542,28.473-.132,0-.076,0A3.337,3.337,0,0,1,370.4,31.53a3.791,3.791,0,0,1-.591-2.62c.15-1.069.891-3.487,4.622-3.63a1.725,1.725,0,0,1,.218,0,2.37,2.37,0,0,1,2.221,2.549c0,.045-.005.09-.01.133-.472,4.1-2.222,4.992-3.66,4.992" transform="translate(-142.625 0)" fill="#fff"/><path d="M427.817,42.221a2.48,2.48,0,0,1-1.028-.232c-6.648-2.836-7.65-7.638-7.318-11.168.221-2.231,1.391-4.746,3.489-7.506-3.22-.261-6.446-.511-9.625-.747l-.071-.007a2.621,2.621,0,0,1-2.184-2.6l.232-2.925a2.356,2.356,0,0,1,2.48-2.258c.044,0,.087,0,.131.006,6.524.507,13.131,1.067,19.689,1.668a2.689,2.689,0,0,1,0-.321q.006-.082.018-.165l.572-3.711A2.4,2.4,0,0,1,436.94,10.2l1.888.253a2.489,2.489,0,0,1,1.2.488,2.543,2.543,0,0,1,1.3-.15l1.887.258a2.439,2.439,0,0,1,1.671.968,2.389,2.389,0,0,1,.4,1.846l-.555,3.606a2.31,2.31,0,0,1-.827,1.565,2.461,2.461,0,0,1-1.921.5l-1.841-.251a2.882,2.882,0,0,1-.8-.224,2.251,2.251,0,0,1-.035.477l-.176,2.71h0a2.383,2.383,0,0,1-2.511,2.272c-.045,0-.09,0-.134-.008q-1.489-.141-2.977-.28c-4.408,4.334-5.242,6.65-5.344,7.652-.027.3-.094,1.041,1.815,1.848a2.369,2.369,0,0,1,1.416,3.134l-1.395,3.749c-.008.022-.017.044-.026.066a2.407,2.407,0,0,1-1.354,1.387,2.25,2.25,0,0,1-.808.151m-.162-18.741c-3.456,3.835-4.346,6.3-4.484,7.7-.285,3.03.943,5.22,3.849,6.8l.49-1.318c-2.727-1.517-3.181-3.588-3.042-5.131.281-2.755,2.452-6.065,6.638-10.142.04-.038.081-.076.124-.11a3.362,3.362,0,0,1,2.227-.778c.045,0,.089,0,.133.008l1.92.179.021-.326c-6.852-.639-13.774-1.235-20.614-1.773l-.029.369c3.762.283,7.579.585,11.367.9l.074.007A2.183,2.183,0,0,1,428,21.007a1.835,1.835,0,0,1,.092.192,2.118,2.118,0,0,1-.44,2.281m9.625-1.353h0ZM435.425,22v0ZM415.02,17.3l0,.026,0-.026m26.681-.224-.007.04c0-.013,0-.027.007-.04m-3.6-1.821h0m3.529-2c0,.013,0,.027-.007.041Z" transform="translate(-160.5 -3.975)" fill="#fff"/><path d="M180.512,115.412c-4.911,0-8.043-2.63-8.878-7.506a2.313,2.313,0,0,1,2.18-2.786q1.81-.162,3.621-.318a2.416,2.416,0,0,1,2.633,1.849c.132.552.229.948,1.473.844.655-.043,1.7-.111,1.742-2.983.008-1.427-.34-1.868-.447-1.969a1.378,1.378,0,0,0-.942-.185,2.421,2.421,0,0,0-1.819.841,3.212,3.212,0,0,1-2.188,1.144q-1.644.142-3.285.287a2.358,2.358,0,0,1-1.911-.638,2.324,2.324,0,0,1-.662-1.876l1.062-16.479a2.436,2.436,0,0,1,2.33-2.322c4.52-.4,9.117-.779,13.661-1.134a2.284,2.284,0,0,1,2.557,2.272c0,.046,0,.093,0,.14l-.1,2.762c0,.023,0,.046,0,.069a2.469,2.469,0,0,1-2.346,2.341q-4.1.322-8.2.666l-.283,4.246a11.744,11.744,0,0,1,1.535-.23c3.208-.267,5.756.543,7.573,2.4,1.679,1.736,2.515,4.213,2.489,7.367a10.9,10.9,0,0,1-2.872,7.79,11.462,11.462,0,0,1-7.673,3.349q-.642.054-1.249.054m-4.863-6.722c.819,2.323,2.625,3.228,5.8,2.964a7.8,7.8,0,0,0,5.291-2.21,7.247,7.247,0,0,0,1.845-5.253c.018-2.177-.452-3.73-1.438-4.748-1.014-1.039-2.522-1.464-4.6-1.29a8.919,8.919,0,0,0-2.674.673c-.037.015-.074.029-.112.041a2.149,2.149,0,0,1-2.918-2.022,1.7,1.7,0,0,1,0-.193l.5-7.482a2.507,2.507,0,0,1,2.332-2.358q4.092-.347,8.183-.671l0-.135c-3.709.294-7.443.605-11.135.927l-.894,13.857,1.52-.132a6.185,6.185,0,0,1,4.259-2.006,4.794,4.794,0,0,1,3.768,1.186A6.169,6.169,0,0,1,187,104.553c-.09,5.5-3.286,6.525-5.183,6.65-2.381.2-4.163-.742-5.007-2.614l-1.161.1m.089-6.33v0m13.943-15.072h0Z" transform="translate(-67 -32.083)" fill="#fff"/><path d="M221.4,112.847c-5.176,0-8.432-2.744-9.2-7.79a2.3,2.3,0,0,1,2.256-2.741q1.816-.1,3.627-.193a2.432,2.432,0,0,1,2.57,1.91c.121.552.218.988,1.489.925.644-.02,1.665-.051,1.759-2.892.032-1.438-.318-1.9-.425-2.009a1.408,1.408,0,0,0-.958-.228,2.339,2.339,0,0,0-1.808.766,3.188,3.188,0,0,1-2.231,1.081q-1.644.085-3.287.174a2.288,2.288,0,0,1-2.5-2.567l1.343-16.449a2.416,2.416,0,0,1,2.4-2.274c4.537-.241,9.138-.463,13.674-.66a2.292,2.292,0,0,1,2.485,2.329c0,.046,0,.092,0,.138l-.148,2.759c0,.023,0,.046,0,.068a2.452,2.452,0,0,1-2.414,2.293q-4.092.178-8.179.38l-.357,4.249a11.634,11.634,0,0,1,1.575-.183c3.2-.158,5.73.737,7.507,2.654a10.209,10.209,0,0,1,2.352,7.434,10.757,10.757,0,0,1-3.014,7.712,11.285,11.285,0,0,1-7.748,3.1c-.257.013-.511.019-.759.019m-5.2-6.9c.787,2.357,2.584,3.326,5.772,3.172a7.632,7.632,0,0,0,5.3-2.017,7.107,7.107,0,0,0,1.923-5.171c.055-2.183-.392-3.759-1.368-4.821-1-1.083-2.509-1.564-4.6-1.462a8.773,8.773,0,0,0-2.678.578c-.038.014-.076.027-.115.039a2.155,2.155,0,0,1-2.855-2.088c0-.065,0-.13.006-.194l.627-7.468a2.487,2.487,0,0,1,2.4-2.308q4.078-.2,8.157-.386l.008-.141c-3.706.165-7.445.346-11.148.54l-1.13,13.838,1.545-.081a6.1,6.1,0,0,1,4.3-1.86,4.882,4.882,0,0,1,3.724,1.3,6.239,6.239,0,0,1,1.523,4.752c-.19,5.729-3.788,6.456-5.326,6.5a4.7,4.7,0,0,1-4.941-2.788l-1.14.06m.188-6.356v0m-1.408-1.451h0Zm15.6-13.112h0Zm-.316-1.412h0Z" transform="translate(-82.841 -31.195)" fill="#fff"/><path d="M259.511,111.636a2.334,2.334,0,0,1-1.754-.743,2.367,2.367,0,0,1-.579-1.868l2.251-28.484c0-.023,0-.045.007-.068a2.4,2.4,0,0,1,2.4-2.181c7.943-.075,15.99-.084,23.92-.026a2.342,2.342,0,0,1,2.375,2.4l-.927,28.493a2.38,2.38,0,0,1-.695,1.707,2.461,2.461,0,0,1-1.748.677q-1.61-.011-3.223-.018a2.3,2.3,0,0,1-2.343-2.4l.326-10.274a2.435,2.435,0,0,1-.793.186,2.354,2.354,0,0,1,.41,1.578l-.4,7.284a2.328,2.328,0,0,1-2.391,2.361h0q-4.093,0-8.192.018a2.32,2.32,0,0,1-1.676-.661,2.4,2.4,0,0,1-.683-1.771c0-.028,0-.057,0-.085l.365-7.356c0-.033,0-.066.007-.1a2.533,2.533,0,0,1,.514-1.317,2.316,2.316,0,0,1-.648-.268l-.863,10.639c0,.021,0,.041-.006.062a2.4,2.4,0,0,1-2.4,2.182q-1.611.015-3.223.032Zm1.372-2.307,0,.032c0-.01,0-.021,0-.032M263.044,82,261,107.9l.564,0,1.957-24.12a2.355,2.355,0,0,1,.887-1.789L263.044,82m19.911,25.814.573,0,.841-25.841-1.515-.009a2.27,2.27,0,0,1,.273.258,2.39,2.39,0,0,1,.588,1.638Zm-14.82-1.253h0Zm1.448-.112-.005.1h.08c-.025-.034-.051-.068-.075-.1m5.509.05-.032.044h.03Zm-2.848-2.371c.019.024.039.048.06.072a1.56,1.56,0,0,0,.221.2c.035-.028.068-.058.1-.089a1.217,1.217,0,0,0-.121-.141,1.245,1.245,0,0,0-.162-.135c-.034.029-.067.059-.1.09m.836-.388h0Zm2.069-1.932a2.143,2.143,0,0,1,.186.27l.015-.27a1.371,1.371,0,0,1-.2,0m-5.335.011,0,.074c.02-.026.04-.051.06-.075h-.056m-1.142-5.076,0,.036c0-.012,0-.023,0-.036m10.448-.123h0Zm-.377-.3h0Zm-11.446-.97h0Zm5.677-2.966-.118,1.714c0,.027,0,.055-.008.083a2.5,2.5,0,0,1-.42,1.149l1,0a2.3,2.3,0,0,1-.372-1.522l.114-1.668a2.319,2.319,0,0,1,.991-1.88c-.029-.026-.055-.052-.08-.077a2.346,2.346,0,0,1-.671-1.718c0-.048,0-.1.006-.144l.077-.945h-.161l-.082,1.225c0,.03,0,.06-.008.091a2.406,2.406,0,0,1-1.009,1.746,2.345,2.345,0,0,1,.175.174,2.3,2.3,0,0,1,.562,1.776m4.412,2.508c0,.012,0,.024,0,.036ZM270.423,92.6h0Zm-2.385-2.756h0Zm-.9-4.654-.186,2.3a2.561,2.561,0,0,1,1.288-.337l1.388-.005L269.7,86a2.624,2.624,0,0,1,.152-.824q-1.362,0-2.719.013m10.111,1.946,1.371,0a2.442,2.442,0,0,1,1.266.341l.073-2.305-2.752-.007a2.425,2.425,0,0,1,.116,1.042Zm-6.463,0h0Zm5.02-.007h0Z" transform="translate(-100.407 -30.544)" fill="#fff"/><path d="M333.432,111.774c-.043,0-.085,0-.129,0q-1.722-.078-3.448-.151a2.327,2.327,0,0,1-1.745-.8,2.291,2.291,0,0,1-.509-1.768l.208-3.24c-3.27-.135-6.56-.26-9.8-.371a2.314,2.314,0,0,1-2.313-2.488c0-.033,0-.065,0-.1l.165-2.156c0-.029,0-.057.008-.086a2.377,2.377,0,0,1,2.491-2.179l1.362.049.175-1.411a2.5,2.5,0,0,1,.182-.806,2.308,2.308,0,0,1-1.553-2.315c0-.031,0-.062,0-.093l.166-2.23q0-.047.009-.093a2.591,2.591,0,0,1,.518-1.282l-1-.546-.082-.048a2.384,2.384,0,0,1-.877-3.146c1.224-2.568,2.6-5.779,3.97-9.287a2.362,2.362,0,0,1,1.22-1.334,2.442,2.442,0,0,1,1.89-.043c1,.337,2.059.7,3.116,1.054l.058.021a2.374,2.374,0,0,1,1.4,1.322,2.334,2.334,0,0,1-.035,1.782q-.159.472-.337.977c5.147.215,10.342.46,15.473.731a2.368,2.368,0,0,1,1.72.817,2.339,2.339,0,0,1,.516,1.785l-.127,2.222c0,.049-.007.1-.014.146a2.327,2.327,0,0,1-2.558,2.064q-3.187-.167-6.374-.32l-.1,1.582q2.68.128,5.359.266a2.312,2.312,0,0,1,2.235,2.622l-.161,2.162a2.353,2.353,0,0,1-.736,1.635,2.435,2.435,0,0,1-1.8.616q-2.685-.138-5.368-.266l-.15,2.11q3.393.16,6.786.337a2.333,2.333,0,0,1,2.28,2.494c0,.034,0,.067,0,.1l-.165,2.153c0,.03,0,.06-.009.09a2.362,2.362,0,0,1-2.526,2.162q-3.4-.176-6.8-.336l-.216,3.357c0,.036-.006.071-.01.107a2.346,2.346,0,0,1-2.383,2.137m.038-3.717h0Zm-2.074-.092.8.035.215-3.334a2.358,2.358,0,0,1,.734-1.646,2.273,2.273,0,0,1,.756-.464,2.3,2.3,0,0,1-1.237-2.187c0-.03,0-.059,0-.089l.341-4.762c0-.039.007-.077.012-.116a2.364,2.364,0,0,1,1.557-1.978,2.331,2.331,0,0,1-1.281-2.2c0-.024,0-.047,0-.071l.252-4.2c0-.04.005-.079.01-.118a2.427,2.427,0,0,1,1.174-1.847l-2.936-.132a2.219,2.219,0,0,1,.414.379,2.363,2.363,0,0,1,.528,1.779L332.5,91.15a2.359,2.359,0,0,1-.73,1.65,2.287,2.287,0,0,1-.818.49,2.245,2.245,0,0,1,.734.575,2.318,2.318,0,0,1,.514,1.758l-.335,4.686a2.33,2.33,0,0,1-.726,1.653,2.244,2.244,0,0,1-.733.458,2.2,2.2,0,0,1,.693.549,2.319,2.319,0,0,1,.508,1.757Zm11.635-5.168h0Zm-20.835-.929,2.163.082a2.348,2.348,0,0,1-.88-1.975c0-.062.006-.124.013-.185l.144-1.161-.182-.007-.184,1.476a2.381,2.381,0,0,1-1.076,1.77m5.17-3.1.878.037L328.4,96.7l-.933-.039a2.581,2.581,0,0,1,.048.951Zm-1.476-.06h0m3.9-1.957h0m12.475-2.749h0Zm-17.227-4.5q1.915.076,3.828.156l.1-1.584q-1.591-.067-3.181-.13-.379.831-.742,1.558m-3.911-2.453.768.421c.247-.508.5-1.061.774-1.667a2.683,2.683,0,0,1,2.4-1.6,2.132,2.132,0,0,1-.536-.565,2.179,2.179,0,0,1-.156-2.027q.321-.857.6-1.629l-.726-.246c-1.076,2.7-2.138,5.184-3.122,7.317m23.155-.6h0Zm-16.426-3.531c-.006.014-.01.028-.016.041.006-.013.01-.027.016-.041m-4.747-3.571.035.012-.035-.012m1.612-.813c-.006.016-.013.032-.019.049l.019-.049" transform="translate(-123.26 -29.547)" fill="#fff"/><path d="M392.132,116h-.041a47.717,47.717,0,0,1-6.372-.539,7.875,7.875,0,0,1-5.2-2.853,7.611,7.611,0,0,1-1.37-5.761c.289-2.335,1.78-4.742,4.441-7.179a11.263,11.263,0,0,0-2.794-1.425l-.062-.023a2.44,2.44,0,0,1-1.584-2.966l1.023-4.283-1.289-.11a2.417,2.417,0,0,1-1.731-.9,2.372,2.372,0,0,1-.463-1.82l.328-2.692a2.345,2.345,0,0,1,2.608-2.2q1.144.1,2.286.194l.74-3.113c0-.021.01-.042.017-.063a2.436,2.436,0,0,1,2.64-1.873q2.015.178,4.031.361a2.371,2.371,0,0,1,1.791.992,2.318,2.318,0,0,1,.308,1.932l-.607,2.55q3.192.278,6.392.571a2.368,2.368,0,0,1,1.762.942,2.294,2.294,0,0,1,.449,1.887l-.324,2.64c0,.016,0,.032-.006.048a2.389,2.389,0,0,1-2.663,2.13q-3.677-.355-7.354-.69l-.491,2.073a13.51,13.51,0,0,1,1.277,1.105c.6-.413,1.353-.9,2.238-1.469a2.417,2.417,0,0,1,3.408.747l2.1,3a2.416,2.416,0,0,1-.434,3.325,1.838,1.838,0,0,1-.192.144l-2.4,1.576a15.539,15.539,0,0,1,.649,1.56,2.387,2.387,0,0,1-1.355,3.129l-2.307,1.011a2.265,2.265,0,0,1-.549.2c.36.01.755.017,1.187.022.05,0,.1,0,.149.008a2.4,2.4,0,0,1,2.318,2.533l-.139,2.946A2.362,2.362,0,0,1,392.164,116h-.032m-9.125-20.886a14.175,14.175,0,0,1,4.307,2.823,2.3,2.3,0,0,1-.108,3.522c-3.356,2.739-4.221,4.678-4.363,5.83a4.006,4.006,0,0,0,.609,3.031,4.245,4.245,0,0,0,2.847,1.469,41.694,41.694,0,0,0,4.6.45l.018-.368a22.117,22.117,0,0,1-4.2-.36,3.166,3.166,0,0,1-2.679-3.37c.069-1.462,1.107-3,3.471-5.145a2.252,2.252,0,0,1,1.93-.571,2.406,2.406,0,0,1,1.695,1.356q.032.06.058.123c.021.046.041.093.061.141l.066-.029c-.134-.291-.3-.626-.491-1.018a1.687,1.687,0,0,1-.073-.167,2.52,2.52,0,0,1,.846-3.048l.074-.052,2.174-1.43-.738-1.055c-.846.552-1.5,1-1.956,1.337-.048.035-.1.069-.149.1a2.469,2.469,0,0,1-3.034-.35,1.821,1.821,0,0,1-.215-.22,9.262,9.262,0,0,0-1.817-1.632,2.62,2.62,0,0,1-1.1-2.909l.871-3.678a2.427,2.427,0,0,1,2.66-1.938q3.6.326,7.2.671l.03-.244q-3.309-.3-6.631-.586a2.386,2.386,0,0,1-1.64-.782,1.848,1.848,0,0,1-.211-.292,2.392,2.392,0,0,1-.258-1.849l.608-2.558-1.434-.129-.739,3.109a2.434,2.434,0,0,1-2.653,1.938l-2.072-.177-.026.215,1.493.127a2.3,2.3,0,0,1,2.107,2.963Zm4.948,12.845c.386.054,1,.113,1.965.157l-.023-.007a2.549,2.549,0,0,1-1.306-.959,6.931,6.931,0,0,0-.636.808M392.448,96.3c.008.012.015.023.024.034Zm-4.412-2.887.04.028-.04-.028m9.233-3.373h0Zm-16.737-.566a.141.141,0,0,1,0,.016ZM379.2,87.161h0Zm11.278-1.421,0,.021c0-.007,0-.014,0-.021" transform="translate(-147.065 -30.604)" fill="#fff"/><path d="M5.236,219.3a2.27,2.27,0,0,1-2.349-2.489l.072-2.564c0-.031,0-.063,0-.094a2.611,2.611,0,0,1,.585-1.49c-.066-.037-.132-.077-.2-.121a2.352,2.352,0,0,1-.975-1.693l-.154-1.612a1.841,1.841,0,0,1,.029-.546c.016-.078.032-.156.045-.258a1.861,1.861,0,0,1,.412-.955c.024-.722.032-1.426.024-2.1a2.272,2.272,0,0,1-1.64-.363,2.314,2.314,0,0,1-.969-1.7c0-.03-.006-.06-.008-.09L0,201.647c0-.032,0-.065,0-.1a2.466,2.466,0,0,1,1.913-2.533l1.62-.4a2.21,2.21,0,0,1-1.4-2.253l.1-5.554a2.376,2.376,0,0,1,2.16-2.427c1.059-.11,2.063-.213,3.068-.315a2.236,2.236,0,0,1,2.549,2.015,2.568,2.568,0,0,1,.8-1.368c1.571-1.5,3.649-3.515,5.6-5.657a2.5,2.5,0,0,1,1.767-.868,2.35,2.35,0,0,1,1.624.606l1.941,1.617q.061.05.117.106a2.459,2.459,0,0,1,.576.872,2.586,2.586,0,0,1,1.045-.493q4.623-1.059,9.248-2.088a2.306,2.306,0,0,1,1.853.341,2.339,2.339,0,0,1,.947,1.662c0,.024.005.048.007.072a144.711,144.711,0,0,1,.616,15.271,2.509,2.509,0,0,1-2.031,2.449l-2.824.667a2.456,2.456,0,0,1-.864.046l.174,2.255c0,.043.005.087.005.13a2.468,2.468,0,0,1-.809,1.9q2.057-.586,3.952-1.2a1.652,1.652,0,0,1,.171-.047,2.262,2.262,0,0,1,2.794,1.973l.276,2.624a2.447,2.447,0,0,1-1.709,2.678c-4.066,1.244-7.712,2.229-11.2,3.028A102.321,102.321,0,0,1,5.3,219.3H5.236m.079-3.724h0Zm1.328-.1v.037q2.79-.161,5.749-.532-.589.069-1.177.13A2.168,2.168,0,0,1,8.72,213.07c-.013.1-.026.194-.039.288a2.384,2.384,0,0,1-2.038,2.122m-.551-3.675h0m4.733-.386-.038,0,.038,0m22.47-.038h0ZM10.525,205.1a2.169,2.169,0,0,1,1.336.447,2.278,2.278,0,0,1,.858,1.851c0,.025,0,.049,0,.074-.03,1.44-.079,2.683-.147,3.751a98.162,98.162,0,0,0,9.943-1.751q1.264-.291,2.488-.592a2.241,2.241,0,0,1-1.062-.391A2.311,2.311,0,0,1,23,206.827c0-.027-.006-.054-.007-.081l-.078-1.028a2.465,2.465,0,0,1-1.32,1.013c-1.852.641-3.885,1.277-5.631,1.816-.041.013-.084.024-.126.034a2.243,2.243,0,0,1-2.812-1.952l-.324-2.074c-.008-.049-.013-.1-.017-.149l-.638-8.55c0-.042,0-.084,0-.126a2.55,2.55,0,0,1,.433-1.472l-.065-.072L10.57,192.1a2.4,2.4,0,0,1-.553-1.061l-.083,5.053a2.351,2.351,0,0,1-1.007,1.964c.041.027.082.057.121.088A2.246,2.246,0,0,1,9.9,199.9c.12,2,.19,3.706.213,5.23a2.5,2.5,0,0,1,.414-.035m-2.407,4.1c.035.027.067.054.1.079a2.14,2.14,0,0,1,.68,1.159q.031-.577.055-1.222a2.368,2.368,0,0,1-.831-.016m-3.741.056h0Zm2.4-.506a2.319,2.319,0,0,1,.457.045c-.028-.021-.054-.043-.077-.062a2.154,2.154,0,0,1-.723-1.284q-.008.272-.019.546l0,.144a2.45,2.45,0,0,1-.083.652,2.645,2.645,0,0,1,.45-.04m8.637-1.977h0Zm-7.075-1.221h0Zm16.987-17.257,1.249,16.548.237-.054L25.617,189.4c0-.043-.005-.086-.006-.129a2.6,2.6,0,0,1,.224-1.094l-.512.116m-8.941,15.762.069.446c.811-.255,1.65-.522,2.475-.794a2.132,2.132,0,0,1-1.295-.393,1.893,1.893,0,0,1-.318-.271,2.4,2.4,0,0,1-.641-1.353c0-.033-.007-.066-.009-.1l-.346-5.085-.491.121ZM5.723,201.915a2.279,2.279,0,0,1,.613,1.149q-.025-.619-.057-1.284l-.556.135m13.49.047,0,.016Zm-11.246-.59h0m12.76-1.929a2.111,2.111,0,0,1,1.782.947L21.6,188.3c-1.194,1.408-2.469,2.792-3.81,4.138a2.274,2.274,0,0,1,1.114.386,2.3,2.3,0,0,1,1.006,1.693c0,.032.007.064.01.1l.331,4.879a2.394,2.394,0,0,1,.48-.049m11.7.7h0Zm-26.243-.152h0Zm25.033-13.032a2.351,2.351,0,0,1,.729,1.481c0,.026.005.051.008.077.043.558.085,1.21.133,1.962.034.519.069,1.087.112,1.7.149,2.47.192,4.823.132,7.026l.118-.027c.049-3.293-.114-7.367-.5-12.387l-.735.165m2.068,12.025-.018,0Zm-18.419-2.119-.019,0,.019,0m-8.648-.778v0Zm-.287-4.122-.051,2.967.358-.037.049-2.967-.355.037m1.958-.2-.052,0,.052,0m5.478-.352-.018.017.018-.017m.842-.806.066.075c1.185-1.147,2.321-2.33,3.4-3.534-1.207,1.259-2.4,2.438-3.464,3.459m-.849-.966.005.006-.005-.006m7.205-3h0Z" transform="translate(0 -71.135)" fill="#fff"/><path d="M77.177,206.7a2.421,2.421,0,0,1-1.251-.357q-1.728-.983-3.456-1.962a2.373,2.373,0,0,1-1.178-1.443,2.443,2.443,0,0,1,.3-1.951q2.952-5.076,5.914-10.155-1.622.419-3.243.842a2.287,2.287,0,0,1-1.962-.3,2.335,2.335,0,0,1-.98-1.81l-.316-2.774a2.509,2.509,0,0,1,1.845-2.746c2.037-.55,4.078-1.08,6.141-1.6a2.466,2.466,0,0,1-.86-1.24c-.012-.037-.023-.074-.032-.111l-1.985-7.813a2.416,2.416,0,0,1,1.655-3.043q1.911-.681,3.823-1.357a2.207,2.207,0,0,1,1.78.151c1.01.547,1.668,1.819,2.43,4.692.012.043.021.088.03.132.291,1.549.627,3.09.952,4.581a2.411,2.411,0,0,1-.181,1.791,2.317,2.317,0,0,1-.335.471q1.322-.3,2.67-.6c.031-.007.063-.013.1-.019a2.406,2.406,0,0,1,1.937.433,2.331,2.331,0,0,1,.884,1.71l.24,2.846a2.447,2.447,0,0,1-1.888,2.7c-.034.009-.068.018-.1.024l-.764.16q-1.105,1.908-2.21,3.819a2.2,2.2,0,0,1,1.171.119,2.292,2.292,0,0,1,1.336,1.494c.092.3.182.6.28.932.092.312.191.647.3,1.011.006.021.013.041.019.06.169-.085.347-.178.536-.282.03-.016.062-.033.094-.048a2.373,2.373,0,0,1,3.272,1.055c.021.044.041.088.059.133l1.358,3.418a2.4,2.4,0,0,1-1.22,3.166l-.074.036a21.181,21.181,0,0,1-4.171,1.5,6.062,6.062,0,0,1-6.934-3.453l-1.806.871a.443.443,0,0,0-.054.08l-2,3.535a2.51,2.51,0,0,1-1.586,1.244,2.252,2.252,0,0,1-.533.063M74.8,202.857l0,.006,0-.006m.626-1.076,1.24.7,1.415-2.5a3.907,3.907,0,0,1,1.607-1.54c.792-.382,1.557-.752,2.317-1.116l-.06-.035a2.031,2.031,0,0,1-.983-1.6,1.942,1.942,0,0,1,.14-.881,1.792,1.792,0,0,1,.137-.292q2.5-4.325,5-8.64c.023-.039.046-.077.072-.114a3.27,3.27,0,0,1,2-1.407l-.026-.311c-4.666,1.056-9.095,2.144-13.467,3.309l.036.312c1.832-.476,3.65-.945,5.468-1.409.045-.012.091-.021.137-.03a1.968,1.968,0,0,1,2.076.836,2.064,2.064,0,0,1-.006,2.532q-3.549,6.08-7.1,12.177m18.065-.612h0Zm-19.235-.051.04.023-.04-.023M84.894,196.9a2.358,2.358,0,0,1,1.221,1.445c.761,2.318,1.857,2.624,3.261,2.368a14.007,14.007,0,0,0,2.293-.773L91.3,199c-.229.107-.432.2-.61.278a2.739,2.739,0,0,1-.327.121,2.656,2.656,0,0,1-3.1-1.412,8.69,8.69,0,0,1-.586-1.554c-.038-.124-.074-.244-.109-.359l-1.671.822m-.424,3.376-.043.021a.4.4,0,0,0,.043-.021m-1.89-.783,0,.012ZM81,195.615Zm7.129-.31h0m-13.109-6.13,0,.02c0-.005,0-.013,0-.02m-1.7-1.1-.027.007.027-.007m8.931-1.261h0Zm0,0h0m-1.5-.215h0Zm0,0h0m0,0h0m0,0h0M80.638,181h0Zm-.657-7.605,1.368,5.387,1.585-.553c-.256-1.187-.511-2.393-.742-3.618-.224-.841-.411-1.415-.556-1.8l-1.656.588m-.272-1.069.007.028-.007-.028" transform="translate(-27.719 -65.89)" fill="#fff"/><path d="M129.557,200.79a7.981,7.981,0,0,1-4.2-1.067,6.484,6.484,0,0,1-3.21-5.418,7.312,7.312,0,0,1,2.173-5.71l.057-.055q.34-.316.706-.595l-.037-.025-2.942-1.642a2.492,2.492,0,0,1-1.231-1.546,2.377,2.377,0,0,1,.266-1.786q2.225-4.026,4.452-8.046l-2.275.354a2.375,2.375,0,0,1-1.88-.5,2.418,2.418,0,0,1-.869-1.681c0-.032,0-.064,0-.1l-.018-3c0-.034,0-.069,0-.1a2.456,2.456,0,0,1,2.235-2.368c3.953-.6,8.01-1.192,12.027-1.764a2.375,2.375,0,0,1,1.866.52,2.322,2.322,0,0,1,.857,1.665c0,.036,0,.073,0,.109l.006,2.14c0,.032,0,.065,0,.1a4.559,4.559,0,0,1-.515,1.881l-4.044,7.171a10.308,10.308,0,0,1,4.79,2.349,9.543,9.543,0,0,1,3.209,6.9,11.053,11.053,0,0,1-9.749,12.108,13.151,13.151,0,0,1-1.676.113m-2.617-9.555a3.584,3.584,0,0,0-1.08,2.844,2.774,2.774,0,0,0,1.4,2.45h0a5.3,5.3,0,0,0,3.443.468,7.347,7.347,0,0,0,6.566-8.2,5.882,5.882,0,0,0-1.938-4.32,7.254,7.254,0,0,0-4.837-1.7h0a2.121,2.121,0,0,1-1.854-3.314c1.691-3,3.407-6.047,5.123-9.087a.808.808,0,0,0,.064-.252v-.484c-3.176.455-6.385.927-9.555,1.4l0,.306c1.3-.2,2.61-.4,3.923-.6a2.2,2.2,0,0,1,1.747.519,1.869,1.869,0,0,1,.55.739,2.173,2.173,0,0,1-.118,1.944q-2.683,4.839-5.369,9.7l1.007.562a3.374,3.374,0,0,1,1.835-.826,8.654,8.654,0,0,1,4.541.471,5.462,5.462,0,0,1,3.474,3.69,2.114,2.114,0,0,1-.693,2.31,1.963,1.963,0,0,1-.179.13,2.263,2.263,0,0,1-1.517.33q.3.134.593.3c.051.03.1.062.15.1a2.522,2.522,0,0,1,.934,3.069c-.021.059-.045.115-.072.171a5.067,5.067,0,0,1-4.271,2.959,4.235,4.235,0,0,1-2.41-.405c-.027-.013-.053-.027-.079-.041a3.067,3.067,0,0,1-1.65-2.584,3.682,3.682,0,0,1,3.277-4.018,5.993,5.993,0,0,1,2.125.007,4.936,4.936,0,0,0-1.888-.12,5.99,5.99,0,0,0-3.243,1.492m4.934-9.945-.021.037c.007-.012.014-.024.021-.037m-1.4-2.235h0Zm-3.353-6.922,0,.008,0-.008m-3.8-.954-.021,0,.021,0" transform="translate(-47.067 -64.702)" fill="#fff"/><path d="M172.528,195.422a28.651,28.651,0,0,1-6.364-.654,2.46,2.46,0,0,1-1.593-1.135,2.435,2.435,0,0,1-.235-1.877l.945-3.927q.016-.07.038-.137a2.341,2.341,0,0,1,2.825-1.643,28.9,28.9,0,0,0,7.847.274,46.28,46.28,0,0,0,5.083-.756,2.317,2.317,0,0,1,1.817.352,2.4,2.4,0,0,1,.987,1.692c.006.042.01.085.013.127l.285,3.951a2.428,2.428,0,0,1-2.052,2.717,58.076,58.076,0,0,1-5.881.847q-1.932.17-3.716.17m-4.28-4.034a31.3,31.3,0,0,0,7.67.16c1.408-.124,2.911-.327,4.479-.6l-.1-1.45c-1.392.243-2.7.417-3.974.53a33.672,33.672,0,0,1-7.71-.135Zm13.195-.637h0m.383-1.545-.018,0,.018,0m.855-6.722a2.718,2.718,0,0,1-.642-.079l-3.2-.7a2.4,2.4,0,0,1-1.569-1.091,2.462,2.462,0,0,1-.239-1.928c.01-.039.022-.078.034-.117l.208-.639c-2.992.273-6.895.717-11.469,1.306a2.5,2.5,0,0,1-1.518-.349,1.856,1.856,0,0,1-.308-.215,2.36,2.36,0,0,1-.867-1.724l-.039-2.966a2.434,2.434,0,0,1,2.31-2.552l2.449-.313c3.076-.36,8.421-.917,16.521-1.54a2.356,2.356,0,0,1,1.883.652,2.329,2.329,0,0,1,.675,1.81l-.046,1.732a5.781,5.781,0,0,1-.234,1.638l-1.6,5.3c-.015.047-.03.093-.048.138a2.448,2.448,0,0,1-2.3,1.642m.568-2.318h0Zm-.408-1.391.043.009-.043-.009m-1.8-.4.76.166,1.269-4.19a2,2,0,0,0,.082-.509c0-.041,0-.082,0-.124l.009-.324c-7.216.572-12.041,1.077-14.874,1.408L166.8,175l0,.364c5.17-.652,9.444-1.108,12.376-1.32a2.229,2.229,0,0,1,1.935.775,2.258,2.258,0,0,1,.382,2.129c-.006.022-.013.045-.02.066Zm-1.56-.633h0m-13.641-2.627-.035,0,.035,0m.954-1.24v.055c0-.018,0-.037,0-.055m17.86-.6h0" transform="translate(-63.669 -66.206)" fill="#fff"/><path d="M223.028,191.413a9.949,9.949,0,0,1-5.951-1.691,7.648,7.648,0,0,1-3.179-6.435c-.057-2.7,1.19-5.479,3.708-8.27l-2.57-13.416a2.321,2.321,0,0,1,1.832-2.846q1.788-.421,3.574-.836c.041-.01.083-.018.124-.024a2.464,2.464,0,0,1,1.879.425,2.379,2.379,0,0,1,.921,1.564l1.573,8.527c.88-.714,1.966-1.6,3.248-2.667.048-.04.1-.076.148-.112a2.389,2.389,0,0,1,3.238.329l.041.047,2.237,2.616a1.772,1.772,0,0,1,.137.18,2.4,2.4,0,0,1-.4,3.225c-.027.025-.055.049-.084.072-2.818,2.286-5.117,4.184-7.178,6.021-3.279,2.841-3.421,4.129-3.416,4.359.012.567.015.738.911.757a39.548,39.548,0,0,0,5.784-.511q.088-.012.177-.016a2.45,2.45,0,0,1,1.843.63,2.356,2.356,0,0,1,.725,1.695l.07,3.325a2.45,2.45,0,0,1-2.137,2.558c-.037.006-.073.01-.11.014-2.215.208-4.359.363-6.374.461q-.393.018-.773.019m-1.714-16.8a2.971,2.971,0,0,1-.637,2.55c-.029.036-.059.07-.09.1-2.01,2.155-3.009,4.154-2.972,5.943a4,4,0,0,0,1.608,3.477,6.837,6.837,0,0,0,4.4.994c1.61-.079,3.309-.194,5.062-.346l-.016-.732a39.185,39.185,0,0,1-4.894.354c-2.822-.06-4.522-1.7-4.579-4.4-.044-2.129,1.443-4.426,4.68-7.229,1.845-1.645,3.877-3.338,6.289-5.3l-.546-.638c-1.08.891-2,1.634-2.742,2.237-.647.524-1.162.941-1.539,1.258a2.115,2.115,0,0,1-3.6-1.329l-1.79-9.7-1.035.242Zm11.02-3.955h0Zm-13.659-9.815.008.044c0-.015-.005-.03-.008-.044" transform="translate(-83.513 -61.634)" fill="#fff"/><path d="M262.395,190.388a2.519,2.519,0,0,1-.819-.14q-1.936-.614-3.872-1.222a2.354,2.354,0,0,1-1.511-1.281,2.3,2.3,0,0,1,0-1.839c1.343-4.064,2.41-7.419,3.183-10.013l-.695.1a2.3,2.3,0,0,1-2.686-2.329l-.111-3.008a2.4,2.4,0,0,1,2.163-2.619c1.183-.13,2.346-.255,3.506-.38.646-2.683,1.238-5.427,1.76-8.168l.013-.062a2.375,2.375,0,0,1,2.858-1.874q1.922.331,3.842.667a2.308,2.308,0,0,1,1.574.914,2.433,2.433,0,0,1,.378,1.992l-.088.41c-.351,1.638-.739,3.446-1.192,5.451l.293,0a9.156,9.156,0,0,1,6.054,1.795,7.207,7.207,0,0,1,2.456,6.182,97.789,97.789,0,0,1-1.583,13.054,2.431,2.431,0,0,1-2.539,2.11c-1.477.013-2.97.029-4.464.046h-.006a2.366,2.366,0,0,1-1.7-.664,2.308,2.308,0,0,1-.669-1.734,1.91,1.91,0,0,1,.041-.385,84.794,84.794,0,0,0,1.937-12.611v-.007c-.386,0-.773.013-1.164.024l-.508.013c-.879,3.331-2.213,7.77-4.169,13.871a1.88,1.88,0,0,1-.073.191,2.421,2.421,0,0,1-2.211,1.521m.408-3.649h0m7.808-15.689h.056a3.623,3.623,0,0,1,2.64,1.084,3.751,3.751,0,0,1,.924,2.808,82.094,82.094,0,0,1-1.651,11.49l1.841-.018a90.455,90.455,0,0,0,1.363-11.607,3.631,3.631,0,0,0-1.094-3.153,5.55,5.55,0,0,0-3.656-.956c-1,0-1.62.03-1.88.041-.121.005-.194.01-.226.007a2.293,2.293,0,0,1-1.91-.991,2.446,2.446,0,0,1-.393-1.446,1.889,1.889,0,0,1,.048-.414c.536-2.313.987-4.386,1.387-6.249l-1.338-.232c-.519,2.619-1.1,5.233-1.723,7.788a2.482,2.482,0,0,1-2.4,2.077q-1.482.157-2.965.319l.018.5,1.34-.183a2.237,2.237,0,0,1,2.606,2.732c-.739,2.658-1.909,6.423-3.49,11.235l1.412.446c1.862-5.846,3.11-10.053,3.909-13.173.007-.026.013-.051.021-.077a2.7,2.7,0,0,1,2.308-1.97,1.924,1.924,0,0,1,.2-.012c.436,0,.863-.013,1.285-.025.455-.013.9-.025,1.353-.026Zm4.75,15.355h0Zm-13.412-10.9h0Zm22.579,4.319a2.349,2.349,0,0,1-2.339-2.016c-.008-.04-.015-.08-.02-.121-.03-.237-.242-1.69-1.682-10.481a2.441,2.441,0,0,1,.351-1.852,2.343,2.343,0,0,1,.364-.422,2.273,2.273,0,0,1-.734-.549,2.354,2.354,0,0,1-.564-1.823l.3-3.713a2.408,2.408,0,0,1,2.524-2.282l1.9.012a2.5,2.5,0,0,1,1.258.33,2.844,2.844,0,0,1,1.3-.31l1.815.016a2.41,2.41,0,0,1,1.845.78,2.373,2.373,0,0,1,.56,1.851l-.334,3.655a2.4,2.4,0,0,1-.7,1.618,2.465,2.465,0,0,1-1.641.695,2.761,2.761,0,0,1,.153.485c.006.028.012.057.017.085.357,2.1.928,5.67,1.621,10.755a2.5,2.5,0,0,1-.505,1.89,2.4,2.4,0,0,1-1.594.857q-1.7.247-3.395.5a2.784,2.784,0,0,1-.485.043m-.176-12.022c.443,2.714,1.013,6.213,1.311,8.126l.988-.144c-.488-3.509-.909-6.221-1.223-8.136l-1.076.155m3.66-4.906,0,.034c0-.011,0-.022,0-.034m.589-1.4h0Zm-.908-2.613v0Z" transform="translate(-99.903 -61.129)" fill="#fff"/><path d="M333.228,190.184a2.509,2.509,0,0,1-.866-.159c-6.8-2.31-8.01-7.056-7.824-10.633.129-2.265,1.158-4.807,3.131-7.722-3.173,0-6.361.019-9.517.044-.024,0-.052,0-.078,0a2.582,2.582,0,0,1-2.358-2.5l.11-2.937a2.387,2.387,0,0,1,2.3-2.38c.045,0,.09-.005.135-.006,6.575-.03,13.22-.014,19.8.047a2.79,2.79,0,0,1-.019-.407q0-.08.011-.161l.417-3.759a2.421,2.421,0,0,1,2.569-2.2l1.9.1a2.459,2.459,0,0,1,1.226.389,2.574,2.574,0,0,1,1.289-.257l1.892.1a2.412,2.412,0,0,1,1.757.852,2.377,2.377,0,0,1,.5,1.857l-.406,3.656a2.334,2.334,0,0,1-.733,1.582,2.486,2.486,0,0,1-1.849.627l-1.851-.1a2.807,2.807,0,0,1-.89-.186,2.256,2.256,0,0,1-.005.594l-.063,2.723v0a2.374,2.374,0,0,1-2.338,2.4c-.045,0-.091,0-.135,0q-1.5-.02-3-.035c-4.265,4.742-5.008,7.153-5.069,8.172-.015.313-.049,1.006,1.824,1.634a2.514,2.514,0,0,1,1.532,1.283,2.313,2.313,0,0,1,.075,1.791l-1.236,3.861c-.007.023-.015.046-.023.068a2.436,2.436,0,0,1-1.273,1.451,2.253,2.253,0,0,1-.939.2m-.8-18.7c-3.3,4.137-4.094,6.691-4.174,8.107-.158,3.031,1.147,5.1,4.088,6.432l.455-1.423a5.006,5.006,0,0,1-3.238-4.913c.165-2.758,2.185-6.23,6.178-10.636.036-.04.074-.078.113-.115a3.451,3.451,0,0,1,2.145-.937c.046,0,.091,0,.137,0l1.995.022.007-.343c-6.843-.074-13.772-.1-20.634-.073l-.015.382c3.758-.027,7.554-.038,11.3-.035h.079a2.16,2.16,0,0,1,1.782,1.053,1.99,1.99,0,0,1,.1.188,2.1,2.1,0,0,1-.321,2.293m9.528-2.179h0Zm-22.411-2.915v.023c0-.007,0-.015,0-.023m26.615-2.423,0,.036c0-.012,0-.024,0-.036M345.918,160c0,.013,0,.027,0,.041Z" transform="translate(-123.267 -61.461)" fill="#fff"/><path d="M376.874,195.228a2.2,2.2,0,0,1-.781-.141,2.4,2.4,0,0,1-1.386-1.44,29.314,29.314,0,0,1-1.8-7.723,3.513,3.513,0,0,1,.8-2.787,3.564,3.564,0,0,1,2.714-1.1c2.326-.067,4.667-.128,7.011-.183l.011-.237c-2.145.005-4.279.016-6.414.032a2.338,2.338,0,0,1-2.462-2.279c0-.035,0-.07,0-.1l-.028-2.962c0-.035,0-.071,0-.105a2.32,2.32,0,0,1,2.5-2.3q3.363-.051,6.725-.086l.048-1.019q-4.311-.182-8.623-.337l-.087-.005a2.343,2.343,0,0,1-2.21-2.557l.133-2.865a2.379,2.379,0,0,1,2.428-2.381c.037,0,.073,0,.108,0q4.306.174,8.61.372l.149-3.2a2.349,2.349,0,0,1,.783-1.686,2.446,2.446,0,0,1,1.88-.557c1.34.107,2.7.218,4.055.33a2.649,2.649,0,0,1,1.435.55,2.32,2.32,0,0,1,.858,2.019l-.166,2.969,1.937.109c.022,0,.044,0,.066,0a2.317,2.317,0,0,1,2.234,2.528l-.177,2.923a2.326,2.326,0,0,1-2.391,2.309c-.044,0-.088,0-.132,0l-1.91-.107-.026.568,2.116.023a2.472,2.472,0,0,1,1.779.724,2.35,2.35,0,0,1,.65,1.723l-.013,2.883a2.332,2.332,0,0,1-.683,1.8,2.285,2.285,0,0,1-1.755.628q-1.228,0-2.456.012l-.206,4.445a2.415,2.415,0,0,1-2.49,2.371q-3.677.028-7.357.076c.168.551.373,1.123.613,1.71a2.418,2.418,0,0,1-1.145,3.147c-.043.023-.088.044-.134.063q-1.866.794-3.733,1.59a2.473,2.473,0,0,1-1.076.255m1.288-2.953.006.013-.006-.013m-1.534-6.528a27.288,27.288,0,0,0,1.088,5.284l1.373-.585a19.724,19.724,0,0,1-.784-2.856c0-.023-.008-.046-.012-.069a2.411,2.411,0,0,1,.412-1.833l-2.077.058m8.174-7.854a2.394,2.394,0,0,1,1.777.717,2.358,2.358,0,0,1,.639,1.775l-.131,2.825a2.433,2.433,0,0,1-.566,1.487l2.016-.019.206-4.443a2.4,2.4,0,0,1,2.431-2.374l2.411-.015,0-.337-2.168-.021a2.5,2.5,0,0,1-1.8-.72,2.367,2.367,0,0,1-.637-1.771l.149-3.2a2.411,2.411,0,0,1,2.491-2.37c.039,0,.076,0,.113,0l1.85.1.021-.338-1.885-.1-.071,0a2.67,2.67,0,0,1-1.459-.555,1.846,1.846,0,0,1-.251-.237,2.426,2.426,0,0,1-.566-1.737l.17-3.041-1.582-.129-.144,3.11a2.321,2.321,0,0,1-2.576,2.291q-4.284-.2-8.567-.378l-.017.375q4.278.159,8.556.343a2.341,2.341,0,0,1,1.714.7,2.427,2.427,0,0,1,.65,1.865l-.16,3.439a2.372,2.372,0,0,1-2.441,2.377q-3.361.032-6.718.081l0,.323c2.182-.014,4.341-.023,6.5-.027h.037m-.258,3.932h0m.236-.215h0Zm-7.792-3.682h0Zm17.857-.406a.223.223,0,0,0,.04,0h-.04m-3.417-3.752h0m-6.232-.922h0Zm8.317-2.057c0,.009,0,.016,0,.024Zm-6.846-7.506h0" transform="translate(-145.589 -62.302)" fill="#fff"/><path d="M432.4,200.071a11.023,11.023,0,0,1-1.439-.1,8.282,8.282,0,0,1-5.5-2.943,7.774,7.774,0,0,1-1.832-5.984c.217-2.688,1.69-7.075,8.866-6.953l.016-.151q-1.972-.152-3.944-.3l-.1-.01a2.49,2.49,0,0,1-1.632-.879,2.419,2.419,0,0,1-.558-1.743l.243-2.879a2.407,2.407,0,0,1,2.567-2.275c.034,0,.067,0,.1.006q2.113.176,4.226.358l.141-1.217q-1.983-.248-3.979-.491a2.235,2.235,0,0,1-1.8-1.184,2.621,2.621,0,0,1-.283-1.429c0-.034.005-.068.01-.1l.365-2.878a2.324,2.324,0,0,1,.827-1.6,2.431,2.431,0,0,1,1.913-.492q1.924.25,3.849.507l.241-2.025a2.435,2.435,0,0,1,.862-1.7,2.4,2.4,0,0,1,1.852-.491q2.053.277,4.1.56a2.389,2.389,0,0,1,2.131,2.663c0,.03,0,.061-.009.091l-.253,2.1,2.016.258a2.552,2.552,0,0,1,1.52.713,2.27,2.27,0,0,1,.607,2.126l-.393,2.775a2.326,2.326,0,0,1-.834,1.6,2.366,2.366,0,0,1-1.882.478l-1.984-.277-.1.83,1.427.137a2.286,2.286,0,0,1,1.783.864,2.4,2.4,0,0,1,.553,1.7l-.248,2.95a2.359,2.359,0,0,1-.855,1.682,2.443,2.443,0,0,1-1.846.5l-1.782-.149q-.02.163-.042.344l-.015.12,1.99.276a2.376,2.376,0,0,1,2.091,2.612c0,.027,0,.054-.007.082l-.332,2.959c0,.043-.012.086-.02.129a2.421,2.421,0,0,1-1.051,1.629,2.355,2.355,0,0,1-1.764.308c-.172-.026-.463-.074-.87-.141-.334-.055-.752-.124-1.25-.2a10.875,10.875,0,0,1-2.252,4.908,6.794,6.794,0,0,1-5.452,2.334m-.2-12.264c-4.578,0-4.77,2.375-4.865,3.561a4.113,4.113,0,0,0,.972,3.267,4.634,4.634,0,0,0,3.137,1.652c2.5.327,3.31-.64,3.576-.958l.042-.049a8.327,8.327,0,0,0,1.613-4.324c0-.026.008-.052.014-.077a2.383,2.383,0,0,1,2.73-1.924c.864.136,1.561.249,2.1.339l.037-.327-1.957-.27a2.389,2.389,0,0,1-2.132-2.66c0-.034.006-.068.01-.1l.163-1.326c.1-.795.166-1.348.216-1.656a2.407,2.407,0,0,1,2.542-2.046l.1.006,1.763.146.025-.3-1.629-.156-.079-.009a2.6,2.6,0,0,1-1.34-.637,1.868,1.868,0,0,1-.241-.244,2.272,2.272,0,0,1-.49-1.942l.393-3.323c0-.04.011-.08.018-.119a2.361,2.361,0,0,1,2.737-1.991l1.98.275.043-.3-2.066-.261a2.44,2.44,0,0,1-1.56-.877,1.928,1.928,0,0,1-.2-.291,2.738,2.738,0,0,1-.31-1.53c0-.03,0-.06.009-.09l.249-2.073-1.56-.213-.25,2.1c0,.038-.01.077-.018.115a2.394,2.394,0,0,1-2.728,2q-1.928-.259-3.855-.511l-.039.311q1.937.238,3.887.483a2.447,2.447,0,0,1,1.6.881,2.518,2.518,0,0,1,.549,1.82c0,.029,0,.058-.008.087l-.419,3.609c0,.041-.011.083-.019.124a2.432,2.432,0,0,1-2.718,2.035q-2.054-.179-4.108-.352l-.03.358q2.014.152,4.028.308l.1.01a2.513,2.513,0,0,1,1.486.758,2.221,2.221,0,0,1,.61,2.007c-.041.585-.087,1.189-.172,1.8-.441,2.7-2.021,2.95-2.677,2.939-.034,0-.066,0-.1,0-.416-.031-.8-.046-1.162-.046m.172-3.062Zm9.78-2.369,0,.025Zm-11.925-3.956,0,.026,0-.026m1.3,17.318c-.105,0-.209,0-.311-.014l-.078-.009a3.392,3.392,0,0,1-2.511-1.526,3.813,3.813,0,0,1-.513-2.629c.181-1.074,1-3.457,4.764-3.429a1.86,1.86,0,0,1,.218.015,2.368,2.368,0,0,1,2.1,2.614c0,.045-.008.09-.014.134-.564,3.938-2.239,4.844-3.659,4.844" transform="translate(-165.385 -63.677)" fill="#fff"/><path d="M480.068,207.467a7.936,7.936,0,0,1-1.348-.105c-4.122-.715-5.756-3.222-6.4-5.2a17.067,17.067,0,0,1-.252-7.455c.309-2.218,1.005-6.519,2.059-13.03l.711-4.4a2.312,2.312,0,0,1,.876-1.579,2.419,2.419,0,0,1,1.945-.423q2.024.349,4.051.7a2.334,2.334,0,0,1,1.947,2.817c-1.4,8.378-2.351,14.266-2.794,17.724-.235,1.994-.261,2.564-.263,2.7,0,.021,0,.042,0,.062,1.129-.179,3.236-.771,4.8-1.222.057-.016.115-.03.174-.041a2.454,2.454,0,0,1,2.835,1.552l1.169,3.1a2.4,2.4,0,0,1-.085,1.989,2.354,2.354,0,0,1-1.483,1.169,27.7,27.7,0,0,1-7.942,1.634M478.3,179.162l-.5,3.111c-1.05,6.486-1.744,10.77-2.046,12.942a13.911,13.911,0,0,0,.1,5.79c.311.953,1.01,2.261,3.5,2.694.7.121,2.4.127,6.253-1.014l-.276-.731a29.213,29.213,0,0,1-4.786,1.087,3.14,3.14,0,0,1-2.421-.7,3.934,3.934,0,0,1-1.24-2.934c0-.024,0-.049,0-.074a28.441,28.441,0,0,1,.29-3.257c.43-3.361,1.318-8.881,2.611-16.651l-1.485-.258m2.769.483h0" transform="translate(-184.207 -68.418)" fill="#fff"/><path d="M534.836,218.611a2.679,2.679,0,0,1-.615-.073,28.381,28.381,0,0,1-9.649-4.1,2.435,2.435,0,0,1-.756-3.393l1.969-3.209a2.245,2.245,0,0,1,1.47-1.041,2.542,2.542,0,0,1,1.982.466,21.51,21.51,0,0,0,6.8,2.833,2.5,2.5,0,0,1,1.567,1.1,2.383,2.383,0,0,1,.283,1.784l-.731,3.641a2.309,2.309,0,0,1-2.316,1.988m-7.239-6.617a25.367,25.367,0,0,0,6.177,2.574l.235-1.173a25.543,25.543,0,0,1-5.808-2.385Zm7.515,1.7.033.008-.033-.008m-8.126-.709-.016.027Zm.117-2.68,0,0,0,0m10.608-.113a2.539,2.539,0,0,1-1.3-.376l-2.765-1.738a2.414,2.414,0,0,1-1.106-2.689c-1.123-.229-2.285-.443-3.49-.666l-.077-.016a2.779,2.779,0,0,1-1.3-.692,1.949,1.949,0,0,1-.221-.254,2.413,2.413,0,0,1-.452-1.754c0-.027.008-.054.012-.081l.461-2.758a2.288,2.288,0,0,1,2.891-1.97c.917.183,1.885.378,2.852.574,1.952.367,4.447.948,7.266,1.614a2.37,2.37,0,0,1,1.846,2.907l-.311,1.587a4.878,4.878,0,0,1-.555,1.754l-1.677,3.243a2.345,2.345,0,0,1-1.423,1.222,2.283,2.283,0,0,1-.646.093m-1.234-3.021-.012.023Zm.107-1.636.558.35,1.033-2a1.247,1.247,0,0,0,.156-.53c.006-.045.012-.089.022-.133l.1-.5c-2.294-.538-4.324-1-5.951-1.307l-1.584-.32-.03.182c1.486.277,2.913.554,4.312.879a2.207,2.207,0,0,1,1.6,1.432,1.924,1.924,0,0,1,.067.247,2.411,2.411,0,0,1-.2,1.548Zm3.038-2.532h0m-.937-1.479c0,.016-.007.032-.01.049Zm-9.107-.691.029.005-.029-.005m-13.2,9.3a2.909,2.909,0,0,1-.625-.069q-2.3-.5-4.594-1a2.413,2.413,0,0,1-1.646-1.18,2.309,2.309,0,0,1-.173-1.812l3.012-12.678-2.029-.438a2.411,2.411,0,0,1-1.951-2.77c0-.036.01-.072.016-.107l.506-2.787c.005-.027.01-.054.017-.08a2.374,2.374,0,0,1,2.887-1.877l2.357.509,1.072-4.478a2.387,2.387,0,0,1,2.93-1.845c1.551.355,3.084.709,4.617,1.065a2.378,2.378,0,0,1,1.843,2.714,1.787,1.787,0,0,1-.037.2l-1.055,4.41q3.042.681,6.082,1.375a2.37,2.37,0,0,1,1.865,2.9l-.493,2.706a2.316,2.316,0,0,1-2.895,1.995q-3.177-.724-6.361-1.434l-3.049,12.84a2.3,2.3,0,0,1-2.3,1.837m-3.131-4.42,2.111.459,3.051-12.847a2.013,2.013,0,0,1,.062-.207,2.391,2.391,0,0,1,2.866-1.556q3.107.691,6.217,1.4l.057-.311q-3.072-.7-6.146-1.385a2.43,2.43,0,0,1-1.591-1.08,2.4,2.4,0,0,1-.271-1.851l1.057-4.417-2.1-.486-1.077,4.5a2.362,2.362,0,0,1-2.885,1.815l-2.276-.495-.059.321,2.188.474a2.375,2.375,0,0,1,1.568,1.05,2.327,2.327,0,0,1,.27,1.827Zm7.282-10.523h0m6.77-.808v0Zm1.613-1.117h0M511.1,189.329h0m12.117-.127v0m-1.289-4.989.02,0Zm-3.083-1.994,0,.021c0-.007,0-.014,0-.021" transform="translate(-198.479 -70.069)" fill="#fff"/><path d="M572.688,239.948a9.438,9.438,0,0,1-2.611-.4,7.787,7.787,0,0,1-4.694-3.446,7.216,7.216,0,0,1-.841-5.714,6.674,6.674,0,0,1,3.189-4.506,7.077,7.077,0,0,1,5.627-.415,7.715,7.715,0,0,1,4.733,3.476,7.256,7.256,0,0,1,.837,5.715,6.745,6.745,0,0,1-3.154,4.508,6.179,6.179,0,0,1-3.085.785m-1.22-6.919a1.113,1.113,0,0,0,.13.046,1.427,1.427,0,0,0,.153.036,3.044,3.044,0,0,0,.237-1.078.971.971,0,0,0-.165-.062c-.042-.012-.077-.021-.107-.027a2.384,2.384,0,0,0-.164.514,2.125,2.125,0,0,0-.084.571" transform="translate(-220.323 -87.881)" fill="#fff"/><path d="M140.857,41.966a.591.591,0,0,1-.808.3q-1.8-.813-3.608-1.62a.478.478,0,0,1-.251-.75,10.125,10.125,0,0,0,1.521-5.7c-.118-2-1.086-3-2.864-3.023a8.839,8.839,0,0,0-1.848.189.619.619,0,0,0-.582.649c-.021,2.43-.082,4.207-.138,5.325q-.35,5.6-5.21,6.218a6,6,0,0,1-4.73-1.027,5.9,5.9,0,0,1-1.993-4.343c-.367-4.1,1.764-7.195,6.431-9.322a.9.9,0,0,0,.528-.85c.034-.827.019-2.471,0-4.936a.62.62,0,0,0-.15-.434.535.535,0,0,0-.461-.1q-2.335.324-4.671.654a.449.449,0,0,1-.42-.108.578.578,0,0,1-.188-.386q0-1.46-.008-2.92a.625.625,0,0,1,.582-.654q2.336-.31,4.674-.613a.621.621,0,0,0,.582-.651q-.045-2.154-.09-4.308c-.022-.368.174-.558.543-.6q2.03-.262,4.06-.518c.41-.051.583.092.605.46q.025,2.156.049,4.313a.51.51,0,0,0,.148.393.535.535,0,0,0,.461.107q2.664-.354,5.33-.7a.536.536,0,0,1,.461.108.576.576,0,0,1,.147.394q0,1.459.008,2.92a.558.558,0,0,1-.541.641q-2.686.325-5.373.662a.618.618,0,0,0-.582.649q.025,2.157.049,4.314c-.016.413.157.556.608.5,1.066-.133,1.807-.183,2.26-.2a7.907,7.907,0,0,1,5.02,1.734,6.336,6.336,0,0,1,2.424,4.649,16,16,0,0,1-1.971,8.586m-13.734-8.66a.329.329,0,0,0-.33,0,4.552,4.552,0,0,0-2.279,4.082c.077,1.307.61,1.936,1.553,1.813.656-.085,1.059-.959,1.213-2.542-.012-.2.009-1.236-.015-3.043a.257.257,0,0,0-.142-.311m21-10.21a.585.585,0,0,1-.582.642q-1.538.2-3.075.4a.594.594,0,0,1-.417-.074.749.749,0,0,1-.152-.476c0-.082-.116-2.661-.329-7.655a.568.568,0,0,1,.538-.68q1.539-.18,3.078-.357a.513.513,0,0,1,.652.542c.208,2.816.276,5.359.288,7.661" transform="translate(-46.972 -4.85)" fill="#e7372f"/><path d="M199.513,35.751c-.03.372-.271.552-.683.58q-2.24.17-4.481.348a.359.359,0,0,1-.333-.141.438.438,0,0,1-.135-.36,79.269,79.269,0,0,0,1.493-13.007c0-1.275-.594-1.891-1.828-1.845-.822.058-1.684.161-2.589.226a.876.876,0,0,0-.761.713c-.977,4.386-2.225,9.327-3.788,14.747q-.23.572-.729.425-1.972-.487-3.944-.968c-.373-.094-.5-.289-.349-.671,1.45-5.047,2.6-9.244,3.4-12.594a.316.316,0,0,0-.135-.359.312.312,0,0,0-.331-.057q-1.454.3-2.907.6c-.327.067-.538-.081-.551-.491q-.13-1.531-.259-3.062c-.052-.365.146-.587.555-.7q2.089-.371,4.18-.736a.655.655,0,0,0,.681-.627c.614-2.8,1.139-5.8,1.654-9.125a.557.557,0,0,1,.685-.5q1.943.2,3.885.416a.5.5,0,0,1,.474.664c-.386,2.165-.842,4.745-1.412,7.662a.722.722,0,0,0,.1.4.361.361,0,0,0,.333.14c.082-.006.78-.1,2.054-.188a7.179,7.179,0,0,1,4.936,1.059,5.145,5.145,0,0,1,1.952,4.514,97.1,97.1,0,0,1-1.165,12.94m11.659-13.342q-1.719.367-3.438.738c-.369.064-.58-.088-.675-.493-.3-1.667-.983-5.159-2.052-10.434a.541.541,0,0,1,.432-.685q1.759-.417,3.518-.83a.563.563,0,0,1,.714.45c.581,2.8,1.267,6.336,2.015,10.567a.534.534,0,0,1-.515.687" transform="translate(-70.511 -3.174)" fill="#e7372f"/><path d="M252.017,28.322q-3.5.438-6.993.894c-.411.051-.618-.149-.619-.519q-.047-1.293-.092-2.586c-.046-1.477-.013-3.737.181-6.741q.252-4.3.5-8.6a.546.546,0,0,1,.574-.631q2.037-.049,4.074-.092.556-.012.5.605c-.347,6.333-.578,10.774-.61,13.362a.4.4,0,0,0,.166.366.609.609,0,0,0,.411.114l1.81-.2q.617-.073.619.48.027,1.458.052,2.916c0,.37-.163.619-.574.628m24.774-11.814q0,.555-.616.618-2.2.108-4.4.223a.588.588,0,0,0-.656.579,131.449,131.449,0,0,1-2,15.006c-.081.411-.327.537-.657.457q-2.141-.393-4.283-.78a.527.527,0,0,1-.455-.693c.848-4.652,1.49-9.176,1.885-13.616a.476.476,0,0,0-.083-.41.568.568,0,0,0-.413-.2q-2.921.175-5.843.36a.812.812,0,0,1-.453-.116.607.607,0,0,1-.125-.408q.015-1.478.03-2.958c0-.37.162-.578.533-.583q3.086-.189,6.172-.365c.37-.045.616-.212.615-.582.155-2.63.268-5.588.379-8.875,0-.37.2-.536.616-.54q2.119-.019,4.239-.032a.5.5,0,0,1,.578.572q-.19,4.253-.38,8.5a.561.561,0,0,0,.578.572q2.077-.114,4.155-.223c.371-.041.577.163.579.574q.005,1.458.011,2.916m-.233-7.27a.584.584,0,0,1-.656.577l-1.811.048a.633.633,0,0,1-.412-.162.463.463,0,0,1-.125-.452q.158-1.87.316-3.739a.5.5,0,0,1,.574-.577l1.893-.007a.477.477,0,0,1,.538.574l-.316,3.738m4.445,0a.582.582,0,0,1-.656.575l-1.852.042a.743.743,0,0,1-.412-.164.863.863,0,0,1-.166-.452q.158-1.869.316-3.738c.04-.41.245-.575.656-.575h1.852a.478.478,0,0,1,.538.575q-.137,1.869-.275,3.738" transform="translate(-95.382 -1.403)" fill="#e7372f"/><path d="M341.873,16.215c-.01.452-.221.647-.632.627q-3.684-.059-7.369-.1c-.371-.016-.539.182-.547.55q-.118,4.288-.235,8.577a.606.606,0,0,1-.591.672q-4.5.36-8.993.747c-.455.065-.624.265-.55.678a22.825,22.825,0,0,0,1.43,4.161.632.632,0,0,1-.266.813q-1.811.876-3.622,1.757c-.374.151-.661.1-.817-.274a25.889,25.889,0,0,1-2.253-7.882c-.142-.991.364-1.508,1.437-1.636q4.211-.453,8.421-.881a.6.6,0,0,0,.631-.632q.069-3.059.138-6.116c.009-.369-.194-.542-.564-.557q-5.7-.043-11.4-.041a.622.622,0,0,1-.449-.178.4.4,0,0,1-.156-.375q.053-1.477.107-2.955a.5.5,0,0,1,.589-.556q5.7-.024,11.406,0c.412-.025.622-.221.631-.59q.076-3.368.152-6.733c.007-.369.176-.527.587-.51q2.037.083,4.073.173c.411.018.573.19.563.6q-.073,3.263-.147,6.526a.749.749,0,0,0,.113.457.844.844,0,0,0,.45.143q3.685.02,7.37.06a.518.518,0,0,1,.563.6q-.033,1.436-.065,2.873" transform="translate(-123.175 -1.866)" fill="#e7372f"/><path d="M387.7,11.865c-.015.368-.228.514-.6.482q-1.643-.144-3.287-.285a.526.526,0,0,0-.641.521q-.157,1.734-.314,3.468a.4.4,0,0,0,.106.42.758.758,0,0,0,.4.2q1.441.061,2.881.125a.41.41,0,0,1,.405.16.544.544,0,0,1,.149.383l-.168,2.945c-.016.369-.23.556-.641.52q-1.5-.049-3.007-.094a.569.569,0,0,0-.641.521c-.06.447-.143,1.427-.291,2.936-.018.41.138.628.549.663q1.6.136,3.205.276c.37.032.525.251.51.619q-.126,1.489-.252,2.98a.5.5,0,0,1-.639.479c-.329-.029-1.477-.17-3.406-.374a.539.539,0,0,0-.64.481,10.514,10.514,0,0,1-1.922,5.39c-1.136,1.469-2.893,2.065-5.195,1.883A6.264,6.264,0,0,1,369.9,34.5a5.861,5.861,0,0,1-1.536-4.556c.206-3.848,2.845-5.754,7.871-5.639.371-.012.639-.483.76-1.378.068-.611.094-1.226.12-1.84a.379.379,0,0,0-.106-.42.617.617,0,0,0-.4-.2q-2.636-.069-5.272-.126a.643.643,0,0,1-.446-.2.543.543,0,0,1-.147-.422l.164-2.865a.572.572,0,0,1,.645-.609q2.7.084,5.394.179a.59.59,0,0,0,.684-.561q.161-1.817.321-3.633a.675.675,0,0,0-.143-.5.571.571,0,0,0-.4-.2q-2.61-.191-5.222-.372c-.163-.012-.327-.066-.364-.151a.757.757,0,0,1-.1-.46q.145-1.468.291-2.937c.015-.369.229-.517.639-.485q2.569.2,5.138.408a.547.547,0,0,0,.641-.523l.311-3.387c.017-.41.232-.6.6-.568q2.055.169,4.11.344c.41.035.566.254.549.664q-.153,1.652-.307,3.3a.9.9,0,0,0,.1.5.545.545,0,0,0,.363.2q1.665.123,3.33.248a.694.694,0,0,1,.447.163.426.426,0,0,1,.1.461q-.166,1.466-.332,2.931M375.689,28.328c-1.735.067-2.671.735-2.849,2a1.952,1.952,0,0,0,.273,1.336,1.517,1.517,0,0,0,1.21.63c.988.037,1.613-1.064,1.876-3.345.016-.369-.14-.587-.51-.616" transform="translate(-143.816 -1.19)" fill="#e7372f"/><path d="M438.471,23.317c-.027.408-.243.544-.614.536q-1.623-.155-3.247-.3a1.517,1.517,0,0,0-1.016.361c-3.841,3.741-5.855,6.742-6.083,8.977-.147,1.628.848,2.863,2.941,3.748.4.175.553.4.406.752l-1.4,3.773c-.147.352-.362.489-.724.32-4.547-1.932-6.621-5.02-6.218-9.295.241-2.439,1.922-5.406,5-8.806a.244.244,0,0,0,.06-.28.333.333,0,0,0-.276-.2q-6.314-.526-12.629-.994a.606.606,0,0,1-.355-.247.6.6,0,0,1-.182-.392q.114-1.447.229-2.9c.027-.408.242-.548.614-.546q11.6.9,23.191,1.994a.953.953,0,0,1,.4.218.412.412,0,0,1,.1.425q-.093,1.428-.186,2.856m1.224-5.475a.5.5,0,0,1-.649.448l-1.886-.251a.5.5,0,0,1-.5-.6q.285-1.856.572-3.712a.53.53,0,0,1,.652-.489l1.886.252a.531.531,0,0,1,.5.643l-.572,3.71m4.387.6c-.024.367-.28.5-.649.446l-1.845-.251c-.41-.056-.6-.247-.54-.609l.572-3.709a.51.51,0,0,1,.652-.488l1.886.258a.512.512,0,0,1,.5.644q-.285,1.854-.572,3.709" transform="translate(-161.691 -5.165)" fill="#e7372f"/><path d="M190.867,88.478a.614.614,0,0,1-.636.625q-4.6.361-9.206.751a.643.643,0,0,0-.636.63l-.5,7.482c.011.287.14.441.466.33a10.777,10.777,0,0,1,3.226-.806c2.671-.222,4.674.4,6.089,1.851,1.331,1.375,1.984,3.381,1.962,6.054a9.056,9.056,0,0,1-2.35,6.514,9.6,9.6,0,0,1-6.491,2.788q-7.027.59-8.139-5.913c-.057-.406.1-.585.513-.621q1.808-.161,3.616-.318a.567.567,0,0,1,.677.476c.392,1.652,1.533,2.375,3.423,2.218,2.262-.148,3.4-1.759,3.446-4.805q.024-4.256-3.369-4.039a4.326,4.326,0,0,0-3.117,1.5,1.324,1.324,0,0,1-.93.491q-1.644.142-3.288.288c-.41.036-.583-.154-.555-.526q.532-8.247,1.064-16.495c.027-.373.227-.555.638-.591q6.821-.6,13.644-1.133c.37-.029.541.122.555.491q-.05,1.381-.1,2.762" transform="translate(-68.187 -33.274)" fill="#e7372f"/><path d="M231.776,86.216a.6.6,0,0,1-.647.6q-4.607.2-9.214.432a.63.63,0,0,0-.646.608q-.313,3.733-.627,7.468c.006.288.133.445.46.346a10.644,10.644,0,0,1,3.239-.694c2.674-.13,4.665.562,6.055,2.062,1.306,1.421,1.925,3.45,1.857,6.122a8.912,8.912,0,0,1-2.46,6.434,9.424,9.424,0,0,1-6.535,2.566q-7.034.347-8.035-6.2c-.05-.408.111-.582.522-.6q1.809-.1,3.62-.193a.579.579,0,0,1,.669.5c.364,1.666,1.492,2.428,3.384,2.336,2.263-.07,3.425-1.643,3.525-4.688q.1-4.257-3.3-4.157a4.241,4.241,0,0,0-3.142,1.39,1.3,1.3,0,0,1-.937.459q-1.646.085-3.291.174c-.411.023-.58-.174-.546-.546l1.344-16.464c.034-.372.235-.547.647-.569q6.828-.362,13.657-.659c.371-.016.538.141.546.51l-.148,2.759" transform="translate(-84.028 -32.385)" fill="#e7372f"/><path d="M286.535,110.309a.5.5,0,0,1-.572.565q-1.614-.011-3.228-.018c-.342,0-.494-.192-.492-.533q.4-12.639.8-25.278c0-.341-.15-.531-.492-.533q-7.728-.033-15.456.018a.486.486,0,0,0-.533.535q-1.028,12.666-2.056,25.335a.535.535,0,0,1-.571.536q-1.614.014-3.228.032c-.342,0-.531-.183-.492-.563q1.128-14.264,2.256-28.526a.537.537,0,0,1,.571-.537q11.943-.113,23.888-.025a.482.482,0,0,1,.53.534q-.463,14.23-.926,28.459m-6.227-12.5q-.059.568-.571.567-5.621-.013-11.242.019c-.341,0-.531-.186-.492-.566q.059-.8.119-1.592a.524.524,0,0,1,.571-.572q1.462-.008,2.925-.013a.5.5,0,0,0,.571-.495q.059-.871.12-1.743c.038-.341-.151-.53-.53-.529l-2.544.01c-.38,0-.531-.187-.53-.566q.059-.8.118-1.592a.546.546,0,0,1,.61-.533q1.273-.007,2.545-.011a.545.545,0,0,0,.61-.532q.079-1.194.159-2.388c0-.379.191-.569.534-.571q1.443,0,2.886,0a.437.437,0,0,1,.492.53l-.2,2.426a.463.463,0,0,0,.53.53l2.809,0a.439.439,0,0,1,.492.532l-.119,1.592c-.04.379-.192.568-.571.568q-1.405,0-2.811,0c-.38,0-.571.19-.571.53q-.06.872-.119,1.744c-.04.341.15.493.492.493q1.671,0,3.342,0a.453.453,0,0,1,.492.569q-.06.8-.119,1.592m-2.238,11.215c0,.379-.192.568-.534.568q-4.1,0-8.2.018c-.342,0-.493-.187-.491-.566q.182-3.677.365-7.355a.512.512,0,0,1,.571-.533q4.083-.02,8.164-.016c.38,0,.57.152.53.532q-.2,3.677-.4,7.353m-3.554-5-1.557,0a.545.545,0,0,0-.61.532q-.059.872-.119,1.744a.516.516,0,0,0,.53.53l1.557-.041c.342,0,.533-.152.533-.494q.059-.871.12-1.743c.038-.341-.112-.531-.454-.53" transform="translate(-101.597 -31.734)" fill="#e7372f"/><path d="M345.471,87.64c-.046.338-.24.48-.619.46q-3.815-.2-7.63-.38a.533.533,0,0,0-.621.54q-.126,2.1-.252,4.2a.493.493,0,0,0,.519.555q3.34.156,6.68.329a.466.466,0,0,1,.48.593l-.166,2.229c-.009.341-.2.52-.582.5q-3.321-.171-6.643-.326a.515.515,0,0,0-.582.5l-.34,4.761c-.009.379.14.537.519.555q4.061.188,8.124.4c.379.02.527.217.518.6q-.083,1.076-.165,2.152c-.048.377-.241.557-.583.538q-4.042-.209-8.085-.4c-.38-.017-.574.163-.582.5l-.3,4.649a.494.494,0,0,1-.581.5q-1.727-.078-3.454-.152c-.38-.016-.528-.174-.482-.551l.3-4.651c.046-.34-.1-.535-.48-.551q-5.6-.237-11.2-.429c-.38-.013-.527-.208-.518-.586q.082-1.078.165-2.155.07-.567.583-.549l2.505.088c.38.014.573-.13.62-.508q.164-1.321.328-2.642c.009-.379.2-.524.582-.509q1.424.053,2.848.11c.379.015.527.172.48.549q-.164,1.32-.329,2.641c-.009.379.14.536.482.549q1.822.073,3.645.15a.454.454,0,0,0,.544-.507q.17-2.381.341-4.763a.448.448,0,0,0-.481-.552q-4.479-.191-8.959-.354a.47.47,0,0,1-.519-.549l.166-2.232c.048-.377.241-.56.583-.547q4.461.164,8.922.355c.379.016.574-.165.582-.506q.126-2.1.252-4.2c.046-.377-.139-.575-.518-.591q-2.62-.113-5.239-.216a.794.794,0,0,0-.772.5c-.482,1.081-.962,2.087-1.438,2.978-.161.335-.389.365-.766.2q-1.519-.834-3.038-1.665a.538.538,0,0,1-.172-.764c1.12-2.349,2.486-5.485,4.023-9.407a.506.506,0,0,1,.729-.314q1.584.534,3.167,1.073a.45.45,0,0,1,.287.694c-.327.972-.693,1.982-1.058,2.952-.121.3.027.457.369.47q8.732.352,17.462.811c.379.02.526.218.48.594q-.064,1.134-.129,2.268" transform="translate(-124.45 -30.737)" fill="#e7372f"/><path d="M398.46,91.236q-.091.608-.645.555-4.21-.406-8.42-.788a.575.575,0,0,0-.684.514l-.876,3.7a.8.8,0,0,0,.368.938,11.141,11.141,0,0,1,2.177,1.965c.316.275.561.338.858.16q.963-.713,3.068-2.059a.557.557,0,0,1,.856.2q1.063,1.519,2.126,3.04a.559.559,0,0,1-.123.852q-1.639,1.075-3.278,2.156a.671.671,0,0,0-.207.885,19.247,19.247,0,0,1,1.007,2.274.552.552,0,0,1-.326.791l-2.4,1.051c-.3.179-.618-.016-.881-.575a8.129,8.129,0,0,0-.4-1.064c-.228-.432-.472-.5-.73-.272-1.854,1.682-2.822,2.955-2.864,3.855a1.315,1.315,0,0,0,1.209,1.465,29.13,29.13,0,0,0,5.1.343c.452.042.65.225.633.594q-.07,1.474-.139,2.947a.513.513,0,0,1-.563.564,45.836,45.836,0,0,1-6.123-.516,6.052,6.052,0,0,1-4.024-2.162,5.783,5.783,0,0,1-.988-4.4c.266-2.156,1.945-4.523,4.991-7.007a.459.459,0,0,0,.037-.778,12.523,12.523,0,0,0-4.613-2.788q-.607-.237-.458-.78.694-2.9,1.386-5.8.153-.6-.463-.657-1.418-.123-2.835-.241a.494.494,0,0,1-.507-.619q.167-1.383.337-2.767a.5.5,0,0,1,.6-.525q1.663.14,3.328.284a.575.575,0,0,0,.684-.516l.977-4.109a.6.6,0,0,1,.684-.515q2.013.177,4.027.361c.41.038.565.257.465.619l-.977,4.1a.552.552,0,0,0,.061.458.575.575,0,0,0,.406.16q3.965.341,7.929.7a.537.537,0,0,1,.444.207.449.449,0,0,1,.1.462q-.165,1.361-.333,2.722" transform="translate(-148.255 -31.795)" fill="#e7372f"/><path d="M36.332,212.35a.6.6,0,0,1-.454.711c-3.608,1.1-7.265,2.118-11.019,2.978a99.8,99.8,0,0,1-18.436,2.6.428.428,0,0,1-.488-.53l.073-2.613q.046-.584.509-.581c.192-.008.459-.035.88-.061.384-.016.6-.182.63-.533.084-.593.158-1.259.252-2.084.035-.352-.137-.5-.512-.411l-1.762.427c-.338.083-.547-.057-.591-.428q-.075-.784-.149-1.567c.024-.12.049-.241.068-.4.207-.2.348-.313.382-.36s.02-.157.03-.389c.067-1.7.048-3.141-.023-4.383-.04-.333-.208-.446-.545-.364l-1.425.349c-.375.091-.547-.057-.591-.428l-.112-1.576a.619.619,0,0,1,.5-.694q2.587-.633,5.174-1.257c.338-.082.51.068.512.411.157,2.6.24,4.9.217,6.969-.03.389.174.493.512.411l1.575-.377c.375-.09.51.07.517.449-.047,2.187-.138,4-.283,5.372-.035.352.1.51.441.467a99.508,99.508,0,0,0,11.912-1.988c4.279-.983,8.049-2.021,11.389-3.105a.439.439,0,0,1,.352.037.431.431,0,0,1,.194.339q.137,1.3.274,2.61M9.266,197.265c0,.343-.2.546-.589.561q-1.487.149-2.973.3c-.346.008-.555-.132-.521-.483q.048-2.817.1-5.634c-.007-.38.2-.546.547-.591q1.505-.156,3.011-.308c.342-.045.514.1.521.485l-.093,5.67m12.487-9.435a69.134,69.134,0,0,1-5.993,6.323.486.486,0,0,1-.773-.008l-1.831-2.085c-.223-.252-.179-.53.1-.786,1.973-1.881,3.905-3.787,5.712-5.773.274-.293.536-.354.8-.11l1.971,1.642a.55.55,0,0,1,.018.8m.42,18.334c-1.667.577-3.488,1.153-5.571,1.8-.3.07-.505-.034-.55-.405q-.164-1.049-.328-2.1-.319-4.275-.638-8.55a.606.606,0,0,1,.5-.653q1.535-.382,3.072-.76a.469.469,0,0,1,.393.061.454.454,0,0,1,.2.374l.457,6.723a.546.546,0,0,0,.153.308.292.292,0,0,0,.351.032,8.617,8.617,0,0,0,1.487-.46c.333-.115.5,0,.546.37q.175,1.3.349,2.591a.542.542,0,0,1-.421.669m13.3-4.844a.649.649,0,0,1-.576.663q-1.425.336-2.85.674c-.3.067-.431-.056-.471-.391a74.437,74.437,0,0,0-.046-8.767c-.1-1.5-.17-2.71-.243-3.647-.04-.333-.213-.486-.588-.4l-1.5.34a.61.61,0,0,0-.538.655q.637,8.232,1.275,16.464a.6.6,0,0,1-.5.647q-1.408.319-2.816.64c-.375.085-.547-.066-.588-.4q-.725-9.6-1.45-19.207a.587.587,0,0,1,.5-.686q4.617-1.058,9.237-2.085c.338-.075.51.077.55.412a143.562,143.562,0,0,1,.61,15.09" transform="translate(-1.191 -72.325)" fill="#e7372f"/><path d="M94.681,202.358a19.6,19.6,0,0,1-3.783,1.368c-2.614.478-4.417-.739-5.366-3.628a.458.458,0,0,0-.729-.288q-1.535.737-3.069,1.477a2.036,2.036,0,0,0-.845.806q-1.011,1.783-2.022,3.568c-.218.368-.5.459-.808.265q-1.743-.991-3.485-1.978-.522-.277-.194-.83,3.932-6.761,7.865-13.5c.041-.007.037-.048.071-.136a.8.8,0,0,1-.14-.182c-.048-.074-.088-.068-.211-.046q-3.492.893-6.983,1.8c-.4.113-.586-.06-.62-.466q-.16-1.414-.321-2.828a.65.65,0,0,1,.518-.752c5.435-1.465,10.761-2.756,15.972-3.915.408-.069.627.06.661.466l.24,2.845a.618.618,0,0,1-.518.745l-.978.2a1.413,1.413,0,0,0-.9.646q-2.5,4.314-5,8.638c0,.041-.038.048-.034.088.014.163.143.223.3.154q2.051-1.011,4.1-2.016.475-.265.644.262c.171.549.348,1.178.577,1.923a10.012,10.012,0,0,0,.433,1.2.813.813,0,0,0,1,.533c.44-.2,1.039-.461,1.793-.874.4-.19.654-.109.8.2l1.368,3.443c.154.346.011.616-.347.8m-8.906-21.547q-1.975.687-3.949,1.379c-.405.112-.624-.015-.736-.366q-.992-3.908-1.985-7.813a.577.577,0,0,1,.429-.817q1.933-.689,3.866-1.372c.525-.173,1.125,1.043,1.793,3.566.3,1.6.638,3.147.976,4.7a.525.525,0,0,1-.395.727" transform="translate(-28.907 -67.079)" fill="#e7372f"/><path d="M127.5,199.314a4.606,4.606,0,0,1-2.307-3.934,5.422,5.422,0,0,1,1.64-4.291,7.85,7.85,0,0,1,4.3-2,6.891,6.891,0,0,1,3.712.555.456.456,0,0,0,.328-.041c.118-.1.152-.225.106-.3a3.629,3.629,0,0,0-2.386-2.537,6.85,6.85,0,0,0-3.618-.357,1.524,1.524,0,0,0-1.077.635l-.193.23c-.226.359-.508.478-.769.266q-1.519-.849-3.038-1.7c-.343-.2-.442-.476-.255-.789q3-5.422,6-10.831a.325.325,0,0,0,.021-.332.387.387,0,0,0-.3-.126q-2.724.416-5.446.841a.5.5,0,0,1-.419-.108.559.559,0,0,1-.187-.346q-.009-1.5-.017-3c.018-.372.213-.564.623-.618q6.021-.909,12.044-1.766a.5.5,0,0,1,.42.112.483.483,0,0,1,.187.348q0,1.069.006,2.139a2.684,2.684,0,0,1-.3,1.108q-2.574,4.56-5.148,9.13c-.188.312-.093.505.278.5a9.15,9.15,0,0,1,6.042,2.159,7.717,7.717,0,0,1,2.573,5.609,9.2,9.2,0,0,1-8.185,10.16,7.078,7.078,0,0,1-4.631-.716m6.832-5.9a4.111,4.111,0,0,0-2.843-.542c-1.267.245-1.844.938-1.775,2.081a1.214,1.214,0,0,0,.685,1.064,2.419,2.419,0,0,0,1.42.228,3.23,3.23,0,0,0,2.776-1.917.688.688,0,0,0-.262-.913" transform="translate(-48.257 -65.89)" fill="#e7372f"/><path d="M186.2,174.964a3.79,3.79,0,0,1-.16,1.123q-.8,2.634-1.6,5.27a.59.59,0,0,1-.766.434q-1.623-.358-3.245-.711c-.375-.091-.508-.326-.4-.746q.439-1.354.878-2.706c.108-.38-.024-.574-.394-.542-2.96.214-7.517.695-13.752,1.5a.7.7,0,0,1-.376-.128.529.529,0,0,1-.222-.389q-.019-1.457-.038-2.915c-.017-.41.18-.634.631-.678l2.5-.319c3.529-.413,8.991-.958,16.43-1.531.37-.031.583.158.558.53q-.025.906-.049,1.813m-3.226,18.807a56.173,56.173,0,0,1-5.7.821,30.853,30.853,0,0,1-9.5-.444.544.544,0,0,1-.443-.739l.951-3.955a.508.508,0,0,1,.685-.393,30.847,30.847,0,0,0,8.383.3,48.493,48.493,0,0,0,5.287-.786c.327-.069.539.078.6.484l.289,4a.588.588,0,0,1-.549.7" transform="translate(-64.86 -67.397)" fill="#e7372f"/><path d="M233.525,171.848c-2.672,2.168-5.1,4.168-7.243,6.077-2.71,2.347-4.069,4.267-4.038,5.785.035,1.682.959,2.539,2.731,2.577a44.226,44.226,0,0,0,6.083-.528c.411-.018.62.137.628.506q.035,1.662.069,3.325a.6.6,0,0,1-.562.682c-2.466.232-4.563.371-6.291.455a8.573,8.573,0,0,1-5.545-1.323,5.822,5.822,0,0,1-2.409-4.966c-.048-2.3,1.1-4.7,3.471-7.25a1.124,1.124,0,0,0,.268-1q-1.318-6.875-2.634-13.748c-.091-.406.07-.62.4-.678q1.8-.424,3.606-.844a.511.511,0,0,1,.669.459q1.021,5.535,2.043,11.074c.05.408.257.48.54.22.931-.785,2.713-2.184,5.263-4.311.325-.221.572-.231.825.046l2.237,2.615a.557.557,0,0,1-.106.826" transform="translate(-84.704 -62.824)" fill="#e7372f"/><path d="M277.268,188.92c-.042.37-.29.535-.7.534q-2.244.02-4.487.047a.5.5,0,0,1-.369-.123.494.494,0,0,1-.123-.41,86.291,86.291,0,0,0,1.976-12.9c.045-1.273-.529-1.93-1.763-1.968-.864,0-1.729.047-2.634.051a.833.833,0,0,0-.743.661c-.917,3.579-2.372,8.393-4.325,14.488q-.25.558-.742.376-1.952-.619-3.9-1.233c-.371-.119-.493-.322-.327-.694q2.68-8.1,3.866-12.364a.329.329,0,0,0-.123-.368.318.318,0,0,0-.329-.079l-2.923.4c-.371.046-.576-.116-.574-.527q-.057-1.539-.113-3.079a.545.545,0,0,1,.536-.664q2.1-.229,4.2-.454a.631.631,0,0,0,.7-.581c.667-2.716,1.336-5.72,1.963-9.01a.538.538,0,0,1,.7-.457q1.953.337,3.907.679c.37.04.493.287.409.7-.459,2.138-1,4.686-1.67,7.565a.667.667,0,0,0,.081.41.4.4,0,0,0,.37.163c.082,0,.782-.045,2.058-.048a7.343,7.343,0,0,1,4.893,1.392,5.4,5.4,0,0,1,1.755,4.644,96.476,96.476,0,0,1-1.564,12.853m8.722-24.98a.583.583,0,0,1-.66.571l-1.852-.011a.476.476,0,0,1-.533-.578l.3-3.736c.042-.411.249-.574.66-.572l1.893.012c.37,0,.534.168.533.579q-.171,1.867-.341,3.735m3.369,14.692q-1.729.251-3.459.505c-.412.08-.617-.086-.7-.5-.08-.616-.644-4.153-1.695-10.566a.554.554,0,0,1,.5-.736q1.771-.257,3.541-.51a.535.535,0,0,1,.7.457c.363,2.139.928,5.677,1.612,10.695a.522.522,0,0,1-.5.652m1.034-14.653a.548.548,0,0,1-.619.569l-1.893-.017a.478.478,0,0,1-.533-.579q.17-1.868.341-3.735c.041-.41.249-.572.66-.569l1.81.016c.411,0,.617.171.575.582q-.171,1.867-.341,3.734" transform="translate(-101.093 -62.32)" fill="#e7372f"/><path d="M343.143,170.5c-.01.41-.219.564-.591.586q-1.627-.021-3.253-.038a1.589,1.589,0,0,0-1,.445c-3.677,4.058-5.564,7.225-5.7,9.478-.08,1.64.965,2.794,3.089,3.507.408.142.568.355.436.719l-1.243,3.887c-.132.364-.342.519-.71.379-4.617-1.56-6.813-4.477-6.589-8.784.14-2.459,1.7-5.562,4.622-9.216a.25.25,0,0,0,.048-.285.317.317,0,0,0-.284-.177q-6.321-.005-12.644.046a.782.782,0,0,1-.563-.594q.055-1.457.109-2.913c.01-.411.219-.568.591-.6q11.613-.054,23.224.083a.892.892,0,0,1,.407.185.4.4,0,0,1,.114.417q-.033,1.436-.066,2.873m.995-5.577a.525.525,0,0,1-.63.5l-1.892-.1a.476.476,0,0,1-.522-.56q.209-1.88.418-3.76a.555.555,0,0,1,.63-.544l1.892.1c.37.019.53.233.522.6q-.209,1.879-.418,3.759m4.4.234c-.008.369-.259.52-.63.5l-1.851-.1c-.412-.022-.613-.2-.564-.564q.21-1.879.418-3.759a.533.533,0,0,1,.63-.541l1.893.1a.491.491,0,0,1,.521.6q-.209,1.879-.418,3.757" transform="translate(-124.458 -62.651)" fill="#e7372f"/><path d="M396.109,180.89q-1.857.007-3.714.02a.555.555,0,0,0-.605.6l-.26,5.609a.564.564,0,0,1-.647.6q-4.54.035-9.079.1c-.372.009-.545.2-.483.617a19.291,19.291,0,0,0,1.11,3.631.553.553,0,0,1-.284.8q-1.894.8-3.787,1.613-.508.266-.728-.307a27.341,27.341,0,0,1-1.685-7.251q-.164-1.8,1.693-1.835,4.069-.116,8.136-.21.619-.007.644-.56.066-1.413.131-2.825.026-.553-.593-.546-3.878.006-7.756.035a.515.515,0,0,1-.594-.542q-.014-1.481-.027-2.962a.484.484,0,0,1,.6-.525q3.983-.061,7.965-.1c.413,0,.587-.2.606-.6q.08-1.72.16-3.439c.019-.41-.136-.63-.549-.625q-4.96-.214-9.922-.393c-.369-.03-.527-.207-.508-.617q.067-1.434.133-2.867c.019-.409.193-.6.606-.608q4.94.2,9.879.432c.411.037.585-.154.6-.522q.1-2.252.208-4.5c.018-.368.23-.514.641-.477q2.035.162,4.068.33a.775.775,0,0,1,.447.165.531.531,0,0,1,.143.465q-.119,2.128-.238,4.254a.634.634,0,0,0,.1.421.827.827,0,0,0,.487.169q1.585.086,3.169.176a.687.687,0,0,1,.446.166.631.631,0,0,1,.1.421l-.176,2.9c-.019.41-.191.558-.563.563q-1.584-.09-3.168-.176a.563.563,0,0,0-.647.6q-.074,1.6-.148,3.193-.026.552.594.549,1.711.016,3.422.035c.372-.005.61.182.593.55q-.007,1.479-.013,2.959c.024.372-.15.561-.519.525" transform="translate(-146.779 -63.492)" fill="#e7372f"/><path d="M446.483,175.378c-.026.367-.242.5-.611.449q-1.639-.229-3.278-.456a.512.512,0,0,0-.655.486q-.2,1.722-.407,3.443a.41.41,0,0,0,.094.425.8.8,0,0,0,.4.219q1.438.135,2.876.275a.421.421,0,0,1,.4.18.552.552,0,0,1,.138.389q-.123,1.465-.246,2.93c-.026.366-.245.542-.654.485l-3-.251a.552.552,0,0,0-.655.486c-.072.443-.182,1.417-.369,2.914-.029.408.12.633.53.689q1.6.219,3.2.442a.53.53,0,0,1,.493.645q-.166,1.48-.332,2.959a.484.484,0,0,1-.652.444c-.328-.046-1.472-.246-3.4-.549a.524.524,0,0,0-.652.446,10.235,10.235,0,0,1-2.066,5.279c-1.174,1.406-2.947,1.91-5.243,1.61a6.454,6.454,0,0,1-4.308-2.286,5.968,5.968,0,0,1-1.413-4.627c.309-3.829,3-5.593,8.019-5.219.371.008.652-.449.8-1.335.084-.607.127-1.219.17-1.83a.386.386,0,0,0-.1-.425.632.632,0,0,0-.4-.218q-2.634-.2-5.268-.4a.659.659,0,0,1-.439-.221.553.553,0,0,1-.136-.43l.241-2.851a.554.554,0,0,1,.66-.573q2.695.224,5.387.459a.572.572,0,0,0,.7-.524l.419-3.609a.683.683,0,0,0-.13-.511.59.59,0,0,0-.4-.218q-2.6-.327-5.209-.644c-.163-.021-.325-.084-.36-.17a.763.763,0,0,1-.092-.465q.186-1.458.37-2.916c.026-.368.242-.5.652-.45q2.562.334,5.124.677a.532.532,0,0,0,.655-.489l.4-3.364c.029-.408.247-.584.617-.535q2.049.277,4.1.56c.41.057.56.283.531.691l-.4,3.28a.911.911,0,0,0,.088.507.57.57,0,0,0,.357.213q1.661.209,3.322.422a.712.712,0,0,1,.442.186.431.431,0,0,1,.091.466q-.2,1.453-.41,2.906m-12.444,15.8c-1.736-.023-2.69.595-2.9,1.843a1.981,1.981,0,0,0,.237,1.348,1.566,1.566,0,0,0,1.194.691c.986.088,1.64-.978,1.964-3.241a.525.525,0,0,0-.493-.641" transform="translate(-166.576 -64.867)" fill="#e7372f"/><path d="M488.671,205.241c-3.938,1.273-6.767,1.771-8.444,1.48a5.765,5.765,0,0,1-4.951-3.943,15.417,15.417,0,0,1-.177-6.628c.37-2.66,1.318-8.437,2.77-17.426.034-.365.254-.493.663-.422q2.023.348,4.046.7a.488.488,0,0,1,.438.654c-1.4,8.374-2.36,14.311-2.808,17.821-.19,1.617-.285,2.631-.277,3,.081,1.375.6,2,1.653,1.9a36.575,36.575,0,0,0,5.523-1.335.6.6,0,0,1,.753.382q.584,1.548,1.168,3.1a.48.48,0,0,1-.357.719" transform="translate(-185.397 -69.608)" fill="#e7372f"/><path d="M530.334,195.8c-.049.4-.277.558-.644.474q-3.783-.862-7.568-1.7a.538.538,0,0,0-.715.379q-1.675,7.054-3.351,14.112c-.085.354-.308.471-.715.381q-2.3-.5-4.6-1c-.366-.079-.546-.324-.42-.67q1.674-7.045,3.346-14.086c.085-.354-.058-.551-.424-.63q-1.669-.363-3.339-.722a.569.569,0,0,1-.5-.727l.507-2.787q.135-.592.685-.474,1.791.387,3.583.777a.514.514,0,0,0,.679-.431l1.364-5.7a.551.551,0,0,1,.725-.462q2.3.527,4.594,1.061a.535.535,0,0,1,.419.673q-.681,2.846-1.363,5.694c-.085.354.053.591.46.682q3.663.817,7.324,1.653a.53.53,0,0,1,.456.725l-.507,2.78m6.177,21.7c-.044.361-.312.507-.679.421a26.733,26.733,0,0,1-8.987-3.8c-.382-.293-.475-.562-.269-.888L528.56,210c.156-.254.451-.27.8-.026a23.111,23.111,0,0,0,7.4,3.111c.407.094.585.343.5.7l-.746,3.715m4.856-12.72a3.065,3.065,0,0,1-.35,1.159l-1.7,3.282q-.249.5-.776.191-1.36-.857-2.719-1.71a.56.56,0,0,1-.237-.8l.6-1.143a.553.553,0,0,0,.044-.362.343.343,0,0,0-.265-.227c-1.708-.4-3.508-.729-5.388-1.076a.934.934,0,0,1-.433-.223.569.569,0,0,1-.114-.44q.233-1.394.466-2.789c.049-.4.273-.517.638-.433q1.449.29,2.9.583c1.921.361,4.321.919,7.207,1.6.366.087.549.3.46.688l-.333,1.7" transform="translate(-199.669 -71.26)" fill="#e7372f"/><path d="M576.054,238.731a5.389,5.389,0,0,1-4.272.218,5.932,5.932,0,0,1-3.62-2.624,5.334,5.334,0,0,1-.626-4.3,4.824,4.824,0,0,1,2.3-3.339,5.283,5.283,0,0,1,4.192-.246,5.907,5.907,0,0,1,3.66,2.65,5.352,5.352,0,0,1,.625,4.306,4.936,4.936,0,0,1-2.26,3.336m-2.523-7.355q-2.058-.6-2.6,1.871c-.384,1.513.094,2.442,1.346,2.8,1.372.4,2.281-.213,2.637-1.817.384-1.512-.087-2.483-1.379-2.858" transform="translate(-221.513 -89.071)" fill="#e7372f"/><path d="M140.857,41.966a.591.591,0,0,1-.808.3q-1.8-.813-3.608-1.62a.478.478,0,0,1-.251-.75,10.125,10.125,0,0,0,1.521-5.7c-.118-2-1.086-3-2.864-3.023a8.839,8.839,0,0,0-1.848.189.619.619,0,0,0-.582.649c-.021,2.43-.082,4.207-.138,5.325q-.35,5.6-5.21,6.218a6,6,0,0,1-4.73-1.027,5.9,5.9,0,0,1-1.993-4.343c-.367-4.1,1.764-7.195,6.431-9.322a.9.9,0,0,0,.528-.85c.034-.827.019-2.471,0-4.936a.62.62,0,0,0-.15-.434.535.535,0,0,0-.461-.1q-2.335.324-4.671.654a.449.449,0,0,1-.42-.108.578.578,0,0,1-.188-.386q0-1.46-.008-2.92a.625.625,0,0,1,.582-.654q2.336-.31,4.674-.613a.621.621,0,0,0,.582-.651q-.045-2.154-.09-4.308c-.022-.368.174-.558.543-.6q2.03-.262,4.06-.518c.41-.051.583.092.605.46q.025,2.156.049,4.313a.51.51,0,0,0,.148.393.535.535,0,0,0,.461.107q2.664-.354,5.33-.7a.536.536,0,0,1,.461.108.576.576,0,0,1,.147.394q0,1.459.008,2.92a.558.558,0,0,1-.541.641q-2.686.325-5.373.662a.618.618,0,0,0-.582.649q.025,2.157.049,4.314c-.016.413.157.556.608.5,1.066-.133,1.807-.183,2.26-.2a7.907,7.907,0,0,1,5.02,1.734,6.336,6.336,0,0,1,2.424,4.649,16,16,0,0,1-1.971,8.586m-13.734-8.66a.329.329,0,0,0-.33,0,4.552,4.552,0,0,0-2.279,4.082c.077,1.307.61,1.936,1.553,1.813.656-.085,1.059-.959,1.213-2.542-.012-.2.009-1.236-.015-3.043a.257.257,0,0,0-.142-.311m21-10.21a.585.585,0,0,1-.582.642q-1.538.2-3.075.4a.594.594,0,0,1-.417-.074.749.749,0,0,1-.152-.476c0-.082-.116-2.661-.329-7.655a.568.568,0,0,1,.538-.68q1.539-.18,3.078-.357a.513.513,0,0,1,.652.542c.208,2.816.276,5.359.288,7.661" transform="translate(-46.972 -4.85)" fill="#e7372f"/><path d="M199.513,35.751c-.03.372-.271.552-.683.58q-2.24.17-4.481.348a.359.359,0,0,1-.333-.141.438.438,0,0,1-.135-.36,79.269,79.269,0,0,0,1.493-13.007c0-1.275-.594-1.891-1.828-1.845-.822.058-1.684.161-2.589.226a.876.876,0,0,0-.761.713c-.977,4.386-2.225,9.327-3.788,14.747q-.23.572-.729.425-1.972-.487-3.944-.968c-.373-.094-.5-.289-.349-.671,1.45-5.047,2.6-9.244,3.4-12.594a.316.316,0,0,0-.135-.359.312.312,0,0,0-.331-.057q-1.454.3-2.907.6c-.327.067-.538-.081-.551-.491q-.13-1.531-.259-3.062c-.052-.365.146-.587.555-.7q2.089-.371,4.18-.736a.655.655,0,0,0,.681-.627c.614-2.8,1.139-5.8,1.654-9.125a.557.557,0,0,1,.685-.5q1.943.2,3.885.416a.5.5,0,0,1,.474.664c-.386,2.165-.842,4.745-1.412,7.662a.722.722,0,0,0,.1.4.361.361,0,0,0,.333.14c.082-.006.78-.1,2.054-.188a7.179,7.179,0,0,1,4.936,1.059,5.145,5.145,0,0,1,1.952,4.514,97.1,97.1,0,0,1-1.165,12.94m11.659-13.342q-1.719.367-3.438.738c-.369.064-.58-.088-.675-.493-.3-1.667-.983-5.159-2.052-10.434a.541.541,0,0,1,.432-.685q1.759-.417,3.518-.83a.563.563,0,0,1,.714.45c.581,2.8,1.267,6.336,2.015,10.567a.534.534,0,0,1-.515.687" transform="translate(-70.511 -3.174)" fill="#e7372f"/><path d="M252.017,28.322q-3.5.438-6.993.894c-.411.051-.618-.149-.619-.519q-.047-1.293-.092-2.586c-.046-1.477-.013-3.737.181-6.741q.252-4.3.5-8.6a.546.546,0,0,1,.574-.631q2.037-.049,4.074-.092.556-.012.5.605c-.347,6.333-.578,10.774-.61,13.362a.4.4,0,0,0,.166.366.609.609,0,0,0,.411.114l1.81-.2q.617-.073.619.48.027,1.458.052,2.916c0,.37-.163.619-.574.628m24.774-11.814q0,.555-.616.618-2.2.108-4.4.223a.588.588,0,0,0-.656.579,131.449,131.449,0,0,1-2,15.006c-.081.411-.327.537-.657.457q-2.141-.393-4.283-.78a.527.527,0,0,1-.455-.693c.848-4.652,1.49-9.176,1.885-13.616a.476.476,0,0,0-.083-.41.568.568,0,0,0-.413-.2q-2.921.175-5.843.36a.812.812,0,0,1-.453-.116.607.607,0,0,1-.125-.408q.015-1.478.03-2.958c0-.37.162-.578.533-.583q3.086-.189,6.172-.365c.37-.045.616-.212.615-.582.155-2.63.268-5.588.379-8.875,0-.37.2-.536.616-.54q2.119-.019,4.239-.032a.5.5,0,0,1,.578.572q-.19,4.253-.38,8.5a.561.561,0,0,0,.578.572q2.077-.114,4.155-.223c.371-.041.577.163.579.574q.005,1.458.011,2.916m-.233-7.27a.584.584,0,0,1-.656.577l-1.811.048a.633.633,0,0,1-.412-.162.463.463,0,0,1-.125-.452q.158-1.87.316-3.739a.5.5,0,0,1,.574-.577l1.893-.007a.477.477,0,0,1,.538.574l-.316,3.738m4.445,0a.582.582,0,0,1-.656.575l-1.852.042a.743.743,0,0,1-.412-.164.863.863,0,0,1-.166-.452q.158-1.869.316-3.738c.04-.41.245-.575.656-.575h1.852a.478.478,0,0,1,.538.575q-.137,1.869-.275,3.738" transform="translate(-95.382 -1.403)" fill="#e7372f"/><path d="M341.873,16.215c-.01.452-.221.647-.632.627q-3.684-.059-7.369-.1c-.371-.016-.539.182-.547.55q-.118,4.288-.235,8.577a.606.606,0,0,1-.591.672q-4.5.36-8.993.747c-.455.065-.624.265-.55.678a22.825,22.825,0,0,0,1.43,4.161.632.632,0,0,1-.266.813q-1.811.876-3.622,1.757c-.374.151-.661.1-.817-.274a25.889,25.889,0,0,1-2.253-7.882c-.142-.991.364-1.508,1.437-1.636q4.211-.453,8.421-.881a.6.6,0,0,0,.631-.632q.069-3.059.138-6.116c.009-.369-.194-.542-.564-.557q-5.7-.043-11.4-.041a.622.622,0,0,1-.449-.178.4.4,0,0,1-.156-.375q.053-1.477.107-2.955a.5.5,0,0,1,.589-.556q5.7-.024,11.406,0c.412-.025.622-.221.631-.59q.076-3.368.152-6.733c.007-.369.176-.527.587-.51q2.037.083,4.073.173c.411.018.573.19.563.6q-.073,3.263-.147,6.526a.749.749,0,0,0,.113.457.844.844,0,0,0,.45.143q3.685.02,7.37.06a.518.518,0,0,1,.563.6q-.033,1.436-.065,2.873" transform="translate(-123.175 -1.866)" fill="#e7372f"/><path d="M387.7,11.865c-.015.368-.228.514-.6.482q-1.643-.144-3.287-.285a.526.526,0,0,0-.641.521q-.157,1.734-.314,3.468a.4.4,0,0,0,.106.42.758.758,0,0,0,.4.2q1.441.061,2.881.125a.41.41,0,0,1,.405.16.544.544,0,0,1,.149.383l-.168,2.945c-.016.369-.23.556-.641.52q-1.5-.049-3.007-.094a.569.569,0,0,0-.641.521c-.06.447-.143,1.427-.291,2.936-.018.41.138.628.549.663q1.6.136,3.205.276c.37.032.525.251.51.619q-.126,1.489-.252,2.98a.5.5,0,0,1-.639.479c-.329-.029-1.477-.17-3.406-.374a.539.539,0,0,0-.64.481,10.514,10.514,0,0,1-1.922,5.39c-1.136,1.469-2.893,2.065-5.195,1.883A6.264,6.264,0,0,1,369.9,34.5a5.861,5.861,0,0,1-1.536-4.556c.206-3.848,2.845-5.754,7.871-5.639.371-.012.639-.483.76-1.378.068-.611.094-1.226.12-1.84a.379.379,0,0,0-.106-.42.617.617,0,0,0-.4-.2q-2.636-.069-5.272-.126a.643.643,0,0,1-.446-.2.543.543,0,0,1-.147-.422l.164-2.865a.572.572,0,0,1,.645-.609q2.7.084,5.394.179a.59.59,0,0,0,.684-.561q.161-1.817.321-3.633a.675.675,0,0,0-.143-.5.571.571,0,0,0-.4-.2q-2.61-.191-5.222-.372c-.163-.012-.327-.066-.364-.151a.757.757,0,0,1-.1-.46q.145-1.468.291-2.937c.015-.369.229-.517.639-.485q2.569.2,5.138.408a.547.547,0,0,0,.641-.523l.311-3.387c.017-.41.232-.6.6-.568q2.055.169,4.11.344c.41.035.566.254.549.664q-.153,1.652-.307,3.3a.9.9,0,0,0,.1.5.545.545,0,0,0,.363.2q1.665.123,3.33.248a.694.694,0,0,1,.447.163.426.426,0,0,1,.1.461q-.166,1.466-.332,2.931M375.689,28.328c-1.735.067-2.671.735-2.849,2a1.952,1.952,0,0,0,.273,1.336,1.517,1.517,0,0,0,1.21.63c.988.037,1.613-1.064,1.876-3.345.016-.369-.14-.587-.51-.616" transform="translate(-143.816 -1.19)" fill="#e7372f"/><path d="M438.471,23.317c-.027.408-.243.544-.614.536q-1.623-.155-3.247-.3a1.517,1.517,0,0,0-1.016.361c-3.841,3.741-5.855,6.742-6.083,8.977-.147,1.628.848,2.863,2.941,3.748.4.175.553.4.406.752l-1.4,3.773c-.147.352-.362.489-.724.32-4.547-1.932-6.621-5.02-6.218-9.295.241-2.439,1.922-5.406,5-8.806a.244.244,0,0,0,.06-.28.333.333,0,0,0-.276-.2q-6.314-.526-12.629-.994a.606.606,0,0,1-.355-.247.6.6,0,0,1-.182-.392q.114-1.447.229-2.9c.027-.408.242-.548.614-.546q11.6.9,23.191,1.994a.953.953,0,0,1,.4.218.412.412,0,0,1,.1.425q-.093,1.428-.186,2.856m1.224-5.475a.5.5,0,0,1-.649.448l-1.886-.251a.5.5,0,0,1-.5-.6q.285-1.856.572-3.712a.53.53,0,0,1,.652-.489l1.886.252a.531.531,0,0,1,.5.643l-.572,3.71m4.387.6c-.024.367-.28.5-.649.446l-1.845-.251c-.41-.056-.6-.247-.54-.609l.572-3.709a.51.51,0,0,1,.652-.488l1.886.258a.512.512,0,0,1,.5.644q-.285,1.854-.572,3.709" transform="translate(-161.691 -5.165)" fill="#e7372f"/><path d="M190.867,88.478a.614.614,0,0,1-.636.625q-4.6.361-9.206.751a.643.643,0,0,0-.636.63l-.5,7.482c.011.287.14.441.466.33a10.777,10.777,0,0,1,3.226-.806c2.671-.222,4.674.4,6.089,1.851,1.331,1.375,1.984,3.381,1.962,6.054a9.056,9.056,0,0,1-2.35,6.514,9.6,9.6,0,0,1-6.491,2.788q-7.027.59-8.139-5.913c-.057-.406.1-.585.513-.621q1.808-.161,3.616-.318a.567.567,0,0,1,.677.476c.392,1.652,1.533,2.375,3.423,2.218,2.262-.148,3.4-1.759,3.446-4.805q.024-4.256-3.369-4.039a4.326,4.326,0,0,0-3.117,1.5,1.324,1.324,0,0,1-.93.491q-1.644.142-3.288.288c-.41.036-.583-.154-.555-.526q.532-8.247,1.064-16.495c.027-.373.227-.555.638-.591q6.821-.6,13.644-1.133c.37-.029.541.122.555.491q-.05,1.381-.1,2.762" transform="translate(-68.187 -33.274)" fill="#e7372f"/><path d="M231.776,86.216a.6.6,0,0,1-.647.6q-4.607.2-9.214.432a.63.63,0,0,0-.646.608q-.313,3.733-.627,7.468c.006.288.133.445.46.346a10.644,10.644,0,0,1,3.239-.694c2.674-.13,4.665.562,6.055,2.062,1.306,1.421,1.925,3.45,1.857,6.122a8.912,8.912,0,0,1-2.46,6.434,9.424,9.424,0,0,1-6.535,2.566q-7.034.347-8.035-6.2c-.05-.408.111-.582.522-.6q1.809-.1,3.62-.193a.579.579,0,0,1,.669.5c.364,1.666,1.492,2.428,3.384,2.336,2.263-.07,3.425-1.643,3.525-4.688q.1-4.257-3.3-4.157a4.241,4.241,0,0,0-3.142,1.39,1.3,1.3,0,0,1-.937.459q-1.646.085-3.291.174c-.411.023-.58-.174-.546-.546l1.344-16.464c.034-.372.235-.547.647-.569q6.828-.362,13.657-.659c.371-.016.538.141.546.51l-.148,2.759" transform="translate(-84.028 -32.385)" fill="#e7372f"/><path d="M286.535,110.309a.5.5,0,0,1-.572.565q-1.614-.011-3.228-.018c-.342,0-.494-.192-.492-.533q.4-12.639.8-25.278c0-.341-.15-.531-.492-.533q-7.728-.033-15.456.018a.486.486,0,0,0-.533.535q-1.028,12.666-2.056,25.335a.535.535,0,0,1-.571.536q-1.614.014-3.228.032c-.342,0-.531-.183-.492-.563q1.128-14.264,2.256-28.526a.537.537,0,0,1,.571-.537q11.943-.113,23.888-.025a.482.482,0,0,1,.53.534q-.463,14.23-.926,28.459m-6.227-12.5q-.059.568-.571.567-5.621-.013-11.242.019c-.341,0-.531-.186-.492-.566q.059-.8.119-1.592a.524.524,0,0,1,.571-.572q1.462-.008,2.925-.013a.5.5,0,0,0,.571-.495q.059-.871.12-1.743c.038-.341-.151-.53-.53-.529l-2.544.01c-.38,0-.531-.187-.53-.566q.059-.8.118-1.592a.546.546,0,0,1,.61-.533q1.273-.007,2.545-.011a.545.545,0,0,0,.61-.532q.079-1.194.159-2.388c0-.379.191-.569.534-.571q1.443,0,2.886,0a.437.437,0,0,1,.492.53l-.2,2.426a.463.463,0,0,0,.53.53l2.809,0a.439.439,0,0,1,.492.532l-.119,1.592c-.04.379-.192.568-.571.568q-1.405,0-2.811,0c-.38,0-.571.19-.571.53q-.06.872-.119,1.744c-.04.341.15.493.492.493q1.671,0,3.342,0a.453.453,0,0,1,.492.569q-.06.8-.119,1.592m-2.238,11.215c0,.379-.192.568-.534.568q-4.1,0-8.2.018c-.342,0-.493-.187-.491-.566q.182-3.677.365-7.355a.512.512,0,0,1,.571-.533q4.083-.02,8.164-.016c.38,0,.57.152.53.532q-.2,3.677-.4,7.353m-3.554-5-1.557,0a.545.545,0,0,0-.61.532q-.059.872-.119,1.744a.516.516,0,0,0,.53.53l1.557-.041c.342,0,.533-.152.533-.494q.059-.871.12-1.743c.038-.341-.112-.531-.454-.53" transform="translate(-101.597 -31.734)" fill="#e7372f"/><path d="M345.471,87.64c-.046.338-.24.48-.619.46q-3.815-.2-7.63-.38a.533.533,0,0,0-.621.54q-.126,2.1-.252,4.2a.493.493,0,0,0,.519.555q3.34.156,6.68.329a.466.466,0,0,1,.48.593l-.166,2.229c-.009.341-.2.52-.582.5q-3.321-.171-6.643-.326a.515.515,0,0,0-.582.5l-.34,4.761c-.009.379.14.537.519.555q4.061.188,8.124.4c.379.02.527.217.518.6q-.083,1.076-.165,2.152c-.048.377-.241.557-.583.538q-4.042-.209-8.085-.4c-.38-.017-.574.163-.582.5l-.3,4.649a.494.494,0,0,1-.581.5q-1.727-.078-3.454-.152c-.38-.016-.528-.174-.482-.551l.3-4.651c.046-.34-.1-.535-.48-.551q-5.6-.237-11.2-.429c-.38-.013-.527-.208-.518-.586q.082-1.078.165-2.155.07-.567.583-.549l2.505.088c.38.014.573-.13.62-.508q.164-1.321.328-2.642c.009-.379.2-.524.582-.509q1.424.053,2.848.11c.379.015.527.172.48.549q-.164,1.32-.329,2.641c-.009.379.14.536.482.549q1.822.073,3.645.15a.454.454,0,0,0,.544-.507q.17-2.381.341-4.763a.448.448,0,0,0-.481-.552q-4.479-.191-8.959-.354a.47.47,0,0,1-.519-.549l.166-2.232c.048-.377.241-.56.583-.547q4.461.164,8.922.355c.379.016.574-.165.582-.506q.126-2.1.252-4.2c.046-.377-.139-.575-.518-.591q-2.62-.113-5.239-.216a.794.794,0,0,0-.772.5c-.482,1.081-.962,2.087-1.438,2.978-.161.335-.389.365-.766.2q-1.519-.834-3.038-1.665a.538.538,0,0,1-.172-.764c1.12-2.349,2.486-5.485,4.023-9.407a.506.506,0,0,1,.729-.314q1.584.534,3.167,1.073a.45.45,0,0,1,.287.694c-.327.972-.693,1.982-1.058,2.952-.121.3.027.457.369.47q8.732.352,17.462.811c.379.02.526.218.48.594q-.064,1.134-.129,2.268" transform="translate(-124.45 -30.737)" fill="#e7372f"/><path d="M398.46,91.236q-.091.608-.645.555-4.21-.406-8.42-.788a.575.575,0,0,0-.684.514l-.876,3.7a.8.8,0,0,0,.368.938,11.141,11.141,0,0,1,2.177,1.965c.316.275.561.338.858.16q.963-.713,3.068-2.059a.557.557,0,0,1,.856.2q1.063,1.519,2.126,3.04a.559.559,0,0,1-.123.852q-1.639,1.075-3.278,2.156a.671.671,0,0,0-.207.885,19.247,19.247,0,0,1,1.007,2.274.552.552,0,0,1-.326.791l-2.4,1.051c-.3.179-.618-.016-.881-.575a8.129,8.129,0,0,0-.4-1.064c-.228-.432-.472-.5-.73-.272-1.854,1.682-2.822,2.955-2.864,3.855a1.315,1.315,0,0,0,1.209,1.465,29.13,29.13,0,0,0,5.1.343c.452.042.65.225.633.594q-.07,1.474-.139,2.947a.513.513,0,0,1-.563.564,45.836,45.836,0,0,1-6.123-.516,6.052,6.052,0,0,1-4.024-2.162,5.783,5.783,0,0,1-.988-4.4c.266-2.156,1.945-4.523,4.991-7.007a.459.459,0,0,0,.037-.778,12.523,12.523,0,0,0-4.613-2.788q-.607-.237-.458-.78.694-2.9,1.386-5.8.153-.6-.463-.657-1.418-.123-2.835-.241a.494.494,0,0,1-.507-.619q.167-1.383.337-2.767a.5.5,0,0,1,.6-.525q1.663.14,3.328.284a.575.575,0,0,0,.684-.516l.977-4.109a.6.6,0,0,1,.684-.515q2.013.177,4.027.361c.41.038.565.257.465.619l-.977,4.1a.552.552,0,0,0,.061.458.575.575,0,0,0,.406.16q3.965.341,7.929.7a.537.537,0,0,1,.444.207.449.449,0,0,1,.1.462q-.165,1.361-.333,2.722" transform="translate(-148.255 -31.795)" fill="#e7372f"/><path d="M36.332,212.35a.6.6,0,0,1-.454.711c-3.608,1.1-7.265,2.118-11.019,2.978a99.8,99.8,0,0,1-18.436,2.6.428.428,0,0,1-.488-.53l.073-2.613q.046-.584.509-.581c.192-.008.459-.035.88-.061.384-.016.6-.182.63-.533.084-.593.158-1.259.252-2.084.035-.352-.137-.5-.512-.411l-1.762.427c-.338.083-.547-.057-.591-.428q-.075-.784-.149-1.567c.024-.12.049-.241.068-.4.207-.2.348-.313.382-.36s.02-.157.03-.389c.067-1.7.048-3.141-.023-4.383-.04-.333-.208-.446-.545-.364l-1.425.349c-.375.091-.547-.057-.591-.428l-.112-1.576a.619.619,0,0,1,.5-.694q2.587-.633,5.174-1.257c.338-.082.51.068.512.411.157,2.6.24,4.9.217,6.969-.03.389.174.493.512.411l1.575-.377c.375-.09.51.07.517.449-.047,2.187-.138,4-.283,5.372-.035.352.1.51.441.467a99.508,99.508,0,0,0,11.912-1.988c4.279-.983,8.049-2.021,11.389-3.105a.439.439,0,0,1,.352.037.431.431,0,0,1,.194.339q.137,1.3.274,2.61M9.266,197.265c0,.343-.2.546-.589.561q-1.487.149-2.973.3c-.346.008-.555-.132-.521-.483q.048-2.817.1-5.634c-.007-.38.2-.546.547-.591q1.505-.156,3.011-.308c.342-.045.514.1.521.485l-.093,5.67m12.487-9.435a69.134,69.134,0,0,1-5.993,6.323.486.486,0,0,1-.773-.008l-1.831-2.085c-.223-.252-.179-.53.1-.786,1.973-1.881,3.905-3.787,5.712-5.773.274-.293.536-.354.8-.11l1.971,1.642a.55.55,0,0,1,.018.8m.42,18.334c-1.667.577-3.488,1.153-5.571,1.8-.3.07-.505-.034-.55-.405q-.164-1.049-.328-2.1-.319-4.275-.638-8.55a.606.606,0,0,1,.5-.653q1.535-.382,3.072-.76a.469.469,0,0,1,.393.061.454.454,0,0,1,.2.374l.457,6.723a.546.546,0,0,0,.153.308.292.292,0,0,0,.351.032,8.617,8.617,0,0,0,1.487-.46c.333-.115.5,0,.546.37q.175,1.3.349,2.591a.542.542,0,0,1-.421.669m13.3-4.844a.649.649,0,0,1-.576.663q-1.425.336-2.85.674c-.3.067-.431-.056-.471-.391a74.437,74.437,0,0,0-.046-8.767c-.1-1.5-.17-2.71-.243-3.647-.04-.333-.213-.486-.588-.4l-1.5.34a.61.61,0,0,0-.538.655q.637,8.232,1.275,16.464a.6.6,0,0,1-.5.647q-1.408.319-2.816.64c-.375.085-.547-.066-.588-.4q-.725-9.6-1.45-19.207a.587.587,0,0,1,.5-.686q4.617-1.058,9.237-2.085c.338-.075.51.077.55.412a143.562,143.562,0,0,1,.61,15.09" transform="translate(-1.191 -72.325)" fill="#e7372f"/><path d="M94.681,202.358a19.6,19.6,0,0,1-3.783,1.368c-2.614.478-4.417-.739-5.366-3.628a.458.458,0,0,0-.729-.288q-1.535.737-3.069,1.477a2.036,2.036,0,0,0-.845.806q-1.011,1.783-2.022,3.568c-.218.368-.5.459-.808.265q-1.743-.991-3.485-1.978-.522-.277-.194-.83,3.932-6.761,7.865-13.5c.041-.007.037-.048.071-.136a.8.8,0,0,1-.14-.182c-.048-.074-.088-.068-.211-.046q-3.492.893-6.983,1.8c-.4.113-.586-.06-.62-.466q-.16-1.414-.321-2.828a.65.65,0,0,1,.518-.752c5.435-1.465,10.761-2.756,15.972-3.915.408-.069.627.06.661.466l.24,2.845a.618.618,0,0,1-.518.745l-.978.2a1.413,1.413,0,0,0-.9.646q-2.5,4.314-5,8.638c0,.041-.038.048-.034.088.014.163.143.223.3.154q2.051-1.011,4.1-2.016.475-.265.644.262c.171.549.348,1.178.577,1.923a10.012,10.012,0,0,0,.433,1.2.813.813,0,0,0,1,.533c.44-.2,1.039-.461,1.793-.874.4-.19.654-.109.8.2l1.368,3.443c.154.346.011.616-.347.8m-8.906-21.547q-1.975.687-3.949,1.379c-.405.112-.624-.015-.736-.366q-.992-3.908-1.985-7.813a.577.577,0,0,1,.429-.817q1.933-.689,3.866-1.372c.525-.173,1.125,1.043,1.793,3.566.3,1.6.638,3.147.976,4.7a.525.525,0,0,1-.395.727" transform="translate(-28.907 -67.079)" fill="#e7372f"/><path d="M127.5,199.314a4.606,4.606,0,0,1-2.307-3.934,5.422,5.422,0,0,1,1.64-4.291,7.85,7.85,0,0,1,4.3-2,6.891,6.891,0,0,1,3.712.555.456.456,0,0,0,.328-.041c.118-.1.152-.225.106-.3a3.629,3.629,0,0,0-2.386-2.537,6.85,6.85,0,0,0-3.618-.357,1.524,1.524,0,0,0-1.077.635l-.193.23c-.226.359-.508.478-.769.266q-1.519-.849-3.038-1.7c-.343-.2-.442-.476-.255-.789q3-5.422,6-10.831a.325.325,0,0,0,.021-.332.387.387,0,0,0-.3-.126q-2.724.416-5.446.841a.5.5,0,0,1-.419-.108.559.559,0,0,1-.187-.346q-.009-1.5-.017-3c.018-.372.213-.564.623-.618q6.021-.909,12.044-1.766a.5.5,0,0,1,.42.112.483.483,0,0,1,.187.348q0,1.069.006,2.139a2.684,2.684,0,0,1-.3,1.108q-2.574,4.56-5.148,9.13c-.188.312-.093.505.278.5a9.15,9.15,0,0,1,6.042,2.159,7.717,7.717,0,0,1,2.573,5.609,9.2,9.2,0,0,1-8.185,10.16,7.078,7.078,0,0,1-4.631-.716m6.832-5.9a4.111,4.111,0,0,0-2.843-.542c-1.267.245-1.844.938-1.775,2.081a1.214,1.214,0,0,0,.685,1.064,2.419,2.419,0,0,0,1.42.228,3.23,3.23,0,0,0,2.776-1.917.688.688,0,0,0-.262-.913" transform="translate(-48.257 -65.89)" fill="#e7372f"/><path d="M186.2,174.964a3.79,3.79,0,0,1-.16,1.123q-.8,2.634-1.6,5.27a.59.59,0,0,1-.766.434q-1.623-.358-3.245-.711c-.375-.091-.508-.326-.4-.746q.439-1.354.878-2.706c.108-.38-.024-.574-.394-.542-2.96.214-7.517.695-13.752,1.5a.7.7,0,0,1-.376-.128.529.529,0,0,1-.222-.389q-.019-1.457-.038-2.915c-.017-.41.18-.634.631-.678l2.5-.319c3.529-.413,8.991-.958,16.43-1.531.37-.031.583.158.558.53q-.025.906-.049,1.813m-3.226,18.807a56.173,56.173,0,0,1-5.7.821,30.853,30.853,0,0,1-9.5-.444.544.544,0,0,1-.443-.739l.951-3.955a.508.508,0,0,1,.685-.393,30.847,30.847,0,0,0,8.383.3,48.493,48.493,0,0,0,5.287-.786c.327-.069.539.078.6.484l.289,4a.588.588,0,0,1-.549.7" transform="translate(-64.86 -67.397)" fill="#e7372f"/><path d="M233.525,171.848c-2.672,2.168-5.1,4.168-7.243,6.077-2.71,2.347-4.069,4.267-4.038,5.785.035,1.682.959,2.539,2.731,2.577a44.226,44.226,0,0,0,6.083-.528c.411-.018.62.137.628.506q.035,1.662.069,3.325a.6.6,0,0,1-.562.682c-2.466.232-4.563.371-6.291.455a8.573,8.573,0,0,1-5.545-1.323,5.822,5.822,0,0,1-2.409-4.966c-.048-2.3,1.1-4.7,3.471-7.25a1.124,1.124,0,0,0,.268-1q-1.318-6.875-2.634-13.748c-.091-.406.07-.62.4-.678q1.8-.424,3.606-.844a.511.511,0,0,1,.669.459q1.021,5.535,2.043,11.074c.05.408.257.48.54.22.931-.785,2.713-2.184,5.263-4.311.325-.221.572-.231.825.046l2.237,2.615a.557.557,0,0,1-.106.826" transform="translate(-84.704 -62.824)" fill="#e7372f"/><path d="M277.268,188.92c-.042.37-.29.535-.7.534q-2.244.02-4.487.047a.5.5,0,0,1-.369-.123.494.494,0,0,1-.123-.41,86.291,86.291,0,0,0,1.976-12.9c.045-1.273-.529-1.93-1.763-1.968-.864,0-1.729.047-2.634.051a.833.833,0,0,0-.743.661c-.917,3.579-2.372,8.393-4.325,14.488q-.25.558-.742.376-1.952-.619-3.9-1.233c-.371-.119-.493-.322-.327-.694q2.68-8.1,3.866-12.364a.329.329,0,0,0-.123-.368.318.318,0,0,0-.329-.079l-2.923.4c-.371.046-.576-.116-.574-.527q-.057-1.539-.113-3.079a.545.545,0,0,1,.536-.664q2.1-.229,4.2-.454a.631.631,0,0,0,.7-.581c.667-2.716,1.336-5.72,1.963-9.01a.538.538,0,0,1,.7-.457q1.953.337,3.907.679c.37.04.493.287.409.7-.459,2.138-1,4.686-1.67,7.565a.667.667,0,0,0,.081.41.4.4,0,0,0,.37.163c.082,0,.782-.045,2.058-.048a7.343,7.343,0,0,1,4.893,1.392,5.4,5.4,0,0,1,1.755,4.644,96.476,96.476,0,0,1-1.564,12.853m8.722-24.98a.583.583,0,0,1-.66.571l-1.852-.011a.476.476,0,0,1-.533-.578l.3-3.736c.042-.411.249-.574.66-.572l1.893.012c.37,0,.534.168.533.579q-.171,1.867-.341,3.735m3.369,14.692q-1.729.251-3.459.505c-.412.08-.617-.086-.7-.5-.08-.616-.644-4.153-1.695-10.566a.554.554,0,0,1,.5-.736q1.771-.257,3.541-.51a.535.535,0,0,1,.7.457c.363,2.139.928,5.677,1.612,10.695a.522.522,0,0,1-.5.652m1.034-14.653a.548.548,0,0,1-.619.569l-1.893-.017a.478.478,0,0,1-.533-.579q.17-1.868.341-3.735c.041-.41.249-.572.66-.569l1.81.016c.411,0,.617.171.575.582q-.171,1.867-.341,3.734" transform="translate(-101.093 -62.32)" fill="#e7372f"/><path d="M343.143,170.5c-.01.41-.219.564-.591.586q-1.627-.021-3.253-.038a1.589,1.589,0,0,0-1,.445c-3.677,4.058-5.564,7.225-5.7,9.478-.08,1.64.965,2.794,3.089,3.507.408.142.568.355.436.719l-1.243,3.887c-.132.364-.342.519-.71.379-4.617-1.56-6.813-4.477-6.589-8.784.14-2.459,1.7-5.562,4.622-9.216a.25.25,0,0,0,.048-.285.317.317,0,0,0-.284-.177q-6.321-.005-12.644.046a.782.782,0,0,1-.563-.594q.055-1.457.109-2.913c.01-.411.219-.568.591-.6q11.613-.054,23.224.083a.892.892,0,0,1,.407.185.4.4,0,0,1,.114.417q-.033,1.436-.066,2.873m.995-5.577a.525.525,0,0,1-.63.5l-1.892-.1a.476.476,0,0,1-.522-.56q.209-1.88.418-3.76a.555.555,0,0,1,.63-.544l1.892.1c.37.019.53.233.522.6q-.209,1.879-.418,3.759m4.4.234c-.008.369-.259.52-.63.5l-1.851-.1c-.412-.022-.613-.2-.564-.564q.21-1.879.418-3.759a.533.533,0,0,1,.63-.541l1.893.1a.491.491,0,0,1,.521.6q-.209,1.879-.418,3.757" transform="translate(-124.458 -62.651)" fill="#e7372f"/><path d="M396.109,180.89q-1.857.007-3.714.02a.555.555,0,0,0-.605.6l-.26,5.609a.564.564,0,0,1-.647.6q-4.54.035-9.079.1c-.372.009-.545.2-.483.617a19.291,19.291,0,0,0,1.11,3.631.553.553,0,0,1-.284.8q-1.894.8-3.787,1.613-.508.266-.728-.307a27.341,27.341,0,0,1-1.685-7.251q-.164-1.8,1.693-1.835,4.069-.116,8.136-.21.619-.007.644-.56.066-1.413.131-2.825.026-.553-.593-.546-3.878.006-7.756.035a.515.515,0,0,1-.594-.542q-.014-1.481-.027-2.962a.484.484,0,0,1,.6-.525q3.983-.061,7.965-.1c.413,0,.587-.2.606-.6q.08-1.72.16-3.439c.019-.41-.136-.63-.549-.625q-4.96-.214-9.922-.393c-.369-.03-.527-.207-.508-.617q.067-1.434.133-2.867c.019-.409.193-.6.606-.608q4.94.2,9.879.432c.411.037.585-.154.6-.522q.1-2.252.208-4.5c.018-.368.23-.514.641-.477q2.035.162,4.068.33a.775.775,0,0,1,.447.165.531.531,0,0,1,.143.465q-.119,2.128-.238,4.254a.634.634,0,0,0,.1.421.827.827,0,0,0,.487.169q1.585.086,3.169.176a.687.687,0,0,1,.446.166.631.631,0,0,1,.1.421l-.176,2.9c-.019.41-.191.558-.563.563q-1.584-.09-3.168-.176a.563.563,0,0,0-.647.6q-.074,1.6-.148,3.193-.026.552.594.549,1.711.016,3.422.035c.372-.005.61.182.593.55q-.007,1.479-.013,2.959c.024.372-.15.561-.519.525" transform="translate(-146.779 -63.492)" fill="#e7372f"/><path d="M446.483,175.378c-.026.367-.242.5-.611.449q-1.639-.229-3.278-.456a.512.512,0,0,0-.655.486q-.2,1.722-.407,3.443a.41.41,0,0,0,.094.425.8.8,0,0,0,.4.219q1.438.135,2.876.275a.421.421,0,0,1,.4.18.552.552,0,0,1,.138.389q-.123,1.465-.246,2.93c-.026.366-.245.542-.654.485l-3-.251a.552.552,0,0,0-.655.486c-.072.443-.182,1.417-.369,2.914-.029.408.12.633.53.689q1.6.219,3.2.442a.53.53,0,0,1,.493.645q-.166,1.48-.332,2.959a.484.484,0,0,1-.652.444c-.328-.046-1.472-.246-3.4-.549a.524.524,0,0,0-.652.446,10.235,10.235,0,0,1-2.066,5.279c-1.174,1.406-2.947,1.91-5.243,1.61a6.454,6.454,0,0,1-4.308-2.286,5.968,5.968,0,0,1-1.413-4.627c.309-3.829,3-5.593,8.019-5.219.371.008.652-.449.8-1.335.084-.607.127-1.219.17-1.83a.386.386,0,0,0-.1-.425.632.632,0,0,0-.4-.218q-2.634-.2-5.268-.4a.659.659,0,0,1-.439-.221.553.553,0,0,1-.136-.43l.241-2.851a.554.554,0,0,1,.66-.573q2.695.224,5.387.459a.572.572,0,0,0,.7-.524l.419-3.609a.683.683,0,0,0-.13-.511.59.59,0,0,0-.4-.218q-2.6-.327-5.209-.644c-.163-.021-.325-.084-.36-.17a.763.763,0,0,1-.092-.465q.186-1.458.37-2.916c.026-.368.242-.5.652-.45q2.562.334,5.124.677a.532.532,0,0,0,.655-.489l.4-3.364c.029-.408.247-.584.617-.535q2.049.277,4.1.56c.41.057.56.283.531.691l-.4,3.28a.911.911,0,0,0,.088.507.57.57,0,0,0,.357.213q1.661.209,3.322.422a.712.712,0,0,1,.442.186.431.431,0,0,1,.091.466q-.2,1.453-.41,2.906m-12.444,15.8c-1.736-.023-2.69.595-2.9,1.843a1.981,1.981,0,0,0,.237,1.348,1.566,1.566,0,0,0,1.194.691c.986.088,1.64-.978,1.964-3.241a.525.525,0,0,0-.493-.641" transform="translate(-166.576 -64.867)" fill="#e7372f"/><path d="M488.671,205.241c-3.938,1.273-6.767,1.771-8.444,1.48a5.765,5.765,0,0,1-4.951-3.943,15.417,15.417,0,0,1-.177-6.628c.37-2.66,1.318-8.437,2.77-17.426.034-.365.254-.493.663-.422q2.023.348,4.046.7a.488.488,0,0,1,.438.654c-1.4,8.374-2.36,14.311-2.808,17.821-.19,1.617-.285,2.631-.277,3,.081,1.375.6,2,1.653,1.9a36.575,36.575,0,0,0,5.523-1.335.6.6,0,0,1,.753.382q.584,1.548,1.168,3.1a.48.48,0,0,1-.357.719" transform="translate(-185.397 -69.608)" fill="#e7372f"/><path d="M530.334,195.8c-.049.4-.277.558-.644.474q-3.783-.862-7.568-1.7a.538.538,0,0,0-.715.379q-1.675,7.054-3.351,14.112c-.085.354-.308.471-.715.381q-2.3-.5-4.6-1c-.366-.079-.546-.324-.42-.67q1.674-7.045,3.346-14.086c.085-.354-.058-.551-.424-.63q-1.669-.363-3.339-.722a.569.569,0,0,1-.5-.727l.507-2.787q.135-.592.685-.474,1.791.387,3.583.777a.514.514,0,0,0,.679-.431l1.364-5.7a.551.551,0,0,1,.725-.462q2.3.527,4.594,1.061a.535.535,0,0,1,.419.673q-.681,2.846-1.363,5.694c-.085.354.053.591.46.682q3.663.817,7.324,1.653a.53.53,0,0,1,.456.725l-.507,2.78m6.177,21.7c-.044.361-.312.507-.679.421a26.733,26.733,0,0,1-8.987-3.8c-.382-.293-.475-.562-.269-.888L528.56,210c.156-.254.451-.27.8-.026a23.111,23.111,0,0,0,7.4,3.111c.407.094.585.343.5.7l-.746,3.715m4.856-12.72a3.065,3.065,0,0,1-.35,1.159l-1.7,3.282q-.249.5-.776.191-1.36-.857-2.719-1.71a.56.56,0,0,1-.237-.8l.6-1.143a.553.553,0,0,0,.044-.362.343.343,0,0,0-.265-.227c-1.708-.4-3.508-.729-5.388-1.076a.934.934,0,0,1-.433-.223.569.569,0,0,1-.114-.44q.233-1.394.466-2.789c.049-.4.273-.517.638-.433q1.449.29,2.9.583c1.921.361,4.321.919,7.207,1.6.366.087.549.3.46.688l-.333,1.7" transform="translate(-199.669 -71.26)" fill="#e7372f"/><path d="M576.054,238.731a5.389,5.389,0,0,1-4.272.218,5.932,5.932,0,0,1-3.62-2.624,5.334,5.334,0,0,1-.626-4.3,4.824,4.824,0,0,1,2.3-3.339,5.283,5.283,0,0,1,4.192-.246,5.907,5.907,0,0,1,3.66,2.65,5.352,5.352,0,0,1,.625,4.306,4.936,4.936,0,0,1-2.26,3.336m-2.523-7.355q-2.058-.6-2.6,1.871c-.384,1.513.094,2.442,1.346,2.8,1.372.4,2.281-.213,2.637-1.817.384-1.512-.087-2.483-1.379-2.858" transform="translate(-221.513 -89.071)" fill="#e7372f"/></g></svg>