<svg id="スローガンロゴ" xmlns="http://www.w3.org/2000/svg" xmlns:xlink="http://www.w3.org/1999/xlink" width="201.77" height="75.797" viewBox="0 0 201.77 75.797">
  <defs>
    <clipPath id="clip-path">
      <rect id="Rectangle_9076" data-name="Rectangle 9076" width="201.77" height="75.797" fill="none"/>
    </clipPath>
  </defs>
  <rect id="Rectangle_9075" data-name="Rectangle 9075" width="5.09" height="10.794" transform="translate(30.695 63.937)" fill="#431200"/>
  <g id="Group_6813" data-name="Group 6813">
    <g id="Group_6812" data-name="Group 6812" clip-path="url(#clip-path)">
      <path id="Path_182619" data-name="Path 182619" d="M73.939,140.924a3.062,3.062,0,1,0-3.063-3.06,3.059,3.059,0,0,0,3.063,3.06" transform="translate(-40.678 -77.367)" fill="#431200"/>
      <path id="Path_182620" data-name="Path 182620" d="M101.451,138.464V134.1c-6.463.531-10.348,2.789-11.924,4.75a3.455,3.455,0,0,0-.957,2.527,3.861,3.861,0,0,0,1.944,2.915,18.421,18.421,0,0,0,5.573,2.566c1.642.542,1.687,1.544.174,1.673-.657.057-1.387.16-4.807-1.131l-2.07-.8-1.339,3.934a17.693,17.693,0,0,0,8.184,2.181c1.9.034,6.469-.64,6.991-4.3.46-3.231-2.423-4.756-2.743-4.936-1.3-.731-3.388-1.131-4.95-1.959-.919-.485-1.1-.939.032-1.493a23.425,23.425,0,0,1,5.892-1.562" transform="translate(-50.532 -76.962)" fill="#431200"/>
      <path id="Path_182621" data-name="Path 182621" d="M137.549,146.534a8.366,8.366,0,0,1-5.319,2.5c-1.048,0-1.658-.054-1.658-1.418l.017-5.364h4.733v-4.365H130.6v-2.213h-5.1v2.213h-2.141v4.365h2.129l-.014,5.826c0,3.232,1.164,4.7,3.971,5.43,3.046.793,7.111-1.559,10.3-3.66Z" transform="translate(-70.801 -77.868)" fill="#431200"/>
      <path id="Path_182622" data-name="Path 182622" d="M212.048,136.359a18.712,18.712,0,0,0-8.6,3.657v-3.64h-5.01v16.615h5.01V145.16a24.278,24.278,0,0,1,8.6-4.279Z" transform="translate(-113.893 -78.261)" fill="#431200"/>
      <path id="Path_182623" data-name="Path 182623" d="M305.7,137.487c-5.107,0-9.246,3.714-9.246,8.287s4.139,8.287,9.246,8.287,9.249-3.714,9.249-8.287-4.14-8.287-9.249-8.287m0,11.907a3.625,3.625,0,1,1,3.783-3.62,3.7,3.7,0,0,1-3.783,3.62" transform="translate(-170.146 -78.909)" fill="#431200"/>
      <path id="Path_182624" data-name="Path 182624" d="M264.955,139.755c-.132-3.737-1.442-6.369-4.885-8.068-2.832-1.4-7.131-2.381-16.834-1.031V149.35h4.807l1.308-1.144c1.784,1.1,3.443,1.67,6.923,1.59,4.682-.1,8.875-4.651,8.681-10.04m-5.8,3.588A5.6,5.6,0,0,1,254.832,145a10.305,10.305,0,0,1-5.829-2.72l-.859.511V135.1c4.881-.976,8.33-.017,10.1,1.213,2.889,1.993,2.1,5.664.913,7.025" transform="translate(-139.602 -74.619)" fill="#431200"/>
      <path id="Path_182625" data-name="Path 182625" d="M170.679,147.252a8.812,8.812,0,0,1-7.037,1.182,3.194,3.194,0,0,1-1.833-1.422,13.629,13.629,0,0,0,3.283-.206c3.211-.539,6.509-2.849,6.446-6.178-.069-3.662-2.735-5.31-6.306-5.5a8.878,8.878,0,0,0-8.407,5.082,9.5,9.5,0,0,0-.032,8.818c1.444,2.486,4.9,3.794,6.466,4.079,2.038.374,5.141.334,9.364-2.421Zm-5.647-7.577c1.818.151,2.566,1.233,1.176,2.384-.959.8-3.206,1.039-3.894,1.085-.38.026-1.147-.014-1.147-.014a1.868,1.868,0,0,1,.012-.939,3.888,3.888,0,0,1,3.854-2.515" transform="translate(-89.378 -77.552)" fill="#431200"/>
      <path id="Path_182626" data-name="Path 182626" d="M22.4,141.658c-.12-.714-.594-.722-.862-.191l-4.411,10.485h-4.38l-1.7-10.3c-.12-.714-.6-.725-.862-.191L5.062,151.952H0V135.329H5v5.624s2.138-3.48,3.066-4.636a4.458,4.458,0,0,1,3.32-1.77,3.853,3.853,0,0,1,3.548,2.3,20.7,20.7,0,0,1,1.188,4.065l.057-.009s2.606-3.834,3.2-4.582a4.579,4.579,0,0,1,3.249-1.767c1.927-.017,3.56,1.048,4.156,3.923.434,2.1,2.372,13.48,2.372,13.48H24.28Z" transform="translate(0 -77.221)" fill="#431200"/>
      <path id="Path_182627" data-name="Path 182627" d="M391.279,148c-1.43-.323-1.767-.845-1.767-1.8l.014-5.15h4.73v-4.242h-4.722v-2.292h-5.044l-.006,2.292h-2.249v4.242h2.235v4.976c0,.971-2.092,1.9-3.86,1.9-1.5,0-1.6-1.384-1.6-2.546v-8.75h-4.936l0,8.852c0,1.659-3.017,2.443-4.325,2.443a1.574,1.574,0,0,1-1.676-1.676v-9.62h-4.953l-.006,9.543c0,1.022-1.878,1.69-2.923,1.7a1.593,1.593,0,0,1-1.77-1.542v-5.986a4.671,4.671,0,0,0-4.7-4.619c-3.152,0-5.783,4.171-5.783,4.171v-3.271H342.9v15.307h4.639c1.059-4.839,3.642-9.432,4.762-10.363.856-.719,1.461-.591,1.461.428l-.006,4.3c0,1.4.294,5.193,3.88,6,3.1.7,6.668-1.259,6.668-1.259a6.962,6.962,0,0,0,2.224,1.19,8.027,8.027,0,0,0,4.29-.123,10.691,10.691,0,0,0,3.694-1.873,5.868,5.868,0,0,0,4.265,2.207,10.634,10.634,0,0,0,6.066-1.736c.4-.265.485.04.674.242l-.006-.014a5.156,5.156,0,0,0,3.554,1.653,14.873,14.873,0,0,0,9.506-3.106v-3.631c-2.5,1.593-5.826,2.487-7.294,2.149" transform="translate(-196.803 -77.204)" fill="#431200"/>
      <path id="Path_182628" data-name="Path 182628" d="M70.179,6.59c0-.565-.02-1.323-.058-1.751a8.8,8.8,0,0,1,2.081.428c.467.176.622.292.622.506a.584.584,0,0,1-.078.311,8.735,8.735,0,0,0-.331,3.171,17.215,17.215,0,0,0,.545,5.232c.292.915.739,1.44,1.265,1.44.8,0,1.459-.934,2.178-3.094a5.8,5.8,0,0,0,1.05,1.984.713.713,0,0,1,.156.409,3.654,3.654,0,0,1-.681,1.536,3.426,3.426,0,0,1-2.762,1.712c-1.5,0-2.626-1.206-3.326-3.6a22.845,22.845,0,0,1-.661-6.244ZM81.753,6.9a.571.571,0,0,1,.369.194A12.92,12.92,0,0,1,84.749,11.1a12.014,12.014,0,0,1,.836,2.821c0,.194-.1.291-.506.505a6.154,6.154,0,0,1-1.6.545c-.175,0-.253-.1-.311-.447a13.525,13.525,0,0,0-1.206-3.851,10.379,10.379,0,0,0-1.906-2.821A4.8,4.8,0,0,1,81.753,6.9" transform="translate(-40.245 -2.777)" fill="#431200"/>
      <path id="Path_182629" data-name="Path 182629" d="M118.367,7.688a23.317,23.317,0,0,1,6.73-1.206,6.263,6.263,0,0,1,4.532,1.537,4.88,4.88,0,0,1,1.323,3.5,6.4,6.4,0,0,1-3.676,5.8,15.51,15.51,0,0,1-4.241,1.381,7.786,7.786,0,0,1-1.439.214.46.46,0,0,1-.467-.292,5.558,5.558,0,0,0-1.206-1.77,17.13,17.13,0,0,0,5.991-1.5,4.164,4.164,0,0,0,2.567-3.793,2.9,2.9,0,0,0-3.151-3.015,18.933,18.933,0,0,0-7.839,2.023,9.468,9.468,0,0,0-.992.486c-.35.194-.447.233-.564.233-.369,0-1.031-1.187-1.478-2.684a28.881,28.881,0,0,0,3.91-.914" transform="translate(-65.691 -3.72)" fill="#431200"/>
      <path id="Path_182630" data-name="Path 182630" d="M168.738,5.854a8.342,8.342,0,0,1-3.151-1.187c-.35-.233-.428-.331-.428-.505a5.528,5.528,0,0,1,.7-1.692,9.642,9.642,0,0,0,3.248,1.284A19.791,19.791,0,0,0,169.516,0a8.223,8.223,0,0,1,2.354.739c.214.117.292.234.272.389a.907.907,0,0,1-.136.35,8.663,8.663,0,0,0-.72,2.567c.195.02.448.02.6.02h.136c.467-.02.817-.02.992-.02h.058c.175,0,.233.078.233.331a6.417,6.417,0,0,1-.136,1.692c-.058.1-.311.137-1.128.137-.369,0-.661-.02-1.206-.04-.409,2-.409,2-.584,3.054a9.756,9.756,0,0,0,1.128.059l1.089-.019c.194,0,.291.038.35.136a4.818,4.818,0,0,1,.136,1.44c0,.35-.02.447-.136.506a6.729,6.729,0,0,1-1.264.058c-.35,0-.876-.019-1.556-.058-.019.35-.019.583-.019.738,0,1.79.836,2.607,2.665,2.607,2.043,0,3.268-.992,3.268-2.665a3.661,3.661,0,0,0-.447-1.751,5.341,5.341,0,0,0-1.692-1.907h.175a10.29,10.29,0,0,0,1.556-.214,3.236,3.236,0,0,1,.525-.077c.292,0,.487.136.876.622a5.35,5.35,0,0,1,1.342,3.443c0,2.743-2.218,4.552-5.583,4.552-3.151,0-4.727-1.576-4.727-4.766a6.188,6.188,0,0,1,.039-.817C166.054,10.7,165,9.744,165,8.363a2.315,2.315,0,0,1,.759-1.789.247.247,0,0,1,.214-.1c.117,0,.253.1.7.467.35.292.408.35.408.447,0,.078,0,.078-.117.253a1.21,1.21,0,0,0-.156.467.672.672,0,0,0,.447.6,3.2,3.2,0,0,0,.973.292Z" transform="translate(-94.701 0.001)" fill="#431200"/>
      <path id="Path_182631" data-name="Path 182631" d="M213.147,4.585c-.895.058-1.731.078-2.47.078-.817,0-.876,0-.914-.117a7.712,7.712,0,0,1-.117-1.5V2.679c.914.039,1.3.058,1.789.058.467,0,1.226-.019,1.81-.038.1-1.129.116-1.518.116-1.907,0-.175,0-.292-.019-.564a10.773,10.773,0,0,1,2.217.214c.156.038.233.116.233.253a1,1,0,0,1-.117.408,5.918,5.918,0,0,0-.35,1.478c1.245-.1,2.737-.322,3.346-.428.637-.11,2-.428,2.043-.428.078,0,.136.078.175.214a13.476,13.476,0,0,1,.1,1.4c0,.292-.058.37-.253.408-1.147.233-3.521.525-5.563.7a1.143,1.143,0,0,0-.019.311,12.592,12.592,0,0,0-.059,1.381,10.947,10.947,0,0,1,2.568-.292,7.359,7.359,0,0,0,.194-1.225c1.5.311,2.237.584,2.237.817,0,.078-.02.136-.175.389a.711.711,0,0,0-.136.272,4.912,4.912,0,0,1,4.1,4.824c0,2.121-1.147,3.812-3.345,4.98a7.515,7.515,0,0,1-2.393.817.566.566,0,0,1-.486-.233,6.06,6.06,0,0,0-1.284-1.381,7.814,7.814,0,0,0,3.988-1.576,3.4,3.4,0,0,0,1.323-2.723,3.179,3.179,0,0,0-2.47-3.171,15.656,15.656,0,0,1-3.345,5.388,7.291,7.291,0,0,0,.35.934.631.631,0,0,1,.1.272c0,.195-.078.253-.525.486a4.037,4.037,0,0,1-1.245.448c-.175,0-.214-.058-.428-.662a6.129,6.129,0,0,1-3.521,1.225c-1.323,0-2.218-1.069-2.218-2.626,0-2.432,1.77-4.8,4.707-6.263.02-1.011.039-1.867.058-2.256m-2.743,8.17a.716.716,0,0,0,.778.778,4.505,4.505,0,0,0,2.412-1.011,23.973,23.973,0,0,1-.486-3.677c-1.712,1.265-2.7,2.723-2.7,3.91m6.808-5.369a7.749,7.749,0,0,0-2.14.428,19.787,19.787,0,0,0,.233,2.957,12.359,12.359,0,0,0,1.906-3.385" transform="translate(-119.597 -0.131)" fill="#431200"/>
      <path id="Path_182632" data-name="Path 182632" d="M265.361,6.9a4.42,4.42,0,0,1,4.688,4.513,5.1,5.1,0,0,1-2.548,4.4,7.752,7.752,0,0,1-4.007.992c-2.47,0-3.91-.992-3.91-2.684,0-1.536,1.284-2.625,3.112-2.625a3.821,3.821,0,0,1,3.638,2.547,2.9,2.9,0,0,0,1.4-2.528,2.731,2.731,0,0,0-3.054-2.763,8.247,8.247,0,0,0-5.641,2.645,11.56,11.56,0,0,0-.953,1.09c-.136.194-.233.272-.35.272a4.084,4.084,0,0,1-1.731-1.712c0-.174.078-.272.506-.583.447-.351,1.089-.915,1.906-1.692a57.008,57.008,0,0,0,5.31-5.777,32.356,32.356,0,0,0-4.668.8,1.249,1.249,0,0,1-.214.039c-.156,0-.253-.1-.37-.389a6.676,6.676,0,0,1-.409-2.081,8.3,8.3,0,0,0,1.323.1c.934,0,2.509-.137,4.552-.37a4.579,4.579,0,0,0,1.5-.35.867.867,0,0,1,.389-.1c.272,0,.544.233,1.05,1.011.369.506.486.759.486.914,0,.253-.058.331-.486.6a5.318,5.318,0,0,0-1.011.816c-.973.934-.992.934-2.2,2.16-.856.875-.953.972-1.731,1.75a6.664,6.664,0,0,1,3.423-.992m-1.867,6.73a1.753,1.753,0,0,0-.992-.291c-.6,0-.992.291-.992.758,0,.564.6.915,1.537.915a4.43,4.43,0,0,0,1.284-.176,2.074,2.074,0,0,0-.836-1.206" transform="translate(-146.93 -0.367)" fill="#431200"/>
      <path id="Path_182633" data-name="Path 182633" d="M307.618,14.613a4.318,4.318,0,0,1-3.54,2.51c-2.023,0-3.462-1.984-3.462-4.746a7.848,7.848,0,0,1,4.221-7.119,9.154,9.154,0,0,1,4.552-1.011,6.734,6.734,0,0,1,7.08,6.73,7.4,7.4,0,0,1-4.9,7.236,4.636,4.636,0,0,1-1.4.428c-.233,0-.331-.078-.583-.447a4.09,4.09,0,0,0-1.226-1.225c4.007-1.031,5.816-2.918,5.816-6.069a4.555,4.555,0,0,0-1.887-3.832,4.935,4.935,0,0,0-2.3-.836c-.544,4.1-1.187,6.342-2.373,8.384m-2.8-6.886a6.048,6.048,0,0,0-2.042,4.61c0,1.5.486,2.373,1.3,2.373.973,0,1.965-1.343,2.7-3.657a24.446,24.446,0,0,0,.992-4.727,5.613,5.613,0,0,0-2.956,1.4" transform="translate(-172.534 -2.437)" fill="#431200"/>
      <path id="Path_182634" data-name="Path 182634" d="M353.134,12.789a.486.486,0,0,1,.078.272c0,.136-.019.156-.194.583a21.1,21.1,0,0,0-1.089,3.346c-.058.214-.117.331-.194.37a5.865,5.865,0,0,1-.973.136h-.078c-.1,0-.233-.02-.389-.02-.253,0-.311-.058-.389-.292a25.686,25.686,0,0,1-.661-5.835,29.714,29.714,0,0,1,.681-6.38c.194-1.05.292-1.634.369-2.276a8.953,8.953,0,0,1,2.1.622c.331.136.428.233.428.428,0,.136-.019.195-.233.506-.642,1.031-1.361,5.155-1.361,7.936,0,.447.019,1.05.077,2.023.545-1.225.739-1.6,1.187-2.548a5.9,5.9,0,0,0,.642,1.128m4.221,1.381a5.471,5.471,0,0,0,2.665.447,9.9,9.9,0,0,0,3.19-.447.97.97,0,0,1,.272-.059c.136,0,.234.078.253.273a15.6,15.6,0,0,1,.175,1.828c0,.195-.058.253-.331.331a13.22,13.22,0,0,1-3.423.408,7.134,7.134,0,0,1-3.812-.758c-.856-.525-1.751-1.6-1.751-2.12,0-.273.409-.642,1.459-1.284a2.743,2.743,0,0,0,1.3,1.381m-1.362-9.92a17.094,17.094,0,0,0,2.626.175,21.8,21.8,0,0,0,3.774-.311.585.585,0,0,1,.175-.02c.136,0,.195.058.234.214a13.758,13.758,0,0,1,.1,1.576c0,.292-.058.389-.272.428a20.6,20.6,0,0,1-3.521.253,16.154,16.154,0,0,1-3.365-.214c-.1-.058-.136-.195-.136-.545a10.873,10.873,0,0,1,.1-1.458c.02-.078.078-.118.195-.118a.206.206,0,0,1,.1.02" transform="translate(-200.444 -1.546)" fill="#431200"/>
      <path id="Path_182635" data-name="Path 182635" d="M394.912,30.393a7.17,7.17,0,0,0-1.962-1.335c-.122,0-.212.069-.505.311h0c-.724.625-.772.683-.772.795,0,.095.066.157.2.252a10.369,10.369,0,0,1,3.113,2.945.346.346,0,0,0,.289.22c.121,0,.263-.1.891-.637.484-.4.521-.436.521-.578a7.516,7.516,0,0,0-1.777-1.974" transform="translate(-224.795 -16.677)" fill="#431200"/>
      <path id="Path_182636" data-name="Path 182636" d="M191.519,65.483c-.895.058-1.731.078-2.47.078-.817,0-.876,0-.914-.117a7.713,7.713,0,0,1-.117-1.5v-.369c.914.039,1.3.058,1.789.058.467,0,1.226-.019,1.81-.038.1-1.129.116-1.518.116-1.907,0-.175,0-.292-.019-.564a10.773,10.773,0,0,1,2.217.214c.156.038.233.116.233.253a.994.994,0,0,1-.117.408,5.917,5.917,0,0,0-.35,1.478c1.245-.1,2.737-.322,3.346-.428.637-.11,2-.428,2.043-.428.078,0,.136.078.175.214a13.463,13.463,0,0,1,.1,1.4c0,.292-.058.37-.253.408-1.147.233-3.521.525-5.563.7a1.143,1.143,0,0,0-.019.311,12.6,12.6,0,0,0-.059,1.381,10.947,10.947,0,0,1,2.568-.292,7.358,7.358,0,0,0,.194-1.225c1.5.311,2.237.584,2.237.817,0,.078-.02.136-.175.389a.711.711,0,0,0-.136.272,4.912,4.912,0,0,1,4.1,4.824c0,2.121-1.147,3.812-3.345,4.98a7.516,7.516,0,0,1-2.393.817.566.566,0,0,1-.486-.233,6.06,6.06,0,0,0-1.284-1.381,7.814,7.814,0,0,0,3.988-1.576,3.4,3.4,0,0,0,1.323-2.723,3.179,3.179,0,0,0-2.47-3.171,15.655,15.655,0,0,1-3.345,5.388,7.288,7.288,0,0,0,.35.934.632.632,0,0,1,.1.272c0,.195-.078.253-.525.486a4.037,4.037,0,0,1-1.245.448c-.175,0-.214-.058-.428-.662a6.129,6.129,0,0,1-3.521,1.225c-1.323,0-2.218-1.069-2.218-2.626,0-2.432,1.77-4.8,4.707-6.263.02-1.011.039-1.867.058-2.256m-2.743,8.17a.716.716,0,0,0,.778.778,4.505,4.505,0,0,0,2.412-1.011,23.974,23.974,0,0,1-.486-3.677c-1.712,1.265-2.7,2.723-2.7,3.91m6.808-5.369a7.749,7.749,0,0,0-2.14.428,19.789,19.789,0,0,0,.233,2.957,12.359,12.359,0,0,0,1.906-3.385" transform="translate(-107.184 -35.082)" fill="#431200"/>
      <path id="Path_182637" data-name="Path 182637" d="M48.527,67.488c0-.564-.02-1.323-.058-1.751a8.781,8.781,0,0,1,2.081.428c.467.175.622.292.622.506a.588.588,0,0,1-.078.311,8.731,8.731,0,0,0-.331,3.17,17.22,17.22,0,0,0,.545,5.233c.292.914.739,1.439,1.265,1.439.8,0,1.459-.934,2.178-3.093a5.806,5.806,0,0,0,1.05,1.984.713.713,0,0,1,.156.408,3.656,3.656,0,0,1-.681,1.537,3.427,3.427,0,0,1-2.762,1.712c-1.5,0-2.626-1.206-3.326-3.6a22.85,22.85,0,0,1-.661-6.244ZM60.1,67.8a.57.57,0,0,1,.369.195A12.913,12.913,0,0,1,63.1,72a12.006,12.006,0,0,1,.836,2.821c0,.195-.1.292-.506.506a6.173,6.173,0,0,1-1.6.545c-.175,0-.253-.1-.311-.448a13.525,13.525,0,0,0-1.206-3.851,10.373,10.373,0,0,0-1.906-2.821A4.811,4.811,0,0,1,60.1,67.8" transform="translate(-27.818 -37.729)" fill="#431200"/>
      <path id="Path_182638" data-name="Path 182638" d="M96.715,68.587a23.314,23.314,0,0,1,6.73-1.206,6.263,6.263,0,0,1,4.532,1.536,4.88,4.88,0,0,1,1.323,3.5,6.4,6.4,0,0,1-3.676,5.8,15.524,15.524,0,0,1-4.241,1.381,7.786,7.786,0,0,1-1.439.214.461.461,0,0,1-.467-.292,5.561,5.561,0,0,0-1.206-1.77,17.122,17.122,0,0,0,5.991-1.5,4.165,4.165,0,0,0,2.567-3.793,2.9,2.9,0,0,0-3.151-3.015,18.94,18.94,0,0,0-7.839,2.023,9.56,9.56,0,0,0-.992.486c-.35.195-.447.233-.564.233-.369,0-1.031-1.187-1.478-2.684a28.814,28.814,0,0,0,3.91-.914" transform="translate(-53.264 -38.672)" fill="#431200"/>
      <path id="Path_182639" data-name="Path 182639" d="M147.086,66.753a8.335,8.335,0,0,1-3.151-1.187c-.35-.233-.428-.331-.428-.506a5.528,5.528,0,0,1,.7-1.692,9.615,9.615,0,0,0,3.248,1.284,19.782,19.782,0,0,0,.409-3.754,8.2,8.2,0,0,1,2.354.739c.214.117.292.233.272.389a.9.9,0,0,1-.136.35,8.658,8.658,0,0,0-.72,2.567c.195.02.449.024.6.024.1,0,.952-.024,1.127-.024h.058c.175,0,.233.078.233.331a6.42,6.42,0,0,1-.136,1.692c-.058.1-.311.136-1.128.136-.369,0-.661-.02-1.206-.039-.409,2-.409,2-.584,3.054a9.827,9.827,0,0,0,1.128.058l1.089-.02c.194,0,.291.039.35.136a4.82,4.82,0,0,1,.136,1.44c0,.35-.02.447-.136.506a6.709,6.709,0,0,1-1.264.058c-.35,0-.876-.02-1.556-.058-.019.35-.019.583-.019.739,0,1.79.836,2.607,2.665,2.607,2.043,0,3.268-.992,3.268-2.665a3.662,3.662,0,0,0-.447-1.751,5.332,5.332,0,0,0-1.692-1.906h.175a10.3,10.3,0,0,0,1.556-.214,3.207,3.207,0,0,1,.525-.078c.292,0,.487.136.876.622a5.35,5.35,0,0,1,1.342,3.443c0,2.743-2.218,4.552-5.583,4.552-3.151,0-4.727-1.576-4.727-4.766a6.185,6.185,0,0,1,.039-.817c-1.925-.409-2.976-1.362-2.976-2.743a2.316,2.316,0,0,1,.759-1.79.248.248,0,0,1,.214-.1c.117,0,.253.1.7.467.35.291.408.35.408.447,0,.078,0,.078-.117.253a1.206,1.206,0,0,0-.156.467.671.671,0,0,0,.447.6,3.228,3.228,0,0,0,.973.292Z" transform="translate(-82.274 -34.952)" fill="#431200"/>
      <path id="Path_182640" data-name="Path 182640" d="M235.944,67.2h-.116a1.028,1.028,0,0,1-.213.02c-.174,0-.271-.078-.328-.329a10.238,10.238,0,0,1-.232-1.815c.271.019.483.019.618.019a26.477,26.477,0,0,0,3.284-.213,21.088,21.088,0,0,0,.29-3.052v-.444c2.24.29,2.665.425,2.646.772a.824.824,0,0,1-.116.328,5.983,5.983,0,0,0-.56,2.028,17.521,17.521,0,0,0,2.105-.521.26.26,0,0,1,.155-.039c.174,0,.212.078.367.753A8.9,8.9,0,0,1,244,65.787c0,.135-.058.213-.232.251a21.919,21.919,0,0,1-2.994.579,55.3,55.3,0,0,1-3.3,10.3c-.1.251-.193.348-.309.348a4.912,4.912,0,0,1-1.584-.637c-.329-.174-.425-.27-.425-.367a1.215,1.215,0,0,1,.154-.406,36.465,36.465,0,0,0,3.264-8.924c-.85.116-1.449.174-2.627.27m8.247,7.34a4.573,4.573,0,0,0,2.511.541,11.176,11.176,0,0,0,2.955-.309,1.136,1.136,0,0,1,.27-.058.278.278,0,0,1,.309.232,6.886,6.886,0,0,1,.232,1.8c0,.251-.078.348-.329.406a15.7,15.7,0,0,1-2.859.213c-2.414,0-3.766-.386-4.655-1.314a3.384,3.384,0,0,1-.753-1.275,2.478,2.478,0,0,1-.193-.715c0-.329.579-.676,1.584-1a2.179,2.179,0,0,0,.927,1.487m5.428-5.621a15.921,15.921,0,0,0-1.873-.1,17.732,17.732,0,0,0-3.728.348.325.325,0,0,1-.135.02.192.192,0,0,1-.213-.155,8.9,8.9,0,0,1-.135-1.487c0-.251.038-.367.193-.425a3.026,3.026,0,0,1,.6-.135,20.386,20.386,0,0,1,3.767-.328,5.685,5.685,0,0,1,1.835.135c.1.078.116.232.116.869a6.385,6.385,0,0,1-.077,1.178.193.193,0,0,1-.193.1.484.484,0,0,1-.155-.019" transform="translate(-134.906 -35.23)" fill="#431200"/>
      <path id="Path_182641" data-name="Path 182641" d="M293.167,68.238c2.7,0,4.456,1.6,4.456,4.022q0,3.49-4.437,4.91a15.951,15.951,0,0,1-3.608.651c-.414,0-.513-.1-.789-.671a2.668,2.668,0,0,0-1.045-1.144c4.949-.394,7.394-1.656,7.394-3.806,0-1.2-.848-1.913-2.268-1.913a7.251,7.251,0,0,0-5.166,2.564,4.933,4.933,0,0,0-.71.907c-.177.3-.3.395-.473.395a3.358,3.358,0,0,1-1.459-.651.657.657,0,0,1-.316-.631,3.9,3.9,0,0,1,.059-.631c0-.059,0-.2.02-.414.1-1.262.158-1.795.395-3.569.04-.217.04-.217.178-1.144.02-.059.059-.434.158-1.164a4.943,4.943,0,0,0,.04-.651,7.7,7.7,0,0,1,2.208.572c.158.079.236.178.217.3a.605.605,0,0,1-.1.256,3.276,3.276,0,0,0-.453,1.262,27.834,27.834,0,0,0-.493,3.135,8.363,8.363,0,0,1,6.192-2.583m-.355-5.62c.769.453,1.006.671,1.006.887a4.178,4.178,0,0,1-.651,1.262c-.316.454-.434.552-.592.552-.1,0-.158-.039-.394-.216a12.643,12.643,0,0,0-3.845-2.09c-.3-.118-.355-.158-.355-.316a2.35,2.35,0,0,1,.513-1.045c.315-.473.453-.591.67-.591a13.792,13.792,0,0,1,3.648,1.558" transform="translate(-163.426 -35.045)" fill="#431200"/>
      <path id="Path_182642" data-name="Path 182642" d="M332.383,62.107c.483.135.618.232.618.444a1.19,1.19,0,0,1-.116.464,10.917,10.917,0,0,0-.444,2.9c-.155,3.109-.232,5.524-.232,7.436a4.91,4.91,0,0,0,.155,1.391c.212.638.888.966,1.97.966a7.074,7.074,0,0,0,4.887-2.125,11.52,11.52,0,0,0,1.835-2.24,6.593,6.593,0,0,0,.7,1.893,1.148,1.148,0,0,1,.1.444c0,.348-.367.811-1.333,1.68a9.287,9.287,0,0,1-6.258,2.608,4.43,4.43,0,0,1-3.245-1.062c-.734-.773-1.023-1.777-1.023-3.689,0-1.507.019-2.665.174-7.166.019-.676.038-1.082.038-1.255a18.331,18.331,0,0,0-.135-2.956,11.052,11.052,0,0,1,2.318.271" transform="translate(-189.392 -35.49)" fill="#431200"/>
      <path id="Path_182643" data-name="Path 182643" d="M369.391,67.488c0-.564-.019-1.323-.058-1.751a8.772,8.772,0,0,1,2.081.428c.467.175.622.292.622.506a.59.59,0,0,1-.078.311,8.732,8.732,0,0,0-.331,3.17,17.221,17.221,0,0,0,.544,5.233c.292.914.739,1.439,1.265,1.439.8,0,1.459-.934,2.178-3.093a5.807,5.807,0,0,0,1.05,1.984.712.712,0,0,1,.155.408,3.654,3.654,0,0,1-.68,1.537,3.427,3.427,0,0,1-2.762,1.712c-1.5,0-2.626-1.206-3.326-3.6a22.849,22.849,0,0,1-.662-6.244Zm11.574.311a.57.57,0,0,1,.369.195A12.913,12.913,0,0,1,383.961,72a12.007,12.007,0,0,1,.836,2.821c0,.195-.1.292-.506.506a6.173,6.173,0,0,1-1.6.545c-.175,0-.253-.1-.311-.448a13.527,13.527,0,0,0-1.206-3.851,10.382,10.382,0,0,0-1.906-2.821,4.807,4.807,0,0,1,1.692-.953" transform="translate(-211.973 -37.729)" fill="#431200"/>
      <path id="Path_182644" data-name="Path 182644" d="M417.261,90.054a2.909,2.909,0,1,1-2.909-2.91,2.92,2.92,0,0,1,2.909,2.91m-4.476,0a1.567,1.567,0,1,0,1.567-1.567,1.576,1.576,0,0,0-1.567,1.567" transform="translate(-236.141 -50.015)" fill="#431200"/>
    </g>
  </g>
</svg>
