<svg xmlns="http://www.w3.org/2000/svg" xmlns:xlink="http://www.w3.org/1999/xlink" width="252.004" height="40.158" viewBox="0 0 252.004 40.158"><defs><clipPath id="a"><rect width="252.004" height="40.158" fill="#551900"/></clipPath></defs><g clip-path="url(#a)"><path d="M700.228,36.016h-26.5a2.094,2.094,0,0,0-2.094,2.094v3.871a2.094,2.094,0,0,0,2.094,2.094h26.5a2.094,2.094,0,0,0,2.094-2.094V38.11a2.094,2.094,0,0,0-2.094-2.094" transform="translate(-450.318 -24.148)" fill="#551900"/><path d="M562.678,2.46h-3.871a2.094,2.094,0,0,0-2.095,2.094V18.938c0,3.727-1.028,6.471-3.236,8.634-4.261,4.176-13.076,6.265-26.214,6.21a2.1,2.1,0,0,0-2.11,2.051l-.077,3.836a2.1,2.1,0,0,0,2.117,2.137c20.47-.178,26.282-2.947,31.926-8.477,3.752-3.677,5.654-8.519,5.654-14.391V4.554a2.094,2.094,0,0,0-2.094-2.094" transform="translate(-352.05 -1.649)" fill="#551900"/><rect width="8.059" height="20.203" rx="2" transform="translate(171.692 0.811)" fill="#551900"/><path d="M217.367,34.949l-12.029-7.688A48.905,48.905,0,0,0,215.944,6.1,2.1,2.1,0,0,0,213.9,3.554H175.261a2.1,2.1,0,0,0-2.094,2.094V9.519a2.094,2.094,0,0,0,2.094,2.094h30.1a33.626,33.626,0,0,1-8.694,13.356c-6.561,6.106-13.289,9.514-22.648,9.514a2.075,2.075,0,0,0-2.041,2.092v3.872a2.123,2.123,0,0,0,2.175,2.093c10.326,0,18.823-4.722,25.138-9.58l13.692,8.751a2.094,2.094,0,0,0,2.877-.613l2.128-3.233a2.094,2.094,0,0,0-.622-2.916" transform="translate(-115.308 -2.383)" fill="#551900"/><path d="M394.42,13.519H360.495V4.358A2.094,2.094,0,0,0,358.4,2.264h-3.849a2.094,2.094,0,0,0-2.094,2.094V38.532a2.094,2.094,0,0,0,2.094,2.094H358.4a2.094,2.094,0,0,0,2.094-2.094V21.557H394.42a2.1,2.1,0,0,0,2.094-2.094V15.613a2.094,2.094,0,0,0-2.094-2.094" transform="translate(-236.314 -1.518)" fill="#551900"/><path d="M43.666,30.769H8.038V16.576H39.406A2.094,2.094,0,0,0,41.5,14.482V10.633a2.094,2.094,0,0,0-2.094-2.094H8.038V2.093A2.1,2.1,0,0,0,5.943,0H2.094A2.1,2.1,0,0,0,0,2.093V36.708A2.094,2.094,0,0,0,2.094,38.8H4.019v0H43.666a2.094,2.094,0,0,0,2.094-2.094V32.863a2.1,2.1,0,0,0-2.094-2.094" transform="translate(0 0.001)" fill="#551900"/></g></svg>