<svg xmlns="http://www.w3.org/2000/svg" width="302.659" height="126.147" viewBox="0 0 302.659 126.147">
  <g id="看板" transform="translate(-521.828 -1954.547)">
    <g id="Group_7083" data-name="Group 7083" transform="translate(521.827 1954.547)">
      <path id="Path_183474" data-name="Path 183474" d="M74.534,4.556l.168,4.2.075,4.188-.913,4.188.723,4.188L73.906,25.5l.055,4.187.67,4.187L73.9,38.058l.152,4.183.166,4.237,4.479.533,4.58-.427-.011-4.356-.359-4.193-.38-4.19.98-4.187-.886-4.188.536-4.182L83.6,17.1l-.866-4.187.723-4.185-.114-4.184L82.78.725,78.7.43,74.155.242Z" transform="translate(19.931 0.065)" fill="#ffe29a"/>
      <path id="Path_183475" data-name="Path 183475" d="M156.917,0l.183,4.622.386,4.2-.717,4.188.63,4.188.022,4.187,0,4.183.1,4.188-.475,4.187.749,4.185-1.039,4.183.848,3.882,4.14-.159,4.667.712-.075-4.45-.429-4.19-.168-4.189-.075-4.188.913-4.187-.723-4.183.679-4.187-.055-4.188-.67-4.185.733-4.183-.22-4.343-4.578.085Z" transform="translate(42.3)" fill="#ffe29a"/>
      <path id="Path_183448" data-name="Path 183448" d="M248.844,30.269l-4.154.317-4.156.047-4.151-.23-4.155.009-4.151-.762-4.149.245-4.154.644-4.156-.244-4.154.114L207.309,30l-4.152.284L199,29.732l-4.154-.008-4.154.3-4.154-.436h-4.154l-4.152.331-4.152.579-4.156.152-4.151-.97-4.151.9-4.151.147-4.154-.028-4.154-.74-4.151.33-4.149.03-4.15-.486-4.15.49-4.154-.357-4.152-.1-4.15.121-4.149-.01-4.147.105-4.147.145-4.15-.509-4.151.853-4.152-.709-4.151.494-4.147-.2-4.146-.077-4.146-.481-4.143-.025-4.146.613-4.146.485L62.038,30.3l-4.151.052-4.152-.278-4.151-.223-4.15.684-4.15-.805-4.151.618-4.152.323-4.152-.809-4.15-.076-4.15.287-4.151.184-4.15-.411L8.076,29.78,4.405,31.26,1.512,33.829,1.086,37.62.918,41.893.6,46.168l.516,4.267L1.032,54.7.126,58.966l1.035,4.26L.131,67.493l1.1,4.265L0,76.023l.251,4.262.891,4.264-.418,4.26.366,4.263-.042,4.257-.686,4.263.488,4.258L1.2,110.1l.057,3.939,3.385,2.011L8.076,117.5l4.168-.193,4.168.1,4.16.682,4.16-.568,4.159.3,4.154-.316,4.16.408,4.159-.119,4.156.22,4.155-.488,4.159-.169,4.152-.276,4.156,1,4.151-.094,4.156-.872,4.15.931,4.15.052,4.154.062,4.155-.419,4.155-.3,4.155.542,4.154-1.018,4.155,1.219,4.155-.218,4.152-.443,4.155.154,4.154-.206,4.151.537,4.154-.292,4.155-.509,4.152.075,4.151.272,4.15.121,4.154-.444,4.155.227,4.15.672,4.149-.922,4.15.372,4.151-.189,4.154.786,4.151-.124,4.15-.3,4.149.126,4.147-.576,4.147.066,4.149.066,4.152-.07,4.154.742,4.15-1.154,4.149.8,4.146-.3,4.145-.008,4.145.211,4.146.32,4.146-.339,4.149.086,4.151-.358,4.152-.381,4.15.98,4.151-.885,4.15.535,4.151.444,4.152-.865,4.151.723L278,117.8l4.15-.719,4.151.432,4.15.231,4.15-.428,3.509-1.128,2.857-2.405,1.177-3.676-.034-4.274.171-4.274.254-4.265-.051-4.267-.466-4.267.182-4.26.331-4.265-.032-4.265-.013-4.263.175-4.262-.019-4.265-.75-4.259.067-4.264-.358-4.258.432-4.262-.284-4.258.372-4.254-.757-3.906-2.747-3.05-4.016.01-4.168-.6-4.166-.348-4.16.938-4.16-.188h-4.159l-4.155-.9-4.159.861-4.159-.79-4.156.994L253,29.515Z" transform="translate(0 7.964)" fill="#ffe29a"/>
      <path id="Path_183476" data-name="Path 183476" d="M11.35,41.469l4.361,1.007,4.367-.908,4.367.143" transform="translate(3.063 11.19)" fill="none" stroke="#ffb700" stroke-miterlimit="10" stroke-width="1"/>
      <path id="Path_183477" data-name="Path 183477" d="M16.507,44.689,19.78,45.7l3.274-.908" transform="translate(4.454 12.059)" fill="none" stroke="#ffb700" stroke-miterlimit="10" stroke-width="1"/>
      <path id="Path_183478" data-name="Path 183478" d="M29.7,87.712l3.312.841,3.312-.758" transform="translate(8.014 23.668)" fill="none" stroke="#ffb700" stroke-miterlimit="10" stroke-width="0.834"/>
      <path id="Path_183479" data-name="Path 183479" d="M35.693,93.084,39,93.925l3.312-.758" transform="translate(9.631 25.118)" fill="none" stroke="#ffb700" stroke-miterlimit="10" stroke-width="0.834"/>
      <path id="Path_183480" data-name="Path 183480" d="M25.194,90.4l3.326.841,3.326-.758,3.327.119,3.333.5,3.332-.2" transform="translate(6.798 24.393)" fill="none" stroke="#ffb700" stroke-miterlimit="10" stroke-width="0.834"/>
      <path id="Path_183481" data-name="Path 183481" d="M220.452,82.448l3.312.841,3.312-.758" transform="translate(59.486 22.248)" fill="none" stroke="#ffb700" stroke-miterlimit="10" stroke-width="0.834"/>
      <path id="Path_183482" data-name="Path 183482" d="M221.76,88.823l3.3.841,3.31-.758,3.31.119" transform="translate(59.839 23.968)" fill="none" stroke="#ffb700" stroke-miterlimit="10" stroke-width="0.834"/>
      <path id="Path_183483" data-name="Path 183483" d="M211.338,85.99l3.326.841,3.326-.758,3.327.119,3.333.5,3.332-.2" transform="translate(57.027 23.203)" fill="none" stroke="#ffb700" stroke-miterlimit="10" stroke-width="0.834"/>
      <path id="Path_183484" data-name="Path 183484" d="M151.718,34.767l3.554.841,3.557-.758,3.561.119,3.562.5" transform="translate(40.939 9.382)" fill="none" stroke="#ffb700" stroke-miterlimit="10" stroke-width="0.834"/>
      <path id="Path_183485" data-name="Path 183485" d="M157.323,39.038l3.68.841,3.686-.758,3.686.119" transform="translate(42.451 10.534)" fill="none" stroke="#ffb700" stroke-miterlimit="10" stroke-width="0.834"/>
      <path id="Path_183486" data-name="Path 183486" d="M168.85,36.352l2.935.841,2.94-.758,2.938.119" transform="translate(45.562 9.809)" fill="none" stroke="#ffb700" stroke-miterlimit="10" stroke-width="0.834"/>
      <line id="Line_296" data-name="Line 296" x2="3.274" y2="1.007" transform="translate(26.967 48.993)" fill="none" stroke="#ffb700" stroke-miterlimit="10" stroke-width="1"/>
    </g>
  </g>
</svg>
