<svg xmlns="http://www.w3.org/2000/svg" width="190.932" height="56.478" viewBox="0 0 190.932 56.478"><g transform="translate(25.06)"><path d="M595.921,45.322h2.19A1.192,1.192,0,0,0,599.3,44.13V34.472h19.3A1.192,1.192,0,0,0,619.8,33.28V31.09A1.192,1.192,0,0,0,618.6,29.9H599.3V24.687A1.192,1.192,0,0,0,598.11,23.5h-2.19a1.192,1.192,0,0,0-1.192,1.192V44.13a1.192,1.192,0,0,0,1.192,1.192" transform="translate(-483.227 -19.09)" fill="#551900"/><path d="M32.247,31.179a1.192,1.192,0,0,0-1.184-1.329H1.192A1.192,1.192,0,0,0,0,31.042v2.19a1.192,1.192,0,0,0,1.192,1.192H26.837C25.2,38.548,20.006,46.2,4.043,46.553a1.194,1.194,0,0,0-1.171,1.191v2.19a1.192,1.192,0,0,0,1.215,1.192c25.613-.552,28-18.541,28.018-18.726Z" transform="translate(0 -24.254)" fill="#551900"/><path d="M430.124,33.918l-2.177-.005a1.192,1.192,0,0,0-1.188,1.037c-.444,3.5-3.266,14.454-21.165,14.907a1.193,1.193,0,0,0-1.157,1.195v2.187a1.189,1.189,0,0,0,1.213,1.191c21.536-.513,25.073-14.681,25.652-19.164a1.192,1.192,0,0,0-1.179-1.348" transform="translate(-328.612 -27.555)" fill="#551900"/><path d="M233.926,61.977a1.192,1.192,0,0,0-1.187-1.291H205a1.192,1.192,0,0,0-1.192,1.191v2.19A1.192,1.192,0,0,0,205,65.259h23.047c-1.943,2.537-6.919,6.141-19.544,6.352a1.193,1.193,0,0,0-1.176,1.191v2.19a1.191,1.191,0,0,0,1.209,1.192c23.951-.394,25.243-12.5,25.287-13.021Z" transform="translate(-165.601 -49.308)" fill="#551900"/><path d="M173.682,0h-1.388A1.192,1.192,0,0,0,171.1,1.192V3.3a1.192,1.192,0,0,0,1.192,1.192h1.388A1.192,1.192,0,0,0,174.874,3.3V1.192A1.192,1.192,0,0,0,173.682,0" transform="translate(-139.024)" fill="#551900"/><path d="M173.682,0h-1.388A1.192,1.192,0,0,0,171.1,1.192V3.3a1.192,1.192,0,0,0,1.192,1.192h1.388A1.192,1.192,0,0,0,174.874,3.3V1.192A1.192,1.192,0,0,0,173.682,0" transform="translate(-38.693 3.524)" fill="#551900"/><path d="M173.682,0h-1.388A1.192,1.192,0,0,0,171.1,1.192V3.3a1.192,1.192,0,0,0,1.192,1.192h1.388A1.192,1.192,0,0,0,174.874,3.3V1.192A1.192,1.192,0,0,0,173.682,0" transform="translate(-144.463)" fill="#551900"/><path d="M173.682,0h-1.388A1.192,1.192,0,0,0,171.1,1.192V3.3a1.192,1.192,0,0,0,1.192,1.192h1.388A1.192,1.192,0,0,0,174.874,3.3V1.192A1.192,1.192,0,0,0,173.682,0" transform="translate(-44.132 3.524)" fill="#551900"/><rect width="22.438" height="4.573" rx="1.5" transform="translate(42.23 3.697)" fill="#551900"/><path d="M409.284,24.887a1.192,1.192,0,0,0-1.2,1.181l-.019,2.19a1.192,1.192,0,0,0,1.181,1.2l7.1.062a1.192,1.192,0,0,0,1.2-1.181l.019-2.19a1.192,1.192,0,0,0-1.181-1.2Z" transform="translate(-331.558 -20.221)" fill="#551900"/></g><g transform="translate(0 29.739)"><path d="M1697.178,56.6h-16.786a1.265,1.265,0,0,0-1.327,1.191v2.2a1.265,1.265,0,0,0,1.327,1.191h16.786a1.265,1.265,0,0,0,1.327-1.191v-2.2a1.265,1.265,0,0,0-1.327-1.191" transform="translate(-1507.573 -46.121)" fill="#551900"/><path d="M790.261,24.887H765.549a1.192,1.192,0,0,0-1.192,1.191v2.2a1.192,1.192,0,0,0,1.192,1.191h20.218a7.97,7.97,0,0,1-4.593,2.451,1.191,1.191,0,0,0-1.314-.824l-2.193.331a1.19,1.19,0,0,0-1.013,1.205c.037,1.559-.169,5.076-2.014,7.206-1.377,1.59-3.509,2.485-6.35,2.668a1.194,1.194,0,0,0-1.123,1.188V45.9a1.194,1.194,0,0,0,1.26,1.191,13.4,13.4,0,0,0,9.709-4.286,12.278,12.278,0,0,0,2.881-6.206,13.174,13.174,0,0,0,8.293-4.25,8.984,8.984,0,0,0,2.11-5.105l.034-1.134a1.191,1.191,0,0,0-1.191-1.227" transform="translate(-764.357 -20.358)" fill="#551900"/><path d="M1618.961,5.234h1.4a1.192,1.192,0,0,0,1.192-1.191V1.92a1.192,1.192,0,0,0-1.192-1.191h-1.4a1.191,1.191,0,0,0-1.191,1.191V4.042a1.191,1.191,0,0,0,1.191,1.191" transform="translate(-1457.769 -0.729)" fill="#551900"/><path d="M1649.45.729h-1.4a1.191,1.191,0,0,0-1.192,1.191V4.042a1.192,1.192,0,0,0,1.192,1.191h1.4a1.191,1.191,0,0,0,1.191-1.191V1.92A1.191,1.191,0,0,0,1649.45.729" transform="translate(-1481.406 -0.729)" fill="#551900"/><path d="M1277.552,18.183h-1.4a1.191,1.191,0,0,0-1.192,1.191V21.7a1.192,1.192,0,0,0,1.192,1.192h1.4a1.192,1.192,0,0,0,1.191-1.192V19.374a1.191,1.191,0,0,0-1.191-1.191" transform="translate(-1179.232 -14.911)" fill="#551900"/><path d="M1277.552,18.183h-1.4a1.191,1.191,0,0,0-1.192,1.191V21.7a1.192,1.192,0,0,0,1.192,1.192h1.4a1.192,1.192,0,0,0,1.191-1.192V19.374a1.191,1.191,0,0,0-1.191-1.191" transform="translate(-1184.686 -14.911)" fill="#551900"/><path d="M1344.972,25.426h-2.956V23.714a1.191,1.191,0,0,0-1.191-1.191h-2.2a1.191,1.191,0,0,0-1.191,1.191v1.711h-12.786V23.714a1.191,1.191,0,0,0-1.191-1.191h-2.2a1.191,1.191,0,0,0-1.192,1.191v1.711h-3.75a1.191,1.191,0,0,0-1.191,1.191v2.2a1.191,1.191,0,0,0,1.191,1.191h3.75v4.778a1.192,1.192,0,0,0,1.192,1.191h2.2a1.192,1.192,0,0,0,1.191-1.191V30.011h12.786v2.134a6.425,6.425,0,0,1-1.841,4.913c-2.425,2.376-7.439,3.564-14.914,3.533a1.193,1.193,0,0,0-1.2,1.167l-.044,2.2a1.193,1.193,0,0,0,1.188,1.216h.312c8.694,0,14.549-1.589,17.87-4.844a11.006,11.006,0,0,0,3.217-8.188V30.011h2.956a1.191,1.191,0,0,0,1.191-1.191v-2.2a1.191,1.191,0,0,0-1.191-1.191" transform="translate(-1211.859 -18.437)" fill="#551900"/><path d="M1528.251,32.126h-19.419a1.192,1.192,0,0,0-.9.416l-.33.385c-.039.046-3.648,4.249-6.878,7.56a1.19,1.19,0,0,0,.01,1.67l1.554,1.562a1.192,1.192,0,0,0,1.7-.01c2.509-2.569,5.172-5.584,6.4-7h13.674a16.9,16.9,0,0,1-3.781,6.075l-7.564-3.813a1.191,1.191,0,0,0-1.6.528l-.991,1.967a1.192,1.192,0,0,0,.528,1.6l5.539,2.792a22.856,22.856,0,0,1-9.517,2.536,1.19,1.19,0,0,0-1.109,1.223l.065,2.2a1.2,1.2,0,0,0,1.274,1.154c10.21-.643,15.722-5.347,18.57-9.264a21.128,21.128,0,0,0,3.813-9.018l.149-1.233a1.192,1.192,0,0,0-1.183-1.335" transform="translate(-1362.39 -26.24)" fill="#551900"/><path d="M964.913,33.918l-2.177-.005a1.192,1.192,0,0,0-1.188,1.037c-.444,3.5-3.265,14.454-21.165,14.907a1.193,1.193,0,0,0-1.158,1.195v2.187a1.189,1.189,0,0,0,1.213,1.191c21.536-.513,25.073-14.681,25.652-19.164a1.192,1.192,0,0,0-1.178-1.348" transform="translate(-906.441 -27.691)" fill="#551900"/><path d="M944.074,24.887a1.192,1.192,0,0,0-1.2,1.181l-.019,2.19a1.191,1.191,0,0,0,1.181,1.2l7.1.062a1.192,1.192,0,0,0,1.2-1.181l.019-2.19a1.192,1.192,0,0,0-1.181-1.2Z" transform="translate(-909.388 -20.358)" fill="#551900"/><path d="M1111.588,36.2l-2.5-.043a1.19,1.19,0,0,0-1.209,1.106,35.94,35.94,0,0,1-1.226,7.229c-1.2,4.1-2.952,6.395-5.224,6.859a1.2,1.2,0,0,0-.976,1.15l-.044,2.538a1.189,1.189,0,0,0,1.307,1.207c3.755-.4,7.406-2.711,9.645-10.481a40.879,40.879,0,0,0,1.394-8.3,1.19,1.19,0,0,0-1.169-1.266" transform="translate(-1037.407 -29.515)" fill="#551900"/><path d="M1218.979,51.351c-2.272-.465-4.029-2.761-5.224-6.859a35.961,35.961,0,0,1-1.226-7.229,1.19,1.19,0,0,0-1.209-1.106l-2.5.043a1.191,1.191,0,0,0-1.169,1.266,40.905,40.905,0,0,0,1.394,8.3c2.239,7.77,5.89,10.08,9.645,10.481A1.189,1.189,0,0,0,1220,55.04l-.044-2.538a1.2,1.2,0,0,0-.976-1.15" transform="translate(-1124.54 -29.515)" fill="#551900"/></g></svg>