<svg xmlns="http://www.w3.org/2000/svg" xmlns:xlink="http://www.w3.org/1999/xlink" width="172.889" height="20" viewBox="0 0 172.889 20">
  <defs>
    <clipPath id="clip-path">
      <rect id="Rectangle_9253" data-name="Rectangle 9253" width="172.889" height="20" fill="#e7372f"/>
    </clipPath>
  </defs>
  <g id="Group_7168" data-name="Group 7168" transform="translate(0 0)">
    <g id="Group_7168-2" data-name="Group 7168" transform="translate(0 0)" clip-path="url(#clip-path)">
      <path id="Path_183691" data-name="Path 183691" d="M23.821,18.276l-2.1,2.431,4.218,3.8a3.624,3.624,0,0,0,1.481-2.682c0-1.592-1.509-2.961-3.6-3.548" transform="translate(-7.647 -6.433)" fill="#e7372f"/>
      <path id="Path_183692" data-name="Path 183692" d="M29.041,0A3.117,3.117,0,0,0,26.08,3.072c0,1.592,1.2,2.57,2.933,2.57a2.894,2.894,0,0,0,3.073-2.989A2.882,2.882,0,0,0,29.041,0M28.9,4.246c-.782,0-1.509-.391-1.509-1.284A1.52,1.52,0,0,1,28.817,1.4c.168,0,1.509.027,1.509,1.284A1.466,1.466,0,0,1,28.9,4.246" transform="translate(-9.18 0)" fill="#e7372f"/>
      <path id="Path_183693" data-name="Path 183693" d="M19.266,10.513,19.238,8.25c-1.425-.084-3.409-.139-5.531-.2V3.39L9.265,3.362c-.056,1.369-.139,2.932-.2,4.581l-6.4-.084.419,3.408,5.867-.251c-.056,2.124-.112,4.218-.112,5.978,0,1.285.028,2.374.084,3.184l4.8-.028-.028-9.218Z" transform="translate(-0.941 -1.184)" fill="#e7372f"/>
      <path id="Path_183694" data-name="Path 183694" d="M0,23.1a3.355,3.355,0,0,0,2.794,1.425A4.506,4.506,0,0,0,6.9,21.453L3.855,18.967A29.016,29.016,0,0,1,0,23.1" transform="translate(0 -6.676)" fill="#e7372f"/>
      <path id="Path_183695" data-name="Path 183695" d="M43.04,19.913l1.844,4.553c5.754-.335,11.536-2.542,11.536-6.872a2.867,2.867,0,0,0-.5-1.732c-1.816,1.592-7.626,3.409-12.878,4.051" transform="translate(-15.149 -5.583)" fill="#e7372f"/>
      <path id="Path_183696" data-name="Path 183696" d="M48.57,7.269c0-1.648-1.4-3.045-3.715-3.045-.14,0-.308.029-.475.029L42.006,7.911l4.72,2.486A3.986,3.986,0,0,0,48.57,7.269" transform="translate(-14.785 -1.487)" fill="#e7372f"/>
      <path id="Path_183697" data-name="Path 183697" d="M86.054,8.146a3.827,3.827,0,1,0,3.827,3.827,3.851,3.851,0,0,0-3.827-3.827" transform="translate(-28.942 -2.867)" fill="#e7372f"/>
      <path id="Path_183698" data-name="Path 183698" d="M126.294,4.639a1.448,1.448,0,0,0,1.424-1.424c0-.67-.5-1.369-1.844-1.62L124.646,3.1l1.062,1.4a1.62,1.62,0,0,0,.586.139" transform="translate(-43.872 -0.562)" fill="#e7372f"/>
      <path id="Path_183699" data-name="Path 183699" d="M130.746,1.6,129.517,3.1l1.061,1.4a1.632,1.632,0,0,0,.586.139,1.449,1.449,0,0,0,1.426-1.424c0-.67-.5-1.369-1.844-1.62" transform="translate(-45.587 -0.562)" fill="#e7372f"/>
      <path id="Path_183700" data-name="Path 183700" d="M121.1,13.02c-4.442-.224-14.051-.364-17.236-.391l.42,3.464,5.977-.251c-.029,3.1-.139,6.257-1.117,8.52a5.309,5.309,0,0,0,6.145-4.19,18.6,18.6,0,0,0,.336-3.6c0-.28-.029-.531-.029-.81l5.559-.448Z" transform="translate(-36.559 -4.445)" fill="#e7372f"/>
      <path id="Path_183701" data-name="Path 183701" d="M118.263,5.051c0-1.509-.921-3.24-3.771-3.24-2.1,0-5.419.224-6.118.279l-.2,4.134,10-.364a4.211,4.211,0,0,0,.084-.81" transform="translate(-38.076 -0.638)" fill="#e7372f"/>
      <path id="Path_183702" data-name="Path 183702" d="M153.52,8.146a3.827,3.827,0,1,0,3.827,3.827,3.851,3.851,0,0,0-3.827-3.827" transform="translate(-52.688 -2.867)" fill="#e7372f"/>
      <path id="Path_183703" data-name="Path 183703" d="M184.34,3.621c.029.586.029,1.2.029,1.816,0,5.167-.531,11.7-1.956,14.33a4.366,4.366,0,0,0,1.229.2,5.655,5.655,0,0,0,5.2-4.134,20.539,20.539,0,0,0,.754-6.229,51.769,51.769,0,0,0-.363-5.811Z" transform="translate(-64.205 -1.275)" fill="#e7372f"/>
      <path id="Path_183704" data-name="Path 183704" d="M170.888,4.361c0,.391-.028.922-.028,1.536a48.868,48.868,0,0,0,.364,6.649l4.8-.252-.447-8.157Z" transform="translate(-60.139 -1.456)" fill="#e7372f"/>
      <path id="Path_183705" data-name="Path 183705" d="M211.347,7.269c0-1.648-1.4-3.045-3.715-3.045-.14,0-.308.029-.475.029l-2.374,3.659L209.5,10.4a3.986,3.986,0,0,0,1.844-3.129" transform="translate(-72.079 -1.487)" fill="#e7372f"/>
      <path id="Path_183706" data-name="Path 183706" d="M205.817,19.913l1.844,4.553c5.754-.335,11.536-2.542,11.536-6.872a2.867,2.867,0,0,0-.5-1.732c-1.816,1.592-7.626,3.409-12.878,4.051" transform="translate(-72.443 -5.583)" fill="#e7372f"/>
      <path id="Path_183707" data-name="Path 183707" d="M258.41.732l-1.229,1.509,1.061,1.4a1.629,1.629,0,0,0,.587.139,1.449,1.449,0,0,0,1.425-1.424c0-.67-.5-1.369-1.844-1.62" transform="translate(-90.521 -0.258)" fill="#e7372f"/>
      <path id="Path_183708" data-name="Path 183708" d="M263.281.732l-1.229,1.509,1.061,1.4a1.632,1.632,0,0,0,.586.139,1.449,1.449,0,0,0,1.426-1.424c0-.67-.5-1.369-1.844-1.62" transform="translate(-92.236 -0.258)" fill="#e7372f"/>
      <path id="Path_183709" data-name="Path 183709" d="M242.8,5.194c.2-.978.307-1.844.391-2.346l-4.5-.866a49.948,49.948,0,0,1-2.291,8.855,4.752,4.752,0,0,0,1.621.307c3.352,0,4.134-3.129,4.609-5.028.028.922.084,1.48.084,1.48s-.056.029,3.548.029a14.3,14.3,0,0,1-5.67,11.061,3.914,3.914,0,0,0,2.821,1.2c2.933,0,8.325-4.3,8.325-14.163V4.943s-.726-.028-1.844-.028c-1.843,0-4.692.056-7.095.279" transform="translate(-83.208 -0.698)" fill="#e7372f"/>
    </g>
  </g>
</svg>
