<svg xmlns="http://www.w3.org/2000/svg" xmlns:xlink="http://www.w3.org/1999/xlink" width="45.053" height="12.322" viewBox="0 0 45.053 12.322"><defs><clipPath id="a"><rect width="45.053" height="12.322" fill="#e7372f"/></clipPath></defs><g clip-path="url(#a)"><path d="M8.3,2.13V9.5a.974.974,0,0,1-.971,1,52.778,52.778,0,0,1-6.454,0,.978.978,0,0,1-.868-1.1A.948.948,0,0,1,1.065,8.57a35.189,35.189,0,0,0,5.279.044V3.1H1.095a.97.97,0,1,1,0-1.941H7.227A1.033,1.033,0,0,1,8.3,2.13" transform="translate(0 0.545)" fill="#e7372f"/><path d="M8.5,11.766a1,1,0,0,1,0-1.382,22.6,22.6,0,0,0,3.574-4.427c-.78-.471-1.646-.97-2.632-1.558a.979.979,0,0,1-.338-1.339.961.961,0,0,1,1.324-.337c.852.5,1.617.955,2.323,1.367.234-.912.455-1.985.675-3.162A.968.968,0,0,1,14.546.134a.981.981,0,0,1,.793,1.133c-.263,1.457-.543,2.764-.852,3.868l2.191,1.308a.972.972,0,0,1-.986,1.676L13.752,6.958a23.644,23.644,0,0,1-3.868,4.808.989.989,0,0,1-1.382,0" transform="translate(3.877 0.056)" fill="#e7372f"/><path d="M17.052,2.941a.971.971,0,0,1,.956-1.69l1.705.94A.977.977,0,0,1,18.759,3.9Zm8.867.118A12.518,12.518,0,0,1,23.6,7.882a8.844,8.844,0,0,1-5.323,3.1,1.057,1.057,0,0,1-1.221-.75.993.993,0,0,1,.794-1.146,7.159,7.159,0,0,0,4.22-2.369,11.5,11.5,0,0,0,2.045-4.264.955.955,0,0,1,1.2-.647.979.979,0,0,1,.6,1.251" transform="translate(7.803 0.529)" fill="#e7372f"/><path d="M31.621,7.058s-2.426-.736-3.9-1.2v5.5a.971.971,0,1,1-1.942,0V.97a.971.971,0,0,1,1.942,0V3.852c1.587.456,4.5,1.354,4.5,1.354a.968.968,0,0,1,.633,1.22.985.985,0,0,1-1.236.633" transform="translate(12.15 -0.001)" fill="#e7372f"/></g></svg>