<svg xmlns="http://www.w3.org/2000/svg" xmlns:xlink="http://www.w3.org/1999/xlink" width="249.078" height="47.427" viewBox="0 0 249.078 47.427"><defs><clipPath id="a"><rect width="249.078" height="47.427" fill="#e7372f"/></clipPath></defs><g clip-path="url(#a)"><path d="M23.869,7.84c.061-.444.1-.928.162-1.415h-.789a1.343,1.343,0,0,1-1.336-1.332,1.329,1.329,0,0,1,1.336-1.33h1.093c.081-.789.162-1.577.243-2.4A1.376,1.376,0,0,1,26.057.145a1.342,1.342,0,0,1,1.192,1.476c-.079.727-.142,1.433-.223,2.142h1.5a1.331,1.331,0,0,1,1.338,1.33,1.345,1.345,0,0,1-1.338,1.332h-1.8c-.043.487-.1.951-.164,1.415h1.824a1.332,1.332,0,1,1,0,2.664H26.217l-.324,2.868c-.263,2.178,1.417,2.382,2.267,2.341,1.358-.081,1.561-1.494,1.156-2.828a1.235,1.235,0,0,1,.85-1.734,1.459,1.459,0,0,1,1.72,1.191,5.5,5.5,0,0,1-.648,4.561,3.83,3.83,0,0,1-2.917,1.473c-2.975.161-5.505-1.857-5.1-5.311l.322-2.563H23A1.332,1.332,0,1,1,23,7.84Z" transform="translate(27.055 0.175)" fill="#e7372f"/><path d="M37.3,12.644c-.043-.888-.609-1.473-1.842-1.314-.913.123-2.714.85-3.547.89a1.31,1.31,0,0,1-1.273-1.577L31.748,5.6H30.392a1.329,1.329,0,0,1-1.336-1.33,1.345,1.345,0,0,1,1.336-1.334h1.8l.3-1.716a1.338,1.338,0,0,1,2.631.484l-.22,1.231h3.378a1.347,1.347,0,0,1,1.338,1.334A1.331,1.331,0,0,1,38.286,5.6H34.4L33.61,9.15c.587-.121,1.032-.242,1.561-.323,2.831-.383,4.655,1.052,4.736,3.714.081,2.707-1.52,5.29-6.032,5.918a1.473,1.473,0,0,1-1.763-1.274c-.04-.585.324-1.211,1.518-1.393,3.22-.487,3.747-2.039,3.666-3.149" transform="translate(36.288 0.157)" fill="#e7372f"/><path d="M39.6,7.84c.061-.444.1-.928.162-1.415h-.789a1.343,1.343,0,0,1-1.336-1.332,1.329,1.329,0,0,1,1.336-1.33h1.093c.081-.789.162-1.577.243-2.4A1.376,1.376,0,0,1,41.788.145,1.342,1.342,0,0,1,42.98,1.621c-.079.727-.142,1.433-.223,2.142h1.5a1.331,1.331,0,0,1,1.338,1.33,1.345,1.345,0,0,1-1.338,1.332h-1.8c-.043.487-.1.951-.164,1.415h1.824a1.332,1.332,0,1,1,0,2.664H41.948l-.324,2.868c-.263,2.178,1.417,2.382,2.267,2.341,1.358-.081,1.561-1.494,1.156-2.828a1.235,1.235,0,0,1,.85-1.734,1.459,1.459,0,0,1,1.72,1.191A5.5,5.5,0,0,1,46.97,16.9a3.83,3.83,0,0,1-2.917,1.473c-2.975.161-5.505-1.857-5.1-5.311l.322-2.563H38.73a1.332,1.332,0,1,1,0-2.664Z" transform="translate(46.702 0.175)" fill="#e7372f"/><path d="M53.026,12.644c-.043-.888-.609-1.473-1.842-1.314-.913.123-2.714.85-3.547.89a1.31,1.31,0,0,1-1.273-1.577L47.478,5.6H46.122a1.329,1.329,0,0,1-1.336-1.33,1.345,1.345,0,0,1,1.336-1.334h1.8l.3-1.716a1.338,1.338,0,0,1,2.631.484l-.22,1.231h3.378a1.347,1.347,0,0,1,1.338,1.334A1.331,1.331,0,0,1,54.016,5.6H50.129L49.34,9.15c.587-.121,1.032-.242,1.561-.323,2.831-.383,4.655,1.052,4.736,3.714.081,2.707-1.52,5.29-6.032,5.918a1.473,1.473,0,0,1-1.763-1.274c-.04-.585.324-1.211,1.518-1.393,3.22-.487,3.747-2.039,3.666-3.149" transform="translate(55.934 0.157)" fill="#e7372f"/><path d="M54.734,11.967A1.363,1.363,0,0,1,53.6,10.431l.749-4.723H53.8a1.305,1.305,0,0,1-1.334-1.334A1.318,1.318,0,0,1,53.8,3.041h.931l.182-1.433a1.327,1.327,0,0,1,1.52-1.13A1.312,1.312,0,0,1,57.57,1.992l-.162,1.07h1.356a1.332,1.332,0,1,1-.02,2.664h-1.72l-.769,5.109a1.348,1.348,0,0,1-1.52,1.133m12.938.928a1.278,1.278,0,0,1-1.5,1.171c-.4-.061-1.336-.3-1.741-.343,0,.321-.02,1.312-.02,1.312A2.674,2.674,0,0,1,61.577,17.9c-1.963-.02-3.825-2.283-3.724-4.322.081-1.372.972-2.664,3.22-2.7.2,0,.443.02.668.02V8.311a1.346,1.346,0,0,1,2.692,0v2.745c.506.063,1.417.222,2.085.345A1.342,1.342,0,0,1,67.672,12.9m-5.93.646a3.145,3.145,0,0,0-.609-.043c-.322.022-.567.1-.6.363a1.277,1.277,0,0,0,.99,1.355c.1,0,.225-.081.225-.345.018-.341,0-.928,0-1.33m.81-10.116,3.016-.02a1.342,1.342,0,1,1,.02,2.684H62.551a1.332,1.332,0,1,1,0-2.664" transform="translate(65.529 0.571)" fill="#e7372f"/><path d="M75.52,18.289h-12.8a1.343,1.343,0,0,1,0-2.687l5.285.022V11.585H65.031a1.343,1.343,0,0,1,0-2.687h2.978V6.192h-3.3l-.789,1.819a1.35,1.35,0,0,1-1.781.666,1.316,1.316,0,0,1-.668-1.756l2.226-5.068a1.353,1.353,0,0,1,1.781-.666,1.315,1.315,0,0,1,.668,1.756l-.241.565h2.1V1.368a1.336,1.336,0,0,1,2.672,0V3.53h3.909a1.331,1.331,0,1,1,0,2.662H70.68V8.9h2.9a1.343,1.343,0,0,1,0,2.687l-2.9-.02v4.059h4.84a1.332,1.332,0,1,1,0,2.664" transform="translate(76.621 0.045)" fill="#e7372f"/><path d="M72.061,15.261V8.944h-.344a1.332,1.332,0,1,1,0-2.664h.344V3.35a1.3,1.3,0,0,1,2.591.02l-.02,2.909h.182a1.332,1.332,0,1,1,0,2.664h-.182v5.371a1.158,1.158,0,0,1,1.478.583,1.349,1.349,0,0,1-.648,1.8l-3.036,1.292a1.456,1.456,0,0,1-1.822-.626,1.33,1.33,0,0,1,.688-1.776Zm8.2-12.476v1.98c.182-.043.466-.081.648-.123V1.231A1.187,1.187,0,0,1,82.085,0a1.237,1.237,0,0,1,1.232,1.231V4.077c.87-.2,1.561-.363,1.844-.424A1.279,1.279,0,0,1,86.74,4.8V9.973a1.222,1.222,0,0,1-1.235,1.312l-.771.02A1.279,1.279,0,0,1,83.5,10.013a1.246,1.246,0,0,1,.769-1.15v-2.3l-.951.242v4.864A1.225,1.225,0,0,1,82.085,12.9a1.115,1.115,0,0,1-1.176-1.233v-4.3l-.648.121v8.076a20.924,20.924,0,0,0,4.05-.061V14.92a1.346,1.346,0,0,1,2.692,0v2.039a1.441,1.441,0,0,1-1.376,1.332,37.669,37.669,0,0,1-6.6.02,1.478,1.478,0,0,1-1.4-1.473V8.1a1.323,1.323,0,0,1-1.356-.989,1.337,1.337,0,0,1,.969-1.637s.144-.02.387-.081v-2.6a1.333,1.333,0,0,1,1.336-1.332,1.311,1.311,0,0,1,1.3,1.332" transform="translate(87.897 0)" fill="#e7372f"/><path d="M83.227,7.887l-1.963-5.47a1.331,1.331,0,0,1,.85-1.7,1.353,1.353,0,0,1,1.7.848L85.251,6.05c.648-.545,1.2-1.05,2.8-2.384a1.341,1.341,0,0,1,1.88.144,1.316,1.316,0,0,1-.142,1.877c-3.805,3.252-3.744,3.07-5.424,4.644-.893.828-1.338,1.655-1.113,2.422.263.928.807,1.15,2.712,1.231a18.325,18.325,0,0,0,3.767-.4,1.267,1.267,0,0,1,1.478,1.11,1.485,1.485,0,0,1-1.194,1.594,18.988,18.988,0,0,1-4.172.406c-4.01-.161-5.1-2.081-5.184-3.7-.061-1.817.324-2.989,2.57-5.109" transform="translate(100.725 0.814)" fill="#e7372f"/><path d="M88.389,8a1.143,1.143,0,0,1,1.619-1.615l1.882,1.877a1.108,1.108,0,0,1,0,1.615,1.151,1.151,0,0,1-1.619,0Z" transform="translate(109.973 7.523)" fill="#e7372f"/><path d="M7.66,29.84V24.227H6.668a4.4,4.4,0,0,1-1.255,3.068l-3,3.494a1.376,1.376,0,0,1-1.9.262A1.321,1.321,0,0,1,.29,29.174c.243-.305,2.287-2.545,2.955-3.411a2.563,2.563,0,0,0,.749-1.657c-.16-.018-.5-.04-.546-.04a1.294,1.294,0,0,1-1.336-1.332V14.292a1.355,1.355,0,0,1,1.379-1.33h7.653a1.429,1.429,0,0,1,1.273,1.453v8.318a1.346,1.346,0,0,1-1.354,1.332,4.806,4.806,0,0,1-.729.04v4.463a14.034,14.034,0,0,0,1.558-.04v-.444a1.335,1.335,0,0,1,1.336-1.334,1.365,1.365,0,0,1,1.356,1.334v1.675a1.35,1.35,0,0,1-1.174,1.332A20.43,20.43,0,0,1,9,31.172,1.361,1.361,0,0,1,7.66,29.84M4.8,15.99H9.725v-.767H4.8Zm0,2.929L9.725,18.9v-.747H4.8ZM9.725,21.8V21.1H4.8v.727a40.175,40.175,0,0,0,4.921-.02" transform="translate(0 16.107)" fill="#e7372f"/><path d="M9.1,28.555,11.3,18.621h-.969a1.331,1.331,0,1,1,0-2.662h1.558l.4-1.778a1.334,1.334,0,0,1,2.611.545l-.263,1.233H16.73a1.331,1.331,0,1,1,0,2.662H14.038L11.731,29.1a1.342,1.342,0,0,1-1.6,1.029A1.323,1.323,0,0,1,9.1,28.555m10.59,1.494c-2.591-.24-3.825-1.451-3.542-4.158a1.285,1.285,0,0,1,1.4-1.193c.546.022,1.273.446,1.214,1.153-.121,1.09.1,1.473,1.174,1.554a7.662,7.662,0,0,0,1.8-.061,1.246,1.246,0,0,1,1.518,1.15,1.425,1.425,0,0,1-1.235,1.5,9.78,9.78,0,0,1-2.328.058m3.36-9.711a2.525,2.525,0,0,1-.241.828l-1.46,2.22a1.34,1.34,0,0,1-1.822.507,1.2,1.2,0,0,1-.385-1.736l.4-.487H17.724a1.332,1.332,0,1,1,0-2.664h3.967a1.337,1.337,0,0,1,1.356,1.332" transform="translate(11.235 16.301)" fill="#e7372f"/><path d="M30.251,14.456V29.177a1.367,1.367,0,0,1-1.334,1.33,68,68,0,0,1-9.416.063c-.749-.1-1.376-.484-1.376-1.393V14.456A1.328,1.328,0,0,1,19.5,13.124h9.416a1.345,1.345,0,0,1,1.334,1.332m-2.672,1.355H20.8v2.039h6.783Zm0,4.7H20.8v2.3h6.783Zm0,4.988H20.8v2.465a59.593,59.593,0,0,0,6.783-.02Z" transform="translate(22.636 16.308)" fill="#e7372f"/><path d="M29.114,20.55c.061-.444.1-.928.162-1.415h-.789A1.343,1.343,0,0,1,27.151,17.8a1.329,1.329,0,0,1,1.336-1.33H29.58c.081-.789.162-1.577.243-2.4a1.376,1.376,0,0,1,1.48-1.213,1.342,1.342,0,0,1,1.192,1.476c-.079.727-.142,1.433-.223,2.142h1.5a1.331,1.331,0,0,1,1.338,1.33,1.345,1.345,0,0,1-1.338,1.332h-1.8c-.043.487-.1.951-.164,1.415H33.63a1.332,1.332,0,1,1,0,2.664H31.462l-.324,2.868c-.263,2.178,1.417,2.379,2.267,2.341,1.358-.081,1.561-1.494,1.156-2.828a1.235,1.235,0,0,1,.85-1.734,1.459,1.459,0,0,1,1.72,1.191,5.5,5.5,0,0,1-.648,4.561,3.83,3.83,0,0,1-2.917,1.473c-2.975.161-5.505-1.857-5.1-5.311l.322-2.563h-.544a1.332,1.332,0,1,1,0-2.664Z" transform="translate(33.606 15.969)" fill="#e7372f"/><path d="M34.454,27.994a78.882,78.882,0,0,0,3.785-8.3l-1.7.123a1.29,1.29,0,0,1-1.417-1.193,1.322,1.322,0,0,1,1.235-1.433s1.579-.141,2.429-.2c.022-.585.022-1.514.022-2.24v-.043a1.337,1.337,0,0,1,1.3-1.35,1.351,1.351,0,0,1,1.374,1.33v2.1c.546-.02.546-.043,1.217-.043,2.267-.058,3.5,1.173,3.481,3.938a61.452,61.452,0,0,1-.506,8.419,1.317,1.317,0,0,1-1.5,1.233l-1.986-.182c-.81-.224-1.3-.747-1.214-1.473a1.307,1.307,0,0,1,1.48-1.173l.686.063a35.285,35.285,0,0,0,.508-6.844c0-.908-.326-1.395-1.093-1.375a12.83,12.83,0,0,0-1.48.121c-1.012,3.05-4.169,9.592-4.169,9.592a1.4,1.4,0,0,1-1.824.684,1.282,1.282,0,0,1-.625-1.756M50.286,16.972a1.3,1.3,0,0,1-.182,1.877,1.349,1.349,0,0,1-1.885-.182c-.668-.787-1.4-1.615-2-2.341A1.331,1.331,0,1,1,48.2,14.55c.648.747,1.4,1.615,2.087,2.422" transform="translate(42.868 16.6)" fill="#e7372f"/><path d="M59.272,21.744c.02,3.494-1.478,5.934-5.467,7.246a1.489,1.489,0,0,1-1.923-.946c-.182-.666.322-1.312,1.133-1.617,3.34-1.231,3.522-2.725,3.623-4.4.1-2.061-.587-3.07-1.738-3.171a4.588,4.588,0,0,0-3.1,1.233c-.812.6-1.6,1.272-2.429,1.938v6.681a1.348,1.348,0,0,1-1.338,1.334A1.333,1.333,0,0,1,46.7,28.707V24.247a8.048,8.048,0,0,1-1.032.848,1.337,1.337,0,1,1-1.68-2.081l2.712-2.2V19.6l-1.113.02a1.343,1.343,0,0,1,0-2.687H46.7V14.556a1.335,1.335,0,0,1,1.336-1.334,1.35,1.35,0,0,1,1.338,1.334v4.178l.83-.585c2.064-1.494,3.34-1.938,5.222-1.736,2.044.222,3.805,1.7,3.848,5.331" transform="translate(54.312 16.43)" fill="#e7372f"/><path d="M52.922,20.064a35.137,35.137,0,0,1,.306-4.521,1.365,1.365,0,0,1,1.556-1.13A1.335,1.335,0,0,1,55.9,15.926a26.23,26.23,0,0,0-.3,4.019,14.707,14.707,0,0,0,.427,3.774c.3-.182.585-.363.787-.484a1.365,1.365,0,0,1,1.844.464,1.422,1.422,0,0,1-.526,1.877c-1.457.828-2.512,1.536-3.218,1.435-1.055.02-1.925-2.444-1.986-6.948m9.819-1.473a1.393,1.393,0,0,1,.526-1.837,1.348,1.348,0,0,1,1.824.545,21.7,21.7,0,0,1,1.68,4.4,1.293,1.293,0,0,1-.951,1.615,1.386,1.386,0,0,1-1.66-.969,22.691,22.691,0,0,0-1.419-3.756" transform="translate(66.095 17.888)" fill="#e7372f"/><path d="M62.355,22.2a1.353,1.353,0,0,1-.043-1.877l6.077-6.418a1.366,1.366,0,0,1,1.9-.043,1.314,1.314,0,0,1,.061,1.877L64.865,21.2l5.874,6.5a1.343,1.343,0,1,1-2.049,1.738L62.335,22.2Z" transform="translate(77.376 16.777)" fill="#e7372f"/><path d="M69.284,15.958a1.329,1.329,0,0,1,1.3-1.37l10.651-.446a1.33,1.33,0,0,1,1.376,1.294,1.355,1.355,0,0,1-1.318,1.393l-1.356.058c-2.024,1.577-4.658,4.685-4.759,6.36-.038.989.771,1.917,3.2,2.119A1.286,1.286,0,0,1,79.69,26.6a1.55,1.55,0,0,1-1.417,1.494c-3.6,0-5.993-2.24-5.589-4.985.286-1.92,2.067-4.342,3.726-6.118l-5.75.26a1.331,1.331,0,0,1-1.376-1.292" transform="translate(86.529 17.572)" fill="#e7372f"/><path d="M81.674,19.363l-.585,5.51H82.2V20.9a1.234,1.234,0,0,1,1.235-1.211A1.221,1.221,0,0,1,84.672,20.9v3.855a1.247,1.247,0,0,1,1.214,1.072,1.4,1.4,0,0,1-1.275,1.594c-.139.02-.3.02-.466.04L82.77,29.941a1.235,1.235,0,1,1-2.186-1.15l.706-1.251c-.666,0-1.66-.04-2.163-.081a1.336,1.336,0,0,1-1.2-1.453,1.483,1.483,0,0,1,.668-1.032l.587-5.611h-.466A1.225,1.225,0,0,1,77.5,18.029a1.362,1.362,0,0,1,1.356-1.33h.607l.2-2.243a1.257,1.257,0,0,1,1.334-1.15,1.24,1.24,0,0,1,1.133,1.332l-.2,2.061h2.732a1.342,1.342,0,1,1-.02,2.684Zm13.808,2.442a1.325,1.325,0,0,1-1.336,1.355H92v6.418a1.335,1.335,0,0,1-1.338,1.334H88.945a1.343,1.343,0,0,1,0-2.687h.364V23.16H86.453a1.334,1.334,0,0,1,0-2.666H89.31V19.4a2.433,2.433,0,0,1,.3-1.193l1.5-2.4-3.038-.02a1.332,1.332,0,1,1,0-2.664h5.265a1.3,1.3,0,0,1,1.275,1.494,3.108,3.108,0,0,1-.364.989C93.438,17.12,92,19.441,92,19.441v1.032l2.145.02a1.316,1.316,0,0,1,1.336,1.312" transform="translate(96.797 16.308)" fill="#e7372f"/><path d="M87.827,26.115a1.333,1.333,0,0,1,1.3-1.433c.913-.061,1.336.727,1.4,1.453.1,1.231.85,1.92,2.229,2.139.708.1,1.66.383,1.558,1.516A1.45,1.45,0,0,1,92.6,31a4.934,4.934,0,0,1-4.777-4.887m.385-9.226a1.392,1.392,0,0,1,1.417-1.334h2.753l-.324-1.007a1.337,1.337,0,1,1,2.573-.727l.547,1.734h2.368a1.333,1.333,0,1,1,0,2.666H95.966l.486,1.655h1.4a1.333,1.333,0,1,1,0,2.666h-.587s.567,1.837.627,2.24a1.285,1.285,0,0,1-1.3,1.5H94.466a1.347,1.347,0,0,1-1.334-1.334,1.321,1.321,0,0,1,1.334-1.352h.306l-.306-1.05H89.609a1.333,1.333,0,1,1,0-2.666h4.05l-.488-1.655H89.548a1.346,1.346,0,0,1-1.336-1.332" transform="translate(109.687 15.956)" fill="#e7372f"/><path d="M95.7,15.958a1.33,1.33,0,0,1,1.3-1.37l10.628-.446A1.31,1.31,0,0,1,109,15.435a1.338,1.338,0,0,1-1.3,1.393l-1.358.058c-2.024,1.577-4.655,4.685-4.756,6.36-.061.989.769,1.917,3.2,2.119A1.3,1.3,0,0,1,106.1,26.6a1.55,1.55,0,0,1-1.417,1.494c-3.6,0-6.014-2.24-5.609-4.985.283-1.92,2.085-4.342,3.747-6.118l-5.75.26A1.333,1.333,0,0,1,95.7,15.958m12.511,2.525v1.11a1,1,0,1,1-2,0v-1.11a1,1,0,1,1,2,0m2.553,0v1.11a1,1,0,1,1-2.006,0v-1.11a1,1,0,1,1,2.006,0" transform="translate(119.518 17.572)" fill="#e7372f"/><path d="M104.543,17.313a1.346,1.346,0,0,1,1.338-1.332h5.748c-.018-.606,0-1.251,0-1.758a1.337,1.337,0,0,1,2.674-.038v1.8h2.874a1.343,1.343,0,0,1,0,2.687H114.3c0,1.05,0,2.077-.02,2.844a4.582,4.582,0,0,1,.283,2.021c-.124,2.3-.364,3.817-2.388,7.208a1.429,1.429,0,0,1-1.945.424,1.334,1.334,0,0,1-.3-1.857,22.72,22.72,0,0,0,1.356-2.465h-.04a3.694,3.694,0,0,1-3.542-3.575c-.2-2.3,1.032-3.671,3.036-3.815.2,0,.526-.018.891,0v-.785h-5.748a1.352,1.352,0,0,1-1.338-1.355m7.026,4.786a.85.85,0,0,0-.648-.141.758.758,0,0,0-.688.787c0,.888.425,1.433.87,1.433.326-.02.488-.888.466-2.079" transform="translate(130.565 15.994)" fill="#e7372f"/></g></svg>