<svg xmlns="http://www.w3.org/2000/svg" xmlns:xlink="http://www.w3.org/1999/xlink" width="51.228" height="40.722" viewBox="0 0 51.228 40.722">
  <defs>
    <clipPath id="clip-path">
      <rect id="Rectangle_9245" data-name="Rectangle 9245" width="51.228" height="40.722" transform="translate(0 0)" fill="none"/>
    </clipPath>
  </defs>
  <g id="Group_7148" data-name="Group 7148" transform="translate(0 0)" clip-path="url(#clip-path)">
    <path id="Path_183668" data-name="Path 183668" d="M36.06,14.033,27.163.824a1.869,1.869,0,0,0-3.1,0l-8.9,13.209a1.869,1.869,0,0,1-2.37.635L2.266,9.521A1.573,1.573,0,0,0,.059,11.353L7.5,38.249a3.374,3.374,0,0,0,3.252,2.473H40.474a3.372,3.372,0,0,0,3.251-2.473l7.442-26.9a1.573,1.573,0,0,0-2.206-1.833L38.43,14.668a1.869,1.869,0,0,1-2.37-.635" transform="translate(0 0)" fill="#c9c9ca"/>
    <path id="Path_183669" data-name="Path 183669" d="M34.4,25.124l-1.872-5.2a.812.812,0,0,0-.764-.537H24.418a.813.813,0,0,0-.72.436l-2.566,4.92a.658.658,0,0,0,.583.962h3.8a.811.811,0,0,1,.643,1.307l-4.019,5.218a2.127,2.127,0,0,0-.443,1.3v3.768a.812.812,0,0,0,.812.812H33.749a.812.812,0,0,0,.812-.812v-3.68a.812.812,0,0,0-.812-.812H29.855a.812.812,0,0,1-.6-1.357l4.98-5.5a.814.814,0,0,0,.162-.821" transform="translate(-2.194 -2.02)" fill="#717071"/>
  </g>
</svg>
