<svg xmlns="http://www.w3.org/2000/svg" xmlns:xlink="http://www.w3.org/1999/xlink" width="227.322" height="20" viewBox="0 0 227.322 20">
  <defs>
    <clipPath id="clip-path">
      <rect id="Rectangle_9260" data-name="Rectangle 9260" width="227.322" height="20" fill="none"/>
    </clipPath>
  </defs>
  <g id="Group_7178" data-name="Group 7178" clip-path="url(#clip-path)">
    <path id="Path_183856" data-name="Path 183856" d="M16.192,8.4v8.7a2.621,2.621,0,0,1-2.819,2.7A2.668,2.668,0,0,1,10.495,17.3l.72-.42c-.12-2.248-.18-5.307-.21-8.335L6.9,8.7l3.418,2.429c-1.5,3.388-3.448,6.626-6.926,6.626A3.973,3.973,0,0,1,0,16.162c1.918-1.08,5.4-4.887,6.836-7.436l-4.827.179-.48-3.657c1.829,0,5.577.06,9.446.12C10.944,3.358,10.944,1.5,10.944,0l5.218.03.03,5.457c1.529.06,2.939.09,4.048.15l.03,2.458Z" transform="translate(0 0)" fill="#e8382f"/>
    <path id="Path_183857" data-name="Path 183857" d="M38.462,13.758l.271-3.6c3.418-.271,13.943-.72,17.72-.72l.6,3.568Z" transform="translate(-11.708 -2.874)" fill="#e8382f"/>
    <path id="Path_183858" data-name="Path 183858" d="M80.4,13.617c-1.08,2.969-2.458,4.588-4.948,4.588a6.692,6.692,0,0,1-4.137-1.5,23.394,23.394,0,0,0,4.2-6.3Zm5.877.15a17.272,17.272,0,0,0,5.847-1.139,4.117,4.117,0,0,1,.24,1.349,5.248,5.248,0,0,1-.749,2.519c-1.32,2.458-4.408,3-7.227,3-.87,0-1.739-.06-2.489-.12,0,0,.03-10.584.39-14.633,1.8.03,4.2.12,4.2.12s-.33,5.008-.33,8.906Z" transform="translate(-21.708 -1.443)" fill="#e8382f"/>
    <path id="Path_183859" data-name="Path 183859" d="M112.761,19.246c-.09-.929-.12-2.248-.12-3.777,0-4.588.3-11.155.539-15.383h5.367l.03,9.925,2.4-3.868h.179c2.729,0,4.438,1.559,4.438,3.478A4.814,4.814,0,0,1,123.7,13.1l-5.127-2.788v8.875Zm9.355-17L123.435.626c1.44.27,1.979,1.02,1.979,1.739a1.555,1.555,0,0,1-1.529,1.529,1.742,1.742,0,0,1-.63-.15Zm3.388,0L126.823.626c1.44.27,1.979,1.02,1.979,1.739a1.555,1.555,0,0,1-1.529,1.529,1.742,1.742,0,0,1-.63-.15Z" transform="translate(-34.288 -0.026)" fill="#e8382f"/>
    <path id="Path_183860" data-name="Path 183860" d="M143.688,4.592c4.168-.27,18.2-.539,18.2-.539.059.809.119,1.709.119,2.668,0,9.2-4.917,13.223-8.516,13.223a3.328,3.328,0,0,1-1.289-.209A19.908,19.908,0,0,0,155.952,9.12a8.336,8.336,0,0,0-.12-1.529c-4.018,0-11.994-.15-11.994-.15Z" transform="translate(-43.738 -1.234)" fill="#e8382f"/>
    <path id="Path_183861" data-name="Path 183861" d="M190.592,14.2a4.435,4.435,0,0,0-.03-.63c-2.7,0-9.805-.03-9.805-.03s-.03-1.47-.06-2.7c2.819-.21,14.422-.45,14.422-.45.031.42.061.84.061,1.29,0,4.8-2.429,5.7-3.718,5.7a2.928,2.928,0,0,1-1.769-.6,3.716,3.716,0,0,0,.9-2.579m-1.169,2.489c0,4.947-1.529,6.477-4.078,6.477a4.6,4.6,0,0,1-1.74-.3c1.08-1.829,1.649-5.7,1.74-7.017l4.078.479Z" transform="translate(-55.003 -3.162)" fill="#e8382f"/>
    <path id="Path_183862" data-name="Path 183862" d="M211.762,13.785l2.789-1.889a2.585,2.585,0,0,1,1.979,2.488,2.867,2.867,0,0,1-2.459,2.759Zm4.5-2.009,2.968-1.559A2.542,2.542,0,0,1,221,12.645a2.75,2.75,0,0,1-2.7,2.7Zm11,.9C225.8,17.8,223.1,22.3,219.648,22.3a3.793,3.793,0,0,1-3.149-1.649c3.269-1.11,5.4-4.858,6.9-9.836Z" transform="translate(-64.46 -3.11)" fill="#e8382f"/>
    <path id="Path_183863" data-name="Path 183863" d="M243.215,10.3l1.919-3.988a6.842,6.842,0,0,1,.78-.06,3.152,3.152,0,0,1,3.448,3,3.159,3.159,0,0,1-1.769,2.759Zm2.069,4.438c5.607-.93,11.394-2.22,13.7-3.989a3.407,3.407,0,0,1,.63,1.919,5.649,5.649,0,0,1-1.739,3.628c-1.679,1.8-6.207,3.118-10.7,3.478Zm2.039-10.585L249.571.461a2.926,2.926,0,0,1,.511-.03c2.218,0,3.358,1.409,3.358,2.908a3.292,3.292,0,0,1-1.919,2.909Z" transform="translate(-74.034 -0.131)" fill="#e8382f"/>
    <path id="Path_183864" data-name="Path 183864" d="M284.489,12.226c-2.819,0-7.706.12-7.706.12s-.061-1.019-.09-2.339c3-.24,11.724-.48,11.724-.48.12,1.53.179,3.029.179,4.528a48.566,48.566,0,0,1-.509,7.046,81.215,81.215,0,0,1-10.315.929l-.33-3.088h1.739c1.679,0,3.868,0,4.858-.031Zm-6.9,4.8-.21-1.98a34.791,34.791,0,0,1,6.027-1.049l.18,2.638Z" transform="translate(-84.224 -2.9)" fill="#e8382f"/>
    <path id="Path_183865" data-name="Path 183865" d="M305.116,6.157l2.549-3.928c.179,0,.359-.031.509-.031,2.489,0,3.989,1.5,3.989,3.269a4.282,4.282,0,0,1-1.98,3.358Zm.719,8.486c5.637-.689,11.874-2.639,13.823-4.348a3.077,3.077,0,0,1,.539,1.859c0,4.648-6.206,7.017-12.383,7.376Z" transform="translate(-92.876 -0.669)" fill="#e8382f"/>
  </g>
</svg>
