<svg xmlns="http://www.w3.org/2000/svg" xmlns:xlink="http://www.w3.org/1999/xlink" width="186.04" height="47.427" viewBox="0 0 186.04 47.427"><defs><clipPath id="a"><rect width="186.04" height="47.427" fill="#e7372f"/></clipPath></defs><g clip-path="url(#a)"><path d="M4.238,7.5a34.813,34.813,0,0,1,.3-4.467A1.346,1.346,0,0,1,6.073,1.918a1.319,1.319,0,0,1,1.1,1.5,25.989,25.989,0,0,0-.3,3.971,14.57,14.57,0,0,0,.421,3.729c.3-.179.576-.359.776-.479a1.343,1.343,0,0,1,1.817.459,1.407,1.407,0,0,1-.519,1.855c-1.436.818-2.475,1.518-3.171,1.418-1.039.02-1.9-2.415-1.957-6.865m9.675-1.456a1.378,1.378,0,0,1,.516-1.815,1.326,1.326,0,0,1,1.8.538,21.485,21.485,0,0,1,1.657,4.35,1.275,1.275,0,0,1-.94,1.593,1.363,1.363,0,0,1-1.635-.955,22.462,22.462,0,0,0-1.4-3.712" transform="translate(5.153 2.311)" fill="#e7372f"/><path d="M12.631,4.653a1.336,1.336,0,0,1,1.2-1.456s6.743-.858,8.837-.838a4.262,4.262,0,0,1,4.569,4.407c0,3.173-2.894,5.506-7.261,6.942a1.446,1.446,0,0,1-1.9-.858c-.157-.638.2-1.336,1.157-1.675,4.432-1.478,5.387-3.45,5.387-4.41a1.834,1.834,0,0,0-1.877-1.892c-2.553-.042-5.325.576-8.677.955a1.288,1.288,0,0,1-1.434-1.177" transform="translate(15.349 2.867)" fill="#e7372f"/><path d="M36.53,5.7a1.326,1.326,0,0,1-1.835.4c-1.4-.9-3.871-2.575-4.766-3.151a1.333,1.333,0,0,0-.68-.2h-.718a1.327,1.327,0,0,0-.7.2c-.88.6-3.193,2.134-4.569,3.031A1.316,1.316,0,1,1,21.81,3.79L26.118.936a4.889,4.889,0,0,1,2.734-.82h.08a4.947,4.947,0,0,1,2.69.8L36.134,3.89a1.323,1.323,0,0,1,.4,1.815m-.558,11.769a1.3,1.3,0,0,1-1.316,1.316H34.2a2.8,2.8,0,0,1-1.5-.738L29.129,14.94a1.327,1.327,0,0,1-.04-1.877c.04-.038.14-.078.179-.12-.9.02-1.655.02-2.712-.018v2.632l.319-.239a1.267,1.267,0,0,1,1.795.419,1.449,1.449,0,0,1-.476,1.915l-2.156,1.336a1.562,1.562,0,0,1-1.077.1,1.324,1.324,0,0,1-1.037-1.276V7.16a1.328,1.328,0,0,1,1.276-1.3h3.452a1.329,1.329,0,0,1-1.079-1.3V4.306a1.327,1.327,0,1,1,2.655,0v.259a1.348,1.348,0,0,1-1.079,1.3h3.031a1.324,1.324,0,0,1,1.3,1.316v4.208c0,.578-.381,1.1-1.316,1.318a9.485,9.485,0,0,1-1.438.137,2.434,2.434,0,0,1,.222.182l3.61,3.031h.1a1.363,1.363,0,0,1,1.316,1.416m-9.415-9h4.29V7.858h-4.29Zm4.29,2.433v-.618h-4.29v.7a34.649,34.649,0,0,0,4.29-.082m2.114,1.8,1.037-.8a1.188,1.188,0,0,1,1.655.137,1.246,1.246,0,0,1-.179,1.717l-1.037.818a1.193,1.193,0,0,1-1.476-1.875" transform="translate(25.796 0.14)" fill="#e7372f"/><path d="M45.9,10.868a1.3,1.3,0,0,1,.08,1.855,1.324,1.324,0,0,1-1.872.08L36.665,5.88l-4.19,4.529A1.32,1.32,0,1,1,30.56,8.593L35.548,3.5a1.506,1.506,0,0,1,2.1-.06ZM42.75,2.707V3.8a.987.987,0,1,1-1.974,0v-1.1a.987.987,0,1,1,1.974,0m2.513,0V3.8a1,1,0,1,1-1.992,0v-1.1a1,1,0,1,1,1.992,0" transform="translate(36.712 2.079)" fill="#e7372f"/><path d="M39.577,3.442a1.315,1.315,0,0,1,1.276-1.356l10.494-.439A1.312,1.312,0,0,1,52.7,2.926a1.337,1.337,0,0,1-1.3,1.376l-1.336.058c-1.994,1.556-4.589,4.629-4.689,6.284-.038.977.76,1.895,3.153,2.094a1.269,1.269,0,0,1,1.3,1.219,1.529,1.529,0,0,1-1.4,1.476c-3.55,0-5.905-2.214-5.506-4.926.281-1.9,2.036-4.29,3.672-6.045l-5.666.257a1.313,1.313,0,0,1-1.356-1.276" transform="translate(48.121 2.002)" fill="#e7372f"/><path d="M50.917,7.964c.06-.439.1-.917.16-1.4H50.3A1.325,1.325,0,0,1,48.982,5.25,1.312,1.312,0,0,1,50.3,3.936h1.077c.08-.78.16-1.558.239-2.375a1.357,1.357,0,0,1,1.458-1.2,1.325,1.325,0,0,1,1.174,1.458c-.078.718-.14,1.416-.219,2.116H55.5A1.314,1.314,0,0,1,56.822,5.25,1.327,1.327,0,0,1,55.5,6.566H53.731c-.042.481-.1.94-.162,1.4h1.8a1.316,1.316,0,1,1,0,2.632H53.23l-.319,2.834c-.259,2.152,1.4,2.353,2.234,2.313,1.338-.08,1.538-1.476,1.139-2.794a1.221,1.221,0,0,1,.838-1.713,1.438,1.438,0,0,1,1.7,1.177,5.442,5.442,0,0,1-.638,4.507A3.77,3.77,0,0,1,55.3,18.377c-2.932.16-5.425-1.835-5.026-5.247L50.6,10.6h-.536a1.316,1.316,0,1,1,0-2.632Z" transform="translate(59.266 0.434)" fill="#e7372f"/><path d="M56.956,8.187H60.11l.439-1.735a1.314,1.314,0,1,1,2.573.538l-.3,1.2h7.239a1.3,1.3,0,0,1,1.316,1.3,1.317,1.317,0,0,1-1.3,1.338H67.57v2.553a7.265,7.265,0,0,0,1.157-.06,1.328,1.328,0,0,1,1.5,1.1,1.346,1.346,0,0,1-1.139,1.536,17.306,17.306,0,0,1-1.915.142L64.28,18.761a1.579,1.579,0,0,1-2.094-.06,1.259,1.259,0,0,1,.117-1.817l.979-.818a18.371,18.371,0,0,1-3.552-.279,1.443,1.443,0,0,1-1.077-1.934l.877-3.031H56.956A1.3,1.3,0,0,1,55.66,9.5a1.324,1.324,0,0,1,1.3-1.316m8.061-6.761v.855h4.208A1.322,1.322,0,0,1,70.564,3.6l.02,1.7a1.348,1.348,0,0,1-2.695,0V4.936l-8.618-.02-.022.317a1.315,1.315,0,1,1-2.63,0s.02-1.593.02-1.633a1.3,1.3,0,0,1,1.314-1.318h4.21V1.426A1.406,1.406,0,0,1,63.582.108a1.437,1.437,0,0,1,1.436,1.318M61.506,13.394a31.708,31.708,0,0,0,3.273.14l.018-2.712H62.2Z" transform="translate(67.677 0.131)" fill="#e7372f"/><path d="M65.049,16.958c.339-.6,1.077-1.456,1.378-1.937a2.931,2.931,0,0,0,.558-1.635v-1.6A1.317,1.317,0,0,1,68.3,10.472a1.279,1.279,0,0,1,1.316,1.318v1.556l1.316.479V8.977H68.2a1.326,1.326,0,0,1,0-2.652h8.239a1.326,1.326,0,1,1,0,2.652H73.569v1.139H75.8a1.3,1.3,0,0,1,1.316,1.316A1.27,1.27,0,0,1,75.8,12.708H73.569v2.156l4.549,1.693h.3a1.363,1.363,0,0,1,1.458,1.418,1.455,1.455,0,0,1-1.4,1.4l-.222-.02a3.041,3.041,0,0,1-1.316-.222L69.02,15.9a6.94,6.94,0,0,1-.419.72l-1.376,1.974a1.4,1.4,0,0,1-1.917.2,1.361,1.361,0,0,1-.259-1.835m.1-12.11V3.313A1.314,1.314,0,0,1,66.467,2h4.368V1.5A1.478,1.478,0,0,1,72.373,0a1.456,1.456,0,0,1,1.456,1.478V2h4.308a1.366,1.366,0,0,1,1.376,1.316l.02,1.536a1.432,1.432,0,0,1-1.4,1.356A1.349,1.349,0,0,1,76.82,4.848V4.627H67.781v.222a1.33,1.33,0,0,1-1.314,1.336,1.345,1.345,0,0,1-1.316-1.336" transform="translate(78.802 -0.001)" fill="#e7372f"/><path d="M85.073,7.784a3.737,3.737,0,0,0-4.128-3.811c-3.193.06-4.848,2.114-4.888,4.37-.02,1.3.379,2.254,1,2.313.678.038,1.556-1.576,2.156-4.469a1.308,1.308,0,0,1,2.59.359c-.459,2.313-1.773,6.922-4.806,6.942-1.737,0-3.492-2.034-3.43-5.205.08-3.811,3.248-6.663,7.339-6.743a6.325,6.325,0,0,1,6.763,6.284c0,2.613-1.236,5.325-4.268,7.778a1.528,1.528,0,0,1-2.016-.179,1.369,1.369,0,0,1,.3-1.855c2.251-1.994,3.37-3.43,3.39-5.783" transform="translate(89.444 1.87)" fill="#e7372f"/><path d="M0,25.5c0-1.835,1.3-3.093,3.672-3.752V18.54H2.415A1.317,1.317,0,0,1,1.1,17.222a1.3,1.3,0,0,1,1.318-1.314H3.672V14.631a1.327,1.327,0,0,1,2.655,0v1.276H8.478A1.3,1.3,0,0,1,9.8,17.222,1.317,1.317,0,0,1,8.478,18.54H6.326v2.792c3.869-.319,6.422.959,6.5,4.27a6.37,6.37,0,0,1-2.453,4.629,1.575,1.575,0,0,1-2.054-.042,1.308,1.308,0,0,1,.219-1.855,4.68,4.68,0,0,0,1.675-2.672c0-1.777-1.795-2.174-3.889-1.757V26.38q0,3.982-2.874,3.752C2.156,30.032,0,28.018,0,25.5m2.515,0a1.719,1.719,0,0,0,1.077,1.735,14.091,14.091,0,0,0,.08-2.732,1.307,1.307,0,0,0-1.157,1m8.578-7.68V16.4a1.326,1.326,0,0,1,2.652,0v1.418a1.326,1.326,0,0,1-2.652,0" transform="translate(0 16.187)" fill="#e7372f"/><path d="M8.812,20.212a34.813,34.813,0,0,1,.3-4.467,1.346,1.346,0,0,1,1.533-1.117,1.319,1.319,0,0,1,1.1,1.5,25.989,25.989,0,0,0-.3,3.971,14.57,14.57,0,0,0,.421,3.729c.3-.179.576-.359.776-.479a1.343,1.343,0,0,1,1.817.459,1.407,1.407,0,0,1-.519,1.855c-1.436.818-2.475,1.518-3.171,1.418-1.039.02-1.9-2.415-1.957-6.865m9.675-1.456a1.378,1.378,0,0,1,.519-1.815,1.327,1.327,0,0,1,1.8.538,21.48,21.48,0,0,1,1.655,4.35,1.278,1.278,0,0,1-.937,1.6,1.365,1.365,0,0,1-1.635-.957,22.462,22.462,0,0,0-1.4-3.712" transform="translate(10.714 17.764)" fill="#e7372f"/><path d="M27.661,22.761a1.5,1.5,0,0,1,.937,1.977c-.818,2.692-2.373,5.048-5.506,5.088a4.582,4.582,0,0,1-4.948-5.17c.142-2.194.179-3.949.519-9.834a1.322,1.322,0,0,1,1.4-1.236A1.28,1.28,0,0,1,21.257,15c-.359,4.21-.638,7.84-.618,9.854a2.133,2.133,0,0,0,2.553,2.4c1.057-.08,2.134-1.157,2.834-3.47a1.376,1.376,0,0,1,1.635-1.019" transform="translate(22.048 16.512)" fill="#e7372f"/><path d="M38.289,18.571a1.336,1.336,0,0,1-1.338,1.318H35.635l.838,2.989a1.468,1.468,0,0,1-1.3,1.937H33.122a1.326,1.326,0,0,1,0-2.652h.4l-.638-2.274H26.917A1.33,1.33,0,0,1,25.6,18.571a1.315,1.315,0,0,1,1.316-1.316h5.227l-.6-2.194A1.318,1.318,0,1,1,34.1,14.4l.8,2.854h2.054a1.321,1.321,0,0,1,1.338,1.316m-11.95,6.544a1.288,1.288,0,0,1,1.5-1.376c.481.038,1.119.359,1.119,1.536,0,1.576,1.017,2.1,2.194,2.293.9.162,1.556.459,1.576,1.259.038.8-.5,1.376-1.5,1.354a4.723,4.723,0,0,1-4.886-5.066" transform="translate(31.128 16.296)" fill="#e7372f"/><path d="M34.062,16.152A1.313,1.313,0,0,1,35.339,14.8l10.472-.441a1.292,1.292,0,0,1,1.358,1.279,1.321,1.321,0,0,1-1.276,1.376l-1.338.058c-1.994,1.558-4.587,4.629-4.687,6.284-.06.977.758,1.895,3.151,2.094a1.282,1.282,0,0,1,1.3,1.219,1.529,1.529,0,0,1-1.4,1.476c-3.552,0-5.925-2.214-5.526-4.926.279-1.9,2.054-4.29,3.692-6.045l-5.666.257a1.315,1.315,0,0,1-1.356-1.276m12.327,2.5v1.1a.987.987,0,1,1-1.974,0v-1.1a.987.987,0,1,1,1.974,0m2.515,0v1.1a.988.988,0,1,1-1.977,0v-1.1a.988.988,0,1,1,1.977,0" transform="translate(41.415 17.456)" fill="#e7372f"/><path d="M44.3,20.9H47.45l.439-1.735a1.314,1.314,0,1,1,2.573.538l-.3,1.2H57.4a1.3,1.3,0,0,1,1.316,1.3,1.317,1.317,0,0,1-1.3,1.338H54.91v2.553a7.265,7.265,0,0,0,1.157-.06,1.328,1.328,0,0,1,1.5,1.1,1.346,1.346,0,0,1-1.139,1.536,16.823,16.823,0,0,1-1.915.14L51.62,31.471a1.579,1.579,0,0,1-2.094-.06,1.259,1.259,0,0,1,.117-1.817l.979-.818a18.371,18.371,0,0,1-3.552-.279,1.443,1.443,0,0,1-1.077-1.934l.877-3.031H44.3A1.3,1.3,0,0,1,43,22.213,1.324,1.324,0,0,1,44.3,20.9m8.061-6.761v.855h4.208A1.322,1.322,0,0,1,57.9,16.31l.02,1.7a1.348,1.348,0,0,1-2.695,0v-.359l-8.618-.02-.022.319a1.315,1.315,0,1,1-2.63,0s.02-1.6.02-1.635a1.3,1.3,0,0,1,1.314-1.318H49.5v-.855a1.406,1.406,0,0,1,1.418-1.318,1.437,1.437,0,0,1,1.436,1.318M48.846,26.1a31.149,31.149,0,0,0,3.273.137l.018-2.71H49.544Z" transform="translate(52.283 15.585)" fill="#e7372f"/><path d="M51.956,25.722l2.134-6.085a1.407,1.407,0,1,1,2.652.937L54.608,26.66a1.407,1.407,0,1,1-2.652-.937M58,26.919V17.284a1.4,1.4,0,0,1,1.4-1.418c.8,0,1.416.561,1.416,1.715v8.341a22.2,22.2,0,0,0,5.048-.08v-.877a1.421,1.421,0,0,1,1.416-1.416,1.392,1.392,0,0,1,1.4,1.416v2.074c0,.778-.359,1.356-1.456,1.575a30.724,30.724,0,0,1-7.7.06A1.764,1.764,0,0,1,58,26.919M61.71,16.885v-1.8a1.3,1.3,0,0,1,1.316-1.316,1.317,1.317,0,0,1,1.318,1.316v1.817a1.33,1.33,0,0,1-1.318,1.316,1.307,1.307,0,0,1-1.316-1.336m3.831,0-.022-1.8a1.327,1.327,0,0,1,2.655,0l-.02,1.817a1.306,1.306,0,1,1-2.613-.02" transform="translate(63.073 16.745)" fill="#e7372f"/><path d="M71.866,22.761a1.5,1.5,0,0,1,.937,1.977c-.818,2.692-2.373,5.048-5.506,5.088a4.58,4.58,0,0,1-4.946-5.17c.14-2.194.177-3.949.516-9.834a1.321,1.321,0,0,1,1.4-1.236A1.28,1.28,0,0,1,65.462,15c-.359,4.21-.638,7.84-.618,9.854a2.133,2.133,0,0,0,2.553,2.4c1.057-.08,2.134-1.157,2.834-3.47a1.376,1.376,0,0,1,1.635-1.019" transform="translate(75.799 16.512)" fill="#e7372f"/><path d="M77.145,14.513v1.3H78.72a1.315,1.315,0,0,1,1.316,1.318,1.329,1.329,0,0,1-1.316,1.316H77.145V19.5h1.5a1.326,1.326,0,0,1,0,2.652h-1.5v1.755c.6.062,1.236.14,1.934.242a1.294,1.294,0,0,1,1.1,1.5,1.327,1.327,0,0,1-1.516,1.1c-.558-.08-1.037-.142-1.516-.179v1.017c-.022,2.174-1.336,3.311-3.034,3.211a4.015,4.015,0,0,1-3.53-4.21,2.957,2.957,0,0,1,3.231-2.79h.68V22.154H71.6a1.326,1.326,0,0,1,0-2.652h2.894V18.444H71.58a1.33,1.33,0,0,1-1.318-1.316A1.316,1.316,0,0,1,71.58,15.81h2.912v-1.3a1.326,1.326,0,0,1,2.652,0m-2.652,11.93a3.486,3.486,0,0,0-.66-.06c-.516,0-.758.117-.758.439a1.225,1.225,0,0,0,1.1,1.336c.242-.02.321-.179.321-.6Z" transform="translate(85.431 16.043)" fill="#e7372f"/><path d="M77.745,17.476a1.328,1.328,0,0,1,1.318-1.316h5.664c-.018-.6,0-1.236,0-1.737a1.317,1.317,0,0,1,2.635-.038v1.775h2.832a1.327,1.327,0,0,1,0,2.655H87.362c0,1.037,0,2.052-.02,2.81a4.539,4.539,0,0,1,.279,2c-.122,2.274-.359,3.771-2.353,7.122a1.406,1.406,0,0,1-1.917.419,1.321,1.321,0,0,1-.3-1.835,22.469,22.469,0,0,0,1.336-2.435h-.04a3.646,3.646,0,0,1-3.49-3.532c-.2-2.271,1.017-3.627,2.991-3.769.2,0,.519-.018.878,0v-.776H79.063a1.335,1.335,0,0,1-1.318-1.338M84.667,22.2a.835.835,0,0,0-.638-.14.749.749,0,0,0-.678.778c0,.877.419,1.416.858,1.416.321-.02.481-.877.459-2.054" transform="translate(94.53 15.913)" fill="#e7372f"/></g></svg>