<svg xmlns="http://www.w3.org/2000/svg" xmlns:xlink="http://www.w3.org/1999/xlink" width="51.228" height="40.722" viewBox="0 0 51.228 40.722">
  <defs>
    <clipPath id="clip-path">
      <rect id="Rectangle_9247" data-name="Rectangle 9247" width="51.228" height="40.722" fill="none"/>
    </clipPath>
  </defs>
  <g id="Group_7158" data-name="Group 7158" transform="translate(0 0)">
    <g id="Group_7158-2" data-name="Group 7158" transform="translate(0 0)" clip-path="url(#clip-path)">
      <path id="Path_183680" data-name="Path 183680" d="M36.06,14.033,27.163.824a1.869,1.869,0,0,0-3.1,0l-8.9,13.209a1.869,1.869,0,0,1-2.37.635L2.266,9.521A1.573,1.573,0,0,0,.059,11.353L7.5,38.249a3.374,3.374,0,0,0,3.252,2.473H40.474a3.372,3.372,0,0,0,3.251-2.473l7.442-26.9a1.573,1.573,0,0,0-2.206-1.833L38.43,14.668a1.869,1.869,0,0,1-2.37-.635" transform="translate(0 0)" fill="#d48f70"/>
      <path id="Path_183681" data-name="Path 183681" d="M34.1,31.477a.484.484,0,0,1,.1.507l-1.985,5.532a.487.487,0,0,1-.464.324H23.8a.488.488,0,0,1-.465-.324L21.493,32.28a.5.5,0,0,1,.464-.662h4.969a.415.415,0,0,0,.31-.69l-1.943-2.181a.393.393,0,0,1,0-.536l1.943-2.181a.415.415,0,0,0-.31-.69H21.957a.5.5,0,0,1-.464-.662l1.844-5.236a.488.488,0,0,1,.465-.324h7.953a.487.487,0,0,1,.464.324L34.2,24.974a.484.484,0,0,1-.1.507l-2.449,2.661a.513.513,0,0,0,0,.675Z" transform="translate(-2.236 -1.992)" fill="#784a1f"/>
    </g>
  </g>
</svg>
