<svg id="Group_7159" data-name="Group 7159" xmlns="http://www.w3.org/2000/svg" xmlns:xlink="http://www.w3.org/1999/xlink" width="126.444" height="20" viewBox="0 0 126.444 20">
  <defs>
    <clipPath id="clip-path">
      <rect id="Rectangle_9248" data-name="Rectangle 9248" width="126.444" height="20" fill="none"/>
    </clipPath>
  </defs>
  <g id="Group_7159-2" data-name="Group 7159" clip-path="url(#clip-path)">
    <path id="Path_183682" data-name="Path 183682" d="M9.5,15.642a6.664,6.664,0,0,1-2.9,3.673,5.684,5.684,0,0,1-2.431.525A5.428,5.428,0,0,1,0,17.962,17.093,17.093,0,0,0,5.221,12.6Zm3.729-.773,2.927-3.315c3.453,1.243,4.724,3.177,4.724,4.89a3.806,3.806,0,0,1-2.072,3.315Z" transform="translate(0 -4.149)" fill="#e8382f"/>
    <path id="Path_183683" data-name="Path 183683" d="M54.764,19.381c-4.226.773-7.541.718-12.016.995l-.276-4.116c2.155.028,9.226.22,12.265.5Zm-11.74-9.7.194-4.365c.635-.082,3.729-.276,5.856-.276h.636a3.293,3.293,0,0,1,3.453,3.4,5.022,5.022,0,0,1-.083.883Z" transform="translate(-15.254 -1.812)" fill="#e8382f"/>
    <path id="Path_183684" data-name="Path 183684" d="M70.755,16.824,71,13.509c3.149-.249,12.845-.663,16.325-.663l.553,3.288Z" transform="translate(-25.412 -4.614)" fill="#e8382f"/>
    <path id="Path_183685" data-name="Path 183685" d="M118.836,11.492a21.383,21.383,0,0,1-.8,4.392,5.4,5.4,0,0,1-5.056,3.95,4.981,4.981,0,0,1-1.657-.276c1.3-1.658,1.989-4.89,2.4-7.984l-6.409.248L106.9,8.508c1.437,0,4.172.028,7.155.083l.194-2.182,4.7.387c.028.331.028.773.028,1.27V8.7c2.1.028,4.06.11,5.47.165l.055,2.21Zm.829-8.2a6.915,6.915,0,0,1-4.53,2.1,4.772,4.772,0,0,1-4.7-3.066A56.643,56.643,0,0,0,117.427,0Z" transform="translate(-38.395)" fill="#e8382f"/>
    <path id="Path_183686" data-name="Path 183686" d="M157.35,24.614c-4.282.58-7.984.552-12.486.773l-.332-3.288c1.216,0,3.812.056,6.464.111l.194-4.42c-2.21,0-5.607.028-5.607.028s-.056-1.216-.083-2.348c2.431-.221,9.558-.47,9.558-.47.083.967.138,1.989.138,2.928,0,1.8-.138,3.453-.221,4.421.884.028,1.712.083,2.347.11Z" transform="translate(-51.91 -5.388)" fill="#e8382f"/>
    <path id="Path_183687" data-name="Path 183687" d="M176.765,20.994c-.331-4.281-.552-7.735-.663-12.127,3.177-.3,13.315-.332,13.315-.332.166,1.8.276,3.564.276,5.359a45.162,45.162,0,0,1-.525,6.934Zm7.956-9.061c-1.353,0-3.84.083-5.3.138l.276,5.691c1.382.028,3.177.055,4.724.138Z" transform="translate(-63.249 -3.065)" fill="#e8382f"/>
  </g>
</svg>
