<svg xmlns="http://www.w3.org/2000/svg" xmlns:xlink="http://www.w3.org/1999/xlink" width="134.613" height="19.232" viewBox="0 0 134.613 19.232"><defs><clipPath id="a"><rect width="134.613" height="19.232" fill="#e7372f"/></clipPath></defs><g clip-path="url(#a)"><path d="M15.464,5.65a1.337,1.337,0,0,1-1.853.4C12.2,5.144,9.7,3.453,8.8,2.871a1.346,1.346,0,0,0-.687-.2H7.387a1.34,1.34,0,0,0-.7.2C5.8,3.473,3.46,5.026,2.07,5.932A1.329,1.329,0,1,1,.6,3.717L4.95.835A4.935,4.935,0,0,1,7.711.009h.081a4.993,4.993,0,0,1,2.716.806l4.556,3a1.336,1.336,0,0,1,.4,1.833M14.9,17.534a1.312,1.312,0,0,1-1.329,1.329h-.463a2.828,2.828,0,0,1-1.51-.745L7.991,14.976a1.34,1.34,0,0,1-.04-1.9c.04-.038.141-.078.181-.121-.9.02-1.671.02-2.739-.018V15.6l.322-.242a1.28,1.28,0,0,1,1.812.423,1.463,1.463,0,0,1-.481,1.933L4.869,19.064a1.577,1.577,0,0,1-1.087.1,1.337,1.337,0,0,1-1.047-1.289V7.12A1.346,1.346,0,0,1,4.023,5.809H7.51A1.337,1.337,0,0,1,6.42,4.5V4.238a1.34,1.34,0,1,1,2.681,0V4.5a1.357,1.357,0,0,1-1.09,1.309h3.061A1.341,1.341,0,0,1,12.383,7.14v4.249c0,.584-.385,1.108-1.329,1.331a9.577,9.577,0,0,1-1.452.139,2.458,2.458,0,0,1,.224.183L13.471,16.1h.1a1.376,1.376,0,0,1,1.329,1.43M5.393,8.449H9.725V7.825H5.393Zm4.332,2.457v-.624H5.393v.707a34.989,34.989,0,0,0,4.332-.083m2.135,1.815,1.047-.806a1.2,1.2,0,0,1,1.671.139,1.258,1.258,0,0,1-.181,1.734l-1.047.826a1.2,1.2,0,0,1-1.49-1.893" transform="translate(0 0.01)" fill="#e7372f"/><path d="M13.629,12.779a1.016,1.016,0,0,1-1.009-1.027V9.375l-1.027,2.5a1.328,1.328,0,0,1-2.457-1.007C9.6,9.738,10.2,8.228,10.244,8.147a5.7,5.7,0,0,0,.362-2.157V3.352a1.343,1.343,0,0,1,1.331-1.329h5.478V1.338a1.329,1.329,0,1,1,2.658,0v.685h1.19A1.241,1.241,0,0,1,22.51,3.271,1.254,1.254,0,0,1,21.264,4.52h-.989l.544,1.531a1.21,1.21,0,0,1,1.613.1,1.19,1.19,0,0,1-.04,1.694l-.685.644.5,1.329a1.117,1.117,0,0,1,1.39.644,1.275,1.275,0,0,1-.685,1.633l-.987.443a1.228,1.228,0,0,1-1.553-.707c-.119-.322-.564-1.571-.564-1.571a1.2,1.2,0,0,1-1.49-1.875l.606-.564-1.211-3.28H13.267v.826a1.074,1.074,0,0,1,.481-.123H16.59a1.036,1.036,0,0,1,1.027,1.049A1.007,1.007,0,0,1,16.57,7.3H13.748A1.013,1.013,0,0,1,13.2,7.14a5.721,5.721,0,0,1-.139.906,1.111,1.111,0,0,1,.582-.181h3.065A1.031,1.031,0,0,1,17.74,8.892v2.86a1.057,1.057,0,0,1-1.027,1.027,19.351,19.351,0,0,1-3.083,0M12.8,14.191a1.349,1.349,0,0,1,.345,1.853l-1.271,1.835a1.353,1.353,0,0,1-1.871.34,1.326,1.326,0,0,1-.324-1.853l1.269-1.833a1.33,1.33,0,0,1,1.853-.342m1.047,3.1V14.573a1.332,1.332,0,0,1,1.331-1.331,1.317,1.317,0,0,1,1.329,1.331v1.45a15.42,15.42,0,0,0,3.041-.04,1.229,1.229,0,0,1,1.311-1.228,1.36,1.36,0,0,1,1.349,1.329v1.108a1.358,1.358,0,0,1-1.249,1.41,31.686,31.686,0,0,1-5.782.04,1.334,1.334,0,0,1-1.331-1.349m.826-6.446c.3,0,.667,0,1.009-.02V9.939H14.674Zm5.281,2.741v.582a1.139,1.139,0,1,1-2.278,0v-.582a1.139,1.139,0,1,1,2.278,0m4.128.582a1.138,1.138,0,1,1-2.276,0v-.582a1.138,1.138,0,1,1,2.276,0ZM23.942,4.137a1.155,1.155,0,0,1-1.128-1.148V1.983a1.138,1.138,0,1,1,2.276,0V2.989a1.159,1.159,0,0,1-1.148,1.148" transform="translate(11.181 0.01)" fill="#e7372f"/><path d="M17.979,16.538a74.548,74.548,0,0,0,3.768-8.3l-1.692.141a1.3,1.3,0,0,1-1.412-1.208,1.33,1.33,0,0,1,1.251-1.41s1.551-.161,2.4-.2c.02-.586.02-1.513.02-2.258v-.02A1.337,1.337,0,0,1,23.6,1.933a1.369,1.369,0,0,1,1.39,1.331c0,.682-.02,1.49-.02,2.092.564-.038.544-.038,1.208-.058,2.278-.043,3.486,1.168,3.486,3.947a61.5,61.5,0,0,1-.524,8.4,1.3,1.3,0,0,1-1.472,1.228l-1.991-.181a1.406,1.406,0,0,1-1.208-1.49,1.347,1.347,0,0,1,1.47-1.168l.7.06a36.37,36.37,0,0,0,.506-6.809c-.02-.906-.324-1.41-1.108-1.369a9.089,9.089,0,0,0-1.47.121c-1.009,3.043-4.151,9.568-4.151,9.568a1.39,1.39,0,0,1-1.812.685,1.311,1.311,0,0,1-.627-1.752M33.349,5.7a1.3,1.3,0,0,1-.181,1.875,1.337,1.337,0,0,1-1.873-.181c-.662-.785-1.369-1.631-1.994-2.338a1.356,1.356,0,0,1,.121-1.891,1.314,1.314,0,0,1,1.873.119c.644.727,1.39,1.591,2.054,2.417M33.268.987V2.094a1.007,1.007,0,1,1-2.014,0V.987a1.007,1.007,0,0,1,2.014,0m2.54,0V2.094a1.007,1.007,0,0,1-2.014,0V.987a1.007,1.007,0,0,1,2.014,0" transform="translate(22.096 -0.001)" fill="#e7372f"/><path d="M31.058,6.748l-.582,5.5h1.108V8.278A1.229,1.229,0,0,1,32.813,7.07a1.216,1.216,0,0,1,1.228,1.208v3.846a1.24,1.24,0,0,1,1.208,1.07,1.391,1.391,0,0,1-1.269,1.591c-.141.02-.3.02-.463.04L32.148,17.3a1.231,1.231,0,1,1-2.177-1.148l.7-1.249c-.662,0-1.651-.04-2.153-.081a1.332,1.332,0,0,1-1.19-1.45A1.473,1.473,0,0,1,28,12.346l.584-5.6h-.463A1.221,1.221,0,0,1,26.91,5.417,1.357,1.357,0,0,1,28.259,4.09h.6l.2-2.238A1.253,1.253,0,0,1,30.4.7a1.236,1.236,0,0,1,1.125,1.329l-.2,2.056h2.719a1.339,1.339,0,1,1-.02,2.678ZM44.8,9.185a1.323,1.323,0,0,1-1.331,1.351H41.333v6.4A1.33,1.33,0,0,1,40,18.271h-1.71a1.34,1.34,0,0,1,0-2.681h.362V10.536H35.813a1.331,1.331,0,0,1,0-2.66h2.842V6.788a2.433,2.433,0,0,1,.3-1.19l1.49-2.4-3.023-.02a1.329,1.329,0,0,1,0-2.658h5.238a1.293,1.293,0,0,1,1.269,1.49A3.051,3.051,0,0,1,43.569,3c-.806,1.51-2.235,3.826-2.235,3.826V7.856l2.135.02A1.313,1.313,0,0,1,44.8,9.185" transform="translate(33.303 0.646)" fill="#e7372f"/><path d="M37.233,13.483a1.329,1.329,0,0,1,1.289-1.43c.908-.06,1.329.725,1.39,1.45a2.261,2.261,0,0,0,2.217,2.135c.7.1,1.651.383,1.551,1.513a1.444,1.444,0,0,1-1.694,1.208,4.916,4.916,0,0,1-4.753-4.876m.383-9.205a1.387,1.387,0,0,1,1.41-1.331h2.739l-.322-1A1.33,1.33,0,1,1,44,1.217l.544,1.73H46.9a1.33,1.33,0,0,1,0,2.66H45.331l.483,1.651H47.2a1.33,1.33,0,0,1,0,2.66H46.62s.564,1.833.624,2.235a1.281,1.281,0,0,1-1.289,1.492H43.839a1.342,1.342,0,0,1-1.327-1.331,1.317,1.317,0,0,1,1.327-1.349h.3l-.3-1.047H39.006a1.33,1.33,0,1,1,0-2.66h4.03L42.55,5.607h-3.6a1.341,1.341,0,0,1-1.329-1.329" transform="translate(46.078 0.295)" fill="#e7372f"/><path d="M45.1,3.352a1.326,1.326,0,0,1,1.289-1.367L56.968,1.54A1.3,1.3,0,0,1,58.34,2.831a1.334,1.334,0,0,1-1.289,1.39L55.7,4.279c-2.014,1.573-4.632,4.674-4.732,6.346-.06.987.765,1.913,3.182,2.115a1.3,1.3,0,0,1,1.309,1.231,1.544,1.544,0,0,1-1.41,1.49c-3.587,0-5.983-2.235-5.581-4.974.282-1.915,2.074-4.332,3.728-6.1l-5.721.26A1.327,1.327,0,0,1,45.1,3.352m12.448,2.52V6.98a1,1,0,1,1-1.994,0V5.872a1,1,0,1,1,1.994,0m2.54,0V6.98a1,1,0,1,1-2,0V5.872a1,1,0,1,1,2,0" transform="translate(55.819 1.905)" fill="#e7372f"/><path d="M53.949,4.7A1.341,1.341,0,0,1,55.28,3.373H61c-.018-.6,0-1.249,0-1.754a1.33,1.33,0,0,1,2.66-.038V3.373h2.86a1.34,1.34,0,0,1,0,2.681H63.66c0,1.047,0,2.072-.02,2.837a4.583,4.583,0,0,1,.282,2.016c-.123,2.3-.362,3.808-2.376,7.192a1.419,1.419,0,0,1-1.936.423,1.334,1.334,0,0,1-.3-1.853,22.688,22.688,0,0,0,1.349-2.459h-.04a3.68,3.68,0,0,1-3.524-3.567c-.2-2.294,1.027-3.663,3.021-3.806.2,0,.524-.018.886,0V6.053H55.28A1.348,1.348,0,0,1,53.949,4.7m6.99,4.775a.843.843,0,0,0-.644-.141.756.756,0,0,0-.685.785c0,.886.423,1.43.866,1.43.324-.02.486-.886.463-2.074" transform="translate(66.766 0.334)" fill="#e7372f"/></g></svg>