<svg xmlns="http://www.w3.org/2000/svg" width="887.21" height="409.052" viewBox="0 0 887.21 409.052">
  <path id="薄ベタ" d="M55.155,75.512c-13.733,56-42.808,170.276-54.781,223.923a15.36,15.36,0,0,0,13.557,18.639c174.3,16.532,572.595,46.127,755.286,60.622a20.965,20.965,0,0,0,22.023-15.908c20.646-84.2,76.194-307.9,82.591-336.81,3.089-13.956-4.334-25-18.6-25.942C833.006-1.439,256.42,43.075,73.908,59.406A21.232,21.232,0,0,0,55.155,75.512" transform="matrix(0.999, -0.035, 0.035, 0.999, 0, 30.52)" fill="#fffaea"/>
</svg>
