<svg xmlns="http://www.w3.org/2000/svg" width="334.671" height="59.441" viewBox="0 0 334.671 59.441"><g transform="matrix(0.995, -0.105, 0.105, 0.995, -0.587, 32.633)"><path d="M1697.459,56.6h-17.046a1.278,1.278,0,0,0-1.348,1.2V60a1.278,1.278,0,0,0,1.348,1.2h17.046a1.278,1.278,0,0,0,1.347-1.2V57.79a1.278,1.278,0,0,0-1.347-1.2" transform="translate(-1363.304 -45.952)" fill="#fffaea"/><path d="M790.341,24.887H765.552a1.2,1.2,0,0,0-1.2,1.2v2.209a1.2,1.2,0,0,0,1.2,1.2h20.28a7.993,7.993,0,0,1-4.607,2.458,1.194,1.194,0,0,0-1.319-.826l-2.2.332a1.193,1.193,0,0,0-1.016,1.209c.037,1.564-.17,5.091-2.02,7.228-1.381,1.6-3.52,2.493-6.369,2.676a1.2,1.2,0,0,0-1.126,1.192v2.213a1.2,1.2,0,0,0,1.263,1.195,13.443,13.443,0,0,0,9.739-4.3,12.318,12.318,0,0,0,2.889-6.225,13.214,13.214,0,0,0,8.318-4.263,9.01,9.01,0,0,0,2.116-5.121l.034-1.137a1.2,1.2,0,0,0-1.195-1.23" transform="translate(-620.614 -20.207)" fill="#fffaea"/><path d="M1618.965,5.247h1.4a1.2,1.2,0,0,0,1.2-1.2V1.924a1.2,1.2,0,0,0-1.2-1.2h-1.4a1.2,1.2,0,0,0-1.195,1.2V4.052a1.2,1.2,0,0,0,1.195,1.2" transform="translate(-1313.536 -0.592)" fill="#fffaea"/><path d="M1649.458.729h-1.4a1.2,1.2,0,0,0-1.2,1.2V4.052a1.2,1.2,0,0,0,1.2,1.2h1.4a1.2,1.2,0,0,0,1.2-1.2V1.924a1.2,1.2,0,0,0-1.2-1.2" transform="translate(-1337.156 -0.592)" fill="#fffaea"/><path d="M1277.56,18.183h-1.4a1.2,1.2,0,0,0-1.195,1.2v2.334a1.2,1.2,0,0,0,1.195,1.2h1.4a1.2,1.2,0,0,0,1.195-1.2V19.378a1.2,1.2,0,0,0-1.195-1.2" transform="translate(-1035.196 -14.764)" fill="#fffaea"/><path d="M1277.56,18.183h-1.4a1.2,1.2,0,0,0-1.195,1.2v2.334a1.2,1.2,0,0,0,1.195,1.2h1.4a1.2,1.2,0,0,0,1.195-1.2V19.378a1.2,1.2,0,0,0-1.195-1.2" transform="translate(-1040.666 -14.764)" fill="#fffaea"/><path d="M1277.56,18.183h-1.4a1.2,1.2,0,0,0-1.195,1.2v2.334a1.2,1.2,0,0,0,1.195,1.2h1.4a1.2,1.2,0,0,0,1.195-1.2V19.378a1.2,1.2,0,0,0-1.195-1.2" transform="translate(-1142.157 -14.764)" fill="#fffaea"/><path d="M1277.56,18.183h-1.4a1.2,1.2,0,0,0-1.195,1.2v2.334a1.2,1.2,0,0,0,1.195,1.2h1.4a1.2,1.2,0,0,0,1.195-1.2V19.378a1.2,1.2,0,0,0-1.195-1.2" transform="translate(-1147.603 -14.764)" fill="#fffaea"/><path d="M1345.063,25.435H1342.1V23.718a1.2,1.2,0,0,0-1.2-1.2h-2.209a1.2,1.2,0,0,0-1.195,1.2v1.716h-12.826V23.718a1.2,1.2,0,0,0-1.195-1.2h-2.209a1.2,1.2,0,0,0-1.2,1.2v1.716h-3.761a1.2,1.2,0,0,0-1.2,1.2v2.209a1.2,1.2,0,0,0,1.2,1.2h3.761v4.792a1.2,1.2,0,0,0,1.2,1.2h2.209a1.2,1.2,0,0,0,1.195-1.2V30.034H1337.5v2.14a6.445,6.445,0,0,1-1.847,4.928c-2.433,2.383-7.462,3.575-14.96,3.544a1.2,1.2,0,0,0-1.2,1.17l-.044,2.209a1.2,1.2,0,0,0,1.192,1.22h.312c8.721,0,14.593-1.594,17.924-4.858a11.039,11.039,0,0,0,3.227-8.213v-2.14h2.965a1.2,1.2,0,0,0,1.195-1.2V26.63a1.2,1.2,0,0,0-1.195-1.2" transform="translate(-1067.799 -18.287)" fill="#fffaea"/><path d="M1528.336,32.126h-19.479a1.2,1.2,0,0,0-.907.417l-.33.386c-.039.046-3.659,4.262-6.9,7.583a1.194,1.194,0,0,0,.009,1.675l1.559,1.567a1.2,1.2,0,0,0,1.7-.01c2.516-2.577,5.188-5.6,6.422-7.019h13.716a16.959,16.959,0,0,1-3.793,6.094l-7.587-3.825a1.2,1.2,0,0,0-1.6.529l-.995,1.973a1.2,1.2,0,0,0,.529,1.605l5.555,2.8a22.925,22.925,0,0,1-9.546,2.544,1.193,1.193,0,0,0-1.113,1.227l.066,2.21a1.2,1.2,0,0,0,1.277,1.157c10.241-.645,15.769-5.364,18.626-9.293a21.192,21.192,0,0,0,3.824-9.046l.15-1.237a1.2,1.2,0,0,0-1.186-1.339" transform="translate(-1218.224 -26.084)" fill="#fffaea"/><path d="M595.924,45.388h2.2a1.2,1.2,0,0,0,1.2-1.2V34.505h19.361a1.2,1.2,0,0,0,1.2-1.2v-2.2a1.2,1.2,0,0,0-1.2-1.2H599.316V24.69a1.2,1.2,0,0,0-1.2-1.2h-2.2a1.2,1.2,0,0,0-1.2,1.2v19.5a1.2,1.2,0,0,0,1.2,1.2" transform="translate(-482.886 -19.077)" fill="#fffaea"/><path d="M32.346,31.183a1.2,1.2,0,0,0-1.187-1.333H1.2a1.2,1.2,0,0,0-1.2,1.2v2.2a1.2,1.2,0,0,0,1.2,1.2H26.919C25.273,38.575,20.067,46.246,4.055,46.6A1.2,1.2,0,0,0,2.881,47.8V50a1.2,1.2,0,0,0,1.219,1.2c25.691-.554,28.082-18.6,28.1-18.783Z" transform="translate(0 -24.236)" fill="#fffaea"/><path d="M430.2,33.918l-2.183-.005a1.2,1.2,0,0,0-1.192,1.04c-.446,3.506-3.276,14.5-21.229,14.953a1.2,1.2,0,0,0-1.161,1.2V53.3a1.193,1.193,0,0,0,1.217,1.2c21.6-.515,25.15-14.726,25.73-19.223a1.2,1.2,0,0,0-1.182-1.352" transform="translate(-328.38 -27.535)" fill="#fffaea"/><path d="M234.018,61.981a1.2,1.2,0,0,0-1.191-1.295H205.008a1.2,1.2,0,0,0-1.2,1.2v2.2a1.2,1.2,0,0,0,1.2,1.2h23.118c-1.948,2.545-6.941,6.16-19.6,6.371a1.2,1.2,0,0,0-1.18,1.195v2.2a1.2,1.2,0,0,0,1.212,1.2c24.024-.4,25.32-12.536,25.364-13.06Z" transform="translate(-165.484 -49.274)" fill="#fffaea"/><path d="M173.69,0H172.3a1.2,1.2,0,0,0-1.2,1.2V3.311a1.2,1.2,0,0,0,1.2,1.2h1.392a1.2,1.2,0,0,0,1.2-1.2V1.2a1.2,1.2,0,0,0-1.2-1.2" transform="translate(-138.926)" fill="#fffaea"/><path d="M173.69,0H172.3a1.2,1.2,0,0,0-1.2,1.2V3.311a1.2,1.2,0,0,0,1.2,1.2h1.392a1.2,1.2,0,0,0,1.2-1.2V1.2a1.2,1.2,0,0,0-1.2-1.2" transform="translate(-144.382)" fill="#fffaea"/><rect width="22.507" height="4.587" rx="1" transform="translate(42.474 3.623)" fill="#fffaea"/><path d="M409.288,24.887a1.2,1.2,0,0,0-1.206,1.185l-.019,2.2a1.2,1.2,0,0,0,1.185,1.206l7.123.062a1.2,1.2,0,0,0,1.206-1.185l.019-2.2a1.2,1.2,0,0,0-1.185-1.206Z" transform="translate(-331.323 -20.207)" fill="#fffaea"/><path d="M964.991,33.918l-2.183-.005a1.2,1.2,0,0,0-1.192,1.04c-.445,3.506-3.275,14.5-21.23,14.953a1.2,1.2,0,0,0-1.161,1.2V53.3a1.193,1.193,0,0,0,1.217,1.2c21.6-.515,25.15-14.726,25.731-19.223a1.2,1.2,0,0,0-1.182-1.352" transform="translate(-762.597 -27.535)" fill="#fffaea"/><path d="M944.078,24.887a1.2,1.2,0,0,0-1.206,1.185l-.019,2.2a1.2,1.2,0,0,0,1.185,1.206l7.124.062a1.2,1.2,0,0,0,1.206-1.185l.019-2.2a1.2,1.2,0,0,0-1.185-1.206Z" transform="translate(-765.542 -20.207)" fill="#fffaea"/><path d="M1111.622,36.2l-2.506-.043a1.194,1.194,0,0,0-1.213,1.109,36.029,36.029,0,0,1-1.23,7.251c-1.2,4.111-2.961,6.414-5.24,6.88a1.206,1.206,0,0,0-.979,1.154l-.044,2.546a1.193,1.193,0,0,0,1.311,1.211c3.766-.4,7.428-2.719,9.675-10.513a41.009,41.009,0,0,0,1.4-8.325,1.194,1.194,0,0,0-1.172-1.27" transform="translate(-893.471 -29.357)" fill="#fffaea"/><path d="M1219.014,51.4c-2.279-.466-4.042-2.77-5.241-6.88a36.111,36.111,0,0,1-1.229-7.251,1.193,1.193,0,0,0-1.212-1.109l-2.506.043a1.194,1.194,0,0,0-1.172,1.27,40.945,40.945,0,0,0,1.4,8.325c2.246,7.794,5.909,10.111,9.674,10.513a1.193,1.193,0,0,0,1.312-1.211l-.044-2.546a1.207,1.207,0,0,0-.979-1.154" transform="translate(-980.543 -29.357)" fill="#fffaea"/></g></svg>