<svg xmlns="http://www.w3.org/2000/svg" width="49.146" height="9.898" viewBox="0 0 49.146 9.898">
  <g id="h_icon_delivery_txt" transform="translate(-0.276 -36.871)">
    <path id="ol" d="M-21.492-8.1c-.551,0-1.145-.032-1.415-.032-.324,0-.356.151-.356.551v.54c0,.4.032.54.335.54.475,0,.95-.022,1.436-.022h2.279c.475,0,.95.022,1.426.022.324,0,.335-.162.335-.562v-.454c0-.475-.032-.616-.356-.616-.27,0-.864.032-1.4.032Zm-1.382,2.732c-.475,0-1.112-.032-1.426-.032-.248,0-.324.054-.324.454v.724c0,.324.076.475.335.475.443,0,.961-.032,1.415-.032h1.836a.238.238,0,0,1,.248.248,2.654,2.654,0,0,1-.076.356,3.093,3.093,0,0,1-2.56,2.2c-.184.054-.335.1-.335.205,0,.216.864,1.285,1.177,1.285a5.832,5.832,0,0,0,1.674-.81,4.555,4.555,0,0,0,1.836-3.067c.032-.173.076-.421.356-.421h1.156c.5,0,.994.022,1.49.022.27,0,.346-.108.346-.572v-.5c0-.432-.032-.562-.324-.562-.151,0-.292.011-.443.022Zm6.286-2.614c-.13,0-.7.367-.7.529a.221.221,0,0,0,.086.14,11.608,11.608,0,0,1,.788.907c.065.086.119.13.14.13.1,0,.659-.367.659-.583A4.15,4.15,0,0,0-16.589-7.981Zm.886-1.048c-.1,0-.67.378-.67.54a.226.226,0,0,0,.076.14,9.291,9.291,0,0,1,.81.918c.032.043.086.108.14.108.13,0,.648-.4.648-.594A3.707,3.707,0,0,0-15.7-9.029Zm4.957,1.771c0-.562.173-.454.173-.6,0-.076-.13-.1-.367-.119-.054-.011-.108-.011-.173-.022-.216-.022-1.123-.13-1.264-.13-.076,0-.1.022-.1.108s.011.216.011.313c.011.356.011.724.011,1.08v2.279c0,.464-.032.94-.032,1.3,0,.248.086.324.5.324h.67c.562,0,.583-.086.583-.508,0-.378-.011-.756-.011-1.145Zm4.093-.086a1.379,1.379,0,0,1,.086-.6c.054-.054.1-.1.1-.151,0-.1-.13-.108-.205-.119-.335-.054-1.3-.162-1.6-.162-.076,0-.108.032-.108.108a1.611,1.611,0,0,0,.022.227,6.772,6.772,0,0,1,.032.81v2.214a15.241,15.241,0,0,1-.14,2.214A2.962,2.962,0,0,1-10.26-.616c-.086.043-.3.14-.3.238,0,.194.432.508.583.616s.54.432.7.432A4.939,4.939,0,0,0-8.046-.14,3.839,3.839,0,0,0-6.761-2.7a19.786,19.786,0,0,0,.108-2.527Zm5.087.616c-.1,0-.14.108-.184.227A12.726,12.726,0,0,1-4.558-2.484a.282.282,0,0,0-.1.184c0,.281,1.156.961,1.339.961.216,0,.821-.734.983-.929A19.056,19.056,0,0,0-.259-5.411a.589.589,0,0,1,.281-.3.128.128,0,0,0,.086-.108.113.113,0,0,0-.054-.1A6.293,6.293,0,0,0-.7-6.35,4.211,4.211,0,0,0-1.566-6.728Zm3.91.259a1.541,1.541,0,0,0-.626.335c-.151.1-.551.367-.551.54a.411.411,0,0,0,.119.248A16.4,16.4,0,0,1,3.337-1.825c.043.119.1.259.248.259a2.528,2.528,0,0,0,.788-.3c.184-.1.691-.356.691-.583A12.017,12.017,0,0,0,3.64-5.065a11.476,11.476,0,0,0-1.015-1.3A.432.432,0,0,0,2.344-6.469Zm2.4-1.739c-.108,0-.659.4-.659.562a.178.178,0,0,0,.086.13c.292.281.572.583.832.886.043.054.1.119.151.119.119,0,.626-.421.626-.616A3.969,3.969,0,0,0,4.741-8.208Zm-1.134.9c-.1,0-.659.4-.659.551a.19.19,0,0,0,.1.14q.437.437.842.907c.032.043.065.1.119.1.13,0,.637-.421.637-.616A3.816,3.816,0,0,0,3.607-7.312Zm5.735.054c0-.562.173-.454.173-.6,0-.076-.13-.1-.367-.119C9.094-7.992,9.04-7.992,8.975-8c-.216-.022-1.123-.13-1.264-.13-.076,0-.1.022-.1.108s.011.216.011.313c.011.356.011.724.011,1.08v2.279c0,.464-.032.94-.032,1.3,0,.248.086.324.5.324h.67c.562,0,.583-.086.583-.508,0-.378-.011-.756-.011-1.145Zm4.093-.086a1.379,1.379,0,0,1,.086-.6c.054-.054.1-.1.1-.151,0-.1-.13-.108-.205-.119-.335-.054-1.3-.162-1.6-.162-.076,0-.108.032-.108.108a1.611,1.611,0,0,0,.022.227,6.772,6.772,0,0,1,.032.81v2.214a15.241,15.241,0,0,1-.14,2.214A2.962,2.962,0,0,1,9.828-.616c-.086.043-.3.14-.3.238,0,.194.432.508.583.616s.54.432.7.432a4.939,4.939,0,0,0,1.231-.81A3.839,3.839,0,0,0,13.327-2.7a19.786,19.786,0,0,0,.108-2.527ZM17.6-5.108c-.68,0-1.285-.043-1.436-.043-.281,0-.313.13-.313.454v.5c0,.572,0,.778.367.778.4,0,.907-.032,1.382-.032h4.968c.475,0,.972.032,1.393.032.346,0,.356-.184.356-.778V-4.72c0-.313-.043-.432-.324-.432-.1,0-.788.043-1.426.043Z" transform="translate(25 46)" fill="#222" stroke="#222" stroke-linecap="round" stroke-width="0.2"/>
  </g>
</svg>
