<svg xmlns="http://www.w3.org/2000/svg" width="29.537" height="22.734" viewBox="0 0 29.537 22.734">
  <g id="h_icon_app_txt" transform="translate(-29.544 -36.049)">
    <g id="ol">
      <path id="パス_112130" data-name="パス 112130" d="M-5.292-4.431c.032-.052.053-.084.179-.115.074-.021.168-.042.168-.136,0-.147-.168-.21-.273-.252-.231-.084-.851-.346-1.061-.462A.872.872,0,0,0-6.5-5.46c-.115,0-.158.137-.21.3A38.506,38.506,0,0,1-8.2-1.271c-.126.263-.368.273-.714.294-.063,0-.126.01-.2.01-.116.011-.21.011-.294.011-.357.011-.462.021-.462.179a10.605,10.605,0,0,0,.3,1.239c.052.179.084.347.2.347s.157-.095.21-.168.073-.116.178-.126C-7.539.368-6.09.221-4.652.011c.126-.021.945-.137,1.008-.137A.307.307,0,0,1-3.35.032c.074.137.137.252.179.347.147.294.2.357.326.357.378,0,1.208-.472,1.208-.725a12.482,12.482,0,0,0-1-1.754c-.294-.451-.683-1.019-1-1.407a.309.309,0,0,0-.252-.137c-.283,0-1.1.473-1.1.735a.766.766,0,0,0,.21.368c.01.021.042.053.063.084a2.047,2.047,0,0,1,.346.546c0,.147-.157.178-.273.189-.263.032-1.607.179-1.743.179-.105,0-.22-.042-.22-.158A.924.924,0,0,1-6.5-1.628C-6.09-2.562-5.7-3.5-5.292-4.431ZM-6.783-8.054a5.018,5.018,0,0,0-.934-.4c-.084,0-.095.031-.136.147a11.363,11.363,0,0,1-.493,1.186A8.523,8.523,0,0,1-10.175-4.6c-.084.074-.326.263-.326.378,0,.283.767.872,1.04.872.168,0,.368-.189.483-.3A13.548,13.548,0,0,0-6.7-7.329c.063-.147.105-.147.241-.168.095-.01.179-.063.179-.168,0-.158-.147-.21-.263-.273C-6.584-7.959-6.678-8-6.783-8.054Zm1.69-.378c-.294,0-.493-.031-.661-.031-.231,0-.252.136-.252.472V-7.4c0,.326.021.431.252.431.147,0,.357-.032.661-.032h.21c.21,0,.273.052.389.347A9.332,9.332,0,0,0-3.108-4.294a6.034,6.034,0,0,0,.7.745.472.472,0,0,0,.389.179c.441,0,1.061-.525,1.061-.766,0-.116-.116-.21-.189-.273A7.846,7.846,0,0,1-3.476-7.959c-.095-.3-.2-.494-.588-.494-.21,0-.42.021-.62.021ZM2.887-4.7c-.4,0-.766-.021-1.1-.021-.22,0-.241.126-.241.389v.63c0,.325.021.409.252.409.294,0,.577-.021.872-.021.178,0,.336.084.336.294V-1.8c0,.462-.2.5-1.124.567-.462.031-.661.053-.661.252,0,.084.252.935.3,1.1C1.6.347,1.648.5,1.8.5c.095,0,.137-.063.158-.147.042-.158.094-.168.315-.2a33.429,33.429,0,0,0,3.7-.767c.263-.074.357-.105.357-.389,0-.178-.032-.493-.052-.672-.011-.105-.032-.283-.168-.283-.052,0-.462.095-.546.115-.105.021-.767.168-.83.168-.168,0-.231-.126-.231-.273V-3.035a.293.293,0,0,1,.325-.283c.263,0,.536.021.8.021.221,0,.241-.1.241-.409v-.609c0-.326-.021-.41-.241-.41-.315,0-.7.021-1.1.021Zm2.74-.872c.441,0,.472.241.525.64a16.2,16.2,0,0,0,.588,2.657c.3.966,1.008,2.993,2.237,2.993.777,0,1.144-.7,1.344-1.355a4.412,4.412,0,0,0,.189-1.113c0-.273-.094-.41-.42-.557A1.445,1.445,0,0,0,9.5-2.436c-.231,0-.252.042-.273.315-.01.189-.084,1.081-.315,1.081-.189,0-.515-.893-.578-1.071a14.935,14.935,0,0,1-.7-2.856c-.01-.095-.052-.326-.052-.41,0-.189.189-.2.357-.2h.851c.462,0,.924.031,1.376.031.262,0,.283-.115.283-.441v-.577c0-.284-.021-.452-.241-.452-.105,0-.336.01-.378.01-.063,0-.115-.031-.115-.095s.063-.105.126-.157a.266.266,0,0,0,.1-.178,2.863,2.863,0,0,0-.409-.62c-.105-.137-.41-.546-.525-.682a.285.285,0,0,0-.21-.116c-.2,0-1,.483-1,.693A.3.3,0,0,0,7.9-7.98a6.278,6.278,0,0,1,.609.861c0,.084-.105.126-.179.126H7.8c-.147,0-.284-.021-.346-.179-.021-.042-.042-.756-.042-.84,0-.189.032-.231.147-.315a.214.214,0,0,0,.084-.136c0-.168-.262-.189-.389-.189C7.193-8.663,6.216-8.7,6.195-8.7c-.179,0-.336.031-.336.241,0,.073.053.924.053,1.113,0,.346-.231.357-.4.357H2.782c-.462,0-.913-.021-1.375-.021-.252,0-.273.126-.273.441v.6c0,.315.021.431.273.431.462,0,.924-.031,1.375-.031Z" transform="translate(45 45)" fill="#222" stroke="#222" stroke-linecap="round" stroke-width="0.2"/>
      <path id="パス_112129" data-name="パス 112129" d="M-10.34-4.037c.033-.132.066-.2.2-.2a.186.186,0,0,1,.11.033c.187.154.671.561.847.561.132,0,.341-.187.539-.385l.1-.1c.671-.638,1.32-1.3,1.947-1.991a2.112,2.112,0,0,1,.154-.165c.11-.088.231-.187.231-.308,0-.264-.429-.682-.616-.869-.143-.143-.275-.286-.473-.286a1.084,1.084,0,0,0-.187.022A6.1,6.1,0,0,1-8.5-7.656h-4.84c-.572,0-1.133-.022-1.694-.022-.275,0-.319.143-.319.385v.561c0,.616.011.737.352.737.154,0,.308-.011.462-.011.4-.011.792-.011,1.2-.011h4.059c.121,0,.176.055.176.121,0,.143-.693.748-.781.825a.1.1,0,0,1-.077.033.09.09,0,0,1-.1-.088.083.083,0,0,1,.022-.044c.011-.033.044-.066.044-.1,0-.055-.033-.1-.22-.121-.253-.033-1.331-.077-1.65-.077-.1,0-.11.033-.11.121,0,.022.011.033.011.055a6.2,6.2,0,0,1-.044.8A4.888,4.888,0,0,1-14.4-1.012c-.231.132-.319.187-.319.253,0,.242,1.122,1.122,1.364,1.122s.924-.638,1.111-.814A6.96,6.96,0,0,0-10.34-4.037ZM4.587-9.416A1.143,1.143,0,0,0,3.443-8.272,1.146,1.146,0,0,0,4.587-7.117,1.146,1.146,0,0,0,5.731-8.272,1.15,1.15,0,0,0,4.587-9.416Zm0,.561a.587.587,0,0,1,.583.583.58.58,0,0,1-.583.583A.573.573,0,0,1,4-8.272.587.587,0,0,1,4.587-8.855ZM-1.826-7.612c-.5,0-1-.022-1.5-.022-.319,0-.374.066-.374.528v.715c0,.429.055.473.429.473.473,0,.935-.011,1.408-.011h3.5c.176,0,.374.022.374.22A4.671,4.671,0,0,1,.825-3.2,7.026,7.026,0,0,1-2.354-1.364c-.1.022-.209.055-.209.176A2.74,2.74,0,0,0-2.2-.363c.11.187.308.539.55.539A6.673,6.673,0,0,0,.011-.517,7.008,7.008,0,0,0,3.8-5.511c.044-.187.077-.341.121-.528a3.051,3.051,0,0,0,.1-.363c0-.165-.308-.484-.484-.671l-.088-.088c-.165-.176-.44-.473-.682-.473-.22,0-.7.022-1.045.022Zm11.451.22c0-.572.176-.462.176-.616,0-.077-.132-.1-.374-.121-.055-.011-.11-.011-.176-.022-.22-.022-1.144-.132-1.287-.132-.077,0-.1.022-.1.11s.011.22.011.319c.011.363.011.737.011,1.1v2.321c0,.473-.033.957-.033,1.32,0,.253.088.33.506.33h.682c.572,0,.594-.088.594-.517,0-.385-.011-.77-.011-1.166Zm4.169-.088a1.4,1.4,0,0,1,.088-.616c.055-.055.1-.1.1-.154,0-.1-.132-.11-.209-.121-.341-.055-1.32-.165-1.628-.165-.077,0-.11.033-.11.11a1.641,1.641,0,0,0,.022.231,6.9,6.9,0,0,1,.033.825v2.255a15.523,15.523,0,0,1-.143,2.255A3.016,3.016,0,0,1,10.12-.627c-.088.044-.308.143-.308.242,0,.2.44.517.594.627s.55.44.715.44a5.031,5.031,0,0,0,1.254-.825A3.91,3.91,0,0,0,13.684-2.75a20.153,20.153,0,0,0,.11-2.574Z" transform="translate(45 58)" fill="#222" stroke="#222" stroke-linecap="round" stroke-width="0.2"/>
    </g>
  </g>
</svg>
