<svg xmlns="http://www.w3.org/2000/svg" width="63.588" height="23.383" viewBox="0 0 63.588 23.383">
  <g id="h_icon_order_txt" transform="translate(0)">
    <g id="グループ_14735" data-name="グループ 14735" transform="translate(15.77 0)">
      <path id="パス_112078" data-name="パス 112078" d="M36.784,3.837h1.334a.139.139,0,0,1,.139.139V9.947a.139.139,0,0,1-.139.139H36.784a.139.139,0,0,1-.139-.139V3.976a.139.139,0,0,1,.139-.139" transform="translate(-26.762 -1.194)" fill="#222"/>
      <path id="パス_112079" data-name="パス 112079" d="M28.577,3.956a2.308,2.308,0,0,0-1.414.61,2.388,2.388,0,0,0-1.6-.62H25.5a2.686,2.686,0,0,0-.854.138.317.317,0,0,0-.319-.316h-.977a.317.317,0,0,0-.319.315h0v5.7a.284.284,0,0,0,.286.282h1.043a.284.284,0,0,0,.284-.282V6.324a.78.78,0,0,1,.783-.776c.023,0,.046,0,.07,0h.069a.774.774,0,0,1,.777.771h0l.011,3.422a.317.317,0,0,0,.317.318h.976a.318.318,0,0,0,.319-.317h0V6.324a.778.778,0,0,1,.781-.774.8.8,0,0,1,.195.026.8.8,0,0,1,.578.782V9.781a.316.316,0,0,0,.317.315h.979a.315.315,0,0,0,.317-.313V6.328a2.387,2.387,0,0,0-2.4-2.378c-.052,0-.1,0-.155.006" transform="translate(-23.026 -1.173)" fill="#222"/>
      <path id="パス_112080" data-name="パス 112080" d="M63.4,4.065a3.042,3.042,0,1,0,3.059,3.042A3.041,3.041,0,0,0,63.4,4.065m0,4.39a1.349,1.349,0,1,1,1.359-1.349A1.349,1.349,0,0,1,63.4,8.455Z" transform="translate(-33.901 -1.265)" fill="#222"/>
      <path id="パス_112081" data-name="パス 112081" d="M37.342,0A1.056,1.056,0,1,0,38.4,1.056,1.055,1.055,0,0,0,37.342,0" transform="translate(-26.651 0)" fill="#222"/>
      <path id="パス_112082" data-name="パス 112082" d="M55.515,7.3V.377a.33.33,0,0,0-.33-.328h-.953a.329.329,0,0,0-.33.328V3.132a2.836,2.836,0,0,0-1.239-.257c-1.889,0-2.628,1.363-2.628,3.046s.739,3.046,2.628,3.046a2.659,2.659,0,0,0,1.5-.407,1.026,1.026,0,0,0,.771.349h.58a.365.365,0,0,0,.365-.362V7.669a.364.364,0,0,0-.363-.366Zm-2.853.082c-.413,0-1.041,0-1.041-1.467s.626-1.467,1.041-1.467,1.041,0,1.041,1.467-.627,1.467-1.042,1.467Z" transform="translate(-30.678 -0.015)" fill="#222"/>
      <path id="パス_112083" data-name="パス 112083" d="M43.65,6.416c-.344-.054-1.071-.116-1.071-.409a.249.249,0,0,1,.069-.2.887.887,0,0,1,.651-.2.876.876,0,0,1,.753.307.269.269,0,0,0,.231.118h1.009a.286.286,0,0,0,.282-.29.358.358,0,0,0-.006-.054A2.2,2.2,0,0,0,43.3,4.1a2.336,2.336,0,0,0-1.79.715,1.785,1.785,0,0,0-.434,1.387c.143,1.233,1.35,1.427,2.228,1.632a5.573,5.573,0,0,1,.927.276.209.209,0,0,1,.1.3c-.16.242-.635.285-.941.285-.246,0-.868-.1-1.019-.389a.285.285,0,0,0-.257-.138h-.982a.288.288,0,0,0-.286.289.293.293,0,0,0,.006.055,2.4,2.4,0,0,0,2.54,1.691c1.527,0,2.513-.778,2.513-1.982,0-1.329-1.327-1.657-2.246-1.8" transform="translate(-27.812 -1.275)" fill="#222"/>
    </g>
    <g id="グループ_14736" data-name="グループ 14736" transform="translate(0 12.7)">
      <path id="パス_112084" data-name="パス 112084" d="M5.969,24.685a15.04,15.04,0,0,0,1.268-1.209.868.868,0,0,0,.023-1.13.928.928,0,0,0-.728-.322H.755a.327.327,0,0,0-.329.324v1.1a.327.327,0,0,0,.329.324H4.242a.027.027,0,0,1,.018.048A15.74,15.74,0,0,1,.168,26.18a.256.256,0,0,0-.152.327l.424,1.16a.263.263,0,0,0,.337.154A16.168,16.168,0,0,0,3.291,26.6v2.147a.26.26,0,0,0,.26.257h1.32a.26.26,0,0,0,.26-.257V26.228c.615.391,1.5.965,2.123,1.392a.259.259,0,0,0,.358-.064l.723-1a.254.254,0,0,0-.057-.355l0,0c-.695-.477-1.68-1.112-2.305-1.509" transform="translate(0 -18.525)" fill="#222"/>
      <path id="パス_112085" data-name="パス 112085" d="M5.7,20.509a.259.259,0,0,0,.345-.089l.543-.875a.254.254,0,0,0-.083-.351L6.5,19.189c-.578-.327-1.293-.656-1.659-.823a.26.26,0,0,0-.344.13v0l-.414.939a.253.253,0,0,0,.129.336c.341.155.988.454,1.494.738" transform="translate(-1.261 -17.37)" fill="#222"/>
      <path id="パス_112086" data-name="パス 112086" d="M18.658,25.4l.8-.268a.331.331,0,0,0,.208-.421v0c-.233-.654-.49-1.3-.64-1.669a.335.335,0,0,0-.434-.185l0,0-.785.321a.33.33,0,0,0-.183.43c.143.355.39.974.61,1.591a.337.337,0,0,0,.426.2" transform="translate(-5.465 -18.777)" fill="#222"/>
      <path id="パス_112087" data-name="パス 112087" d="M15.165,23.233l-.785.322a.328.328,0,0,0-.183.428c.145.355.391.974.61,1.59a.335.335,0,0,0,.424.206l.8-.268a.332.332,0,0,0,.208-.422h0c-.234-.654-.492-1.3-.641-1.669a.335.335,0,0,0-.435-.185" transform="translate(-4.402 -18.897)" fill="#222"/>
      <path id="パス_112088" data-name="パス 112088" d="M22.65,22.664H21.584a.334.334,0,0,0-.336.331v.373a4.135,4.135,0,0,1-3.1,4.166.329.329,0,0,0-.23.395l.252,1.025a.338.338,0,0,0,.41.244l.014,0a5.873,5.873,0,0,0,4.393-5.824V23a.333.333,0,0,0-.336-.331" transform="translate(-5.562 -18.726)" fill="#222"/>
      <path id="パス_112089" data-name="パス 112089" d="M30.675,21.869V18.906a.307.307,0,0,0-.306-.307H29.176a.309.309,0,0,0-.311.305v8.722a.309.309,0,0,0,.311.307h1.189a.309.309,0,0,0,.309-.307V23.961a26.591,26.591,0,0,1,2.795,1.372.31.31,0,0,0,.418-.094l.727-1.1a.3.3,0,0,0-.086-.423l-.011-.007a32.592,32.592,0,0,0-3.841-1.842" transform="translate(-8.965 -17.45)" fill="#222"/>
      <path id="パス_112090" data-name="パス 112090" d="M48.684,20.326h-2.01V18.935a.31.31,0,0,0-.311-.309H45.179a.31.31,0,0,0-.311.309v1.391H40.605a.31.31,0,0,0-.311.309v1.171a.309.309,0,0,0,.31.309h3.422A13.723,13.723,0,0,1,40.446,25.2a.307.307,0,0,0-.123.412l.525.972a.312.312,0,0,0,.422.126l0,0a14.842,14.842,0,0,0,3.594-2.935v2.417h-.441a.309.309,0,0,0-.311.307h0v1.173a.31.31,0,0,0,.311.309h.627a1.613,1.613,0,0,0,1.622-1.6V22.116h2.01A.309.309,0,0,0,49,21.808h0V20.636a.31.31,0,0,0-.311-.309Z" transform="translate(-12.513 -17.459)" fill="#222"/>
      <path id="パス_112091" data-name="パス 112091" d="M55.672,23.775h6.556a.192.192,0,0,1,.193.192v1.4a.193.193,0,0,1-.194.193H55.672a.193.193,0,0,1-.194-.193v-1.4a.193.193,0,0,1,.194-.193" transform="translate(-17.231 -19.075)" fill="#222"/>
      <path id="パス_112092" data-name="パス 112092" d="M82.357,23.775h6.556a.193.193,0,0,1,.194.193v1.4a.193.193,0,0,1-.194.193H82.358a.193.193,0,0,1-.194-.193v-1.4a.192.192,0,0,1,.193-.192" transform="translate(-25.519 -19.075)" fill="#222"/>
      <path id="パス_112093" data-name="パス 112093" d="M83.386,18.21c-.3-.428-.669-.892-.9-1.17A.315.315,0,0,0,82.05,17l0,0-.629.523a.3.3,0,0,0-.043.429c.207.254.539.67.8,1.039a.314.314,0,0,0,.421.086l.7-.43a.307.307,0,0,0,.1-.423l-.008-.012" transform="translate(-25.253 -16.926)" fill="#222"/>
      <path id="パス_112094" data-name="パス 112094" d="M80.3,18.571a.314.314,0,0,0-.44-.043l0,0-.631.522a.306.306,0,0,0-.043.43c.207.252.54.67.8,1.039a.315.315,0,0,0,.422.086l.7-.43a.305.305,0,0,0,.1-.421l-.01-.014c-.3-.427-.669-.9-.9-1.171" transform="translate(-24.571 -17.406)" fill="#222"/>
      <path id="パス_112095" data-name="パス 112095" d="M75,19.83H72.522a6.226,6.226,0,0,0,.193-.739.333.333,0,0,0-.268-.388.356.356,0,0,0-.061-.005H71.312a.33.33,0,0,0-.325.252,7.683,7.683,0,0,1-2.286,3.74.332.332,0,0,0-.143.4l.385.991a.336.336,0,0,0,.434.191l.034-.015a4.483,4.483,0,0,0,1.2-.98c.494.4,1.265,1.054,1.872,1.666a6.422,6.422,0,0,1-2.5,1.573.331.331,0,0,0-.212.412l.322,1a.334.334,0,0,0,.418.216l.008,0a7.737,7.737,0,0,0,5.354-7.523A.858.858,0,0,0,75,19.83m-1.6,3.859c-.658-.64-1.417-1.275-1.886-1.656.1-.162.19-.327.276-.491h2.3a6.292,6.292,0,0,1-.689,2.147" transform="translate(-21.287 -17.481)" fill="#222"/>
    </g>
  </g>
</svg>
