<svg xmlns="http://www.w3.org/2000/svg" width="30" height="30" viewBox="0 0 30 30">
  <g id="h_icon_app" transform="translate(-20.08)">
    <circle id="楕円形_513" data-name="楕円形 513" cx="15" cy="15" r="15" transform="translate(20.08)" fill="#e7372f"/>
    <g id="グループ_14748" data-name="グループ 14748" transform="translate(28.83 5)">
      <path id="パス_112120" data-name="パス 112120" d="M1.75,0h9A1.75,1.75,0,0,1,12.5,1.75v16.5A1.75,1.75,0,0,1,10.75,20h-9A1.75,1.75,0,0,1,0,18.25V1.75A1.75,1.75,0,0,1,1.75,0" transform="translate(0 0)" fill="#fff"/>
      <line id="線_35" data-name="線 35" x2="3.247" transform="translate(4.705 2)" fill="none" stroke="#e7372f" stroke-linecap="round" stroke-miterlimit="10" stroke-width="1"/>
      <path id="パス_112121" data-name="パス 112121" d="M15.035,22.747a1.157,1.157,0,0,0-.334-.591.174.174,0,0,1-.007-.245L14.7,21.9a1.154,1.154,0,0,0-.839-1.992.173.173,0,0,1-.178-.168h0v-.008a1.155,1.155,0,0,0-2-.816.174.174,0,0,1-.244.006l-.006-.006a1.155,1.155,0,0,0-1.991.836.17.17,0,0,1-.05.126.173.173,0,0,1-.127.05,1.154,1.154,0,0,0-.817,2,.174.174,0,0,1,.006.245l-.006.006a1.155,1.155,0,0,0,.837,1.991.168.168,0,0,1,.127.05.174.174,0,0,1,.05.126,1.154,1.154,0,0,0,2,.817.173.173,0,0,1,.245-.006h0l.007.006a1.154,1.154,0,0,0,1.989-.84.172.172,0,0,1,.05-.127.175.175,0,0,1,.127-.05,1.154,1.154,0,0,0,1.182-1.126h0a1.123,1.123,0,0,0-.027-.282m-2.163.433a.152.152,0,0,1-.161.162,1.264,1.264,0,0,0-1.017.428.155.155,0,0,1-.228,0,1.264,1.264,0,0,0-.938-.42h-.084a.152.152,0,0,1-.162-.16,1.263,1.263,0,0,0-.427-1.017.148.148,0,0,1-.05-.113.15.15,0,0,1,.05-.116,1.265,1.265,0,0,0,.416-1.022.151.151,0,0,1,.044-.117.153.153,0,0,1,.118-.045,1.262,1.262,0,0,0,1.019-.428.15.15,0,0,1,.113-.05.153.153,0,0,1,.114.05,1.265,1.265,0,0,0,1.024.418.153.153,0,0,1,.162.143.146.146,0,0,1,0,.018,1.268,1.268,0,0,0,.424,1.019.148.148,0,0,1,.05.113.15.15,0,0,1-.05.114,1.264,1.264,0,0,0-.417,1.024" transform="translate(-5.246 -12.254)" fill="#f4a91f"/>
      <path id="パス_112122" data-name="パス 112122" d="M17.263,48.072a.895.895,0,1,1-.895-.895h0a.9.9,0,0,1,.895.895" transform="translate(-10.041 -30.613)" fill="#e7372f"/>
    </g>
  </g>
</svg>
